<?xml version="1.0" encoding="UTF-8" standalone="no"?><svg width="20" height="20" viewBox="0 0 20 20" fill="none" xmlns="http://www.w3.org/2000/svg">
<path d="M6.2896 18.1256C13.8368 18.1256 17.9648 11.8728 17.9648 6.45037C17.9648 6.27277 17.9648 6.09597 17.9528 5.91997C18.7559 5.3391 19.4491 4.61987 20 3.79597C19.2512 4.12797 18.4567 4.3456 17.6432 4.44157C18.4998 3.92881 19.141 3.12222 19.4472 2.17197C18.6417 2.64998 17.7605 2.98683 16.8416 3.16797C16.2229 2.51012 15.4047 2.0745 14.5135 1.92854C13.6223 1.78258 12.7078 1.9344 11.9116 2.36051C11.1154 2.78663 10.4819 3.46328 10.109 4.28576C9.73605 5.10824 9.64462 6.03069 9.8488 6.91037C8.21741 6.82854 6.62146 6.40456 5.16455 5.66597C3.70763 4.92739 2.4223 3.89069 1.392 2.62317C0.867274 3.5265 0.70656 4.59586 0.942583 5.61352C1.17861 6.63118 1.79362 7.52063 2.6624 8.10077C2.00936 8.08164 1.37054 7.90547 0.8 7.58717V7.63917C0.800259 8.58655 1.12821 9.50467 1.72823 10.2378C2.32824 10.971 3.16338 11.474 4.092 11.6616C3.4879 11.8264 2.85406 11.8504 2.2392 11.732C2.50151 12.5472 3.01202 13.2602 3.69937 13.7711C4.38671 14.282 5.21652 14.5654 6.0728 14.5816C5.22203 15.2503 4.24776 15.7447 3.20573 16.0366C2.16369 16.3284 1.07435 16.4119 0 16.2824C1.87653 17.4866 4.05994 18.1253 6.2896 18.1224" fill="white"/>
</svg>
