<?xml version="1.0" encoding="UTF-8" standalone="no"?><svg width="240" height="324" viewBox="0 0 240 324" fill="none" xmlns="http://www.w3.org/2000/svg">
<path fill-rule="evenodd" clip-rule="evenodd" d="M127.586 126.849C133.741 127.153 143.324 129.792 143.803 131.479C144.551 134.113 142.944 143.989 145.633 149.309C146.779 151.576 151.131 151.373 152.818 152.112C158.461 154.583 175.166 159.269 178.61 165.17C179.99 167.534 188.471 196.867 192.977 211.832C193.485 213.519 194.058 215.079 194.682 216.525L194.911 215.402C196.749 206.357 197.667 200.881 197.667 198.975C197.667 195.997 195.292 183.43 197.667 180.234C200.019 177.07 205.685 174.483 208.234 174.432L208.311 174.431C209.984 174.431 211.437 173.908 212.668 172.861L214.473 171.953C223.654 167.344 229.018 164.816 230.565 164.368C233.034 163.654 237.235 165.175 235.134 167.459C233.734 168.981 230.215 171.674 224.577 175.538L222.452 177.227L222.708 177.361C225.456 178.808 227.071 180.026 227.554 181.015C228.053 182.034 227.814 183.24 226.837 184.631L226.985 184.776C228.22 185.988 228.838 186.802 228.838 187.216V189.238C230.066 191.038 230.373 192.539 229.759 193.742C229.145 194.944 228.171 195.986 226.837 196.867C225.854 199.453 224.684 201.293 223.326 202.389C221.968 203.484 219.622 204.395 216.286 205.123L213.267 212.343L210.821 222.487L209.589 233.806L209.947 234.065C211.605 235.273 212.668 236.169 212.668 237.095C212.668 238.537 205.976 272.454 195.564 273.972C193.312 274.301 181.634 272.69 177.799 269.57L177.856 269.907C178.758 275.358 178.567 278.189 177.283 278.4C161.504 280.988 116.691 281.787 42.8429 280.799C42.4035 241.589 44.3902 215.475 48.803 202.459C60.0889 169.168 72.5322 157.798 76.8854 156.824C80.6986 155.971 93.9216 150.706 97.6179 149.309C100.031 148.397 100.548 145.662 103.297 145.662L103.52 145.663C106.179 145.69 108.537 146.165 109.861 144.797C113.338 141.207 112.366 136.237 113.809 131.479C114.603 128.857 120.034 126.476 127.586 126.849Z" fill="#D08B5B"/>
<path d="M103.297 145.662L103.52 145.663C104.177 145.669 104.816 145.703 105.425 145.73L104.141 150.107L104.113 150.566C103.28 165.655 110.666 172.879 126.271 172.236C141.877 171.593 149.64 166.655 149.559 157.422L149.554 157.141L149.554 151.395L149.8 151.442C150.984 151.664 152.126 151.808 152.818 152.111C158.461 154.582 175.166 159.269 178.61 165.169C179.99 167.533 188.471 196.867 192.977 211.832C193.141 212.378 193.313 212.912 193.491 213.433L193.491 216.39L193.442 216.57C191.862 222.479 193.965 227.31 199.75 231.063C203.85 233.724 208.061 235.451 212.383 236.244C212.569 236.531 212.668 236.812 212.668 237.095C212.668 238.537 205.976 272.454 195.564 273.972C193.312 274.301 181.634 272.69 177.799 269.57L177.856 269.907L177.909 270.231C178.75 275.47 178.541 278.193 177.283 278.4C161.504 280.988 116.691 281.787 42.8429 280.798C42.4035 241.588 44.3902 215.475 48.803 202.459C60.0889 169.168 72.5322 157.798 76.8854 156.824C80.6986 155.971 93.9216 150.706 97.6179 149.309C100.031 148.396 100.548 145.662 103.297 145.662Z" fill="#BA98DE"/>
<path fill-rule="evenodd" clip-rule="evenodd" d="M110.677 136.249C111.038 135.533 111.997 135.626 112.63 135.951C114.528 137.339 112.542 140.029 112.017 141.723C110.667 145.008 108.321 148.219 105.083 149.754C105.352 153.02 105.656 156.279 105.768 159.555C109.908 164.692 116.887 166.566 123.083 168.008C132.814 170.7 143.797 165.185 147.081 155.562C143.343 153.437 142.134 147.874 143.249 143.993C143.346 143.72 143.768 143.6 143.919 143.904C144.942 146.01 144.806 148.58 145.969 150.66C157.139 151.73 171.554 155.946 178.871 164.982C182.114 169.503 183.398 175.383 184.995 180.622C188.403 191.424 191.118 202.444 194.46 213.257L194.854 211.211C195.934 205.575 196.915 199.863 196.186 194.131L196.173 193.857C195.935 189.297 194.508 180.822 198.043 177.743C201.241 175.298 205.874 173.334 209.887 174.461C217.028 171.282 223.192 165.928 230.798 163.843C233.139 163.361 236.507 163.932 235.953 167.109C234.42 172.665 227.999 174.821 223.609 177.686C226.423 178.449 229.853 181.872 227.655 184.858C227.636 184.91 227.619 184.951 227.602 184.982C229.385 185.773 229.634 187.759 229.197 189.463C229.152 189.913 229.034 189.526 229.298 189.934C231.31 191.832 230.421 197.123 227.391 197.302C227.589 199.808 225.979 202.243 223.941 203.611C221.743 205.084 218.566 205.147 216.747 207.163C212.475 214.698 211.002 223.592 210.536 232.22C213.352 233.274 215.878 236.427 213.32 239.101C213.27 239.107 213.219 239.113 213.168 239.117C211.685 243.076 211.113 247.296 210.328 251.431C209.122 258.485 205.978 264.963 201.962 270.839C197.319 278.619 184.833 277.385 178.543 272.365C178.568 273.682 178.785 274.991 178.364 276.264C177.741 277.638 176.224 277.044 176.074 275.692C172.748 277.562 171.965 271.387 175.662 272.367C175.377 267.903 175.212 263.433 175.079 258.961C170.894 260.316 170.714 253.371 174.994 254.76L174.989 252.839C174.958 238.116 175.12 223.343 177.062 208.736C177.242 207.643 177.546 206.586 177.724 205.5C177.743 205.388 177.918 205.42 177.919 205.527C178.219 225.978 176.883 246.472 178.277 266.929C179.438 267.283 179.9 268.615 180.76 269.391C182.667 271.153 185.265 272.011 187.805 272.31C194.918 273.307 197.99 271.134 201.157 264.949C199.729 265.904 197.798 264.217 198.669 262.706L198.696 262.66C199.601 261.058 202.155 262.018 201.831 263.812C205.016 258.71 206.683 252.956 207.914 247.119L208.081 246.422C208.679 243.944 209.456 241.104 210.893 238.862C202.129 236.627 193.556 229.82 192.185 220.479C189.96 227.473 186.945 234.309 184.072 241.111C183.185 243.476 182.815 246.018 181.543 248.212C181.248 248.719 180.498 248.588 180.33 248.053C179.186 242.937 182.652 238.071 184.452 233.466C185.922 230.863 190.14 218.977 192.755 218.949C189.816 206.063 185.897 193.274 182.164 180.549C178.554 163.366 171.199 160.053 155.616 154.643C158.427 168.972 171.259 182.841 164.431 197.87L164.265 198.26C163.566 199.917 162.986 201.587 163.474 203.406C163.947 205.17 165.024 206.703 165.887 208.29C170.705 217.256 167.388 227.726 165.525 237.063C163.172 248.013 160.847 258.972 158.414 269.905C157.934 272.086 157.623 274.333 156.899 276.446C156.525 277.537 154.66 277.433 154.78 276.161C155.01 273.692 155.703 271.285 156.211 268.861C159.24 253.166 163.339 237.656 165.945 221.892C167.621 210.223 161.021 208.43 161.268 200.891C162.165 197.034 164.539 193.593 164.403 189.484C164.931 176.905 155.772 166.528 154.641 154.294L152.645 153.581C151.647 153.224 150.65 152.864 149.657 152.495C154.886 189.085 153.298 226.475 150.684 263.245C150.15 264.942 150.658 282.289 148.419 281.237C148.306 281.9 147.954 282.551 147.189 282.548C140.245 282.611 133.298 282.721 126.354 282.804C123.014 282.496 118.422 283.772 115.581 281.844C112.301 280.907 111.924 266.525 111.047 263.357L110.705 261.054C105.131 223.41 100.143 184.99 104.149 146.974C98.5747 147.188 97.4242 153.207 97.0107 157.589C95.977 167.261 89.7302 175.59 89.4307 185.373C89.4053 187.747 89.8532 190.046 90.8016 192.225C93.3178 197.564 97.6695 203.737 94.417 209.7C90.5705 214.342 90.9034 215.564 92.3149 221.3C96.2861 240.265 102.881 258.497 109.155 276.783C107.792 283.89 99.5926 257.506 98.8213 255.516C95.1919 257.342 93.2094 251.283 97.3722 250.852C94.6984 241.898 92.2378 232.878 90.1891 223.759L90.1348 223.502C89.2299 219.288 87.4499 214.354 90.4557 210.617C98.2063 202.776 85.3352 194.012 86.9588 184.513C85.5569 185.553 83.4347 184.459 83.4666 182.712C83.403 180.746 86.0434 179.739 87.314 181.239C88.6203 173.532 93.1652 166.805 94.5406 159.121L94.6027 158.76C95.0688 156.044 95.2002 153.187 96.5335 150.712C94.7185 151.891 92.7856 152.844 90.7976 153.685C94.3521 156.656 87.4688 159.366 88.0384 154.778C68.5452 160.42 64.1392 168.288 56.9821 186.356C58.319 185.057 60.6091 186.738 59.8088 188.395C59.1704 190.141 56.3852 189.631 56.3863 187.77L56.0601 188.548C51.7201 198.929 47.77 209.563 45.7849 220.673C49.679 220.123 48.6875 226.349 45.1593 224.593C43.7434 234.474 43.721 244.495 43.894 254.455C47.1786 252.732 47.2775 258.587 43.9257 256.917C44.0483 265.08 44.2278 273.242 44.3631 281.404C44.3905 283.142 41.7116 283.133 41.6694 281.404C41.3565 268.863 40.7863 256.298 41.0574 243.753C40.8024 221.978 47.0597 200.991 56.3829 181.485C64.6323 159.026 76.0272 156.472 96.9919 149.942C98.9271 147.069 103.062 144.351 106.435 146.155C108.322 143.107 109.281 139.497 110.677 136.249ZM74.7582 214.525C74.8363 214.248 75.2314 214.317 75.2441 214.59C75.4194 218.113 75.2631 221.66 75.0222 225.198C74.8763 227.358 74.6969 229.516 74.5448 231.661C74.1413 237.321 73.8159 242.987 73.5687 248.658C73.6553 248.622 73.7441 248.59 73.837 248.565C74.2638 248.448 74.6908 248.448 75.1173 248.565C75.4979 248.671 75.8306 248.857 76.1172 249.125L76.1779 249.184C76.4124 249.402 76.5793 249.66 76.6765 249.958C76.8149 250.223 76.885 250.506 76.8848 250.809L76.8833 250.885C76.8814 251.321 76.7736 251.724 76.5539 252.101C76.3405 252.462 76.0532 252.75 75.692 252.965C75.3159 253.183 74.9122 253.291 74.4772 253.293C74.4307 253.297 74.384 253.301 74.3377 253.303C74.0143 253.316 73.7124 253.248 73.4333 253.103L73.3913 253.09C73.2856 255.966 73.199 258.845 73.1356 261.723C73.0786 264.232 73.0025 266.741 72.9518 269.249L72.9283 270.504L72.8823 273.278C72.8673 274.419 72.8747 275.511 72.487 276.586L72.4405 276.71C72.1617 277.429 71.9443 278.429 71.1981 278.828C70.6025 279.147 69.7997 279.029 69.4574 278.407C69.1701 277.888 69.4192 277.139 69.8441 276.788C69.8356 276.765 69.8229 276.744 69.8124 276.721C69.7469 276.53 69.6474 276.351 69.5884 276.159C69.4023 275.55 69.4532 274.901 69.4511 274.269C69.4511 273.153 69.4889 272.037 69.5187 270.923C69.5842 268.552 69.6603 266.183 69.753 263.814C70.067 255.866 70.6583 247.918 71.3355 239.993L71.5654 237.318C71.8716 233.76 72.1884 230.199 72.637 226.66C72.6579 226.491 72.6793 226.322 72.7025 226.153C72.4617 226.033 72.2377 225.866 72.0601 225.68C71.3483 224.932 70.9166 223.814 70.5118 222.851L70.4187 222.632C69.9793 221.605 69.5736 220.565 69.3645 219.462L69.3445 219.36C69.2491 218.891 69.0608 218.058 69.5589 217.83C69.8187 217.712 69.9833 217.796 70.068 218.056C70.0788 218.09 70.0699 218.128 70.0511 218.158C70.256 218.473 70.5772 218.767 70.78 219.058L71.4741 220.051L71.8173 220.55C72.2525 221.191 72.7173 221.804 73.1969 222.408C73.5748 219.754 74.0377 217.11 74.7582 214.525ZM103.224 273.68C104.093 272.999 105.506 273.369 105.506 274.624C105.506 275.886 104.091 276.25 103.224 275.569L103.181 275.537L103.14 275.503C102.668 275.135 102.652 274.175 103.104 273.775L103.14 273.745C103.167 273.722 103.195 273.701 103.224 273.68ZM65.4729 271.228C65.8658 271.228 66.2313 271.327 66.5715 271.526C66.7194 271.638 66.8651 271.752 67.013 271.866C67.2834 272.137 67.4694 272.458 67.5729 272.828L67.6513 273.407C67.6616 273.707 67.6003 273.986 67.463 274.246C67.3743 274.516 67.2243 274.751 67.013 274.948C66.8144 275.161 66.582 275.311 66.3118 275.398C66.0734 275.524 65.8192 275.588 65.5474 275.588L65.4729 275.586C65.078 275.586 64.7123 275.487 64.3722 275.288C64.2243 275.176 64.0785 275.062 63.9306 274.948C63.6623 274.677 63.4743 274.356 63.371 273.986C63.3454 273.794 63.3203 273.599 63.2926 273.407C63.2822 273.107 63.3454 272.828 63.4806 272.568C63.5694 272.297 63.7194 272.063 63.9306 271.866C64.1294 271.653 64.3616 271.503 64.632 271.416C64.8702 271.29 65.1262 271.226 65.3983 271.226L65.4729 271.228ZM164.295 267.208L164.849 267.282C165.379 267.402 165.806 267.793 166.091 268.239C166.243 268.478 166.326 268.736 166.338 269.013C166.4 269.288 166.387 269.565 166.3 269.841C166.237 270.112 166.112 270.348 165.928 270.549C165.865 270.649 165.791 270.74 165.707 270.82C165.533 271.11 165.272 271.3 165.001 271.494C164.773 271.64 164.526 271.718 164.259 271.731C164.084 271.777 163.907 271.777 163.729 271.731C163.465 271.718 163.218 271.64 162.99 271.494C162.855 271.391 162.72 271.285 162.586 271.181C162.468 271.044 162.358 270.902 162.255 270.755C162.185 270.592 162.117 270.431 162.05 270.27C161.925 269.884 161.986 269.541 162.054 269.155C162.064 269.089 162.081 269.03 162.105 268.966L162.15 268.844C162.272 268.522 162.337 268.413 162.552 268.134L162.635 268.024C162.676 267.969 162.718 267.916 162.766 267.867C162.901 267.728 163.093 267.612 163.245 267.491C163.571 267.303 163.921 267.21 164.295 267.208ZM92.6377 265.855C92.944 265.857 93.2315 265.934 93.4975 266.088L93.844 266.356C94.0553 266.57 94.201 266.819 94.2834 267.109C94.3025 267.261 94.3238 267.413 94.3447 267.563C94.3532 267.798 94.3048 268.017 94.1968 268.222C94.1294 268.434 94.0109 268.615 93.844 268.772C93.69 268.937 93.506 269.055 93.2947 269.125C93.1103 269.221 92.912 269.272 92.7013 269.272L92.6377 269.271C92.3292 269.271 92.0419 269.193 91.7757 269.038L91.4292 268.772C91.2179 268.559 91.0722 268.307 90.9898 268.017C90.9708 267.865 90.9496 267.715 90.9285 267.563C90.9201 267.328 90.9687 267.109 91.0764 266.906C91.1461 266.694 91.2623 266.511 91.4292 266.356C91.5834 266.189 91.7672 266.071 91.9785 266.003C92.1629 265.906 92.3577 265.857 92.5672 265.855L92.6377 265.855ZM78.6244 265.156C79.0657 265.152 79.5138 265.276 79.8751 265.532C80.2258 265.781 80.4918 266.05 80.6631 266.453C80.7096 266.564 80.7558 266.671 80.7962 266.781C80.9779 267.265 81.0117 267.751 80.7603 268.225C80.5173 268.683 79.9934 268.884 79.5242 269.021C79.1272 269.14 78.6772 269.159 78.2821 269.017C78.0856 268.947 77.8934 268.873 77.7159 268.766C77.3842 268.561 77.2047 268.317 76.9828 268.017C76.8096 267.722 76.723 267.4 76.723 267.058C76.723 266.713 76.8096 266.394 76.9828 266.096C77.3228 265.515 77.9525 265.16 78.6244 265.156ZM56.2299 265.564C56.7879 265.564 57.2778 265.822 57.6139 266.257C57.9539 266.699 58.0785 267.248 57.9285 267.796C57.7701 268.375 57.2907 268.882 56.6968 269.028C56.2576 269.136 55.8982 269.131 55.4609 269.057C55.0912 268.994 54.8083 268.774 54.525 268.546C54.2017 268.281 54.1025 267.8 54.1553 267.411C54.206 267.022 54.3858 266.768 54.6583 266.538L54.6602 266.532L54.5588 266.61C54.597 266.576 54.6348 266.54 54.6731 266.504C54.6855 266.483 54.6961 266.46 54.7067 266.437C54.863 266.17 55.0743 265.961 55.3384 265.805C55.6151 265.644 55.9109 265.564 56.2299 265.564ZM186.284 259.162C186.59 259.08 186.899 259.08 187.205 259.162C187.431 259.215 187.628 259.318 187.795 259.472C187.964 259.583 188.102 259.724 188.207 259.899L188.24 259.959C188.481 260.369 188.519 260.838 188.416 261.294C188.287 261.859 187.767 262.372 187.205 262.505L187.186 262.509L187.167 262.514C186.939 262.586 186.709 262.596 186.481 262.544C186.25 262.533 186.037 262.465 185.841 262.339C185.591 262.178 185.382 261.971 185.222 261.721C185.095 261.523 185.027 261.309 185.016 261.079C184.977 260.927 184.977 260.775 185.016 260.622C185.027 260.392 185.095 260.178 185.222 259.98L185.492 259.631L185.52 259.608C185.735 259.392 185.99 259.244 186.284 259.162ZM165.014 247.977C167.783 247.977 167.779 252.276 165.014 252.276C162.244 252.276 162.248 247.977 165.014 247.977ZM63.6094 247.434C63.9011 247.369 64.1927 247.381 64.4821 247.472C64.6575 247.546 64.8307 247.62 65.0039 247.692L65.4476 248.035C65.53 248.104 65.5701 248.18 65.6462 248.279L65.7413 248.404C65.8787 248.588 65.882 248.627 66.0328 249.019C66.1342 249.395 66.1342 249.771 66.0328 250.148C65.984 250.33 65.9103 250.501 65.8152 250.659C65.7283 250.811 65.6243 250.945 65.5072 251.068L65.4476 251.128C65.249 251.342 65.0145 251.492 64.7441 251.581C64.573 251.68 64.3892 251.729 64.1927 251.729C63.9011 251.794 63.6094 251.782 63.3201 251.69C63.1448 251.617 62.9715 251.543 62.7981 251.471L62.3546 251.128L62.0124 250.685L61.9032 250.424L61.7927 250.163L61.7145 249.581C61.7039 249.279 61.7652 249 61.9023 248.738C61.9551 248.554 62.0483 248.391 62.1833 248.256C62.2807 248.091 62.4115 247.96 62.5765 247.863C62.7115 247.728 62.8744 247.635 63.0582 247.582C63.2293 247.483 63.4131 247.434 63.6094 247.434ZM200.599 244.363C200.83 244.355 201.045 244.403 201.244 244.509C201.314 244.532 201.382 244.562 201.447 244.596C201.703 244.746 201.905 244.948 202.055 245.202C202.178 245.397 202.245 245.606 202.256 245.832C202.302 246.036 202.298 246.241 202.242 246.445L202.224 246.506C202.178 246.673 202.108 246.827 202.015 246.969C202.007 246.986 201.996 247.003 201.983 247.018C201.842 247.242 201.654 247.426 201.422 247.563C201.164 247.711 200.887 247.787 200.587 247.789C199.989 247.789 199.474 247.466 199.159 246.969C199.114 246.899 199.089 246.81 199.058 246.739C199.03 246.671 198.986 246.585 198.962 246.506C198.882 246.206 198.882 245.906 198.962 245.606C199.015 245.386 199.114 245.194 199.264 245.031C199.385 244.847 199.543 244.701 199.74 244.596C199.984 244.453 200.246 244.378 200.524 244.365L200.599 244.363ZM83.6587 242.26C83.9513 242.18 84.2422 242.174 84.5328 242.242L84.6054 242.26C84.8376 242.315 85.0385 242.421 85.2115 242.577C85.4038 242.704 85.5582 242.871 85.67 243.078C85.8308 243.355 85.9111 243.655 85.913 243.976C85.9111 244.298 85.8308 244.598 85.67 244.874C85.5115 245.143 85.2982 245.354 85.0301 245.513L84.7977 245.625C84.6033 245.748 84.3963 245.813 84.1721 245.823C84.0223 245.864 83.8721 245.864 83.7244 245.823C83.5721 245.823 83.4306 245.786 83.2998 245.71C83.1561 245.669 83.0334 245.597 82.9277 245.492C82.7439 245.373 82.6005 245.217 82.4949 245.021L82.3235 244.617L82.2646 244.169L82.3235 243.723L82.4167 243.503C82.501 243.201 82.6533 242.939 82.8749 242.717C83.0968 242.497 83.3587 242.345 83.6587 242.26ZM188.431 238.695C188.739 238.598 189.046 238.585 189.352 238.653C189.559 238.653 189.753 238.705 189.933 238.811C190.129 238.866 190.298 238.963 190.442 239.107C190.693 239.269 190.89 239.485 191.036 239.753L191.268 240.305C191.407 240.662 191.357 241.189 191.272 241.548C191.203 241.844 191.067 242.102 190.867 242.321C190.765 242.493 190.63 242.628 190.459 242.73C190.263 242.908 190.037 243.034 189.782 243.11L189.711 243.129L189.686 243.135C189.681 243.137 189.677 243.137 189.673 243.137C189.671 243.14 189.666 243.14 189.664 243.14C189.563 243.165 189.46 243.179 189.352 243.184C189.046 243.251 188.739 243.239 188.431 243.142C188.249 243.065 188.065 242.987 187.881 242.909C187.725 242.791 187.571 242.67 187.415 242.55C187.294 242.393 187.174 242.237 187.053 242.083C186.884 241.819 186.793 241.531 186.781 241.224C186.726 241.02 186.726 240.817 186.781 240.612C186.781 240.403 186.834 240.21 186.937 240.03C187.03 239.743 187.188 239.496 187.415 239.287C187.571 239.166 187.725 239.045 187.881 238.927C188.065 238.849 188.249 238.771 188.431 238.695ZM53.6842 231.128C54.003 231.042 54.3223 231.042 54.6413 231.128L55.07 231.308C55.2812 231.422 55.4483 231.576 55.5751 231.773C55.7357 231.946 55.8432 232.151 55.8981 232.386C56.023 232.707 56.0082 233.217 55.9089 233.544C55.7969 233.916 55.6237 234.212 55.3554 234.491C54.9096 234.952 54.2249 235.085 53.6188 234.945C53.4516 234.907 53.2932 234.833 53.1495 234.742C52.6913 234.459 52.3828 233.965 52.385 233.417C52.385 233.358 52.3892 233.299 52.3976 233.24C52.368 233.119 52.3573 232.995 52.3617 232.863L52.4251 232.386L52.4291 232.373C52.5138 232.071 52.6659 231.809 52.8876 231.587C53.0925 231.384 53.3315 231.237 53.6047 231.149L53.6737 231.128H53.6842ZM213.105 183.67C212.527 178.936 210.357 173.844 203.739 176.623L203.248 176.808C201.61 177.428 199.701 178.243 198.705 179.675C198.018 180.662 198.25 182.575 198.156 183.727C197.724 187.472 197.955 191.212 198.405 194.941C198.985 203.682 197.148 212.739 193.491 220.683C197.151 226.609 202.05 232.135 208.733 234.605C209.016 227.868 210.334 221.255 211.738 214.681L211.793 214.395C212.354 211.43 212.635 208.388 214.581 205.923C218.54 201.623 223.985 204.057 226.59 197.15C226.043 196.873 226.345 195.926 227.004 196.108C229.289 196.513 229.66 192.276 228.096 191.255C226.467 190.261 228.107 188.427 227.414 187.104C227.027 186.534 226.193 186.514 225.814 185.857C224.812 183.437 229.83 181.887 223.928 179.159C222.721 178.729 221.371 178.996 220.152 178.991C218.361 179.158 216.936 180.421 215.298 180.818C217.082 185.44 212.58 189.891 208.516 186.2C206.305 188.29 203.832 193.057 209.207 190.835C211.838 189.078 214.103 186.808 217.157 185.726L217.221 185.706C218.355 185.334 223.316 182.923 223.07 185.01C221.212 186.804 218.147 186.783 215.995 188.239C213.011 189.62 211.103 192.964 207.531 192.918C206.708 197.92 212.382 194.877 214.495 193.497L215.081 193.179C218.061 191.569 221.086 190.077 224.562 190.057C225.521 190.05 225.517 191.53 224.562 191.543C220.032 191.571 216.345 194.403 212.551 196.509C212.178 199.429 216.452 198.151 218.074 197.72C219.774 197.481 222.505 195.641 223.994 196.613C224.576 198.109 222.014 197.998 221.122 198.452C225.194 200.408 221.627 201.64 220.535 198.633L220.215 198.742C217.489 199.659 210.878 201.546 211.664 196.926C210.666 197.367 209.449 197.632 208.347 197.386C205.597 201.455 201.211 199.881 207.586 197.107C206.15 196.439 205.67 193.858 207.05 192.897C202.032 192.591 205.757 187.324 207.834 185.568C207.638 185.37 207.448 185.168 207.271 184.963C206.074 185.534 204.815 185.88 203.468 186.003C202.18 186.119 201.893 183.925 203.164 183.746C204.527 183.553 205.782 183.19 206.982 182.505C208.801 181.719 209.421 185.095 211.241 185.215C212.234 185.411 212.906 184.54 213.105 183.67ZM170.855 227.227C171.295 227.227 171.686 227.411 172.005 227.702C172.324 227.994 172.461 228.432 172.48 228.85C172.488 229.074 172.442 229.283 172.34 229.478C172.275 229.678 172.163 229.852 172.005 230C171.709 230.294 171.271 230.475 170.855 230.475C170.416 230.475 170.025 230.291 169.706 230C169.387 229.706 169.25 229.271 169.231 228.85C169.222 228.628 169.269 228.419 169.37 228.224C169.429 228.044 169.526 227.884 169.66 227.747L169.706 227.702C170.002 227.406 170.439 227.227 170.855 227.227ZM184.171 217.203L184.241 217.204C184.613 217.207 184.958 217.3 185.279 217.486C185.418 217.593 185.557 217.699 185.695 217.807C185.95 218.065 186.126 218.367 186.223 218.716C186.322 219.079 186.322 219.445 186.223 219.808C186.189 220.018 186.111 220.221 185.989 220.396C185.807 220.698 185.566 220.941 185.262 221.121C184.947 221.305 184.607 221.396 184.241 221.398C183.876 221.396 183.536 221.305 183.221 221.121C182.917 220.941 182.676 220.698 182.496 220.396C182.371 220.221 182.293 220.018 182.259 219.808C182.16 219.445 182.16 219.079 182.259 218.716C182.35 218.392 182.507 218.108 182.734 217.863L182.788 217.807C182.974 217.606 183.193 217.465 183.449 217.382C183.674 217.264 183.914 217.204 184.171 217.203ZM82.5516 217.316C82.7082 217.274 82.8624 217.274 83.0187 217.316C83.2511 217.327 83.4685 217.397 83.6694 217.524C83.7877 217.617 83.9061 217.708 84.0244 217.799L84.1275 217.922C84.348 218.191 84.3536 218.237 84.5227 218.646C84.5927 218.874 84.6032 219.103 84.5525 219.331C84.5525 219.485 84.5124 219.629 84.4361 219.762C84.3941 219.908 84.3223 220.035 84.2145 220.14C84.1382 220.269 84.037 220.373 83.908 220.449C83.7434 220.599 83.549 220.703 83.3251 220.755L82.8706 220.816C82.8117 220.808 82.7504 220.8 82.6913 220.793C82.62 220.791 82.5507 220.783 82.4829 220.77L82.4143 220.755L82.3518 220.738C82.2691 220.714 82.1885 220.682 82.1103 220.641C81.9624 220.599 81.8335 220.525 81.7234 220.415C81.5335 220.293 81.3814 220.127 81.2715 219.923L81.242 219.855C81.2018 219.783 81.168 219.709 81.1425 219.629C81.0708 219.502 81.0349 219.367 81.0328 219.221C80.9908 219.027 80.9936 218.835 81.0439 218.642L81.0624 218.578L81.2251 218.191C81.3096 218.061 81.3983 217.927 81.5122 217.82C81.5808 217.759 81.7485 217.628 81.843 217.562L81.9009 217.524C82.1018 217.397 82.3194 217.327 82.5516 217.316ZM59.8131 213.574C60.6685 214.43 60.2905 216.002 59.0929 216.306L58.9553 216.34C57.7976 216.634 56.7539 215.588 57.0476 214.43L57.0814 214.294C57.3856 213.096 58.9574 212.718 59.8131 213.574ZM202.089 204.519C202.081 204.401 202.233 204.359 202.309 204.429C203.327 205.342 203.976 206.436 205.212 207.144C206.454 207.855 207.734 207.797 209.029 208.256C209.469 208.412 209.471 209 209.029 209.154C206.579 210.01 202.275 207.108 202.089 204.519ZM86.9376 204.333C87.2104 204.249 87.485 204.236 87.7576 204.298C87.9435 204.298 88.1165 204.344 88.275 204.437C88.4503 204.486 88.6005 204.574 88.7292 204.701C88.8836 204.792 89.0062 204.917 89.0989 205.071C89.2808 205.27 89.4033 205.502 89.4665 205.769L89.5383 206.316L89.4665 206.863C89.3968 207.026 89.3271 207.191 89.2595 207.354L89.0707 207.61C88.9177 207.814 88.8932 207.816 88.5221 208.091C88.2857 208.241 88.0301 208.324 87.7576 208.334C87.5757 208.385 87.394 208.385 87.2104 208.334C87.0266 208.334 86.8531 208.288 86.6928 208.195C86.5193 208.146 86.3674 208.057 86.2383 207.931C86.0146 207.785 85.8393 207.592 85.7102 207.354C85.6405 207.191 85.571 207.026 85.5033 206.863L85.4292 206.316L85.5033 205.769L85.5074 205.752C85.6045 205.409 85.778 205.111 86.0271 204.859L86.4371 204.542C86.5975 204.439 86.7644 204.386 86.9376 204.333ZM185.56 204.743C186.145 204.583 186.787 204.752 187.216 205.181C187.645 205.61 187.814 206.25 187.653 206.836C187.495 207.407 187.036 207.869 186.464 208.024C186.293 208.07 186.119 208.096 185.944 208.087C185.65 208.085 185.376 208.011 185.12 207.863L184.791 207.607C184.63 207.459 184.518 207.284 184.452 207.081C184.349 206.887 184.302 206.677 184.311 206.451L184.309 206.411C184.302 206.331 184.313 206.25 184.338 206.172C184.338 206.09 184.351 206.009 184.372 205.931C184.527 205.361 184.991 204.9 185.56 204.743ZM59.399 199.02C59.587 199.014 59.7624 199.052 59.9251 199.138C60.0962 199.193 60.242 199.286 60.3645 199.422C60.4997 199.544 60.5927 199.692 60.6476 199.861C60.7342 200.024 60.7722 200.2 60.7659 200.387C60.7659 200.635 60.7025 200.865 60.58 201.076C60.5081 201.17 60.4363 201.262 60.3645 201.353C60.1955 201.525 59.9948 201.641 59.7624 201.706L59.6272 201.753C59.4286 201.825 59.2342 201.829 59.0272 201.802C58.8096 201.772 58.6086 201.713 58.4314 201.577C58.2579 201.476 58.1208 201.339 58.0194 201.165L57.9032 200.89C57.8779 200.798 57.8673 200.658 57.861 200.561C57.861 200.546 57.861 200.534 57.8589 200.519C57.8589 200.436 57.8842 200.236 57.9051 200.153C57.9518 199.98 58.0467 199.815 58.1546 199.675C58.2476 199.53 58.3743 199.415 58.5307 199.331L58.5446 199.32L58.5603 199.31C58.6086 199.276 58.6596 199.242 58.7103 199.206C58.9215 199.083 59.1518 199.02 59.399 199.02ZM168.496 197.519C168.834 197.519 169.148 197.606 169.44 197.775C169.45 197.779 169.461 197.784 169.469 197.788C169.748 197.953 169.97 198.175 170.135 198.454C170.304 198.743 170.388 199.056 170.388 199.39C170.388 199.726 170.304 200.037 170.135 200.326C169.97 200.605 169.748 200.827 169.469 200.992C169.461 200.998 169.45 201.002 169.44 201.007C169.148 201.176 168.834 201.26 168.496 201.262C168.16 201.26 167.845 201.176 167.553 201.007C166.983 200.673 166.626 200.049 166.626 199.39C166.626 198.73 166.983 198.107 167.553 197.775C167.845 197.606 168.16 197.519 168.496 197.519ZM80.7599 195.076L80.8174 195.074C81.0413 195.066 81.2503 195.112 81.4425 195.216C81.6432 195.281 81.8186 195.393 81.9667 195.552L82.2751 195.81L82.3646 195.882C82.3794 195.894 82.3939 195.907 82.408 195.92C82.6153 196.129 82.7568 196.374 82.8371 196.657C82.8625 196.82 82.8834 196.98 82.9005 197.143C82.9468 197.566 82.6977 197.999 82.423 198.3C82.2751 198.458 82.0996 198.57 81.897 198.637C81.7026 198.739 81.4913 198.785 81.2672 198.777C80.8087 198.737 80.3737 198.64 80.0441 198.285C80.0059 198.242 79.97 198.198 79.9322 198.153L79.6681 197.849C79.4674 197.646 79.3277 197.407 79.2519 197.133C79.2306 196.987 79.2118 196.843 79.1927 196.699C79.1735 196.266 79.3848 195.86 79.6681 195.552C79.9297 195.266 80.3733 195.092 80.7599 195.076ZM70.0956 190.625C72.2926 190.625 72.2883 194.034 70.0956 194.034C67.9003 194.034 67.9045 190.625 70.0956 190.625ZM180.563 185.845L180.633 185.847C180.996 185.849 181.336 185.94 181.651 186.124L182.061 186.438C182.31 186.692 182.483 186.988 182.581 187.33C182.604 187.51 182.627 187.69 182.653 187.867C182.663 188.146 182.604 188.406 182.477 188.647C182.397 188.896 182.258 189.114 182.061 189.298C181.877 189.495 181.662 189.634 181.41 189.714C181.169 189.841 180.91 189.9 180.633 189.89C180.267 189.887 179.927 189.797 179.612 189.613C179.475 189.507 179.34 189.402 179.203 189.298C178.972 189.064 178.807 188.794 178.708 188.484L178.685 188.406L178.611 187.867C178.6 187.59 178.659 187.33 178.786 187.089C178.867 186.838 179.006 186.622 179.203 186.438C179.386 186.242 179.604 186.102 179.853 186.022C180.074 185.906 180.311 185.846 180.563 185.845ZM170.667 179.464C170.864 179.457 171.045 179.498 171.217 179.587C171.392 179.643 171.544 179.743 171.673 179.88C171.946 180.098 172.112 180.533 172.112 180.886C172.112 181.239 171.946 181.675 171.673 181.892C171.495 182.068 171.286 182.19 171.045 182.258L170.667 182.309C170.3 182.326 169.926 182.133 169.664 181.892C169.611 181.844 169.56 181.795 169.507 181.748C169.269 181.529 169.165 181.201 169.15 180.886C169.144 180.719 169.18 180.563 169.256 180.417C169.305 180.265 169.389 180.136 169.507 180.024C169.56 179.977 169.611 179.929 169.664 179.88C169.949 179.616 170.283 179.483 170.667 179.464ZM233.367 168.095C234.756 166.404 233.947 165.2 231.861 165.618C228.267 166.104 224.885 168.376 221.72 170.006C218.266 171.831 214.706 173.336 211.182 175.051C212.636 175.944 213.717 177.342 214.543 178.938C216.192 177.685 218.3 177.086 220.357 177.008C224.09 173.431 230.272 172.613 233.367 168.095ZM69.3562 173.711C69.7327 173.713 70.0854 173.801 70.4158 173.978L70.4863 174.017L70.9384 174.368C71.1581 174.571 71.3124 174.812 71.4032 175.089C71.5427 175.355 71.606 175.645 71.5955 175.953C71.606 176.262 71.5427 176.549 71.4032 176.816C71.3124 177.095 71.1581 177.333 70.9384 177.536C70.8138 177.699 70.6532 177.826 70.461 177.919C70.2812 177.993 70.1039 178.069 69.9243 178.145C69.7236 178.208 69.4912 178.217 69.2736 178.227C68.8786 178.225 68.5112 178.126 68.1685 177.927L67.725 177.585C67.5117 177.386 67.3593 177.152 67.2706 176.879C67.1449 176.639 67.0812 176.383 67.0812 176.109L67.0828 176.034C67.0828 176.017 67.0828 175.998 67.0851 175.979C67.1103 175.78 67.1379 175.581 67.165 175.383C67.2349 175.091 67.368 174.835 67.5666 174.62C67.6173 174.518 67.6849 174.436 67.7717 174.368C68.0504 174.089 68.3798 173.899 68.7603 173.791C68.9589 173.766 69.1574 173.738 69.3562 173.711ZM167.447 168.112C167.733 168.112 167.997 168.184 168.242 168.326C168.35 168.408 168.455 168.491 168.561 168.573C168.758 168.769 168.893 169.002 168.966 169.268L169.024 169.687C169.03 169.904 168.986 170.105 168.886 170.294C168.823 170.488 168.715 170.657 168.561 170.801C168.419 170.955 168.251 171.063 168.054 171.126C167.868 171.225 167.665 171.27 167.447 171.262C167.164 171.262 166.898 171.189 166.653 171.046C166.547 170.965 166.44 170.883 166.334 170.801C166.156 170.62 166.027 170.41 165.95 170.171L165.931 170.105L165.874 169.687C165.865 169.469 165.91 169.268 166.009 169.08C166.072 168.884 166.182 168.715 166.334 168.573C166.478 168.418 166.647 168.311 166.841 168.247C167.01 168.158 167.192 168.113 167.383 168.111L167.447 168.112ZM81.7048 165.822L81.7785 165.823C82.199 165.825 82.5898 165.931 82.9532 166.142C83.1095 166.263 83.2661 166.383 83.4222 166.506C83.7116 166.795 83.9102 167.138 84.0224 167.533L84.1046 168.15C84.1173 168.471 84.0497 168.769 83.9039 169.046C83.8111 169.336 83.6504 169.585 83.4222 169.797C83.2132 170.023 82.9637 170.183 82.6743 170.277C82.3975 170.422 82.0997 170.49 81.7785 170.477C81.3581 170.477 80.9673 170.371 80.6039 170.16C80.4478 170.04 80.2914 169.917 80.133 169.797C79.8454 169.505 79.6468 169.163 79.5349 168.769L79.4525 168.15C79.4398 167.831 79.5074 167.531 79.6532 167.254C79.7461 166.967 79.9067 166.715 80.133 166.506C80.3442 166.278 80.5933 166.117 80.8828 166.024C81.1382 165.889 81.4117 165.823 81.7048 165.822ZM159.933 160.011C160.125 159.96 160.317 159.96 160.509 160.011C160.797 160.024 161.065 160.11 161.315 160.269L161.752 160.607C161.758 160.613 161.765 160.62 161.771 160.628C162.035 160.894 162.219 161.21 162.32 161.571L162.396 162.14C162.407 162.433 162.346 162.708 162.212 162.962C162.133 163.206 162.002 163.418 161.821 163.601L161.752 163.67C161.555 163.881 161.325 164.031 161.057 164.118C160.888 164.217 160.704 164.266 160.509 164.266C160.222 164.331 159.933 164.319 159.645 164.227C159.474 164.153 159.301 164.082 159.128 164.01L159.073 163.978C158.42 163.621 158.016 162.873 158.016 162.14C158.016 161.406 158.42 160.656 159.073 160.298C159.092 160.29 159.109 160.279 159.128 160.269C159.377 160.11 159.645 160.024 159.933 160.011Z" fill="black"/>
<path fill-rule="evenodd" clip-rule="evenodd" d="M157.738 48.8267C146.466 45.51 107.699 48.9098 106.741 49.6282C105.172 50.9349 97.5412 55.0813 96.3538 56.0279C85.6177 67.4354 95.8527 84.3756 95.065 98.1371C95.1152 103.018 93.0403 107.475 92.0865 112.171C91.6839 114.632 91.7726 117.178 93.0521 119.387C95.3016 123.335 100.052 124.136 103.916 125.728C105.838 126.557 107.634 127.734 109.281 129.021C120.367 138.853 126.537 145.585 142.713 143.367C142.796 144.141 143.48 144.902 144.328 144.556C146.314 143.745 148.286 142.885 150.289 142.117C150.717 143.151 151.947 143.446 152.78 142.533L152.785 142.539C156.493 139.524 158.852 135.401 160.603 130.987C161.829 128.44 162.832 125.783 163.599 123.047C163.686 122.737 163.675 122.461 163.596 122.222C167.135 109.997 168.445 97.1124 167.513 84.4194C167.324 81.8005 166.831 79.147 166.952 76.5172C167.062 74.1412 168.083 71.8937 168.861 69.6809C172.875 60.2739 166.74 51.7886 157.738 48.8267Z" fill="#D08B5B"/>
<path fill-rule="evenodd" clip-rule="evenodd" d="M159.156 33.5531L159.277 33.4597C160.576 32.4375 161.802 31.0979 163.634 31.6002C165.137 32.0124 165.896 33.2593 166.219 34.7663C166.676 34.2865 167.121 33.7898 167.556 33.2762C168.736 31.8813 171.373 32.6041 171.726 34.3816C172.438 37.9619 172.474 41.6055 171.78 45.1922C171.675 45.7353 171.551 46.2764 171.405 46.8111C172.196 45.8241 172.931 44.7948 173.591 43.7106C174.306 42.5334 175.921 43.1167 176.033 44.3742C176.062 44.6997 176.079 45.0294 176.083 45.3612C176.587 45.5388 176.935 46.0587 176.802 46.697C176.068 50.2096 175.139 53.6736 174.021 57.0785C175.818 56.1232 177.831 55.5568 179.726 56.231C182.737 57.3046 183.454 60.5975 182.865 63.4317C182.125 66.9951 179.798 69.9772 176.796 71.9322C176.44 72.469 176.087 73.0101 175.752 73.5617C175.746 75.1194 175.463 76.6728 174.894 78.1163C174.253 79.7374 173.123 81.1386 171.732 82.2038C171.243 83.2714 169.948 84.0512 168.811 83.8351L168.751 83.8228L168.749 83.8249C169.04 84.8689 169.291 85.9236 169.508 86.9803C171.189 95.1676 170.338 103.69 168.804 111.831L168.755 112.091C167.378 119.336 165.776 126.839 162.662 133.566C159.846 139.649 155.071 144.998 148.246 146.325C140.218 147.887 131.332 145.412 124.428 141.285C121.925 139.788 124.219 135.845 126.711 137.366C130.307 139.56 134.214 141.092 138.346 141.9C142.208 142.652 146.528 142.908 150.232 141.348C155.391 139.175 158.456 133.868 160.396 128.872C161.539 125.924 162.395 122.88 163.191 119.824C164.218 115.895 165.175 111.941 165.894 107.942C167.233 100.484 167.667 92.7375 166.251 85.2578C165.799 82.8717 165.161 80.4707 164.328 78.1628C164.197 78.0001 164.073 77.8183 163.961 77.6196C163.09 76.0895 162.489 74.35 161.842 72.6952C161.275 71.7082 160.655 70.7592 159.998 69.8314C159.014 69.0737 158.077 68.2636 157.219 67.3797C159.711 65.762 161.911 63.7369 163.493 61.1571C163.754 60.7317 163.588 60.3251 163.279 60.0957C162.015 61.6802 160.38 63.0221 158.659 64.2109C157.778 64.9676 156.829 65.6473 155.834 66.2615C155.124 66.4024 154.405 66.4992 153.709 66.5787C151.725 66.8048 149.731 66.7203 147.757 66.4561C143.49 65.8855 125.444 60.9031 117.837 62.8399C116.253 63.2434 115.506 64.6681 114.667 66.0059C113.939 67.1696 113.013 68.1329 111.903 68.926L111.778 69.0135C109.607 70.5204 105.241 75.2876 103.406 79.5425C101.036 85.0359 98.7601 101.498 99.8079 101.64C102.549 102.012 104.066 103.457 106.299 105.009C106.447 105.11 106.36 105.385 106.17 105.315C104.697 104.782 103.103 104.467 101.558 104.21C100.16 103.975 98.6884 103.933 97.3392 104.434C95.2689 105.203 94.2591 106.942 93.8437 108.904C93.6814 109.671 93.6097 110.472 93.6013 111.264L93.6001 111.494C93.6012 113.993 94.066 116.763 95.8761 118.607C96.6456 119.391 97.6891 119.919 98.7812 120.065C99.9766 120.226 100.714 119.685 101.813 119.404C103.078 119.08 104.064 119.915 103.946 121.004C104.214 121.238 104.473 121.485 104.731 121.737L104.731 121.738L104.733 121.739C104.901 121.815 105.062 121.917 105.207 122.039C105.445 122.242 105.646 122.464 105.806 122.703C106.162 122.773 106.504 122.971 106.784 123.335C107.362 124.081 107.895 124.835 108.39 125.605C109.278 126.549 110.161 127.496 111.032 128.458C112.08 129.614 113.1 130.796 114.127 131.971L114.641 132.558C115.196 133.19 115.748 133.822 116.3 134.456L116.465 134.642C117.021 135.266 117.447 135.726 117.506 136.624C117.549 137.29 116.834 137.742 116.241 137.59C115.328 137.354 114.904 136.635 114.357 135.922L113.53 134.859L112.752 133.858C112.367 133.359 111.977 132.862 111.589 132.366C111.473 133.281 110.507 134.018 109.626 134.059L109.42 134.067C107.351 134.136 104.836 133.843 103.261 132.38C102.553 133.097 101.672 133.661 100.586 133.999C98.1192 134.769 95.5978 133.406 94.6006 131.332C92.6674 132.163 90.4832 132.33 88.394 131.719C87.189 131.365 86.7722 129.859 87.6119 128.938L87.6498 128.897L87.6595 128.886C87.4862 128.661 87.3909 128.384 87.3755 128.083C87.3568 127.717 87.6226 127.33 87.5678 126.988C87.3587 125.687 85.2412 126.651 84.5682 126.933C84.4396 126.987 84.319 127.012 84.2064 127.016C83.166 127.32 82.0346 125.95 82.5795 124.818C83.8002 122.291 84.9913 119.744 86.2267 117.22C86.0707 117.273 85.9105 117.322 85.7524 117.362C83.5324 117.933 80.8402 116.838 81.3525 114.156C81.4706 113.526 82.0398 113.095 82.6048 112.9C83.7053 112.52 84.5317 112.795 85.3792 112.44C86.3343 112.042 87.3315 111.313 88.1705 110.626C89.0665 109.895 89.8402 109.073 90.5254 108.181C90.7995 106.885 91.2738 105.647 92.0328 104.582C92.0792 104.518 92.1255 104.455 92.174 104.393C87.3068 103.23 87.9442 98.4314 85.7972 94.1787L85.6158 93.8262C84.1577 90.9815 82.8856 87.7743 83.621 84.535C83.7517 83.9623 83.9414 83.4149 84.186 82.9034C83.796 82.952 83.4038 82.9964 83.0138 83.0408C82.1178 83.1422 81.2071 81.984 81.5634 81.1323C81.751 80.6863 81.9576 80.2552 82.1811 79.8367C82.8009 78.6827 83.562 77.6344 84.458 76.6876C82.9527 76.6474 81.4453 76.6474 79.9569 76.4741C78.5507 76.3114 77.0729 75.5399 77.1162 73.9147C77.1597 72.365 78.5159 71.192 79.7735 70.436C81.0112 68.7856 82.5812 67.414 84.357 66.3946C84.0057 66.3154 83.6497 66.2568 83.288 66.2207L83.1066 66.2046C82.0925 66.1243 81.1818 65.8453 80.2626 65.4205C79.4404 65.0401 79.453 63.8861 79.9906 63.3049C81.7287 61.4213 84.3327 62.0347 86.3589 63.114C86.2179 62.9346 86.0633 62.7617 85.8949 62.5963L85.7922 62.4979C84.7967 61.5686 86.2908 60.0773 87.283 61.0035C87.5965 61.2962 87.8773 61.6143 88.1277 61.9514L88.1516 61.9015C89.4624 59.236 91.3796 56.8502 93.6479 54.9384L94.181 54.4941C98.2713 51.0688 99.5334 49.4453 104.973 49.9497C104.741 48.9591 104.764 47.8447 104.816 46.9284L104.823 46.8048C105.032 43.3598 106.299 39.2363 109.651 37.6892C110.522 37.2898 111.509 37.9428 111.277 38.9425C111.114 39.6506 110.916 40.3396 110.669 41.0095C111.401 40.2381 112.185 39.5174 113.016 38.8538C116.402 36.1485 120.926 33.8215 125.376 34.5824C127.822 35.003 129.74 36.5416 131.787 37.8266C133.845 39.1201 136.143 39.8873 138.553 40.1641C141.92 40.553 145.299 40.162 148.628 39.5449C150.915 38.5452 153.135 37.3743 155.303 36.1126C156.635 35.3369 157.931 34.4894 159.156 33.5531ZM99.38 108.377C100.093 108.194 100.892 108.196 101.606 108.375C103.451 108.84 105.167 110.387 105.275 112.338C105.323 113.219 104.615 114.063 103.793 114.289C102.861 114.547 102.06 114.09 101.516 113.359C100.932 112.577 100.786 111.729 100.072 111.019L99.9068 110.858C99.2992 110.276 98.3806 109.523 97.5374 109.658C97.4131 109.677 97.3203 109.508 97.4468 109.44C98.1341 109.064 98.5852 108.58 99.38 108.377ZM108.962 99.19C109.287 98.9237 109.717 99.2361 109.564 99.6191L109.552 99.6465C109.166 100.462 109.62 101.42 110.088 102.102C110.49 102.692 109.729 103.252 109.194 102.999C107.688 102.282 107.766 100.162 108.962 99.19ZM114.464 74.6797C114.437 74.481 114.7 74.3986 114.768 74.5951C115.892 77.8647 116.214 80.7602 116.031 84.2179L116.013 84.5247C115.815 87.8552 115.233 91.3802 113.223 94.1154C112.757 94.7474 111.804 94.3754 111.958 93.5807C112.575 90.3999 113.762 87.3797 114.224 84.1608C114.707 80.7961 114.924 78.0465 114.464 74.6797ZM103.97 86.564C104.134 85.6911 105.473 84.7928 106.149 85.6699C106.377 85.9679 106.109 86.3336 105.835 86.4435C105.578 86.5449 105.348 86.4054 105.095 86.4562C104.891 86.4976 104.741 86.6255 104.642 86.8005L104.621 86.8387C104.423 87.2191 103.9 86.9359 103.97 86.564ZM103.421 79.6105C103.902 78.7186 105.009 78.1501 105.956 78.7059C106.268 78.8898 106.145 79.4245 105.766 79.4076L105.541 79.3985C104.866 79.3738 104.191 79.3875 103.624 79.8155C103.497 79.9106 103.358 79.731 103.421 79.6105ZM105.112 55.2529C102.415 54.0376 99.7339 55.1347 97.5323 56.8458C97.3501 56.9874 97.2618 57.1527 97.2424 57.3188C98.7123 56.745 100.277 56.3688 101.773 56.0583C102.996 55.8043 104.231 55.6329 105.467 55.5652C105.398 55.4407 105.285 55.3308 105.112 55.2529Z" fill="black"/>
<path fill-rule="evenodd" clip-rule="evenodd" d="M143.152 128.274C141.731 127.694 140.464 126.727 139.538 125.492C139.216 125.063 139.132 124.61 139.2 124.195C139.276 123.729 139.552 123.306 139.928 123.023C140.305 122.738 140.777 122.598 141.233 122.67C141.629 122.732 142.024 122.949 142.336 123.399L142.401 123.489C142.952 124.235 143.67 124.846 144.488 125.24C145.276 125.62 146.157 125.798 147.07 125.695C148.807 125.498 150.005 124.558 151.278 123.282C151.435 123.121 151.593 122.954 151.752 122.786C151.852 122.632 151.991 122.534 152.145 122.482C152.317 122.425 152.511 122.428 152.688 122.49C152.859 122.55 153.013 122.663 153.115 122.814C153.213 122.958 153.268 123.135 153.25 123.338C153.134 124.661 152.442 125.842 151.46 126.769C150.37 127.798 148.924 128.511 147.563 128.76C146.063 129.036 144.535 128.839 143.152 128.274ZM148.27 107.866C149.866 108.836 152.296 111.098 150.58 113.503C148.56 115.624 145.651 113.192 144.218 112.093C142.889 111.241 141.396 113.432 142.629 114.428C152.986 122.099 157.189 108.12 149.077 106.725C148.184 106.572 147.852 107.566 148.27 107.866ZM129.71 98.9426C129.886 96.7538 133.219 96.2568 133.55 98.4227C133.847 100.363 133.498 102.145 132.624 103.892C131.789 105.561 129.691 104.782 129.533 103.263C129.32 101.226 129.601 100.304 129.71 98.9426ZM155.076 97.9736C155.54 97.3649 156.211 96.9494 157.015 97.1842C159.526 97.9182 158.786 101.484 157.904 103.22C157.425 104.163 155.876 104.402 155.176 103.572C154.035 102.218 153.489 99.5154 154.939 98.1822C154.978 98.1133 155.022 98.0438 155.076 97.9736ZM132.589 89.3651L132.985 89.2957C134.212 89.0834 135.738 88.8794 136.606 89.8662C137.066 90.3895 137.225 91.3622 136.606 91.8631C135.517 92.7444 134.314 92.4028 133.01 92.4775C131.935 92.5392 130.902 92.7171 129.866 93.0132C127.595 93.6627 125.744 94.8484 123.804 96.1503C123.549 96.3211 123.289 95.9954 123.411 95.7572C124.531 93.5627 126.701 91.7601 128.875 90.6613C130.035 90.0748 131.305 89.5883 132.589 89.3651ZM152.787 88.3821L153.09 88.4442C156.394 89.1351 160.686 90.515 162.251 93.7613C162.31 94.2203 162.247 94.3187 162.196 94.3829L162.179 94.4043C162.137 94.4592 162.103 94.5349 161.904 94.5974C161.849 94.5842 161.793 94.5703 161.737 94.5555C161.02 94.3675 160.453 94.1085 159.903 93.8398L159.308 93.5462C158.617 93.2073 157.92 92.8807 157.181 92.6396C155.604 92.1252 153.983 91.7628 152.336 91.5693C151.979 91.5274 151.636 91.4069 151.364 91.2004C151.107 91.0044 150.91 90.733 150.821 90.3722C150.705 89.9053 150.738 89.5518 150.988 89.1306C151.177 88.8143 151.446 88.5951 151.755 88.4692C152.071 88.3408 152.43 88.3106 152.787 88.3821Z" fill="black"/>
</svg>
