<?xml version="1.0" encoding="UTF-8" standalone="no"?><svg width="240" height="324" viewBox="0 0 240 324" fill="none" xmlns="http://www.w3.org/2000/svg">
<path fill-rule="evenodd" clip-rule="evenodd" d="M181.079 176.597C179.238 169.454 177.544 166.425 174.273 163.942C171.213 161.62 166.747 159.669 160.23 158.244C153.442 157.057 153.249 153.528 151.547 147.857C151.051 146.152 148.59 145.698 147.528 146.927C147.379 146.766 147.223 146.618 147.061 146.484C147.206 145.671 146.022 143.34 146.061 142.562C146.474 134.444 143.819 130.367 137.193 128.852C135.752 128.522 125.963 128.328 124.558 128.716C118.415 130.415 112.368 135.808 113.293 142.305C111.365 144.826 109.478 146.364 106.503 147.176C101.871 147.765 104.198 213.41 112.244 252.739C115.696 269.613 198.24 240.892 194.51 232.441C195.039 230.892 194.075 229.189 194.51 227.59C194.825 226.432 195.631 225.953 196.037 224.807C196.608 223.194 195.987 221.029 195.344 219.383C195.081 218.563 195.829 217.68 196.037 216.843C197.024 212.894 194.765 213.242 193.136 210.602C193.161 210.594 193.584 208.71 193.582 208.719C193.832 207.374 193.207 205.65 192.662 204.527C192.294 203.768 191.505 203.293 190.721 203.38C191.511 200.7 192.509 198.47 193.582 195.887C195.481 191.336 197.286 186.574 200.012 182.455C201.128 180.768 200.227 179.216 198.42 179.101C192.573 178.729 186.789 177.887 181.079 176.597Z" fill="#D08B5B"/>
<path fill-rule="evenodd" clip-rule="evenodd" d="M171.951 177.149L158.604 199.744C158.604 199.744 161.77 200.06 163.051 200.676C164.333 201.292 170.217 208.774 170.217 208.774L171.152 212.894L168.936 216.215L169.8 218.301C169.8 218.301 170.417 216.888 171.951 215.791C173.486 214.694 176.87 212.894 176.87 212.894C176.87 212.894 175.745 212.292 175.745 211.585C175.745 210.879 174.755 207.864 176.87 206.726C178.985 205.587 189.916 202.922 189.916 202.922L200.994 179.549L171.951 177.149Z" fill="#EC7495"/>
<path fill-rule="evenodd" clip-rule="evenodd" d="M112.406 147.33L154.789 154.77L174.272 163.942L177.453 166.393L158.602 199.744L129.496 205.056L122.08 224.323L123.594 246.04L170.944 240.393L191.369 237.966L196.171 257.354L195.303 265.33L194.042 269.375L143.407 283.049C143.407 283.049 117.623 280.549 113.053 280.549C108.482 280.549 74.9712 283.878 74.9712 283.878L67.2177 283.049C67.2177 283.049 50.0631 264.964 47.4024 258.527C44.7418 252.091 38.9883 212.965 38.9883 212.965L39.6218 206.953L54.443 168.801C54.443 168.801 56.4222 167.003 58.9174 163.942C61.4126 160.881 112.406 147.33 112.406 147.33Z" fill="#9DDADB"/>
<path fill-rule="evenodd" clip-rule="evenodd" d="M189.117 202.441C185.286 202.636 181.452 203.547 177.987 205.197C176.569 205.873 175.285 206.85 174.909 208.456C174.719 209.276 174.765 210.124 174.866 210.952C174.943 211.58 174.962 212.381 175.507 212.806C175.6 212.878 175.699 212.932 175.802 212.973C174.524 213.55 173.307 214.243 172.225 214.957C171.237 215.61 170.221 216.616 169.764 217.751C169.726 217.622 169.688 217.502 169.65 217.388C168.873 215.088 167.675 213.205 165.788 211.939C165.574 211.158 163.275 207.797 161.139 207.924C158.8 208.061 156.919 208.232 154.804 209.308C154.033 209.291 153.264 209.301 152.504 209.335C152.373 209.34 152.379 209.517 152.504 209.532C153.121 209.61 153.738 209.697 154.355 209.798C155.821 210.033 157.283 210.331 158.713 210.701C160.429 211.145 162.203 211.59 163.807 212.366C166.916 213.873 168.841 217.813 168.446 221.241C168.381 221.803 168.163 223.502 167.383 223.327C166.724 223.179 166.462 221.803 166.232 221.293C165.615 219.941 164.504 219.057 163.171 218.459C161.605 217.756 159.93 217.28 158.307 216.726C157.388 216.412 156.469 216.096 155.548 215.784C154.606 215.46 153.71 215.014 152.707 215.24C152.1 215.378 152.031 216.101 152.371 216.515C152.888 217.147 153.657 217.333 154.403 217.593C155.388 217.935 156.37 218.278 157.352 218.62C158.871 219.148 160.462 219.594 161.943 220.241L161.897 220.347C161.776 220.313 161.635 220.433 161.658 220.581C161.88 221.949 162.188 223.53 161.846 224.899C161.576 225.985 160.623 227.188 159.385 226.869C159.579 226.691 159.651 226.385 159.52 226.102C159.03 225.053 152.607 220.915 152.035 222.452C152.016 222.507 152.075 222.547 152.121 222.539C152.609 222.437 153.427 223.27 153.818 223.534C154.382 223.914 154.954 224.286 155.512 224.677C156.123 225.104 156.719 225.552 157.3 226.015C157.756 226.379 158.1 226.757 158.624 226.941C158.35 227.072 158.132 227.315 158.039 227.626C157.802 228.435 157.346 229.122 156.554 229.479C155.724 229.851 154.788 229.616 153.913 229.708C152.721 229.828 151.682 230.394 150.814 231.204C148.99 232.907 148.076 235.909 145.526 236.714C144.002 237.194 142.312 236.891 140.77 236.673C139.048 236.43 137.371 236.238 135.636 236.492C133.976 236.735 132.406 237.31 130.889 238.011C129.467 238.669 127.895 239.413 126.634 240.393C126.374 239.592 126.112 238.8 125.914 237.982C125.445 236.048 125.191 234.078 125.13 232.091C125.073 230.2 125.179 228.3 125.341 226.417C125.421 225.476 125.548 224.54 125.629 223.599C125.649 223.363 125.692 223.109 125.724 222.856C127.976 221.526 130.342 220.507 132.727 219.459C132.733 219.457 132.74 219.453 132.746 219.451C132.82 219.417 132.892 219.385 132.966 219.354C132.964 219.349 132.962 219.345 132.957 219.341C133.23 219.174 133.42 218.952 133.534 218.702C136.971 216.422 139.845 213.309 141.987 209.678C142.885 208.156 143.749 206.577 144.924 205.244C146.174 203.821 147.66 202.976 149.498 202.536C151.646 202.021 153.86 201.712 156.062 201.536C157.264 201.442 158.607 201.293 159.917 201.3C160.83 201.306 161.723 201.384 162.543 201.61C163.758 201.944 164.468 202.868 165.231 203.802C165.959 204.698 166.684 205.597 167.364 206.531C168.009 207.416 168.617 208.331 169.145 209.291C169.462 209.866 169.756 210.458 170.003 211.068C170.09 211.284 170.204 211.529 170.257 211.753C170.309 211.979 170.212 212.218 170.466 212.218C169.42 212.233 168.725 214.842 169.764 214.78C171.226 214.695 171.961 212.943 171.674 211.388C171.163 208.613 168.404 205.262 167.859 204.552C166.652 202.984 165.408 200.938 163.477 200.209C163.45 200.199 163.42 200.188 163.393 200.18C163.955 199.647 164.398 199.009 164.823 198.36C165.26 197.692 165.782 196.927 165.926 196.134C166.017 195.629 165.389 195.342 165.091 195.784C164.658 196.428 164.449 197.244 164.126 197.952C163.796 198.671 163.395 199.349 163.078 200.074C162.315 199.839 161.491 199.732 160.652 199.696C161.711 198.263 163.519 195.498 163.737 195.143C164.738 193.499 165.691 191.804 166.602 190.107C167.586 188.268 168.429 186.353 169.371 184.493C169.906 183.439 170.445 182.375 171.038 181.353C171.243 181.002 171.463 180.651 171.712 180.332C171.761 180.269 171.822 180.216 171.879 180.156C171.945 180.12 172.012 180.08 172.05 180.059C172.392 179.863 172.513 179.406 172.754 179.116C173.138 178.65 173.59 178.595 174.169 178.588C175.403 178.575 176.641 178.624 177.873 178.658C179.683 178.709 181.492 178.78 183.3 178.875C183.848 178.905 184.393 178.935 184.94 178.968C187.57 179.125 190.198 179.33 192.82 179.582C195.14 179.803 197.459 180.165 199.781 180.338C196.638 187.809 193.152 195.145 189.205 202.226C189.165 202.297 189.135 202.369 189.117 202.441ZM171.674 221.689C171.167 221.921 170.675 222.211 170.217 222.541C170.293 222.027 170.312 221.486 170.29 220.943C170.669 221.348 171.152 221.581 171.674 221.689ZM193.319 208.837C193.283 208.841 193.249 208.86 193.232 208.896C192.531 210.343 192.824 211.96 193.969 213.095C194.569 213.687 195.877 214.355 195.835 215.327C195.799 216.113 194.943 216.773 194.578 217.422C194.238 218.026 194.111 218.69 194.383 219.345C194.732 220.184 195.706 220.518 196.04 221.342C196.462 222.388 195.776 223.65 195.294 224.561C194.846 225.404 194.267 226.248 193.883 227.139C191.307 228.473 185.464 230.895 184.76 231.031C183.902 231.197 183.043 231.356 182.18 231.504C180.526 231.791 178.868 232.058 177.205 232.292C176.259 232.425 175.31 232.556 174.362 232.66C173.533 232.749 172.6 232.869 171.932 232.246C170.586 230.986 171.34 228.875 172.192 227.602C172.209 227.577 172.209 227.554 172.202 227.533C173.005 227.344 173.806 227.125 174.605 226.97C176.14 226.674 177.687 226.425 179.236 226.203C182.417 225.749 185.62 225.449 188.818 225.147C189.611 225.07 189.619 223.824 188.818 223.898C184.223 224.318 179.605 224.717 175.071 225.603C173.935 225.823 172.806 226.072 171.685 226.353C171.155 226.484 170.586 226.689 170.031 226.696C169.997 226.696 169.963 226.696 169.929 226.694C168.841 226.66 168.683 225.728 169.281 224.952C169.355 224.857 169.431 224.762 169.509 224.671C170.565 223.411 171.881 222.57 173.237 221.699C174.757 221.492 176.271 221.031 177.759 220.693C181.431 219.856 185.102 219.019 188.776 218.185C189.497 218.02 189.19 216.912 188.47 217.075C185.681 217.707 182.893 218.339 180.104 218.971L176.022 219.897C175.207 220.08 174.188 220.45 173.229 220.584C172.756 220.649 172.298 220.657 171.883 220.56C170.546 220.243 170.479 218.571 171.055 217.578C171.702 216.462 172.923 215.765 174.007 215.133C175.885 214.036 177.883 213.247 179.836 212.339C180.182 212.262 180.529 212.186 180.875 212.11C182.89 211.666 185.193 211.449 187.09 210.635C187.659 210.394 187.348 209.498 186.786 209.511C185.314 209.543 183.774 210.067 182.335 210.377C180.778 210.715 179.219 211.051 177.662 211.388C177.505 211.421 176.58 211.717 176.44 211.652C176.352 211.609 176.32 211.301 176.29 211.098C176.195 210.43 176.126 209.729 176.229 209.058C176.457 207.556 177.71 206.85 178.978 206.273C181.8 204.99 184.895 204.187 187.976 203.866C188.686 203.792 189.395 203.745 190.109 203.722C190.948 203.696 191.639 203.549 192.064 204.375C192.731 205.677 193.099 207.351 193.319 208.837ZM189.399 256.041C188.784 253.913 188.951 251.641 188.53 249.47C188.312 248.351 188.016 247.24 187.692 246.147C187.43 245.264 186.994 244.324 186.944 243.403C186.941 243.341 187.014 243.306 187.064 243.334C187.931 243.831 188.598 244.906 189.092 245.749C189.685 246.758 190.137 247.815 190.502 248.926C191.229 251.14 191.826 253.81 190.888 256.041C190.609 256.705 189.629 256.838 189.399 256.041ZM165.397 272.149C164.481 271.509 163.813 270.615 163.036 269.825C162.271 269.049 163.466 267.853 164.231 268.63C164.894 269.303 165.47 270.144 166.25 270.689C166.626 270.951 166.799 271.424 166.553 271.846C166.336 272.217 165.772 272.41 165.397 272.149ZM160.286 247.559C161.959 246.835 163.604 246.047 165.355 245.526C166.402 245.214 166.845 246.846 165.805 247.156C164.192 247.636 162.68 248.352 161.139 249.019C160.15 249.446 159.29 247.989 160.286 247.559ZM142.618 247.052C142.209 246.043 143.844 245.607 144.248 246.603C144.712 247.749 145.244 248.866 145.708 250.012C146.117 251.021 144.481 251.457 144.078 250.461C143.614 249.315 143.082 248.199 142.618 247.052ZM125.179 267.219C124.906 267.583 124.452 267.78 124.022 267.523C123.663 267.307 123.443 266.734 123.719 266.366C124.525 265.292 125.341 264.231 126.285 263.273C127.051 262.497 128.245 263.693 127.48 264.469C126.637 265.324 125.898 266.26 125.179 267.219ZM122.685 154.064C123.461 154.594 124.141 155.238 124.803 155.901C125.574 156.671 124.378 157.867 123.608 157.096C123.05 156.538 122.486 155.971 121.832 155.524C121.454 155.266 121.284 154.786 121.529 154.368C121.748 153.993 122.308 153.807 122.685 154.064ZM148.056 181.273C147.618 182.151 147.223 183.013 147.198 184.011C147.171 185.099 145.481 185.1 145.508 184.011C145.54 182.705 146.022 181.571 146.597 180.419C147.083 179.444 148.541 180.302 148.056 181.273ZM157.365 159.421C158.274 158.815 159.119 160.28 158.219 160.881C157.489 161.367 156.758 161.855 156.028 162.342C155.12 162.947 154.274 161.482 155.175 160.882C155.905 160.395 156.635 159.908 157.365 159.421ZM116.989 197.627C116.834 198.702 115.205 198.242 115.359 197.178C115.597 195.533 115.887 193.91 116.333 192.308C116.625 191.26 118.255 191.708 117.962 192.758C117.516 194.36 117.226 195.983 116.989 197.627ZM111.063 216.995C109.975 216.972 109.975 215.281 111.063 215.304C112.048 215.325 113.015 215.585 113.965 215.822C115.021 216.086 114.571 217.716 113.516 217.452C112.713 217.251 111.895 217.013 111.063 216.995ZM108.876 256.011C108.502 256.193 108.118 256.356 107.741 256.529C106.984 256.875 106.228 257.222 105.472 257.569C103.897 258.292 102.323 259.018 100.751 259.746C97.603 261.203 94.4308 262.61 91.2753 264.052C88.0575 265.522 84.8482 267.012 81.6428 268.51C80.1327 269.215 78.6111 269.895 77.0925 270.581C75.7941 271.169 74.1891 272.195 72.7636 272.292C72.6903 272.297 72.6658 272.204 72.7077 272.156C73.2462 271.544 74.1052 271.187 74.8129 270.789C75.5359 270.382 76.2724 269.999 77.0055 269.611C78.5338 268.801 80.064 267.997 81.6071 267.216C84.6937 265.653 87.7863 264.102 90.8794 262.553C94.0341 260.972 97.1847 259.382 100.367 257.858C101.865 257.14 103.365 256.424 104.866 255.711C105.679 255.325 106.492 254.939 107.305 254.554C107.657 254.388 108.005 254.208 108.364 254.059C108.841 253.862 109.204 253.902 109.696 253.78C110.499 253.582 110.846 254.603 110.23 255.048C109.723 255.414 109.456 255.728 108.876 256.011ZM97.5925 273.348C97.419 272.926 97.7822 272.413 98.1827 272.308C98.6625 272.181 99.0472 272.473 99.2224 272.898C99.6857 274.026 100.346 275.06 101.195 275.934C101.954 276.715 100.76 277.911 100 277.13C98.9355 276.034 98.1707 274.755 97.5925 273.348ZM89.2915 246.208C88.521 245.438 89.7164 244.242 90.4867 245.013L92.6771 247.204C93.4476 247.975 92.252 249.17 91.482 248.399L89.2915 246.208ZM66.819 242.636C65.2442 243.098 63.4074 243.522 62.3338 244.866C62.2814 244.932 62.1933 244.848 62.2248 244.782C63.5993 241.932 67.5411 240.932 70.2703 239.933C72.2006 239.227 74.1813 238.641 76.1786 238.117C75.9789 235.838 76.5295 233.395 76.7209 231.127C76.9252 228.705 77.0915 226.277 77.1768 223.848C77.2641 221.37 77.2852 218.875 77.2036 216.396C77.1225 213.927 76.802 211.487 76.6617 209.026C76.6482 208.788 76.9795 208.776 77.0509 208.973C77.8803 211.257 78.2346 213.787 78.5046 216.196C78.7827 218.677 78.875 221.151 78.8395 223.646C78.8027 226.212 78.6536 228.771 78.4489 231.329C78.3519 232.541 78.2393 233.752 78.133 234.963C78.0519 235.888 78.0143 236.805 77.8258 237.7C79.0305 237.404 80.2379 237.124 81.4415 236.852C85.2794 235.986 89.1333 235.182 92.9551 234.245C94.8312 233.786 96.6804 233.235 98.548 232.746C100.307 232.285 102.163 231.727 103.968 231.521C104.613 231.448 104.695 232.33 104.268 232.629C102.801 233.66 100.852 234.377 99.1567 234.954C97.4556 235.533 95.6872 235.95 93.9436 236.379C90.3075 237.273 86.637 238.005 82.9719 238.767C79.3119 239.528 75.6449 240.283 72.0261 241.222C70.2834 241.674 68.5465 242.128 66.819 242.636ZM58.1893 197.402C57.2484 197.955 56.3989 196.493 57.3365 195.942C58.5633 195.222 59.8708 194.68 61.1889 194.152C62.2005 193.747 62.6357 195.383 61.6383 195.783C60.4537 196.257 59.2917 196.755 58.1893 197.402ZM54.782 260.218C53.8385 260.766 52.9884 259.304 53.9291 258.758C55.2504 257.992 56.6974 257.481 58.0666 256.811C59.0408 256.333 59.8964 257.792 58.9195 258.271C57.5505 258.941 56.1033 259.452 54.782 260.218ZM53.2495 224.561C54.1617 225.428 55.3793 225.836 56.5273 226.291C57.5283 226.688 57.0893 228.323 56.0779 227.922C54.6477 227.354 53.1908 226.836 52.0543 225.756C51.2638 225.005 52.461 223.812 53.2495 224.561ZM63.342 176.135C64.3448 176.529 63.9056 178.163 62.8926 177.766C61.7691 177.325 60.6088 176.989 59.4853 176.548C58.4826 176.155 58.9216 174.52 59.9346 174.918C61.0581 175.359 62.2184 175.694 63.342 176.135ZM81.1461 156.901C82.2117 156.721 82.6655 158.35 81.5955 158.531C80.2679 158.755 78.9605 159.018 77.7014 159.505C76.6846 159.899 76.2483 158.263 77.252 157.875C78.5114 157.387 79.8187 157.125 81.1461 156.901ZM87.0289 203.732C86.0517 203.252 86.9091 201.794 87.8817 202.272C88.9068 202.776 89.9689 203.166 91.0873 203.404C92.1523 203.631 91.6987 205.261 90.6379 205.035C89.3792 204.767 88.1815 204.299 87.0289 203.732ZM92.585 177.353C93.6371 177.064 94.082 178.696 93.0344 178.983C91.191 179.488 89.2932 179.751 87.4364 180.2C86.3782 180.457 85.9305 178.826 86.987 178.57C88.8439 178.12 90.7419 177.858 92.585 177.353ZM116.155 169.074C117.225 169.272 116.769 170.902 115.706 170.705C114.574 170.495 113.427 170.492 112.28 170.491C111.191 170.491 111.193 168.8 112.28 168.801C113.584 168.801 114.87 168.837 116.155 169.074ZM193.027 177.908C190.266 177.644 187.5 177.432 184.731 177.274C184.602 177.267 184.475 177.259 184.346 177.252C184.331 177.223 184.312 177.195 184.293 177.166C183.389 175.838 182.724 174.511 182.147 173.011C181.595 171.582 181.061 170.109 180.212 168.82C179.243 167.351 177.935 166.201 176.502 165.205C175.633 165.79 174.826 166.475 174.088 167.201C173.311 167.964 172.115 166.769 172.892 166.005C173.548 165.36 174.249 164.764 174.989 164.226C174.134 163.706 173.262 163.218 172.412 162.733C169.223 160.913 165.959 159.23 162.628 157.692C161.079 156.975 159.512 156.339 157.933 155.695C157.084 155.348 156.245 154.902 155.396 154.501C155.457 153.9 155.278 153.228 154.817 152.833C154.477 152.543 154.213 152.436 153.807 152.231C153.717 152.199 153.662 152.18 153.636 152.169C153.655 152.174 153.71 152.19 153.801 152.22C154.017 152.32 154.033 152.29 153.852 152.133C153.841 151.791 153.167 151.068 153.013 150.715C152.476 149.504 152.31 148.223 151.517 147.12C150.425 145.601 148.591 145.026 146.882 145.541C146.705 143.713 146.658 141.805 145.969 140.173C145.95 140.129 145.889 140.11 145.862 140.158C145.143 141.382 145.082 142.745 145.027 144.157C144.974 145.482 145.025 146.837 145.198 148.154C145.088 148.238 144.976 148.319 144.86 148.397C144.315 148.756 143.728 149.033 143.111 149.238C141.936 149.627 140.705 149.796 139.473 149.855C136.293 150.007 133.017 149.686 129.89 149.141C126.727 148.589 121.879 147.761 119.064 146.177C117.207 145.134 115.494 143.859 113.757 142.625C114.387 140.596 114.548 138.415 113.914 136.701C113.838 136.496 113.517 136.457 113.455 136.701C113.058 138.336 112.942 139.981 112.414 141.598C112.405 141.621 112.397 141.646 112.388 141.669C112.224 141.558 112.059 141.447 111.894 141.338C111.514 141.086 110.996 141.274 110.768 141.633C107.119 147.384 101.341 147.714 95.2736 148.741C88.6332 149.866 81.9595 151.079 75.575 153.279C69.4693 155.384 63.6341 158.449 59.0116 163.027C57.9652 164.063 56.9866 165.167 56.0629 166.32C56.9566 166.433 57.8429 166.608 58.7177 166.883C59.7536 167.209 59.3084 168.841 58.2684 168.514C57.144 168.16 56.0072 167.985 54.8587 167.898C51.7178 172.197 49.2688 177.071 47.151 181.868C43.089 191.066 40.445 200.862 39.2283 210.835C39.8963 210.435 40.5764 210.053 41.2734 209.698C42.2418 209.206 43.096 210.665 42.1265 211.158C41.0498 211.706 40.0041 212.31 38.9908 212.965C38.5482 217.33 38.3767 221.724 38.4806 226.11C38.7278 236.568 40.1391 247.332 43.3313 257.31C44.8968 262.207 46.9715 267.064 50.0623 271.202C51.4609 273.076 53.0496 274.767 54.9215 276.177C55.8278 276.862 56.787 277.473 57.7989 277.988C59.1024 278.656 60.801 278.876 61.925 279.821C62.2947 280.132 62.5799 280.541 62.7954 281.004C62.6708 281.883 62.656 282.765 62.8968 283.644C62.9729 283.919 63.1799 284.143 63.4355 284.251C63.4398 284.327 63.4398 284.401 63.4398 284.472C63.4398 284.506 63.4905 284.515 63.4968 284.481C63.5074 284.415 63.5179 284.35 63.5285 284.282C63.6109 284.31 63.6975 284.323 63.7863 284.323C66.9954 284.335 70.2086 284.256 73.422 284.147C73.1735 283.386 72.9044 282.631 72.646 281.869C72.2951 280.835 73.9279 280.395 74.2757 281.42C74.578 282.31 74.8941 283.193 75.1753 284.086C78.6183 283.958 82.0603 283.804 85.4961 283.691C92.8039 283.447 100.109 283.367 107.419 283.213C118.771 282.972 130.205 282.479 141.574 282.962C141.967 282.127 142.407 281.311 142.825 280.488C143.317 279.516 144.775 280.372 144.284 281.341C143.994 281.913 143.694 282.478 143.408 283.049C145.711 283.169 148.011 283.327 150.306 283.543C154.223 283.91 158.102 284.563 162.015 284.969C165.993 285.383 169.885 285.31 173.831 284.652C174.541 284.534 174.959 284.105 175.133 283.572C175.139 283.57 175.143 283.566 175.147 283.559C175.35 283.323 175.54 283.126 175.737 282.955C175.971 282.803 176.225 282.674 176.523 282.56C177.079 282.348 177.657 282.219 178.245 282.133C178.891 282.036 179.546 282.027 180.193 281.947C180.737 281.877 181.27 281.773 181.802 281.647C182.76 281.419 183.668 281.121 184.572 280.725C185.36 280.381 186.072 279.886 186.744 279.347C188.134 278.331 189.338 277.033 190.39 275.684C191.003 274.896 191.58 274.078 192.104 273.227C193.017 271.751 193.794 270.219 194.58 268.674C194.865 268.216 195.125 267.747 195.363 267.269C193.827 266.816 192.277 266.447 190.648 266.421C189.56 266.403 189.56 264.712 190.648 264.73C192.516 264.76 194.282 265.196 196.037 265.716C196.123 265.489 196.205 265.26 196.281 265.028C196.49 264.544 196.663 264.048 196.807 263.545C196.891 263.316 196.976 263.088 197.06 262.86C197.25 262.069 197.44 261.277 197.633 260.484C198.015 259.216 198.317 257.929 198.539 256.625C198.725 255.767 198.869 254.902 198.966 254.027C199.262 251.908 199.502 249.792 199.519 247.649C199.494 246.328 199.41 245.009 199.266 243.697C199.205 242.805 199.101 241.917 198.962 241.036C198.78 239.725 198.6 238.428 198.298 237.134C198.072 236.259 197.846 235.384 197.62 234.509C197.056 232.685 196.39 230.897 195.623 229.149C195.581 229.04 195.368 228.799 195.239 228.796C195.142 228.794 195.006 228.883 195.051 229.002C195.055 229.012 195.059 229.025 195.064 229.035C195.019 228.936 194.977 228.834 194.933 228.735C194.895 228.642 194.747 228.456 194.633 228.458C194.626 228.458 194.62 228.458 194.612 228.46C194.641 228.439 194.669 228.412 194.696 228.38C195.455 227.482 195.947 226.3 196.49 225.261C196.94 224.402 197.364 223.498 197.487 222.528C197.594 221.676 197.449 220.837 196.914 220.148C196.306 219.364 195.161 218.996 195.797 217.863C196.519 216.574 197.582 215.456 196.524 213.991C195.985 213.245 195.131 212.835 194.498 212.186C193.769 211.436 193.422 210.432 193.441 209.407C193.486 209.433 193.545 209.42 193.566 209.356C194.179 207.505 193.735 205.472 193.107 203.669C192.765 202.691 192.04 202.422 191.198 202.374C194.848 195.241 198.264 187.993 201.309 180.579C201.41 180.336 201.51 180.093 201.609 179.85C201.757 179.486 201.444 179.003 201.083 178.922C198.45 178.345 195.708 178.161 193.027 177.908Z" fill="black"/>
<path fill-rule="evenodd" clip-rule="evenodd" d="M164.716 96.1525C163.269 78.4678 158.863 62.8046 138.159 62.1367C128.816 62.2204 119.279 64.2103 110.687 67.892C89.8037 78.3889 83.1777 116.745 101.576 132.185C101.467 132.247 101.441 132.428 101.57 132.515C105.371 135.078 109.596 137.188 113.828 138.96C125.099 143.737 138.369 145.812 149.864 140.63C167.407 133.147 167.671 112.324 164.716 96.1525Z" fill="#D08B5B"/>
<path fill-rule="evenodd" clip-rule="evenodd" d="M199.247 87.9099C199.968 87.2589 200.505 86.4051 200.777 85.4476C201.026 84.5748 201.043 83.6216 200.779 82.7508C200.497 81.8166 199.888 81.0727 200.025 80.1005C200.039 80.0054 200.058 79.906 200.088 79.8067C200.615 77.9764 201.911 76.6555 201.448 74.6265C201.317 74.0537 201.07 73.5381 200.727 73.1323C200.765 72.6927 200.798 72.2488 200.826 71.805C201.587 70.0191 201.559 67.8971 200.748 66.1387C200.649 65.2383 200.499 64.3464 200.288 63.4693C200.385 62.6937 200.25 61.8398 200.001 61.1614C199.564 59.9677 199.024 58.7913 198.438 57.6344C198.507 57.318 198.476 56.9836 198.302 56.6863C197.985 56.1458 197.567 55.6707 197.139 55.2064C196.837 54.6647 196.532 54.1274 196.23 53.5972C196.09 53.3535 195.935 53.0832 195.765 52.7968C196.229 51.9332 196.477 51.0916 195.986 50.0761C195.802 49.6946 195.294 49.4133 194.877 49.4382C194.42 49.4655 193.96 49.486 193.496 49.5035C192.631 48.4556 191.65 47.5149 190.599 46.9734C189.534 46.0689 188.455 45.1812 187.405 44.2745C187.108 44.0167 186.808 43.7588 186.511 43.501C186.509 43.4946 186.507 43.4862 186.505 43.4798C186.285 42.6788 186.039 41.8884 185.792 41.0937C185.638 40.6012 185.592 40.0855 185.113 39.8171C184.114 39.257 182.577 39.1683 181.43 39.0732C181.316 38.9717 181.202 38.8724 181.089 38.7709C181.609 37.3803 181.517 35.9029 180.861 34.5101C180.637 34.0367 179.862 33.8232 179.436 34.136C178.453 34.8588 177.287 35.1146 176.134 35.0089C174.439 33.7028 167.602 27.7964 166.546 27.1729C166.533 27.1505 166.522 27.1281 166.508 27.1059C165.914 26.1552 165.193 25.3918 164.382 24.7798C164.267 24.6587 164.151 24.5373 164.035 24.416C164.137 23.6913 164.405 22.9915 164.836 22.4061C164.883 22.3385 164.935 22.2729 164.988 22.2095C165.743 21.3092 164.822 20.151 163.767 20.6223C163.692 20.6561 163.616 20.6899 163.54 20.7259C162.729 21.0881 161.833 21.4819 160.899 21.8141C160.557 21.6858 160.209 21.5696 159.891 21.4415L156.489 20.0705C155.929 19.8447 155.338 19.6535 154.796 19.3882C154.607 18.1288 153.348 17.3028 152.04 17.3459C152.116 17.1042 152.229 16.8693 152.387 16.6468C152.434 16.5813 152.484 16.5179 152.537 16.4566C153.209 15.6725 152.311 14.2184 151.35 14.9158C151.283 14.9644 151.213 15.0131 151.146 15.0617C150.878 15.2496 150.605 15.4258 150.329 15.5966C149.886 15.403 149.388 15.3588 148.866 15.5636C147.711 16.017 146.647 16.4779 145.63 17.1885C145.588 17.2174 145.546 17.2417 145.504 17.269C144.999 16.6578 144.198 16.249 143.476 16.2535C143.461 16.2535 143.45 16.2533 143.437 16.253C142.898 15.429 141.909 14.9501 140.954 15.0665C141.018 13.884 139.837 12.8288 138.762 12.7005C137.506 12.5508 136.374 13.2819 135.997 14.5103C135.892 14.8522 135.787 15.1944 135.682 15.5366C134.707 15.0431 133.678 14.665 132.603 14.4762C130.154 14.0463 127.761 14.5041 125.401 15.1855C125.166 15.2536 124.93 15.3235 124.695 15.3933C124.358 15.0025 124.042 14.6024 123.741 14.2289C123.22 13.5843 121.97 14.1 122.054 14.9285C122.113 15.5002 121.881 15.9115 121.508 16.2038C121.099 16.2638 120.703 16.282 120.106 16.27C119.316 16.2539 118.957 16.2292 118.132 15.9066C117.748 15.7566 117.269 15.362 117.045 15.0078C116.186 13.6494 114.004 13.2836 112.964 14.5787C111.87 14.0988 110.49 14.7607 109.882 15.694C109.565 16.182 108.902 16.4549 108.067 16.6895C107.441 16.8653 106.801 16.9985 106.157 17.1149C105.87 16.725 105.267 16.4636 104.824 16.7905C104.524 17.0126 104.232 17.2407 103.945 17.4744C101.729 17.7805 99.5252 17.7915 97.4125 16.9254C95.6239 16.192 93.9816 18.1949 94.2767 19.8764C93.7588 20.1468 93.1967 20.3266 92.685 20.6098C91.5687 21.2282 90.6521 22.2057 90.0934 23.3542C89.9933 23.5598 89.9028 23.7687 89.8166 23.9785C89.3994 24.319 88.9868 24.6686 88.5841 25.0374C87.9137 24.6929 87.2454 24.3484 86.575 24.0039C86.0732 23.746 85.2278 23.9257 85.1288 24.5936C84.9664 25.6926 84.5722 26.6035 84.0093 27.3665C82.1794 28.3302 80.419 29.4123 78.7345 30.6149C76.7971 31.2236 74.7373 31.5787 73.0444 31.9781C72.4647 32.1155 72.1485 32.8743 72.4752 33.3794C72.821 33.9141 73.1667 34.4488 73.5104 34.9835C72.5469 35.9262 71.6425 36.9111 70.7887 37.9298C68.4127 40.7619 66.4246 43.8666 64.6453 47.1552C63.9412 47.4405 63.237 47.7237 62.5329 48.0091C61.854 48.2838 61.5483 49.0743 62.0986 49.6555C62.36 49.9323 62.594 50.224 62.7943 50.5305C61.7971 52.1853 60.6228 53.6944 58.9805 54.6835C58.4809 54.9836 58.1056 55.4549 57.9053 55.9896C57.7346 56.1038 57.5659 56.2264 57.3994 56.3511C56.9355 56.7019 56.6552 57.467 57.1991 57.9214C57.5807 58.2426 57.9391 58.6231 58.2426 59.0437C58.308 59.2825 58.3755 59.5234 58.4429 59.7622C56.9166 61.1698 55.6474 62.8057 54.6945 64.6402C54.4689 64.6043 54.237 64.6275 54.0494 64.767C52.346 66.0288 52.2954 68.0387 52.9805 69.8352C52.5673 72.5426 52.833 75.3176 53.6299 77.9405C52.5821 78.9888 51.9517 80.5021 51.6945 81.9604C51.2412 84.5219 51.2096 88.4615 51.0916 91.0759C49.9489 92.1813 49.1351 93.6121 48.6819 95.1507C48.3003 95.341 47.9187 95.5312 47.5371 95.7214C47.1977 95.8905 46.9489 96.3364 46.97 96.7126C47.067 98.5323 47.8154 99.9695 48.8084 101.271C49.1604 102.275 49.6812 103.201 50.3642 104.089C50.8365 104.697 51.2982 105.281 51.7051 105.938C51.7472 106.004 51.7725 106.065 51.7915 106.107C51.6313 106.28 51.4985 106.568 51.3825 106.773C50.4085 108.493 50.3937 110.51 51.7767 112.008C51.256 112.435 51.2391 113.297 51.6987 113.826C54.6903 117.252 57.1843 121.417 61.3354 123.237C61.3544 123.269 61.3712 123.3 61.386 123.332C60.5448 125.361 60.431 126.416 61.1183 128.512C61.1225 128.531 61.1288 128.548 61.1351 128.567C61.5019 129.666 62.1766 131.427 63.393 131.769C63.7767 131.877 64.1541 131.926 64.5272 131.924C65.4928 132.856 66.4563 133.79 67.4197 134.724C67.504 135.187 67.5568 135.654 67.5736 136.125C67.601 136.914 68.341 137.552 69.1379 137.319C69.4183 137.237 70.97 135.726 71.2546 135.734C71.3979 135.878 71.5371 136.022 71.6762 136.167C72.1885 136.706 72.899 137.556 72.958 138.12C73.0719 139.183 73.7676 140.401 74.8912 140.616C75.3129 141.045 75.9875 141.174 76.504 140.614C76.5378 140.578 76.5715 140.542 76.6073 140.511C76.6622 140.504 76.7149 140.498 76.7697 140.492C77.0184 141.236 77.2672 141.98 77.5181 142.721C78.0093 144.184 79.8856 145.124 81.218 144.271C81.4331 144.4 81.6439 144.537 81.8547 144.674C82.1751 144.879 82.4998 145.089 82.8329 145.285C82.8519 145.34 82.8709 145.395 82.8877 145.448C83.1028 146.105 83.9966 146.458 84.5469 146.08C84.7177 146.135 84.8926 146.179 85.0697 146.215C85.9995 146.399 86.9355 146.348 87.8336 146.038C88.4766 145.818 89.0901 145.397 89.7816 145.34C89.8248 145.336 89.8693 145.339 89.9132 145.338C90.4773 146.497 91.7665 147.495 92.7824 147.834C94.1131 148.279 95.4751 148.12 96.6869 147.576C97.0138 148.231 97.4245 148.852 97.9151 149.425C98.1871 149.743 98.6783 149.675 98.9587 149.425C99.4912 148.952 100.02 148.477 100.549 148.001C100.931 147.853 101.317 147.676 101.72 147.511C102.979 146.995 104.36 146.781 105.525 146.036C106.078 145.682 106.598 145.231 107.026 144.708C107.833 144.241 108.575 143.659 109.243 142.992C109.576 142.994 109.924 142.916 110.261 142.745C111.671 142.026 112.413 140.564 112.479 139.067C113.621 136.372 114.296 133.498 114.481 130.556C114.541 129.59 114.551 128.616 114.477 127.65C114.427 126.97 114.256 126.515 113.999 125.9C113.912 125.699 113.834 125.515 113.773 125.313C113.788 124.662 113.796 124.011 113.805 123.362C113.98 122.814 114.292 122.305 114.726 121.876C115.399 121.212 115.706 119.834 115.095 119.014C114.697 118.484 114.3 117.953 113.902 117.423C114.013 115.147 114.557 111.524 113.351 111.144C113.4 110.805 113.503 110.472 113.562 110.135C113.845 108.521 113.676 107.077 112.82 105.665C112.641 105.372 112.489 105.112 112.365 104.858C112.287 104.393 112.209 103.928 112.131 103.463C112.011 102.747 111.893 102.024 111.791 101.297C111.739 100.371 111.69 99.4454 111.638 98.5175C111.589 97.6637 111.534 96.8098 111.477 95.9539C111.5 95.5713 111.534 95.1888 111.583 94.8062C111.872 92.5258 112.801 91.6825 114.412 90.0974C114.665 90.0572 114.916 90.0128 115.162 89.9621C116.311 89.7233 117.513 89.3534 118.696 89.4865C119.98 89.6303 121.129 90.1861 122.377 89.476C122.744 89.2646 123.551 88.6813 123.621 88.2184C123.625 88.1889 123.631 88.1635 123.64 88.1445C123.726 88.1318 123.838 88.1212 123.907 88.1191C124.898 88.0853 125.845 88.4763 126.844 88.3685C128.027 88.2417 129.085 87.7154 129.781 86.9356C130.673 87.1554 131.583 87.2547 132.509 87.1321C133.285 87.0307 133.98 86.777 134.668 86.4008C135.167 86.1303 135.009 86.0521 135.553 86.2719C136.791 86.7749 137.91 87.4386 139.304 87.0941C140.027 86.9165 140.651 86.5255 141.176 85.9993C141.3 85.8767 141.511 85.6928 141.652 85.5195C142.314 85.8556 143.98 86.6143 144.254 86.6819C145.03 86.8721 145.852 86.8426 146.607 86.5889C147.161 86.4029 147.84 85.8957 148.327 85.7921C148.957 85.6569 150.357 86.5361 151.11 86.8383C152.429 87.3688 153.827 87.4999 155.164 86.9525C155.623 86.7644 156.517 86.0141 156.861 86.0204C157.42 86.7115 158.98 90.4926 159.448 91.8727C161.343 97.4523 161.834 114.874 160.959 119.319C160.926 119.45 160.89 119.579 160.854 119.71C159.779 123.575 158.659 127.506 156.861 131.108C155.164 134.502 152.817 137.558 149.451 139.412C145.959 141.335 141.861 141.84 137.935 141.58C135.408 141.415 132.922 140.906 130.477 140.268C129.199 139.936 127.932 139.566 126.671 139.181C126.121 139.014 125.562 138.858 125.023 138.664C124.07 138.319 123.57 138.292 122.657 138.733C121.827 139.135 121.614 140.321 122.046 141.067C122.75 142.284 124.04 142.368 125.286 142.724C126.555 143.085 127.829 143.432 129.11 143.742C131.566 144.334 134.063 144.788 136.58 144.998C141.087 145.376 145.732 144.793 149.834 142.821C150.298 142.597 150.745 142.358 151.177 142.1C151.017 142.324 150.855 142.548 150.69 142.77C150.235 143.385 150.572 144.431 151.211 144.767C151.413 144.873 151.616 144.974 151.82 145.074C151.848 145.139 151.877 145.205 151.911 145.27C152.495 146.445 153.718 147.139 154.964 147.439C156.443 147.794 158.101 147.542 159.606 147.498C161.001 147.456 162.397 147.413 163.791 147.371C164.12 147.363 164.448 147.352 164.777 147.342C166.434 147.291 168.089 147.242 169.744 147.192C171.22 147.147 171.15 147.261 172.536 146.669C173.153 146.403 173.659 146.027 174.085 145.526C174.351 145.408 174.608 145.272 174.855 145.118C175.647 144.624 176.351 143.96 177.001 143.229C178.103 143.577 179.649 143.254 179.864 141.865C180.209 139.644 183.089 138.695 184.434 137.089C185.52 135.793 186.296 134.096 186.256 132.467C188.992 131.139 190.481 127.642 190.829 124.674C190.991 123.298 190.966 121.825 191.2 120.426C191.303 120.314 191.396 120.196 191.474 120.069C192.161 118.955 192.76 117.807 193.287 116.632C194.004 116.115 194.866 115.795 195.768 115.743C197.986 115.614 198.403 112.615 196.289 111.892C196.278 111.888 196.27 111.885 196.259 111.881C196.833 110.444 196.784 108.743 196.089 107.382C196.118 107.234 196.145 107.088 196.173 106.94C197.36 105.661 198.041 103.884 197.965 102.153C198.507 101.77 199.114 101.474 199.778 101.29C200.805 101.007 200.811 99.7518 200.052 99.1896C199.746 98.9635 199.493 98.6993 199.282 98.4076C199.807 96.8267 199.601 94.9986 198.528 93.7009C199.209 92.8259 199.89 91.9509 200.571 91.0759C201.022 90.4968 201.26 89.514 200.571 88.9645C200.13 88.6116 199.689 88.2607 199.247 87.9099Z" fill="black"/>
<path fill-rule="evenodd" clip-rule="evenodd" d="M149.69 120.752C150.415 119.473 152.578 119.681 152.909 121.173C153.58 124.198 149.974 126.992 147.235 127.062C144.513 127.131 141.459 124.813 141.853 121.886C141.95 121.162 142.917 121.25 143.247 121.704L143.375 121.878C144.27 123.081 145.451 124.326 147.112 124.033C147.801 123.912 148.426 123.481 148.842 122.927C149.344 122.259 149.289 121.461 149.69 120.752ZM132.384 98.6193C132.753 98.5177 133.125 98.557 133.452 98.6961C134.181 98.8299 134.791 99.4385 135.005 100.133C135.022 100.194 135.041 100.253 135.062 100.312L135.094 100.4L135.007 100.177C135.047 100.396 135.226 100.627 135.29 100.847C135.369 101.118 135.388 101.425 135.361 101.723C135.593 101.726 135.825 101.733 136.057 101.753L136.281 101.774C137.532 101.89 138.906 102.103 139.648 103.185C140.064 103.793 139.673 104.887 138.908 105.004C137.73 105.185 136.715 104.532 135.54 104.402C134.43 104.278 133.269 104.349 132.173 104.549C129.911 104.963 127.833 105.88 125.628 106.456L125.328 106.532L125.329 106.531C124.951 106.622 124.522 106.097 124.896 105.789C126.662 104.338 128.923 103.162 131.15 102.445C130.826 101.929 130.725 101.249 130.947 100.695C130.981 100.58 131.024 100.468 131.069 100.357L131.163 100.128C131.172 100.02 131.193 99.9128 131.223 99.8082L131.227 99.7763L131.23 99.7782C131.396 99.239 131.829 98.7724 132.384 98.6193ZM154.914 98.7028C155.397 98.2194 156.076 98.2908 156.58 98.6713L156.647 98.7237C157.122 98.9349 157.515 99.3962 157.773 99.8238C158.041 100.268 158.22 100.72 158.227 101.209C159.396 101.213 160.516 101.564 161.374 102.508C161.651 102.813 161.84 103.283 161.688 103.696L161.597 103.942C161.309 104.722 160.013 105.171 159.573 104.254L159.552 104.209C159.084 103.119 157.288 103.234 156.333 103.345C155.668 103.423 155.01 103.588 154.368 103.774C154.141 103.839 153.917 103.91 153.693 103.982L153.469 104.055C153.349 104.094 152.726 104.432 153.114 104.352C153.218 104.33 153.296 104.482 153.19 104.533C152.728 104.754 152.235 104.314 152.266 103.818C152.32 102.956 153.687 102.484 154.345 102.187L154.384 102.169C154.637 102.052 154.901 101.941 155.174 101.837C155.02 101.609 154.894 101.355 154.788 101.083C154.688 100.826 154.622 100.576 154.585 100.303C154.549 100.169 154.549 100.036 154.585 99.9018L154.591 99.8635C154.572 99.7752 154.563 99.6839 154.565 99.5919L154.561 99.5562H154.565C154.578 99.2343 154.705 98.9118 154.914 98.7028ZM147.197 107.876C149.053 108.45 152.114 110.013 151.147 112.424C149.797 114.639 146.216 113.011 144.481 112.296C142.922 111.779 142.11 113.965 143.618 114.624C156.074 119.553 156.028 106.543 147.649 106.734C146.726 106.755 146.697 107.686 147.197 107.876ZM130.717 90.9119L131.034 90.8195C132.678 90.3429 134.357 89.5199 135.818 90.8041C136.391 91.3084 136.509 92.3562 136.099 92.9852C135.164 94.4184 133.778 94.1994 132.269 94.3216C131.119 94.4146 129.987 94.7523 128.914 95.1744C128.037 95.5195 127.224 96.0054 126.457 96.5473C125.702 97.0801 125.187 97.9131 124.413 98.3926C124.13 98.5685 123.802 98.3875 123.701 98.1024C123.34 97.0911 123.949 95.8313 124.465 94.9696C125.095 93.9183 126.052 93.0586 127.08 92.408C128.207 91.6955 129.452 91.2842 130.717 90.9119ZM154.683 89.8237C157.463 89.8229 160.138 91.3698 161.693 93.6373C162.221 94.4077 161.834 95.549 161.076 95.9926C160.225 96.4905 159.315 96.132 158.754 95.4185L158.721 95.3753C157.829 94.1873 156.68 93.2516 155.317 92.6425C154.652 92.3451 153.917 92.104 153.198 91.9816L152.965 91.9418C152.64 91.8872 152.262 91.835 151.967 91.8861C151.809 91.9068 151.664 91.959 151.531 92.0385C151.595 92.1788 151.429 92.3479 151.276 92.2638C150.585 91.8842 150.67 91.207 151.241 90.6808C152.048 89.9362 153.64 89.8239 154.683 89.8237Z" fill="black"/>
<path fill-rule="evenodd" clip-rule="evenodd" d="M148.504 116.101C146.155 115.042 141.936 115.966 140.404 116.333C136.843 117.187 133.261 119.033 132.154 121.926C130.906 125.185 133.396 126.212 133.762 126.044C136.227 126.218 139.162 124.667 141.746 124.267C143.843 123.94 146.055 123.654 148.02 122.539C149.454 123.328 152.694 123.755 155.309 124.445C157.536 125.033 158.501 126.307 160.565 126.036C163.04 125.712 162.027 120.505 159.269 118.396C156.251 116.088 151.146 115.152 148.504 116.101ZM153.156 138.361C151.101 138.862 150.963 134.355 150.733 132.763C150.553 131.519 149.538 128.311 146.966 128.449C144.393 128.588 143.426 131.276 143.557 132.947C143.642 134.031 144.64 139.523 141.453 140.217C139.421 140.21 137.07 140.073 134.933 139.679C132.418 139.109 129.148 137.114 128.284 141.043C127.973 142.457 139.051 146.658 143.967 147.038C148.953 148.049 154.786 146.494 158.336 142.679C159.143 141.811 161.417 138.208 161.579 137.325C161.92 135.471 161.132 134.277 158.838 134.931C157.217 135.797 154.478 138.039 153.156 138.361Z" fill="black"/>
<path fill-rule="evenodd" clip-rule="evenodd" d="M167.178 109.154C164.613 111.805 160.331 112.566 156.919 111.144C148.156 107.481 152.445 96.058 159.203 92.9903C160.047 92.7797 161.175 92.2803 162.203 92.167C162.296 92.1214 162.498 92.2535 162.743 92.1286C170.195 92.9609 171.892 104.533 167.178 109.154ZM138.915 109.832C136.038 113.65 130.69 114.827 126.32 113.053C117.687 109.652 120.749 99.5218 126.656 95.5505C139.132 90.8605 144.285 102.794 138.915 109.832ZM120.201 101.375C120.193 101.371 120.185 101.369 120.177 101.365C120.222 101.345 120.268 101.325 120.313 101.304C120.299 101.343 120.283 101.381 120.268 101.42C120.246 101.405 120.226 101.387 120.201 101.375ZM173.117 97.2483C172.413 97.2498 171.395 97.3656 170.812 97.8545C169.374 93.0034 164.067 88.5136 159.451 91.7875C155.816 92.9569 153.119 95.5503 151.586 98.9983C148.822 97.3536 144.476 98.0559 142.079 100.231C140.509 95.042 136.646 93.2251 132.048 92.9569C127.029 92.1345 122.027 97.0106 120.466 100.922C119.168 100.774 117.229 100.361 116.008 101.163C108.084 99.0837 94.2299 97.9375 92.619 99.0926C91.471 99.5332 90.841 102.244 92.4445 102.39C93.8418 102.192 92.2814 100.404 93.6899 100.209C101.195 99.7435 108.48 101.256 115.906 101.89C116.569 102.782 118.711 103.081 119.854 102.722C118.054 109.358 121.939 113.872 127.76 115.224C136.775 117.296 144.617 109.229 142.26 100.838C144.991 99.4793 148.131 99.5377 151.106 100.254C146.135 118.554 175.598 117.733 170.997 98.4816C174.059 100.005 174.724 97.5558 173.117 97.2483Z" fill="black"/>
</svg>
