<?xml version="1.0" encoding="UTF-8" standalone="no"?><svg width="240" height="324" viewBox="0 0 240 324" fill="none" xmlns="http://www.w3.org/2000/svg">
<path fill-rule="evenodd" clip-rule="evenodd" d="M192.498 217.714C192.498 216.004 190.132 212.969 190.127 211.419C192.117 211.064 193.78 208.368 193.339 206.679C192.563 206.085 190.528 204.917 189.686 204.371C184.558 204.526 186.507 197.389 185.926 193.762C185.342 190.212 184.908 186.501 184.053 182.931C182.534 180.075 181.821 176.873 180.369 174.031C179.721 173.09 178.673 172.226 178.359 171.132C175.183 167.662 170.811 165.582 167.212 162.642C168.609 162.195 168.516 160.311 168.425 159.101C168.75 157.522 168.403 155.543 166.964 154.653C166.478 153.068 164.352 152.515 163.109 153.525C162.292 149.863 159.098 147.642 155.751 146.284C155.754 146.273 155.757 146.262 155.76 146.251C152.385 144.911 148.34 144.243 144.972 144.997C146.75 125.183 131.58 124.456 123.882 126.121C119.944 126.972 114.035 129.624 112.693 133.31C111.935 135.391 109.76 142.103 109.451 144.243C103.572 140.887 96.7565 136.462 91.6573 143.219C90.6363 144.396 89.5064 145.271 87.9785 145.675C83.2081 146.913 76.8764 146.955 74.165 151.82C72.5444 154.833 74.0019 156.819 73.5665 159.834C52.0926 174.92 34.1473 230.495 38.1766 256.351C39.1459 265.603 43.8783 281.981 55.5591 279.939C61.5168 286.458 161.515 286.458 171.826 279.939C180.314 282.16 188.938 278.722 192.498 270.589C197.018 259.438 192.228 247.395 191.379 235.956C190.863 233.068 190.096 230.775 189.686 227.818C189.515 226.586 190.105 224.537 189.686 223.401C189.883 222.662 192.498 219.424 192.498 217.714Z" fill="#D08B5B"/>
<path fill-rule="evenodd" clip-rule="evenodd" d="M108.013 142.879L108.365 143.03L109.576 143.555L109.322 144.138C108.608 145.777 107.805 147.354 106.925 148.839L106.759 149.116L106.504 149.537L106.517 149.551C106.627 149.673 106.739 149.799 106.853 149.93L120.18 164.255C125.801 170.292 128.769 173.468 129.083 173.784C130.394 175.101 131.682 175.265 132.861 174.155L132.994 174.029L133.212 173.818L133.362 173.672C134.131 172.912 134.896 172.07 135.996 170.802L148.305 153.334L147.528 151.597C146.1 148.387 145.321 146.511 145.19 145.968L145.131 145.701L145.008 145.128L145.569 144.96C147.596 144.356 149.839 144.515 152.384 145.268L152.531 145.312L152.955 145.443C154.68 145.979 155.656 146.34 156.656 146.874C158.016 147.601 159.021 148.503 159.648 149.68C160.369 151.034 160.921 151.714 161.85 152.264L161.923 152.307L162.013 152.358L162.108 152.409C162.191 152.452 162.282 152.499 162.392 152.553L162.782 152.741C164.014 153.332 164.579 153.71 165.064 154.456C165.599 155.279 165.69 156.05 165.525 157.165L165.51 157.261L165.484 157.419L165.383 157.998L165.359 158.145C165.294 158.56 165.283 158.925 165.33 159.231L165.342 159.301L165.612 160.736L165.076 160.396L166.557 161.603C168.629 163.3 169.865 164.353 171.156 165.541L171.513 165.871L171.583 165.936C173.91 168.108 175.801 170.202 177.383 172.437C179.098 174.86 180.552 177.51 181.726 180.333L181.859 180.656L181.87 180.698C183.629 187.593 185.041 194.577 186.104 201.628L186.206 202.311L186.722 205.811L185.023 202.708C184.759 202.225 184.027 201.747 183.114 201.39L183.027 201.357L182.965 201.334L182.834 201.287C181.832 200.938 180.822 200.905 179.875 201.199L179.777 201.231L179.49 201.327L179.235 201.164C178.764 200.863 178.237 200.609 177.657 200.399L177.511 200.348L176.9 200.138L177.121 199.531C177.289 199.072 176.982 198.17 176.539 197.784C175.849 197.185 174.857 197.017 173.317 197.13L173.108 197.147L172.943 197.162L172.695 197.187L171.914 197.271L171.914 197.274C171.904 197.409 171.898 197.533 171.895 197.65L171.894 197.737L171.894 197.822C171.897 198.113 171.923 198.381 171.971 198.632L171.993 198.739L172.169 199.526L171.363 199.511L171.012 199.506C169.835 199.492 168.599 199.51 167.144 199.558L165.708 199.612L162.045 199.767L158.831 199.88L157.873 199.912L157.828 199.305C157.767 198.506 157.084 197.974 155.873 197.738L155.795 197.724L154.53 197.495L155.569 196.551L155.653 196.472L155.74 196.388C156.576 195.555 156.856 194.793 156.512 194.056C156.11 193.193 154.868 192.94 153.728 193.409L153.649 193.442L153.569 193.478C153.354 193.578 153.141 193.702 152.802 193.922L152.368 194.204L152.21 194.304C151.835 194.541 151.586 194.675 151.272 194.805C150.44 195.149 149.664 195.173 148.39 195.014L148.276 195L148.006 194.964L147.316 194.868L147.145 194.845L146.972 194.824C145.67 194.669 144.845 194.752 144.149 195.197C143.704 195.482 143.452 195.846 143.063 196.696L142.878 197.106L142.797 197.282C142.328 198.279 141.973 198.758 141.274 199.173C140.828 199.438 140.405 199.597 139.658 199.814L139.127 199.968L138.938 200.025C138.824 200.06 138.729 200.092 138.629 200.128C137.816 200.417 137.08 200.832 136.389 201.39L136.282 201.477L136.165 201.574C135.492 202.142 134.917 202.758 133.935 203.912L133.219 204.757L132.965 205.053L132.755 205.294C132.732 205.319 132.71 205.344 132.688 205.369L132.488 205.592C130.93 207.303 129.371 208.88 127.784 210.342L127.451 210.647L127.108 210.956L126.825 211.207C125.902 212.02 124.905 212.843 123.356 214.088L121.436 215.626L120.832 216.114C119.018 217.584 117.913 218.532 116.787 219.603L116.507 219.87L116.487 219.985C116.477 220.049 116.465 220.123 116.452 220.206C116.452 220.206 115.353 226.99 116.351 232.553C117.349 238.116 117.702 235.854 118.712 237.22L118.946 237.534C119.5 238.271 119.927 238.792 120.39 239.277L120.937 239.842L121.566 240.352L121.964 240.592C122.251 240.766 122.537 240.902 122.824 241C123.22 241.136 123.749 240.867 124.008 240.395L124.033 240.348L124.202 240.009L124.582 239.998C124.671 239.995 124.761 239.981 124.85 239.957C125.748 239.709 126.195 238.639 125.756 237.808L125.731 237.764L125.504 237.36L125.387 237.157C125.22 236.87 125.065 236.627 124.908 236.413L124.849 236.334L123.976 235.185L126.175 235.39L126.354 235.408L126.602 235.434L127.393 235.524C128.217 235.617 129.013 235.701 129.789 235.777L130.45 235.84L131.606 235.945L131.844 235.969L132.357 236.023L133.588 236.157L134.026 236.202L134.27 236.225C134.505 236.247 134.715 236.265 134.927 236.281L135.159 236.298C136.931 236.419 138.314 236.339 139.569 235.985C141.611 235.407 143.663 234.213 145.886 232.448C148.157 230.644 149.8 228.945 150.789 227.182C150.807 227.149 150.81 227.123 150.797 227.091L150.788 227.071L150.412 226.381L151.165 226.159C151.766 225.981 152.277 225.755 152.706 225.465C154.026 224.577 154.468 222.798 153.511 221.868L153.468 221.829L153.41 221.776L152.601 220.564L153.771 220.391C154.162 220.331 154.506 220.262 154.827 220.179C156.965 219.623 158.063 217.918 157.116 216.277L157.085 216.223L156.703 215.591L157.385 215.309C157.531 215.249 157.682 215.192 157.85 215.133L157.952 215.098L158.055 215.063L158.438 214.936C159.25 214.668 160.043 214.465 160.835 214.326C161.46 214.218 162.087 214.149 162.713 214.117L162.948 214.107L163.21 214.098L163.212 214.091L163.365 214.093L163.901 214.074L163.891 214.102C164.686 214.122 165.485 214.199 166.285 214.334L166.474 214.366C166.751 214.415 167.015 214.465 167.297 214.523L168.517 214.781C168.739 214.827 168.933 214.865 169.125 214.9L169.31 214.932L171.275 215.264L169.479 216.129L169.433 216.151L169.387 216.176L169.189 216.285C167.968 216.975 167.246 217.762 167.076 218.733C166.812 220.247 167.673 220.945 169.703 221.18L169.873 221.198L170.052 221.215L170.169 221.224L175.253 221.569L170.44 222.493C169.274 222.717 168.096 223.019 166.906 223.396C166.814 223.425 166.714 223.461 166.606 223.504L166.523 223.538L166.034 223.741L165.564 224.08C164.74 224.692 164.511 225.298 164.922 225.9L164.95 225.941L165.205 226.29L164.973 226.654C164.308 227.702 164.395 229.037 165.19 230.123C165.854 231.028 166.927 231.604 168.392 231.934L168.505 231.959L168.827 232.028L169.296 232.102L169.636 232.149L169.897 232.179L170.074 232.197L170.344 232.222L171.083 232.285C172.133 232.374 172.672 232.447 173.319 232.608C174.188 232.825 174.953 233.178 175.971 233.78L176.089 233.85L176.34 234.002L176.826 234.301L177.297 234.593L177.455 234.691L177.651 234.809C179.1 235.674 180.055 235.999 181.06 235.847C181.698 235.751 182.234 235.518 182.709 235.146L182.784 235.086L183.513 234.486L183.491 234.364L183.65 234.146C183.954 233.728 185.248 231.291 185.249 231.289C186.084 229.822 186.889 228.809 187.906 228.139L187.994 228.082L188.193 227.96L188.422 227.911L188.537 227.929C188.872 227.982 188.971 228.13 189.066 228.382C189.09 228.447 189.109 228.518 189.128 228.604L189.146 228.689L189.164 228.786L189.191 228.955L189.221 229.152L189.254 229.396L189.289 229.677C189.317 229.903 189.348 230.166 189.383 230.476L189.766 234.008L189.871 234.946L189.968 235.783C189.977 235.851 189.985 235.918 189.993 235.985L190.075 236.663L190.166 237.372C190.398 239.157 190.628 240.594 190.867 241.683L190.911 241.879L190.94 242.006L191.017 242.332C192.384 248.19 193.077 253.026 193.112 257.872C193.143 263.08 192.007 267.729 189.544 271.561C187.196 275.217 183.769 277.871 179.908 278.787C177.872 279.268 175.853 279.163 174.225 278.353C173.928 278.205 173.717 278.053 173.332 277.731L173.204 277.623C172.696 277.193 172.471 277.043 172.201 276.98C172.167 276.972 172.135 276.966 172.104 276.962L172.057 276.957L171.482 276.913L171.472 276.336C171.45 275.106 170.863 274.625 170.918 276.544C170.918 276.544 171.024 279.309 171.053 279.658L171.073 279.887L171.081 279.968L170.741 281.154C155.909 286.821 69.9255 286.919 56.6592 281.376L56.2796 281.207L53.9338 280.081C53.9338 280.081 58.6347 278.985 55.4205 279.391C51.9725 279.827 47.9585 277.714 45.7828 274.155L44.9897 272.846L44.7469 272.439L44.6124 272.211C44.2891 271.657 44.0587 271.234 43.8149 270.747C42.831 268.782 42.0141 266.667 41.3425 264.392C40.0926 260.159 39.4378 255.573 39.2423 250.386C38.8885 241.004 39.8563 231.102 41.9935 220.786C44.0664 210.779 47.2075 201.052 51.3521 191.854C53.424 187.256 55.7077 182.859 58.2113 178.667L58.4804 178.219L58.7734 177.735L59.0742 177.241L59.3766 176.749L59.6522 176.304L59.9299 175.861L60.2101 175.418C62.7678 171.397 65.0418 168.43 67.6703 165.87C70.0061 163.596 72.4668 161.288 75.0525 158.947L74.997 157.967L74.9947 157.949C74.94 157.626 73.9665 154.871 74.9501 152.724L75.0622 152.483C75.9522 150.598 76.0816 151.083 76.9332 150.488L76.9681 150.464C78.8356 149.126 81.2155 148.208 84.0371 147.596C84.7609 147.439 85.4421 147.369 86.4016 147.331L86.5342 147.326L86.7081 147.32L87.4544 147.297C88.8604 147.252 89.9146 146.756 90.7274 145.73L90.7877 145.653L90.8486 145.572L90.9056 145.494C91.1041 145.216 91.2938 144.899 91.5999 144.355L91.8095 143.983L91.9103 143.807L92.0135 143.63C92.3644 143.035 92.6136 142.685 92.9657 142.301C94.0295 141.144 95.6799 140.465 97.4198 140.352C100.505 140.15 103.543 140.978 108.013 142.879ZM148.507 202.409L148.255 203.647C148.232 203.764 148.218 203.878 148.216 203.99L148.217 204.073L148.235 204.638L147.676 204.72C147.225 204.787 146.777 204.857 146.334 204.93L145.892 205.004L141.723 205.711L145.534 203.796L145.612 203.758L145.632 203.747L145.779 203.677L146.237 203.464L147.364 202.947L148.507 202.409Z" fill="#78E185"/>
<path fill-rule="evenodd" clip-rule="evenodd" d="M145.229 138.593C145.465 139.604 145.25 140.745 145.289 141.783C145.327 142.776 145.444 143.762 145.616 144.74C147.429 143.786 149.572 143.663 151.638 143.971C154.311 144.368 157.404 145.247 159.498 147.033C160.016 147.475 160.444 147.997 160.803 148.573C161.233 149.264 161.508 150.045 162.191 150.54C163.247 151.306 164.556 151.603 165.571 152.452C166.606 153.317 167.248 154.611 167.384 155.946C167.457 156.657 167.339 157.322 167.205 158.015C167.084 158.639 167.143 158.895 167.307 159.495C167.436 159.966 167.19 160.501 166.789 160.761C167.649 161.352 168.497 161.96 169.33 162.593C174.185 166.279 178.29 170.874 181.136 176.28L181.204 176.415L181.284 176.576C181.978 178.001 183.792 182.168 184.018 183.105C184.179 183.594 184.335 184.086 184.48 184.58C184.863 185.889 185.188 187.215 185.458 188.552L185.53 188.917C185.749 190.04 186.125 191.369 186.064 192.566C186.694 195.833 187.253 199.114 187.729 202.408C187.792 202.84 187.62 203.191 187.353 203.423C187.991 203.526 188.624 203.652 189.251 203.779L189.614 203.855L189.797 203.896C191.101 204.19 192.389 204.619 193.243 205.715C194.165 206.901 194.183 208.425 193.258 209.619C192.472 210.633 191.325 211.115 190.127 211.419C189.891 211.479 189.652 211.534 189.413 211.582C189.253 211.616 189.147 211.396 189.299 211.312L189.553 211.171L189.9 210.981C190.803 210.483 191.74 209.921 192.24 209.023C192.918 207.803 192.381 206.674 191.217 206.055C190.243 205.536 189.037 205.403 187.955 205.226L187.508 205.152C186.377 204.972 185.223 204.854 184.081 204.984C183.082 205.098 182.07 205.438 181.262 206.049L181.188 206.108L181.11 206.173C180.402 206.786 179.385 208.165 180.72 208.562C181.74 208.864 182.983 208.789 184.056 208.847L184.195 208.856C185.093 208.917 186.031 208.917 186.939 209.025C187.264 209.063 187.586 209.115 187.901 209.19C188.803 209.403 188.492 210.604 187.697 210.688C187.503 210.709 187.305 210.72 187.106 210.724C186.586 211.115 185.868 211.293 185.253 211.535C184.666 211.768 184.077 211.998 183.483 212.225C183.994 212.248 184.505 212.29 185.015 212.354C185.179 212.372 185.181 212.594 185.015 212.611C183.789 212.736 182.564 212.871 181.343 213.042C179.452 213.305 177.574 213.655 175.738 214.19C174.396 214.582 173.071 215.05 171.785 215.595L171.396 215.762L171.236 215.833C170.069 216.338 168.559 216.93 167.889 218.045C167.538 218.626 167.384 219.524 167.879 220.081C168.407 220.679 169.515 220.611 170.255 220.64L170.315 220.643C171.882 220.719 173.452 220.729 175.021 220.674C178.311 220.558 181.603 220.199 184.833 219.567C185.429 219.451 185.686 220.345 185.086 220.484C181.276 221.37 177.424 221.856 173.514 221.878L173.086 221.879C171.563 222.17 170.07 222.605 168.589 223.095L168.293 223.194C167.418 223.489 165.924 223.783 165.409 224.652C165.067 225.229 165.187 225.624 165.525 225.893C166.121 226.364 167.388 226.453 168.005 226.476C170.477 226.569 172.951 226.586 175.425 226.533C176.661 226.505 177.897 226.461 179.133 226.398C180.341 226.334 181.632 226.155 182.836 226.271C183.354 226.321 183.527 227.082 182.965 227.224C181.48 227.6 179.815 227.568 178.28 227.616L178.104 227.622C176.456 227.68 174.806 227.706 173.158 227.702C171.744 227.696 170.33 227.668 168.917 227.616L167.668 227.566L167.446 227.555C166.781 227.52 166.101 227.443 165.51 227.169C164.965 228.082 165.373 229.306 166.076 230.029C166.746 230.718 167.712 231.056 168.637 231.267C168.724 231.286 168.81 231.305 168.897 231.322C170.929 231.736 173 231.701 174.901 232.635C176.5 233.421 177.965 234.731 179.756 235.042C181.357 235.321 182.521 234.615 183.375 233.309C183.422 233.237 183.468 233.165 183.512 233.093C184.184 232.011 184.668 230.819 185.376 229.758C185.737 229.217 186.145 228.697 186.643 228.275C186.867 228.082 188.435 227.25 188.68 227C189.734 225.918 188.801 223.642 189.075 222.285C189.396 220.706 190.784 220.15 191.617 218.926C193.199 216.597 188.859 214.416 190.157 211.869C190.174 211.838 190.195 211.815 190.222 211.8C190.336 211.738 190.518 211.815 190.508 211.965C190.364 213.863 192.172 215.169 192.825 216.813C193.569 218.684 192.381 219.816 191.169 221.065C189.614 222.67 190.708 224.466 190.362 226.398C190.317 226.651 190.244 226.874 190.149 227.074C190.415 227.239 190.62 227.512 190.665 227.893C191.198 232.416 191.772 236.925 192.707 241.385L192.908 242.333L193.176 243.597C193.843 246.759 194.466 249.934 194.584 253.166C194.956 255.894 195.103 258.645 194.883 261.391C194.215 269.75 189.544 278.496 181.057 281.061C179.093 281.655 177.009 281.809 174.994 281.393C174.303 281.252 173.336 280.939 172.467 280.465C172.519 281.022 172.56 281.579 172.577 282.135C172.863 282.454 172.993 282.936 172.83 283.347C172.138 283.12 171.509 282.759 170.942 282.265L170.848 282.182C170.512 280.934 170.414 279.568 170.365 278.253L170.353 277.878C170.34 277.515 170.332 277.158 170.319 276.809C170.247 274.638 170.298 272.464 170.409 270.295L170.492 268.699C170.681 264.976 170.834 261.261 170.731 257.528C170.612 253.231 170.245 248.953 169.784 244.68C169.545 242.475 169.275 240.275 168.998 238.075C168.777 236.304 168.405 234.397 168.398 232.571C166.976 232.267 165.58 231.683 164.705 230.49C163.778 229.224 163.641 227.605 164.464 226.307C163.668 225.216 164.321 224.189 165.305 223.496C163.793 222.648 162.95 220.336 162.726 218.728C162.574 217.624 162.525 215.974 162.996 214.733C162.32 214.757 161.644 214.826 160.968 214.943C160.186 215.08 159.42 215.281 158.663 215.53L158.28 215.657C158.087 215.722 157.869 215.798 157.653 215.887C159.02 218.149 157.264 220.199 155.012 220.784C154.584 220.896 154.146 220.975 153.705 221.038C152.71 221.175 151.693 221.217 150.707 221.308C148.818 221.482 146.919 221.729 145.024 221.809C144.607 221.828 144.339 221.634 144.212 221.363C144.208 221.359 144.206 221.357 144.206 221.353C144.162 221.281 144.132 221.205 144.121 221.125C144.128 221.131 144.136 221.135 144.143 221.139C144.052 220.632 144.356 220.015 145.024 219.941C147.76 219.632 150.533 219.618 153.278 219.392L153.454 219.377C154.315 219.303 155.33 219.166 156.012 218.62C156.646 218.113 156.702 217.453 156.449 216.857C156.445 216.872 156.441 216.889 156.438 216.904C156.419 217.022 156.257 217.018 156.204 216.935C156.046 216.695 156.005 216.458 156.046 216.23C155.855 216.01 155.625 215.815 155.376 215.665C154.271 214.993 152.817 214.809 151.56 214.611C150.185 214.393 148.799 214.294 147.411 214.228C144.679 214.099 141.939 214.321 139.252 214.811C139.14 214.831 139.093 214.674 139.203 214.638C140.251 214.291 141.322 214 142.406 213.77C142.381 213.765 142.355 213.761 142.33 213.755C142.235 213.731 142.167 213.615 142.199 213.522C142.203 213.507 142.21 213.493 142.216 213.48C141.755 213.269 141.563 212.559 142.121 212.271C143.859 211.373 145.9 210.967 147.808 210.597C149.64 210.244 151.49 209.997 153.343 209.777C156.477 209.409 159.893 209.418 162.907 208.429L163.031 208.387C164.259 207.963 165.725 207.105 165.81 205.656C165.937 203.464 162.681 204.035 161.325 204.088C157.613 204.229 153.905 204.487 150.21 204.884C149.456 204.965 148.702 205.047 147.948 205.132C146.792 205.26 145.634 205.396 144.481 205.539C143.836 205.62 143.177 205.726 142.514 205.827C142.307 205.878 142.104 205.914 141.901 205.933C141.886 205.935 141.874 205.931 141.863 205.924C140.898 206.06 139.928 206.163 138.986 206.134C138.878 206.131 138.81 205.962 138.924 205.911C140.141 205.396 141.496 205.092 142.854 204.853C143.695 204.225 144.711 203.722 145.546 203.236C146.691 202.568 148.003 201.585 149.302 201.186C149.887 200.725 150.55 200.355 151.161 200.104C150.986 199.831 150.922 199.453 150.954 199.134C151.07 197.99 151.985 197.352 153.041 197.128C153.369 197.06 153.747 197.01 154.151 196.991C154.159 196.777 154.254 196.568 154.465 196.411L154.527 196.364L154.572 196.329C155.281 195.753 156.689 194.131 154.993 194.013C154.093 193.949 153.333 194.609 152.617 195.055C151.129 195.982 149.691 196.029 147.992 195.798L147.228 195.689L147.102 195.672C145.873 195.51 144.628 195.488 143.942 196.741C143.207 198.081 142.949 199.303 141.466 200.04C140.048 200.744 138.474 200.884 137.173 201.852C135.778 202.887 134.731 204.341 133.59 205.63C131.074 208.471 128.194 210.98 125.228 213.338L124.7 213.757C121.969 215.916 119.149 218.043 116.091 219.706C116.07 219.717 116.048 219.721 116.029 219.721C115.947 219.713 115.886 219.607 115.96 219.535C119.532 216.063 123.711 213.248 127.381 209.868C129.007 208.37 130.556 206.793 132.045 205.157C133.347 203.722 134.5 202.109 136.017 200.888C136.755 200.294 137.551 199.84 138.443 199.522C139.275 199.224 140.209 199.076 140.976 198.62C142.478 197.728 142.332 195.615 143.834 194.655C145.122 193.832 146.691 194.133 148.119 194.328L148.29 194.351C149.215 194.473 150.172 194.577 151.055 194.211C151.93 193.85 152.633 193.174 153.514 192.814C154.742 192.309 156.483 192.43 157.112 193.78C157.714 195.069 156.893 196.236 155.934 197.092C157.241 197.329 158.389 197.961 158.486 199.25C159.445 199.218 160.402 199.184 161.361 199.151C164.701 199.034 168.058 198.81 171.401 198.869C171.324 198.529 171.29 198.178 171.286 197.821C171.284 197.622 171.293 197.424 171.307 197.221C171.333 196.874 171.561 196.665 171.899 196.629L172.654 196.548L172.907 196.523C174.321 196.389 175.902 196.361 176.98 197.297C177.559 197.802 178.026 198.965 177.743 199.74C178.402 199.966 179.029 200.256 179.602 200.622C180.736 200.241 181.928 200.283 183.069 200.68L183.204 200.729C184.015 201.027 185.164 201.591 185.605 202.396C184.535 195.142 183.094 187.951 181.282 180.847C180.125 178.01 178.664 175.298 176.891 172.795C172.427 166.488 165.996 162.152 160.22 157.166C159.711 157.727 159.162 158.261 158.648 158.775L158.431 158.994C157.385 160.053 156.294 161.067 155.179 162.053C152.849 164.113 150.397 166.015 147.961 167.948C143.053 171.844 138.615 175.98 134.922 181.067C134.856 181.158 134.672 181.105 134.723 180.983C137.256 174.96 142.506 170.381 147.276 166.132C149.784 163.898 152.351 161.718 154.762 159.378C155.887 158.287 156.976 157.159 158.003 155.976L158.259 155.679C158.931 154.893 160.504 152.491 161.543 154.224C161.761 154.586 161.752 155.05 161.543 155.413C161.248 155.929 160.873 156.42 160.463 156.893C161.921 157.686 163.348 158.523 164.745 159.41C164.665 158.983 164.685 158.511 164.759 158.038L164.784 157.888L164.885 157.303C165.031 156.439 165.106 155.636 164.559 154.794C163.874 153.74 162.582 153.411 161.553 152.802C160.368 152.101 159.749 151.162 159.114 149.97C157.899 147.689 155.153 146.774 152.793 146.041L152.496 145.948C150.316 145.272 147.957 144.91 145.776 145.56C145.981 146.512 146.248 147.451 146.583 148.366C146.939 149.339 147.752 150.422 147.669 151.473C147.611 152.201 146.739 152.979 146.015 152.422C144.989 151.635 144.784 150.354 144.51 149.132C144.244 147.951 144.074 146.742 144.002 145.533C143.932 144.369 143.987 143.205 144.13 142.049L144.24 141.199L144.267 141.002C144.387 140.143 144.565 139.242 145.048 138.569C145.094 138.504 145.208 138.503 145.229 138.593ZM115.477 133.765C115.492 133.834 115.503 133.901 115.512 133.969C115.583 134.259 115.609 134.537 115.601 134.817C115.605 134.918 115.598 135.019 115.579 135.119C115.541 135.448 115.462 135.785 115.355 136.155C115.127 136.94 114.866 137.716 114.574 138.481C113.997 139.993 113.316 141.435 112.474 142.818C110.954 145.315 109.021 147.388 106.742 149.18C107.175 149.537 107.597 149.909 108.021 150.273C110.068 152.036 112.061 153.878 113.99 155.77C117.417 159.129 120.774 162.55 124.053 166.053C125.67 167.781 127.258 169.531 128.836 171.294L128.888 171.353L128.944 171.42C129.504 172.098 130.625 173.715 131.461 173.455C131.883 173.324 132.328 172.694 132.615 172.393L133.145 171.84C133.322 171.656 133.497 171.47 133.669 171.281C136.752 167.901 139.67 164.392 142.41 160.723C143.747 158.933 145.039 157.11 146.285 155.255C146.925 154.301 147.553 153.338 148.169 152.368C148.764 151.43 149.246 150.421 150.123 149.721C150.767 149.207 151.659 149.678 151.497 150.521C151.241 151.848 150.323 152.97 149.6 154.092C148.874 155.219 148.131 156.335 147.371 157.439C145.908 159.565 144.382 161.647 142.802 163.686C141.441 165.443 140.021 167.154 138.562 168.831L138.163 169.287C136.595 171.076 135.055 172.975 133.322 174.608C131.769 176.071 130.074 175.645 128.66 174.223C126.872 172.427 125.212 170.484 123.491 168.621C120.052 164.9 116.578 161.207 113.067 157.553L111.913 156.35C110.568 154.945 109.228 153.532 107.923 152.092L107.754 151.904C106.266 150.229 104.753 148.131 102.637 147.28C102.484 147.218 102.54 147.001 102.705 147.031C104.06 147.282 105.19 147.964 106.242 148.78C107.188 147.215 108.032 145.564 108.767 143.876L108.296 143.671C104.919 142.212 101.113 140.74 97.4871 140.977C96.0259 141.072 94.467 141.625 93.4582 142.723C92.5447 143.717 92.0885 145.057 91.2502 146.116C90.29 147.328 89.0376 147.874 87.5007 147.923L86.7533 147.946C85.8937 147.974 85.0694 148.019 84.1975 148.208C81.8351 148.72 79.3445 149.552 77.3632 150.971C76.6445 151.486 75.9025 152.194 75.555 152.974C75.2104 153.747 75.1113 154.652 75.0777 155.486C75.0614 155.892 75.1833 156.429 75.0815 156.819C75.0931 156.774 75.0984 156.798 75.0999 156.844C75.4166 157.094 75.6323 157.509 75.6557 157.923C77.6307 156.893 79.6751 155.991 81.7592 155.177C84.0798 154.272 86.4724 153.546 88.8654 152.859C91.2076 152.186 93.6591 151.908 96.0466 151.429C96.3507 151.368 96.4563 151.778 96.173 151.888C93.6635 152.852 91.2355 153.995 88.7051 154.902C86.176 155.809 83.6657 156.79 81.21 157.881C76.4632 159.991 71.8781 162.675 68.1384 166.317C64.486 169.874 61.6688 174.195 59.0486 178.539C56.4099 182.914 54.0549 187.449 51.9559 192.107C47.8037 201.322 44.69 211.01 42.6401 220.906C40.6451 230.537 39.5304 240.511 39.9016 250.354C40.0778 255.029 40.6487 259.708 41.9763 264.204C42.6105 266.352 43.4045 268.451 44.4076 270.455C45.4654 272.568 46.8906 274.45 47.8565 276.598C47.9359 276.775 47.9664 276.945 47.9619 277.102C52.0816 280.673 58.53 278.267 62.9885 276.135C73.2477 271.227 83.3167 265.857 92.8871 259.694C102.333 253.611 111.284 246.822 120.024 239.776C119.348 239.079 118.752 238.297 118.229 237.589C117.147 236.126 116.334 234.469 115.774 232.74C115.119 230.715 114.916 228.549 115.102 226.434L115.155 225.835C115.333 223.838 115.538 221.811 115.977 219.858C115.981 219.833 116 219.822 116.021 219.822C116.042 219.822 116.063 219.835 116.072 219.858C117.253 223.64 117.348 227.704 118.674 231.436C119.209 232.937 120.037 234.387 121.03 235.632C121.459 236.17 121.962 236.638 122.475 237.094C122.509 236.862 122.555 236.631 122.625 236.405L122.68 236.226C122.749 236.009 122.834 235.767 122.952 235.553C122.786 235.505 122.623 235.452 122.462 235.393C122.336 235.346 122.308 235.141 122.462 235.108C122.883 235.01 123.316 234.962 123.758 234.941C123.827 234.93 123.895 234.928 123.962 234.932C124.789 234.907 125.629 234.966 126.426 234.979C127.805 235 129.181 235.025 130.558 235.086C133.195 235.2 136.171 235.706 138.766 235.093C141.124 234.535 143.448 232.962 145.338 231.483C146.99 230.189 148.265 228.653 149.636 227.121C149.537 227.136 149.439 227.151 149.342 227.164L148.458 227.285C147.342 227.434 146.017 227.551 145.132 227.015C144.793 226.81 144.891 226.345 145.235 226.218C146.139 225.886 147.261 226.161 148.224 226.115C148.981 226.078 149.746 225.998 150.491 225.842C150.736 225.791 150.979 225.732 151.22 225.662C152.986 225.153 155.061 223.361 153.658 221.404C153.605 221.33 153.664 221.262 153.736 221.249C153.768 221.243 153.802 221.249 153.829 221.273C155.426 222.595 154.596 224.967 153.086 225.984C152.566 226.334 151.979 226.58 151.37 226.759C151.486 226.972 151.507 227.235 151.368 227.484C150.185 229.593 148.182 231.447 146.306 232.937C144.379 234.467 142.157 235.91 139.767 236.587C137.008 237.365 133.977 236.779 131.177 236.532C129.66 236.399 128.148 236.24 126.633 236.065C126.227 236.018 125.807 235.983 125.38 235.942C125.782 236.471 126.101 237.079 126.31 237.445C126.99 238.633 126.362 240.197 125.044 240.56C124.907 240.598 124.765 240.62 124.626 240.624C124.271 241.336 123.426 241.86 122.644 241.592C122.304 241.476 121.976 241.317 121.662 241.127C116.745 245.447 111.569 249.5 106.246 253.301C96.3731 260.347 86.025 266.783 75.2949 272.44C72.878 273.715 70.4426 274.955 67.9866 276.147L65.8727 277.166C63.5329 278.293 61.1382 279.413 58.6533 280.112C58.1689 280.249 57.6616 280.359 57.1419 280.443C57.1352 280.49 57.1335 280.534 57.1365 280.577C56.6693 280.639 56.2616 280.649 55.9135 280.605L55.8342 280.594C52.7883 280.807 49.5304 280.063 47.5709 277.838C47.2442 278.067 46.7681 278.093 46.3478 277.763C44.2345 276.104 42.9747 273.578 41.8692 271.167C40.7482 268.721 39.8695 266.172 39.2239 263.56C37.9343 258.345 37.4228 252.965 37.3959 247.599C37.2984 226.925 42.474 206.07 51.4639 187.509C53.7439 182.802 56.2571 178.182 59.0471 173.757C61.8295 169.344 65.0604 165.243 69.1981 162.025C70.388 161.099 71.6258 160.253 72.9025 159.474C72.0456 159.049 71.7052 157.968 71.6452 157.008C71.5121 154.876 71.7661 152.42 73.0138 150.622C74.7642 148.098 77.8975 146.542 80.8028 145.785C82.3195 145.391 83.8884 145.16 85.4528 145.083C86.2595 145.042 87.0976 145.175 87.8945 145.088C88.5976 145.011 89.0323 144.592 89.4367 144.04C90.4726 142.625 91.1469 141.142 92.6328 140.105C94.1573 139.041 96.1328 138.634 97.9694 138.744C100.109 138.873 102.061 139.716 103.945 140.685C105.646 141.56 107.297 142.529 108.905 143.562C109.2 142.871 109.478 142.174 109.737 141.475C110.238 140.12 110.674 138.722 111.027 137.321C111.386 135.901 111.333 134.025 112.416 132.956C113.358 132.028 115.171 132.393 115.477 133.765ZM188.465 228.548L188.457 228.55C186.267 229.848 185.22 233.093 184.189 234.511C184.273 234.987 184.332 235.471 184.448 235.921C184.715 236.955 185.063 237.98 185.467 238.965C186.177 240.704 187.066 242.361 187.888 244.047C188.549 245.404 189.197 246.785 189.701 248.213C189.646 248.267 189.596 248.332 189.553 248.413C189.006 249.437 188.578 249.236 187.569 249.012L187.569 249.01C186.992 247.243 186.16 245.584 185.412 243.889L185.23 243.475L185.05 243.061C184.425 241.61 183.855 240.146 183.523 238.591C183.312 237.599 183.225 236.58 183.212 235.568C182.665 236.018 182.008 236.342 181.18 236.466C179.408 236.734 177.803 235.624 176.359 234.733L176.034 234.534C175.13 233.984 174.234 233.476 173.192 233.216C172.009 232.92 170.786 232.92 169.584 232.77C169.44 232.751 169.294 232.732 169.148 232.709C169.617 234.262 169.835 235.949 170.114 237.504C170.503 239.685 170.82 241.886 171.124 244.079C171.715 248.332 172.127 252.618 172.336 256.906C172.539 261.058 172.437 265.195 172.287 269.346L172.212 271.37C172.152 273.018 172.102 274.668 172.131 276.317C172.212 276.323 172.292 276.336 172.372 276.355C173.205 276.549 173.773 277.399 174.534 277.777C176.139 278.576 178.079 278.565 179.788 278.162C183.675 277.24 186.908 274.526 189.037 271.21C191.593 267.233 192.531 262.551 192.502 257.868C192.467 252.597 191.613 247.557 190.425 242.468L190.349 242.143C189.349 237.904 188.723 228.588 188.465 228.548ZM79.6114 217.913C79.6336 219.33 79.0572 220.847 78.7405 222.224C78.3995 223.709 78.0594 225.193 77.7146 226.677L77.4045 228.006C77.1463 229.114 76.8917 230.222 76.6636 231.337C76.476 232.253 76.3974 233.46 76.09 234.47C79.7464 232.991 83.4085 231.527 87.0645 230.052C91.5687 228.235 96.0941 226.467 100.609 224.679C105.107 222.9 109.579 220.875 114.168 219.353C115.26 218.99 116 220.734 114.954 221.217C110.293 223.38 105.362 225.073 100.588 226.966L93.681 229.709C87.3496 232.223 81.0138 234.724 74.6462 237.139C70.3088 238.783 65.9884 240.476 61.6236 242.038C59.5426 242.782 57.4429 243.486 55.3722 244.257C53.6377 244.904 51.7617 245.863 51.1194 247.727C51.0856 247.824 50.9525 247.784 50.9673 247.685C51.2271 245.88 52.5668 244.751 54.0772 243.898C56.0818 242.761 58.2836 241.935 60.3997 241.023L60.6877 240.899C65.0088 239.013 69.3647 237.204 73.7335 235.426C73.6902 235.32 73.6646 235.207 73.6627 235.088L73.6502 235.092C73.5708 234.284 73.9412 233.563 74.2076 232.812L74.9717 230.655C75.4809 229.219 75.9376 227.765 76.4081 226.316C76.9002 224.802 77.3969 223.289 77.8927 221.775C78.3127 220.493 78.595 218.966 79.3135 217.82C79.4001 217.682 79.6388 217.759 79.6114 217.913ZM163.757 214.725L163.702 215C163.639 215.322 163.579 215.646 163.565 215.972C163.522 216.824 163.619 217.675 163.846 218.498C164.067 219.311 164.378 220.097 164.82 220.818C165.238 221.496 165.844 222.029 166.231 222.725C166.271 222.798 166.296 222.872 166.307 222.944C166.455 222.883 166.601 222.828 166.742 222.783C167.921 222.41 169.125 222.097 170.346 221.862L170.152 221.849L170.027 221.839C167.987 221.666 166.062 220.999 166.478 218.616C166.713 217.269 167.77 216.365 168.903 215.725L169.045 215.646C169.106 215.612 169.17 215.579 169.231 215.549C168.206 215.376 167.462 215.162 166.205 214.951C165.39 214.814 164.572 214.738 163.757 214.725ZM70.5476 185.372C72.5538 189.427 74.0631 193.739 75.2018 198.113C75.7515 200.225 76.2181 202.359 76.5932 204.509L76.7164 205.227L76.7865 205.617C77.1369 207.533 77.582 209.61 77.0673 211.48C76.8993 212.091 75.8853 212.333 75.6013 211.672C74.7448 209.676 74.8652 207.383 74.617 205.248C74.3561 203.008 74.0001 200.778 73.5564 198.567C72.7043 194.318 71.5081 190.168 70.1749 186.05L70.0262 185.592C69.9129 185.287 70.406 185.086 70.5476 185.372ZM147.66 203.513C147.062 203.794 146.464 204.052 145.936 204.309C145.896 204.331 145.854 204.35 145.812 204.371C146.409 204.269 147.009 204.174 147.609 204.085C147.603 203.891 147.622 203.699 147.66 203.513ZM171.055 201.482C170.965 201.511 170.885 201.558 170.816 201.623L170.783 201.656C170.7 201.733 170.642 201.824 170.608 201.928C170.555 202.03 170.531 202.138 170.535 202.254L170.565 202.479C170.606 202.622 170.678 202.746 170.783 202.852L170.954 202.984C171.069 203.051 171.192 203.089 171.324 203.098L171.38 203.1L171.551 203.1C171.649 203.097 171.741 203.072 171.827 203.027C171.917 202.998 171.997 202.951 172.066 202.886L172.099 202.852C172.182 202.775 172.24 202.685 172.274 202.58C172.32 202.494 172.344 202.402 172.347 202.304L172.347 202.254L172.317 202.03C172.282 201.904 172.222 201.793 172.137 201.697L172.099 201.656L171.928 201.524C171.813 201.457 171.69 201.42 171.559 201.411L171.502 201.409H171.38C171.264 201.405 171.155 201.429 171.055 201.482ZM165.558 201.196C165.109 201.278 164.854 201.823 164.968 202.235C165.093 202.693 165.527 202.896 165.963 202.833L166.007 202.826C166.518 202.732 167.018 202.768 167.505 202.948C167.933 203.106 168.431 202.771 168.544 202.357C168.674 201.885 168.384 201.476 167.954 201.317C167.183 201.033 166.356 201.049 165.558 201.196ZM76.5483 171.172C77.5706 172.671 78.2088 174.663 78.8385 176.376L78.9014 176.546C79.5707 178.346 80.2163 180.16 80.8185 181.984C82.0204 185.624 83.5867 189.434 83.8761 193.28C83.9296 193.989 82.8439 194.274 82.5291 193.645C81.6246 191.836 81.1383 189.951 80.6032 188.012C80.0928 186.163 79.561 184.32 79.029 182.477C78.4973 180.635 77.9828 178.788 77.4591 176.944C76.9497 175.15 76.2405 173.155 76.1239 171.287C76.1087 171.045 76.4308 171 76.5483 171.172ZM99.6207 159.107C100.985 160.055 102.103 161.441 103.258 162.626C104.429 163.829 105.585 165.042 106.73 166.27C108.644 168.323 110.522 170.408 112.463 172.436C116.33 176.476 120.705 180.193 126.042 182.092C127.333 182.551 126.767 184.625 125.473 184.156C120.014 182.176 115.492 178.515 111.503 174.373C109.437 172.229 107.541 169.937 105.693 167.604C104.828 166.513 103.969 165.418 103.123 164.312L102.617 163.647C101.553 162.243 100.25 160.843 99.4718 159.257C99.428 159.167 99.5239 159.04 99.6207 159.107Z" fill="black"/>
<path fill-rule="evenodd" clip-rule="evenodd" d="M170.253 115.557C166.691 99.3691 165.997 81.592 156.596 67.4577C152.487 61.6944 145.887 54.1792 138.175 56.5478C138.493 53.1351 138.793 49.721 139.071 46.3047C139.229 44.3506 139.959 41.747 138.309 40.2445C135.586 38.0397 131.077 41.4135 128.972 43.2985C124.411 47.6764 122.61 51.9286 116.603 54.8524C114.195 53.132 111.848 51.3268 109.404 49.6529C106.914 47.9473 103.351 45.1768 100.767 48.3255C98.5763 50.9944 99.9755 55.2013 100.844 58.1378C101.288 59.6397 101.73 61.2789 102.347 62.8234C102.399 63.9975 102.49 65.1694 102.623 66.338C98.1728 67.1318 93.5929 67.7997 89.3413 69.3575C87.0226 70.6166 87.2271 73.4759 88.872 75.1874C91.3335 77.5772 94.4484 79.4459 97.849 80.7003C97.2315 82.8425 95.7513 84.6591 93.8902 85.8469C93.2659 86.2436 92.9157 86.8254 92.789 87.4462C91.8351 87.9215 90.8136 88.2643 89.7346 88.4869C88.4039 88.7623 87.6351 90.3368 87.9781 91.5882C88.9445 94.6296 92.3501 92.8912 94.5625 92.6765C94.6291 94.8003 94.6637 97.0134 95.6256 98.9808C90.4839 100.333 86.0297 105.266 87.2185 110.823C88.2983 116.135 94.0185 117.759 98.5466 118.966C98.8896 119.169 98.8885 119.367 98.9975 119.869C99.7447 123.313 99.1156 127.102 97.9377 130.371C97.6166 131.263 98.0885 132.378 98.8017 132.912C102.489 135.266 103.712 128.098 107.915 132.661C107.602 132.614 106.821 132.222 106.861 132.789C112.315 142.384 128.417 142.973 138.283 143.209C139.467 143.786 140.83 143.459 142.184 143.09C143.476 143.02 144.767 142.923 146.054 142.791C148.405 142.366 152.539 142.87 152.687 139.551C158.758 137.151 163.977 133.003 167.537 127.508C170.177 123.862 171.219 120.002 170.253 115.557Z" fill="#D08B5B"/>
<path fill-rule="evenodd" clip-rule="evenodd" d="M99.2244 124.912C99.621 127.279 100.55 129.54 102.117 131.537C102.206 131.649 102.296 131.761 102.387 131.873L102.281 131.929L102.174 131.985C101.348 132.407 100.507 132.631 99.7345 131.976C99.0524 131.398 99.3624 130.215 99.4208 129.418L99.44 129.123L99.4844 128.504L99.5008 128.252C99.5495 127.455 99.5592 126.642 99.3529 125.898C99.3157 125.764 99.2377 125.667 99.1403 125.607C99.1672 125.413 99.1915 125.219 99.2128 125.024L99.2244 124.912ZM93.8936 85.8535C93.3203 87.9527 92.9462 90.0854 92.7251 92.2583C92.0828 92.2729 91.4402 92.3388 90.7986 92.1849C90.3671 92.0818 89.9638 91.9224 89.5814 91.6965C89.4456 91.616 89.2508 91.4063 89.0882 91.3212C89.4382 91.124 89.8485 90.4212 90.1213 90.1431C90.5421 89.7143 90.9806 89.3026 91.4343 88.9092C92.025 88.3967 93.3536 87.7052 93.4687 86.8925C93.4748 86.8488 93.4647 86.8042 93.4232 86.7807C93.3162 86.7204 93.2062 86.685 93.0942 86.6689C93.2672 86.3785 93.5071 86.1158 93.8207 85.9016L93.8936 85.8535ZM105.854 49.4148L105.953 49.4648L106.444 49.7014C107.362 50.1491 108.26 50.6272 109.157 51.1171C111.342 52.3102 113.494 53.5426 115.624 54.8299C115.794 54.9326 116.03 54.72 115.908 54.5452C115.816 54.4131 115.722 54.2821 115.628 54.1522L115.677 54.1883C116.013 54.4437 116.566 54.9952 115.539 55.7351C113.109 57.4876 110.918 59.5804 108.844 61.7372C105.61 65.1004 102.778 68.8614 100.586 72.9789C98.7379 74.9975 97.2314 77.4309 96.0483 79.9707C95.6889 79.8096 95.3336 79.6414 94.9831 79.4661C95.2725 79.4259 95.5253 79.3161 95.8475 79.1356L95.9231 79.0927L96.0591 79.0135C96.5438 78.7279 96.6948 77.9645 96.2453 77.5668C95.8553 77.2212 95.6891 76.9568 95.1743 76.7911C94.7221 76.6453 94.2475 76.5802 93.7901 76.4521C92.8268 76.1826 91.9312 75.7559 91.0983 75.203C90.3513 74.7071 89.6709 74.0905 89.1126 73.3861L88.9727 73.206L88.8344 73.0307C88.5704 72.6918 88.2569 72.2388 88.4181 71.8696C88.584 71.4897 89.3586 71.0872 89.7252 70.8604L89.9309 70.7313C93.5508 68.4943 97.7567 68.1925 101.814 67.2996C101.977 67.2639 101.923 67.0419 101.777 67.0271C101.032 66.9527 100.279 66.906 99.5236 66.8873C100.561 66.7047 101.598 66.5278 102.627 66.3442C102.56 65.7523 102.503 65.1596 102.457 64.5662C102.916 64.957 103.537 65.0662 104.398 64.622C105.089 64.2652 105.323 63.3467 105.037 62.6668C104.941 62.4381 104.809 62.2561 104.651 62.1153L104.602 62.0743L104.098 59.785L102.99 54.7001L102.957 54.5543L102.919 54.3998L102.693 53.5111C102.281 51.867 101.844 49.6319 103.268 48.8447C104.051 48.4124 105.094 49.0286 105.854 49.4148ZM137.361 41.9726L137.396 42.131L137.477 42.4815C137.649 43.2592 137.759 44.0562 137.847 44.8459C138.051 46.6857 138.088 48.5462 137.97 50.393C137.912 51.298 137.814 52.2099 137.7 53.1082C137.578 54.0709 137.305 55.0192 137.234 55.9864C136.946 56.3545 136.68 56.755 136.377 57.0869C135.567 57.9743 134.616 58.6418 133.375 58.6566C131.01 58.6845 129.024 56.8408 126.728 56.4361L126.572 56.4103C126.189 56.3378 123.179 55.5593 123.548 54.2462L123.563 54.1979C123.684 53.8422 123.548 53.3929 123.283 53.1378C123.152 53.011 123.011 52.9135 122.863 52.8396C125.183 48.6938 128.316 45.1571 132.609 42.8434L133.198 42.5313L133.52 42.3637C134.501 41.8584 135.617 41.3463 136.639 41.2597C137.155 41.2157 137.268 41.5577 137.361 41.9726Z" fill="#C93305"/>
<path fill-rule="evenodd" clip-rule="evenodd" d="M133.438 39.0315L133.792 38.8764C135.014 38.346 136.348 37.8374 137.686 38.1274C139.227 38.4613 140.118 39.7896 140.499 41.2378C140.94 42.913 141.138 44.6961 141.259 46.4203C141.384 48.206 141.335 49.9879 141.201 51.7709C141.089 53.2619 140.858 54.9899 140.304 56.4351C140.328 56.414 140.356 56.3984 140.39 56.3948C142.569 56.171 144.577 56.3014 146.658 57.0049C148.597 57.6603 150.476 58.5799 152.163 59.7417C155.807 62.2509 158.626 66.0404 160.59 69.9637C164.58 77.9343 165.422 86.9511 166.54 95.6676L166.574 95.9317C167.176 100.593 167.975 105.183 169.258 109.705L169.479 110.475C170.656 114.612 171.358 118.636 170.42 122.918C168.605 131.199 162.209 137.449 154.809 141.057C151.031 142.899 146.943 144.258 142.815 145.042C138.58 145.846 133.997 145.981 130.135 143.785C128.221 142.696 129.906 139.915 131.841 140.859C135.834 142.807 140.359 142.166 144.503 141.094C148.625 140.029 152.668 138.537 156.32 136.322C162.588 132.52 167.862 125.956 168.035 118.334C168.132 114.045 166.304 109.95 165.423 105.809C164.646 102.16 164.164 98.458 163.709 94.7561L163.371 92.0063C162.393 84.1203 161.167 76.002 157.127 69.0323C153.561 62.8801 147.419 57.9879 140.35 56.6867C140.308 56.679 140.28 56.6585 140.263 56.6325C140.047 57.7998 138.763 58.8883 137.942 59.56C136.779 60.5123 135.369 61.2024 133.835 61.1715C130.879 61.1121 128.339 58.8133 126.313 56.8881C126.084 56.6712 126.332 56.3686 126.591 56.4079C128.944 56.7627 130.961 58.6786 133.372 58.6501C134.613 58.6353 135.563 57.9679 136.374 57.0804C136.676 56.7486 136.942 56.3481 137.23 55.9799C137.301 55.0128 137.574 54.0644 137.696 53.1017C137.811 52.2035 137.908 51.2915 137.966 50.3865C138.084 48.5397 138.047 46.6792 137.843 44.8394C137.756 44.0497 137.645 43.2527 137.473 42.475L137.393 42.1245C137.286 41.6427 137.216 41.2038 136.635 41.2532C135.344 41.3627 133.9 42.1525 132.771 42.7485C128.392 45.0601 125.209 48.6342 122.859 52.8331C123.007 52.9071 123.148 53.0045 123.28 53.1313C123.545 53.3864 123.681 53.8357 123.559 54.1915C123.09 55.5661 121.423 55.6062 120.249 56.1445C118.971 56.7308 117.77 57.4845 116.633 58.31C114.394 59.9349 112.338 61.8438 110.382 63.7965C107.302 66.8712 104.442 70.1435 101.68 73.5008L101.093 74.817C100.506 76.1329 99.932 77.4532 99.4572 78.8239C98.6843 81.0528 98.0369 83.3314 97.5391 85.6378C97.0382 87.9593 96.7117 90.334 96.5879 92.706C96.4774 94.8225 96.7576 96.9375 96.7458 99.0417C96.9334 99.3936 97.0013 99.7903 96.913 100.195C97.5037 100.362 98.0759 100.618 98.6133 100.97C98.7442 101.056 98.6611 101.262 98.5066 101.224C97.8252 101.056 97.1436 101.018 96.4762 101.083C96.122 101.521 95.5486 101.8 94.9922 101.788L94.7548 101.782C94.5809 101.779 94.4084 101.751 94.2419 101.703C93.3029 102.137 92.4389 102.762 91.7076 103.508C89.9491 105.303 89.0999 107.654 89.2247 110.166C89.3483 112.644 90.6647 114.878 92.845 116.068C93.8175 116.599 94.8982 116.879 96.0037 116.899C97.0673 116.918 98.4632 116.594 99.337 117.289C99.4353 117.367 99.5 117.471 99.5398 117.586C99.6008 117.328 99.6655 117.071 99.7361 116.814C99.7901 116.618 100.115 116.596 100.155 116.814L100.207 117.1C100.939 121.238 101.196 125.498 104.105 128.81C105.466 130.359 107.106 131.757 108.789 132.943L109.068 133.137C109.787 133.635 110.563 134.118 111.42 134.298C112.373 134.498 113.16 134.443 114.036 134.968C114.448 135.215 114.701 135.76 114.549 136.233C113.578 139.266 109.748 137.903 107.818 136.704C106.744 136.037 105.699 135.232 104.729 134.344C103.882 134.861 102.877 135.194 102.013 135.324C100.681 135.524 99.2668 135.246 98.2049 134.384C97.0814 133.471 96.6971 132.144 96.8879 130.735C96.9828 130.034 97.1643 129.35 97.3598 128.671L97.5214 128.116C97.7571 127.309 97.9414 126.475 98.4166 125.769C98.6565 125.414 99.2259 125.447 99.3493 125.892C99.6315 126.909 99.5094 128.057 99.4363 129.117L99.4205 129.36C99.3727 130.157 99.0339 131.379 99.7308 131.97C100.57 132.681 101.489 132.356 102.383 131.866C102.292 131.755 102.202 131.643 102.114 131.53C99.2211 127.845 98.5017 123.257 99.294 118.772C98.5475 119.754 96.6016 119.966 95.569 119.89C93.9478 119.77 92.3525 119.276 90.9716 118.408C88.0793 116.589 86.4526 113.399 86.3835 110.006C86.316 106.711 87.7865 103.378 90.4981 101.46C91.2145 100.953 92.0114 100.559 92.8433 100.3C92.4389 98.6902 92.3961 96.9119 92.4838 95.1718C91.5138 95.3042 90.4637 95.1323 89.5867 94.8331L89.4506 94.7854C88.0989 94.3 86.3823 93.3246 86.1292 91.8021C85.8176 89.9295 88.1228 88.8533 89.4602 88.1054C90.0858 87.7557 90.7255 87.4285 91.3896 87.1585L91.5895 87.0792C92.1628 86.8582 92.8376 86.4458 93.4195 86.7743C93.461 86.7977 93.4711 86.8423 93.465 86.8861C93.3499 87.6987 92.0213 88.3903 91.4306 88.9028C90.9769 89.2961 90.5384 89.7078 90.1176 90.1366C89.8448 90.4148 89.4345 91.1175 89.0845 91.3147C89.2471 91.3999 89.4419 91.6095 89.5777 91.6901C89.9601 91.916 90.3634 92.0754 90.7949 92.1785C91.4365 92.3324 92.0791 92.2664 92.7214 92.2518C92.9822 89.689 93.4557 87.1822 94.2181 84.7202C95.4967 80.5895 97.5925 76.238 100.582 72.9725C102.775 68.8549 105.606 65.094 108.84 61.7307C110.915 59.5739 113.106 57.4811 115.536 55.7286C116.613 54.9517 117.746 54.2518 118.949 53.6878L119.349 53.5041C120.016 53.1944 120.828 52.7923 121.603 52.6773C122.103 50.6847 122.996 48.779 124.079 47.0516C125.57 44.6716 127.534 42.6642 129.831 41.0603C130.965 40.2685 132.173 39.5878 133.438 39.0315ZM93.5853 108.433C95.5128 107.135 97.8768 106.627 100.18 106.819C101.323 106.914 102.453 107.183 103.524 107.593L103.965 107.768C104.988 108.179 106.086 108.686 106.122 109.926C106.137 110.416 105.775 110.806 105.339 110.958C104.275 111.329 103.412 110.44 102.533 109.968C101.646 109.49 100.703 109.175 99.731 108.92C99.6378 108.896 99.5444 108.873 99.4512 108.851C99.5018 108.953 99.5305 109.065 99.5206 109.186C99.4965 109.476 99.4124 109.692 99.3306 109.964C99.3059 110.046 99.2459 110.549 99.1843 110.612C99.2043 110.783 99.2064 110.945 99.2117 111.117C99.2265 111.626 99.1639 112.056 98.9045 112.507C98.2586 113.63 96.412 113.734 95.7937 112.507C95.1753 111.281 95.6585 110.081 96.5982 109.199C96.8543 108.959 97.1958 108.714 97.5669 108.546C96.264 108.427 94.9466 108.483 93.645 108.655C93.518 108.672 93.4986 108.492 93.5853 108.433ZM93.7006 67.2946C96.3443 66.844 99.1052 66.7542 101.773 67.0207C101.919 67.0355 101.973 67.2574 101.81 67.2931C97.753 68.1861 93.5471 68.4878 89.9272 70.7248L89.7605 70.8294C89.4131 71.0509 88.5864 71.4692 88.4144 71.8631C88.2114 72.3281 88.7612 72.9258 89.0169 73.2614C89.5918 74.0151 90.3061 74.673 91.0946 75.1966C91.9275 75.7495 92.8231 76.1762 93.7864 76.4456C94.2438 76.5737 94.7184 76.6388 95.1706 76.7847C95.6854 76.9503 95.8516 77.2147 96.2416 77.5603C96.6911 77.9581 96.5401 78.7215 96.0554 79.007L95.9194 79.0863C95.2825 79.4517 94.9285 79.5593 94.1195 79.4164C93.4866 79.3044 92.8821 79.0827 92.2897 78.8362C91.2013 78.3831 90.2079 77.7899 89.2913 77.0513L89.1544 76.9394C87.5176 75.5829 84.7442 72.616 86.571 70.456C88.1833 68.55 91.3518 67.6949 93.7006 67.2946ZM100.212 46.7439C102.747 43.7495 106.328 45.7941 108.869 47.5845C111.607 49.5137 113.983 51.7893 115.904 54.5387C116.026 54.7135 115.79 54.9261 115.62 54.8234C113.49 53.5361 111.338 52.3037 109.153 51.1106C108.256 50.6208 107.358 50.1427 106.44 49.695L105.95 49.4584C105.183 49.079 104.082 48.3867 103.265 48.8382C101.502 49.8123 102.59 53.0027 102.953 54.5479L102.986 54.6937L104.094 59.7786L104.599 62.0679C104.778 62.2137 104.927 62.4088 105.033 62.6603C105.319 63.3402 105.086 64.2587 104.394 64.6155C102.353 65.6684 101.662 63.612 101.278 62.0666C100.965 60.8112 100.65 59.5565 100.334 58.3021L99.8105 56.229C99.0092 53.0908 97.8717 49.507 100.212 46.7439Z" fill="black"/>
<path fill-rule="evenodd" clip-rule="evenodd" d="M143.152 128.274C141.731 127.695 140.464 126.728 139.538 125.493C139.216 125.064 139.132 124.61 139.2 124.196C139.276 123.729 139.552 123.307 139.928 123.023C140.305 122.739 140.777 122.599 141.233 122.67C141.629 122.732 142.024 122.949 142.336 123.4L142.401 123.49C142.952 124.235 143.67 124.847 144.488 125.241C145.276 125.621 146.157 125.798 147.07 125.695C148.807 125.499 150.005 124.559 151.278 123.282C151.435 123.121 151.593 122.955 151.752 122.786C151.852 122.633 151.991 122.535 152.145 122.483C152.317 122.426 152.511 122.429 152.688 122.491C152.859 122.551 153.013 122.664 153.115 122.815C153.213 122.958 153.268 123.135 153.25 123.339C153.134 124.662 152.442 125.842 151.46 126.769C150.37 127.799 148.924 128.511 147.563 128.761C146.063 129.036 144.535 128.839 143.152 128.274ZM148.27 107.866C149.866 108.837 152.296 111.099 150.58 113.504C148.56 115.624 145.651 113.193 144.218 112.093C142.889 111.241 141.396 113.433 142.629 114.428C152.986 122.099 157.189 108.12 149.077 106.726C148.184 106.572 147.852 107.566 148.27 107.866ZM129.71 98.9431C129.886 96.7543 133.219 96.2573 133.55 98.4232C133.847 100.363 133.498 102.146 132.624 103.893C131.789 105.561 129.691 104.783 129.533 103.263C129.32 101.226 129.601 100.305 129.71 98.9431ZM155.076 97.9741C155.54 97.3654 156.211 96.9499 157.015 97.1847C159.526 97.9187 158.786 101.485 157.904 103.221C157.425 104.163 155.876 104.402 155.176 103.572C154.035 102.219 153.489 99.5159 154.939 98.1827C154.978 98.1138 155.022 98.0443 155.076 97.9741ZM132.589 89.3656L132.985 89.2961C134.212 89.0839 135.738 88.8799 136.606 89.8667C137.066 90.39 137.225 91.3626 136.606 91.8635C135.517 92.7449 134.314 92.4033 133.01 92.4779C131.935 92.5397 130.902 92.7176 129.866 93.0137C127.595 93.6632 125.744 94.8489 123.804 96.1508C123.549 96.3216 123.289 95.9959 123.411 95.7577C124.531 93.5632 126.701 91.7606 128.875 90.6618C130.035 90.0753 131.305 89.5888 132.589 89.3656ZM152.787 88.3826L153.09 88.4447C156.394 89.1356 160.686 90.5155 162.251 93.7618C162.31 94.2208 162.247 94.3192 162.196 94.3834L162.179 94.4048C162.137 94.4597 162.103 94.5354 161.904 94.5978C161.849 94.5847 161.793 94.5708 161.737 94.556C161.02 94.368 160.453 94.109 159.903 93.8403L159.308 93.5467C158.617 93.2078 157.92 92.8812 157.181 92.6401C155.604 92.1257 153.983 91.7633 152.336 91.5698C151.979 91.5279 151.636 91.4074 151.364 91.2009C151.107 91.0049 150.91 90.7334 150.821 90.3727C150.705 89.9058 150.738 89.5523 150.988 89.1311C151.177 88.8148 151.446 88.5956 151.755 88.4697C152.071 88.3413 152.43 88.3111 152.787 88.3826Z" fill="black"/>
<path fill-rule="evenodd" clip-rule="evenodd" d="M159.89 92.1484C164.848 92.1484 167.678 93.2153 168.715 93.2984L168.746 93.3006C169.178 93.3282 169.565 93.3643 169.971 93.5213C171.463 94.0964 171.707 95.6626 170.835 96.6497C170.774 98.6921 171.043 101.079 170.582 103.128C170.014 111.766 165.953 113.223 163.645 113.755C162.486 114.023 161.112 114.129 159.881 113.847C157.782 113.769 155.705 113.111 153.929 111.966C151.455 110.37 149.618 107.916 149.022 105.005C148.739 103.617 148.607 102.173 148.761 100.762L148.784 100.568C147.98 100.183 147.048 100.11 146.087 100.076C145.629 100.06 145.176 100.045 144.737 100.065C144.308 100.113 143.883 100.176 143.458 100.263C142.993 100.404 142.554 100.635 142.149 101.002L142.121 101.537C142.045 102.874 141.869 104.215 141.598 105.527C141.199 107.462 140.556 109.311 139.188 110.684C138.725 111.376 138.152 111.993 137.456 112.528C134.93 114.474 131.497 115.189 128.346 114.92C121.949 114.374 118.252 109.294 117.4 107.123L117.349 106.991C116.733 105.377 116.243 103.283 114.298 102.936L113.884 102.861C112.997 102.695 112.178 102.463 111.657 101.596C111.429 101.218 111.312 100.795 111.283 100.364C110.98 100.387 110.676 100.41 110.374 100.431C107.964 100.941 93.5074 101.374 92.3535 101.374C92.3535 101.374 90.1354 102.307 89.199 101.584C88.5499 101.081 88.3363 100.41 88.6936 99.6503C89.2328 98.5072 91.7201 97.8196 92.8246 97.6019C92.8246 97.6019 110.648 97.7499 111.931 97.5066C112.725 96.6879 114.144 96.7999 115.331 96.6705C116.313 95.9699 117.687 95.5007 118.772 95.1866C118.993 95.1028 119.212 95.0217 119.425 94.9453C121.415 94.2365 123.483 93.8611 125.582 93.6595C127.747 93.4536 129.919 93.5468 132.071 93.8418C132.978 93.9648 133.877 94.124 134.769 94.3322C136.367 94.5429 137.955 94.8899 139.553 95.3016L139.873 95.3848C141.556 95.8262 143.286 96.208 145.028 95.9088C146.446 95.6668 147.81 95.1207 149.118 94.5302L149.288 94.453C152.164 93.1395 156.654 92.1484 159.89 92.1484ZM134.596 96.9508C133.535 96.7174 133.082 98.3538 134.146 98.5879C134.9 98.7537 135.539 99.1339 135.971 99.778L136.016 99.8481C136.595 100.77 138.059 99.919 137.476 98.9911C136.82 97.947 135.801 97.2157 134.596 96.9508ZM165.671 95.9362C165.297 95.6726 164.731 95.8683 164.514 96.2407C164.275 96.6509 164.431 97.1075 164.782 97.3758L164.817 97.402C165.139 97.6286 165.451 98.0346 165.491 98.4507L165.494 98.5028C165.536 99.5917 167.228 99.5972 167.186 98.5028C167.144 97.4321 166.525 96.5376 165.671 95.9362Z" fill="black"/>
</svg>
