<?xml version="1.0" encoding="UTF-8" standalone="no"?><svg width="240" height="324" viewBox="0 0 240 324" fill="none" xmlns="http://www.w3.org/2000/svg">
<path fill-rule="evenodd" clip-rule="evenodd" d="M112.707 140.051L110.122 146.443L111.546 166.705L112.606 166.871C123.798 168.606 131.403 169.483 135.421 169.501L135.545 169.501C139.592 169.501 144.441 168.597 150.092 166.788L150.35 166.705L151.002 151.534H149.463L146.681 145.007L146.683 145.004C146.714 145.057 146.746 145.107 146.779 145.157C147.939 146.873 148.612 145.487 151.337 146.094C154.601 146.821 156.05 150.121 158.923 152.587C160.257 153.732 163.057 154.272 164.397 155.059L165.805 155.886C170.215 158.489 175.284 161.65 177.946 165.768C181.066 170.595 183.216 175.177 185.202 180.547C189.483 192.123 192.454 203.935 194.577 216.082C196.729 228.394 198.022 240.859 199.01 253.314C199.468 259.085 199.856 264.862 200.178 270.643L200.257 272.088C200.426 275.233 200.279 278.311 197.42 280.248C195.372 281.635 192.654 281.846 190.251 281.989L190.12 281.997C172.354 283.039 154.587 284.074 136.821 285.111L110.171 286.669C105.737 286.929 101.303 287.187 96.8685 287.444L86.0447 288.069C80.9433 288.359 75.8358 288.611 70.7276 288.581C64.3008 288.543 57.9013 288.069 51.5337 287.212L50.972 287.135C46.9659 286.582 41.1573 285.182 40.4377 280.376C40.3344 279.685 40.9416 279.254 41.4514 279.353C41.2836 278.571 41.1795 277.788 41.08 277.107C40.653 274.199 40.3849 271.272 40.2525 268.336C39.9867 262.461 40.2106 256.559 40.7977 250.709C41.769 241.032 43.1306 231.371 44.5374 221.745L44.8507 219.606C46.3471 209.407 48.1287 199.224 50.9166 189.289C53.492 180.112 57.5096 170.564 63.0378 164.761C68.566 158.958 76.448 153.916 84.547 150.827C85.2484 150.56 99.1836 147.507 100.122 147.952L100.291 147.82C103.069 145.626 107.033 141.771 111.113 142.985L111.123 142.97C111.219 142.793 111.596 141.608 112.117 140.051L112.707 140.051Z" fill="#8FA7DF"/>
<path fill-rule="evenodd" clip-rule="evenodd" d="M115.654 131.543C119.029 127.262 122.587 125.901 127.844 126.22C131.409 126.093 134.965 127.018 137.984 129.063C140.75 130.509 143.202 132.5 144.953 135.062C146.451 137.252 145.313 142.665 146.681 145.007C146.667 145.261 146.66 145.494 146.66 145.704C146.66 147.73 148.07 149.992 150.89 152.488L151.002 152.587V167.314C146.261 168.772 140.392 169.501 133.395 169.501C126.501 169.501 119.331 168.343 111.885 166.028L111.546 165.921L110.122 149.916L111.546 145.487L111.546 141.777L112.096 140.118C113.071 137.201 114.562 132.927 115.654 131.543Z" fill="#D08B5B"/>
<path fill-rule="evenodd" clip-rule="evenodd" d="M111.546 165.922C111.546 165.922 124.062 169.568 132.607 169.568C141.152 169.568 150.349 165.922 150.349 165.922L148.857 285.95L124.842 286.244L111.546 165.922Z" fill="#9FD8E5"/>
<path fill-rule="evenodd" clip-rule="evenodd" d="M70.3435 218.33C70.251 218.156 70.4656 218.001 70.608 218.126C73.8432 220.966 75.5369 225.527 75.892 229.743C76.2683 234.214 75.7349 238.842 75.531 243.311C75.3041 248.289 75.1002 253.269 74.8232 258.244C74.542 263.292 74.2391 268.338 73.9794 273.387L73.3953 284.744C73.3332 285.955 73.4677 287.443 73.0034 288.573C72.2838 290.324 70.1464 290.053 69.6971 288.59L69.6831 288.541L69.6421 288.573C69.2458 287.254 69.5424 285.688 69.6096 284.324L70.2216 271.915C70.654 263.144 71.0397 254.372 71.5041 245.603L71.662 242.68C71.8792 238.745 72.0457 234.82 72.1794 230.886L72.2227 229.575C72.3497 225.625 72.2489 221.896 70.3435 218.33ZM148.768 145.517C150.57 145.345 151.931 145.943 153.568 146.573C154.281 146.847 154.956 147.164 155.639 147.492C156.496 147.903 157.046 148.629 157.573 149.397L157.855 149.81C160.05 153.028 161.527 156.74 163.193 160.243C165.143 164.341 167.111 168.43 169.019 172.547L169.96 174.576C170.431 175.59 170.9 176.605 171.362 177.623L172.161 179.395C172.963 181.192 173.682 183.093 172.539 184.947C171.476 186.671 169.59 188.005 168.098 189.338C166.853 190.45 165.607 191.562 164.361 192.674C166.937 195.254 168.665 198.502 169.682 201.985C171.125 201.384 172.887 201.268 174.38 201.008C176.47 200.644 176.726 203.808 174.754 203.77C173.297 203.741 171.589 203.89 170.095 203.583C170.354 204.728 170.543 205.89 170.662 207.055C171.29 213.162 169.918 219.304 168.487 225.213L168.37 225.698C166.816 232.094 165.342 238.506 164.024 244.954C162.703 251.417 161.515 257.906 160.46 264.417C159.386 271.045 158.627 277.708 157.81 284.371C157.687 285.379 157.052 286.243 155.939 286.243C155.011 286.243 153.95 285.377 154.067 284.371C154.909 277.116 156.104 269.898 157.291 262.693C159.336 250.284 161.909 237.983 164.87 225.763L165.387 223.634C166.719 218.115 167.928 212.428 167.26 206.735C166.715 202.099 164.778 197.156 160.948 194.277L160.832 194.19C159.937 193.534 159.593 192.279 160.474 191.415C161.035 190.865 161.596 190.315 162.158 189.766L165.529 186.474L166.208 185.809C166.775 185.256 167.344 184.705 167.931 184.172C168.286 183.85 169.248 183.235 169.318 182.704C169.364 182.358 168.954 181.75 168.788 181.431L168.027 179.894C167.595 179.018 167.177 178.136 166.755 177.255C165.88 175.43 164.993 173.61 164.138 171.776L159 160.762C157.551 157.655 156.259 154.374 154.364 151.501L153.991 150.942C153.679 150.47 153.403 150.016 153.206 149.44C153.017 148.885 152.779 148.276 152.428 147.802C151.608 146.691 150.039 146.061 148.726 145.828C148.536 145.794 148.605 145.532 148.768 145.517ZM109.25 142.624C109.364 142.624 109.381 142.787 109.276 142.818C107.692 143.295 106.179 144.064 104.944 145.173C104.354 145.704 103.759 146.307 103.394 147.021C103.255 147.295 103.177 147.584 103.121 147.883L103.103 147.984C103.009 148.525 102.874 148.826 102.599 149.259L102.552 149.333C100.983 151.757 99.8832 154.449 98.8778 157.145L96.6883 163.023L94.5001 168.902C93.7951 170.796 93.0897 172.69 92.3845 174.584C91.9949 175.63 91.5944 176.671 91.194 177.713C91.0208 178.164 90.8344 178.612 90.676 179.069C90.6542 179.131 90.5849 179.507 90.533 179.598L90.5507 179.629C90.992 180.372 92.169 180.993 92.8362 181.532L95.1335 183.39C96.7715 184.715 98.4515 186.003 100.04 187.387C101.038 188.256 100.417 189.812 99.3044 190.175C97.4393 190.783 95.612 191.511 93.7749 192.198C93.0327 192.476 92.26 192.718 91.5265 193.024L91.08 193.217C90.9056 193.296 90.9895 193.295 90.9965 193.617C91.0034 193.954 91.0992 194.306 91.1541 194.638C91.7729 198.381 92.4289 202.118 93.1212 205.848C95.5702 219.039 98.4961 232.133 101.833 245.126C103.519 251.688 105.326 258.218 107.049 264.77C108.767 271.304 111.028 277.745 113.186 284.145C113.795 285.95 110.935 286.727 110.341 284.93C107.853 277.403 105.577 269.81 103.226 262.24C99.0504 248.79 95.7597 235.048 92.8493 221.272C91.4068 214.444 90.0874 207.591 88.8925 200.716C88.6662 199.414 88.4443 198.112 88.227 196.809L87.9103 194.892C87.6932 193.526 87.5696 192.102 88.6311 191.021C89.6677 189.966 91.4471 189.592 92.8111 189.097L92.9101 189.06C93.778 188.736 94.6522 188.424 95.5231 188.102C94.2403 187.092 92.9733 186.059 91.6937 185.05C90.6614 184.235 89.6129 183.437 88.5954 182.604C87.7565 181.917 87.0724 181.034 86.9849 179.917C86.8957 178.775 87.385 177.715 87.7797 176.667L87.8175 176.566C88.205 175.52 88.5935 174.474 88.992 173.432L91.4575 166.982C93.0242 162.883 94.5249 158.752 96.1727 154.685C96.8247 153.075 97.5352 151.491 98.3748 149.97C98.7796 149.236 99.2137 148.518 99.6855 147.826C100.214 147.05 100.694 146.671 101.513 146.243C102.823 145.558 103.85 144.409 105.166 143.703C106.456 143.01 107.784 142.64 109.25 142.624ZM113.501 135.311C113.551 135.225 113.684 135.264 113.686 135.362C113.72 137.399 113.236 139.48 112.939 141.494C112.64 143.516 112.544 145.649 112.111 147.649C112.102 147.742 112.084 147.834 112.059 147.924L112.038 147.993C111.856 148.553 111.381 149.028 110.798 149.176C110.982 150.192 111.154 151.209 111.299 152.231C111.549 153.989 111.776 155.749 112 157.509L112.268 159.622C112.521 161.614 112.767 163.606 113.01 165.598C113.628 165.857 114.259 166.071 114.906 166.255C116.394 166.682 117.918 166.855 119.454 167.006C122.582 167.312 125.734 167.455 128.873 167.629L129.546 167.667C133.075 167.869 136.623 167.905 140.143 167.543C141.888 167.363 143.62 167.062 145.322 166.635C146.187 166.418 147.028 166.093 147.891 165.881C148.177 165.811 148.433 165.648 148.72 165.475C148.848 165.314 149.026 165.192 149.259 165.145L149.322 165.134L149.385 165.125L149.406 165.115L149.404 165.122C149.581 165.098 149.749 165.098 149.907 165.12C149.97 163.566 150.038 162.013 150.124 160.46C150.353 156.289 150.987 151.938 150.141 147.803C150.113 147.664 150.302 147.615 150.351 147.745C152.012 152.122 151.825 156.908 151.909 161.515C151.991 166.021 151.941 170.529 151.919 175.036C152.242 175.173 152.529 175.359 152.757 175.621C153.213 176.143 153.344 177.05 152.757 177.554C152.497 177.777 152.21 177.933 151.905 178.04C151.889 181.955 151.861 185.87 151.822 189.785C152.566 190.36 152.635 191.726 151.793 192.293C151.653 204.972 151.423 217.651 151.232 230.327L150.832 256.923C150.779 260.467 150.69 264.01 150.659 267.553L150.684 267.563L150.772 267.604C150.922 267.674 151.143 267.787 151.189 267.903C151.201 267.934 151.205 267.954 151.203 267.97C151.447 268.004 151.689 268.12 151.899 268.318C152.415 268.81 152.31 269.55 151.899 270.05L151.789 270.184C151.532 270.496 151.045 270.616 150.646 270.552C150.651 272.764 150.665 274.976 150.658 277.187C150.655 277.862 150.645 278.538 150.634 279.213L150.606 280.833C150.587 281.757 150.505 282.931 149.559 283.347C148.492 283.815 147.534 283.431 147.102 282.347C146.985 282.053 147.01 281.779 147.053 281.489C147.04 281.052 146.971 280.547 146.98 280.142L147.015 278.453C147.021 278.193 147.031 277.933 147.038 277.672L147.008 277.676C143.214 277.86 139.395 277.77 135.595 277.768L133.905 277.77C132.496 277.771 131.083 277.764 129.675 277.71L129.147 277.687C128.093 277.638 126.985 277.622 125.892 277.528C126.031 278.65 126.161 279.773 126.277 280.897C126.387 281.963 125.287 282.868 124.306 282.868C123.142 282.868 122.475 281.952 122.336 280.897C121.677 275.918 121.408 270.893 120.779 265.911C120.216 261.449 119.727 256.977 119.231 252.507L119.065 251.016C117.248 234.747 115.484 218.472 113.797 202.189L113.011 194.578C112.217 186.906 111.419 179.233 110.746 171.55C110.361 167.157 110.007 162.764 109.673 158.367C109.428 155.137 109.274 151.924 109.174 148.7C108.779 148.294 108.581 147.7 108.756 147.087C108.858 146.73 108.977 146.374 109.103 146.019C109.095 145.67 109.087 145.321 109.08 144.972C109.074 144.642 109.409 144.471 109.678 144.526C110.166 143.344 110.703 142.172 111.152 141.001C111.878 139.106 112.476 137.065 113.501 135.311ZM72.9602 155.792C80.5487 151.034 89.5817 147.611 98.6288 147.979C98.8346 147.988 98.8925 148.301 98.6789 148.349C93.8531 149.427 88.9743 150.74 84.4056 152.65C79.8237 154.567 75.4669 157.148 71.5865 160.249C64.4271 165.97 58.8623 173.413 55.1981 181.802C53.0518 186.716 51.5474 191.904 50.2337 197.094C48.8436 202.587 47.6979 208.139 46.7453 213.725C44.8637 224.757 43.7683 235.911 43.1854 247.085C42.5924 258.451 42.8368 269.825 42.4139 281.193C42.3408 283.162 39.5267 283.124 39.3836 281.193C38.4253 268.268 38.9563 255.138 39.8425 242.223C40.6394 230.612 42.031 219.026 44.272 207.603L44.4672 206.613C46.5621 196.044 49.0889 185.219 54.1534 175.647C58.4772 167.476 65.1524 160.687 72.9602 155.792ZM178.338 206.304C178.378 206.19 178.527 206.192 178.567 206.304C179.432 208.726 179.463 211.46 179.693 214.013L179.711 214.209C179.932 216.539 180.098 218.871 180.252 221.205L180.31 222.08C180.929 231.601 181.704 241.112 182.871 250.583C184.034 260.019 185.607 269.389 187.307 278.74C187.497 279.781 187.036 280.841 185.944 281.141C184.982 281.406 183.747 280.813 183.544 279.778C182.488 274.41 181.634 269.036 180.873 263.622C179.532 254.089 178.531 244.511 177.888 234.905C177.565 230.081 177.366 225.258 177.287 220.423C177.251 218.18 177.309 215.932 177.429 213.691L177.457 213.174C177.589 210.883 177.576 208.488 178.338 206.304ZM96.3396 266.949C96.441 266.894 96.5665 267.007 96.5022 267.112C95.0329 269.501 93.0451 271.561 91.1238 273.591C89.1153 275.713 87.1564 277.899 85.1073 279.98C83.6267 281.483 81.2451 279.058 82.8077 277.679C85.0046 275.741 87.3009 273.898 89.537 272.003L90.5148 271.174C92.3482 269.624 94.236 268.089 96.3396 266.949ZM166.13 265.753C166.02 265.544 166.271 265.374 166.441 265.513C167.626 266.477 168.689 267.627 169.833 268.644C170.967 269.652 172.142 270.592 173.35 271.509C174.563 272.43 175.802 273.314 177.075 274.15C178.131 274.844 179.219 275.399 180.324 275.975C180.836 276.041 181.31 276.292 181.69 276.769C182.29 277.523 182.353 278.944 181.521 279.598L181.372 279.715C180.401 280.479 179.248 280.572 178.292 279.715C177.224 278.759 176.215 277.707 175.19 276.696L174.882 276.395C173.781 275.323 172.706 274.218 171.693 273.062L170.775 272.018C169.074 270.077 167.303 267.985 166.13 265.753ZM160.67 153.835C160.473 153.705 160.595 153.353 160.838 153.437L161.285 153.591C163.15 154.24 165.069 154.959 166.762 155.957C168.582 157.03 170.262 158.307 171.868 159.678C175.19 162.516 178.017 166.005 180.419 169.642C185.24 176.939 188.22 185.297 190.627 193.659C193.194 202.576 195.169 211.684 196.783 220.818C198.422 230.101 199.686 239.467 200.518 248.858C200.927 253.483 201.202 258.111 201.34 262.753C201.411 265.141 201.409 267.527 201.389 269.916C201.384 270.53 201.388 271.144 201.395 271.758L201.418 273.6C201.431 274.765 201.57 275.989 201.294 277.127C200.848 278.959 197.821 278.617 197.92 276.745C197.829 276.122 197.825 275.478 197.849 274.833C197.835 274.75 197.819 274.665 197.802 274.579C197.752 274.331 197.794 274.102 197.891 273.905C197.907 273.596 197.921 273.288 197.926 272.986C197.946 271.756 197.945 270.531 197.911 269.302C197.839 266.709 197.736 264.117 197.632 261.526C197.424 256.348 197.135 251.167 196.715 246.002C195.255 228.022 192.172 209.94 186.994 192.643C184.59 184.61 181.274 176.725 176.52 169.784C174.409 166.702 172.028 163.856 169.388 161.214C166.732 158.556 163.804 155.912 160.67 153.835ZM124.842 269.74L125.201 272.336C125.38 273.635 125.558 274.934 125.726 276.233C126.872 276.076 128.043 276.011 129.147 275.913C131.079 275.742 133.024 275.659 134.962 275.579C138.969 275.413 142.996 275.127 147.008 275.147C147.049 275.147 147.088 275.15 147.127 275.153L147.326 270.03L144.507 270.025C142.12 270.022 139.732 270.001 137.344 269.981C135.194 269.962 133.043 269.959 130.893 269.915L129.971 269.893C128.341 269.849 126.54 269.939 124.842 269.74ZM147.562 262.304C147.447 262.318 147.33 262.329 147.206 262.334C146.647 262.358 146.085 262.341 145.526 262.346C144.337 262.356 143.148 262.364 141.958 262.364C139.579 262.364 137.2 262.378 134.822 262.407C132.373 262.437 129.926 262.479 127.478 262.484C126.291 262.486 125.108 262.455 123.922 262.422C124.114 264.108 124.315 265.793 124.536 267.473C126.378 267.225 128.359 267.35 130.159 267.333L130.393 267.33C132.85 267.288 135.308 267.319 137.766 267.322C140.294 267.325 142.822 267.333 145.35 267.354L147.427 267.371L147.431 267.266C147.492 265.614 147.531 263.959 147.562 262.304ZM123.009 254.238C123.239 256.228 123.455 258.222 123.675 260.215C123.822 260.192 123.97 260.173 124.121 260.157C125.309 260.032 126.495 259.926 127.687 259.852C130.064 259.705 132.441 259.627 134.822 259.563C137.27 259.497 139.719 259.447 142.168 259.412C143.358 259.396 144.546 259.397 145.736 259.406C146.294 259.409 146.858 259.392 147.415 259.429C147.482 259.434 147.545 259.441 147.608 259.448L147.65 256.456C147.657 255.957 147.665 255.458 147.673 254.96C145.834 255.073 143.964 255.03 142.127 255.03L141.703 255.031C139.394 255.042 137.085 255.01 134.776 254.962C132.394 254.913 130.018 254.835 127.64 254.682C126.677 254.621 125.721 254.539 124.763 254.433L124.284 254.378C123.867 254.329 123.438 254.289 123.009 254.238ZM147.863 245.793C143.434 246.145 139.029 246.292 134.588 246.336L133.922 246.341C129.998 246.371 126.041 246.533 122.108 246.429C122.343 248.469 122.577 250.509 122.814 252.548C123.377 252.522 123.943 252.521 124.494 252.502C125.614 252.461 126.73 252.451 127.85 252.449C130.159 252.443 132.467 252.463 134.776 252.459C137.155 252.454 139.534 252.413 141.913 252.369C143.842 252.333 145.791 252.187 147.725 252.193L147.863 245.793ZM148.05 237.091C147.537 237.262 146.931 237.273 146.267 237.303L144.552 237.389C143.758 237.427 142.963 237.464 142.168 237.493C139.518 237.59 136.869 237.681 134.219 237.765C131.503 237.851 128.775 237.901 126.059 237.816C124.729 237.774 123.409 237.704 122.083 237.593C121.755 237.566 121.421 237.548 121.086 237.524C121.395 240.227 121.705 242.929 122.016 245.631C125.93 245.15 129.875 244.851 133.785 244.354L137.32 243.902C140.854 243.451 144.384 243.008 147.931 242.635L148.05 237.091ZM148.239 228.293C147.486 228.479 146.627 228.47 145.904 228.515L145.77 228.525C144.4 228.629 143.027 228.68 141.653 228.714C138.962 228.781 136.269 228.814 133.576 228.83L131.957 228.84C129.799 228.853 127.642 228.859 125.483 228.808C124.098 228.776 122.716 228.708 121.332 228.639C120.918 228.618 120.494 228.604 120.069 228.583C120.358 231.141 120.651 233.699 120.942 236.258C121.397 236.185 121.853 236.13 122.289 236.057C123.404 235.868 124.517 235.718 125.641 235.583C128.074 235.292 130.519 235.082 132.964 234.905C135.473 234.723 137.985 234.569 140.494 234.393L142.272 234.267C142.865 234.226 143.457 234.186 144.05 234.15C145.062 234.088 146.239 234.158 147.243 233.938C147.515 233.824 147.817 233.798 148.119 233.863L148.239 228.293ZM148.467 217.994C148.206 218.325 147.817 218.499 147.353 218.559C144.936 218.873 142.457 218.923 140.02 219.071L139.591 219.098C137.074 219.264 134.556 219.394 132.038 219.528C129.451 219.665 126.865 219.777 124.275 219.867C123.176 219.906 122.072 219.91 120.971 219.896L120.499 219.889C120.047 219.881 119.574 219.882 119.099 219.867C119.362 222.259 119.627 224.652 119.896 227.043C120.38 226.991 120.863 226.951 121.332 226.901C122.715 226.755 124.097 226.61 125.483 226.501C128.109 226.294 130.738 226.169 133.369 226.039C136.061 225.906 138.755 225.817 141.447 225.691C142.753 225.63 144.058 225.554 145.36 225.434C146.272 225.35 147.355 225.04 148.307 225.154C148.359 222.767 148.413 220.381 148.467 217.994ZM148.679 208.769C148.638 208.833 148.59 208.895 148.531 208.952C147.467 210.004 146.156 209.923 144.746 210.033L144.659 210.04C143.277 210.156 141.895 210.267 140.512 210.366C137.746 210.566 134.976 210.706 132.206 210.83C129.372 210.958 126.52 211.045 123.683 210.988C121.866 210.95 119.963 210.957 118.11 210.78C118.395 213.415 118.681 216.049 118.97 218.684C119.491 218.586 120.015 218.51 120.512 218.432C121.763 218.235 123.016 218.037 124.275 217.892C126.791 217.602 129.308 217.331 131.828 217.087C133.984 216.878 136.139 216.666 138.296 216.474L139.591 216.363C142.165 216.146 144.771 215.789 147.353 215.736C147.779 215.727 148.26 215.959 148.504 216.325C148.561 213.806 148.62 211.287 148.679 208.769ZM148.858 201.3C148.2 201.38 147.492 201.335 146.886 201.355C145.352 201.405 143.818 201.451 142.285 201.497L133.081 201.768C129.948 201.861 126.804 201.93 123.669 201.886C122.29 201.866 120.906 201.864 119.527 201.789L119.068 201.761C118.501 201.723 117.805 201.718 117.125 201.649L117.927 209.086C119.771 208.819 121.672 208.72 123.5 208.563L123.891 208.529C126.587 208.283 129.297 208.121 131.998 207.938C134.77 207.75 137.537 207.522 140.304 207.289C141.687 207.173 143.07 207.057 144.452 206.929L144.623 206.913C145.929 206.776 147.156 206.486 148.313 207.256C148.482 207.369 148.614 207.519 148.705 207.688C148.755 205.559 148.805 203.429 148.858 201.3ZM149.072 192.621C143.467 192.847 137.862 193.018 132.253 193.094C129.096 193.136 125.943 193.106 122.786 193.04C121.417 193.011 120.037 192.946 118.669 192.841L118.157 192.8C117.506 192.745 116.823 192.705 116.143 192.64C116.424 195.197 116.703 197.754 116.98 200.312C117.649 200.187 118.348 200.13 118.935 200.055L119.068 200.037C120.525 199.837 121.996 199.72 123.46 199.591C126.311 199.34 129.177 199.178 132.036 199.04C134.963 198.899 137.892 198.78 140.82 198.65L143.748 198.518C144.236 198.497 144.724 198.476 145.212 198.455C145.91 198.425 146.607 198.397 147.304 198.368C147.648 198.354 148.006 198.308 148.35 198.325L148.448 198.312C148.493 198.306 148.533 198.302 148.57 198.298C148.663 198.227 148.764 198.167 148.871 198.122L148.936 198.097L149.072 192.621ZM115.224 184.396C115.484 186.698 115.741 189.001 115.995 191.303C116.795 191.212 117.604 191.162 118.367 191.093C119.906 190.955 121.452 190.834 122.996 190.763L126.081 190.62C128.138 190.525 130.195 190.433 132.253 190.357C137.886 190.152 143.518 189.916 149.148 189.628C149.187 188.067 149.228 186.505 149.27 184.943C149 185.233 148.61 185.423 148.097 185.422C142.187 185.406 136.272 185.441 130.363 185.343C127.405 185.295 124.45 185.223 121.496 185.071C120.05 184.997 118.596 184.846 117.161 184.647C116.55 184.562 115.88 184.502 115.224 184.396ZM114.278 176.194C114.556 178.552 114.828 180.911 115.096 183.27C115.83 183.139 116.589 183.069 117.273 182.976C118.745 182.776 120.225 182.616 121.707 182.533C124.59 182.369 127.475 182.287 130.363 182.226C136.272 182.1 142.186 182.101 148.097 182.055C148.652 182.05 149.064 182.27 149.335 182.598C149.376 181.125 149.419 179.653 149.464 178.18C148.893 178.12 148.327 178.035 147.803 177.998C146.193 177.886 144.583 177.783 142.972 177.691C139.611 177.498 136.246 177.333 132.882 177.186C129.517 177.04 126.151 176.897 122.785 176.772L121.313 176.718C118.972 176.631 116.592 176.521 114.278 176.194ZM113.22 167.314C113.509 169.702 113.794 172.09 114.078 174.479L114.164 175.219C116.979 174.671 119.946 174.511 122.785 174.39C126.151 174.247 129.512 174.173 132.882 174.183C136.248 174.194 139.609 174.273 142.972 174.412C144.653 174.482 146.333 174.562 148.013 174.653C148.475 174.678 149.016 174.665 149.573 174.673C149.586 174.298 149.596 173.922 149.609 173.547C149.66 172.027 149.71 170.506 149.762 168.986C148.626 169.57 147.149 169.805 146.007 170.054L145.877 170.083C143.992 170.506 142.067 170.781 140.143 170.948C136.364 171.278 132.546 171.155 128.771 170.836L128.11 170.779C124.795 170.491 121.358 170.127 118.144 169.306C116.613 168.916 115.031 168.369 113.659 167.576C113.516 167.493 113.369 167.406 113.22 167.314ZM145.139 138.935C145.172 138.806 145.366 138.776 145.429 138.897C145.876 139.745 146.042 140.763 146.352 141.672C146.685 142.65 146.996 143.634 147.364 144.6C148.133 146.617 149.04 148.555 150.121 150.424C151.192 152.274 148.194 153.595 147.406 151.569C146.592 149.479 145.923 147.317 145.519 145.109C145.321 144.031 145.145 142.938 145.088 141.843C145.039 140.903 144.907 139.852 145.139 138.935Z" fill="black"/>
<path fill-rule="evenodd" clip-rule="evenodd" d="M166.838 97.8957C166.754 93.161 166.662 88.3317 165.96 83.6431C165.273 79.0593 163.385 74.916 160.14 71.5875C153.247 64.5172 143.257 62.7902 133.957 61.2076L118.057 58.5017C113.206 57.6764 108.031 56.3571 103.13 57.5276C100.715 58.1044 98.6641 59.4443 96.7897 61.0297C94.9829 62.5577 93.0404 64.1987 91.8162 66.2545C90.5898 68.3132 90.168 70.7199 89.7693 73.0483C89.3196 75.6735 88.9703 78.3192 88.7222 80.9712C88.2248 86.2846 88.1569 91.6378 88.5177 96.9622C88.6924 99.5447 88.9705 102.12 89.3255 104.683C89.5016 105.955 89.7006 107.223 89.9253 108.486C89.9915 108.859 90.0419 109.272 90.1098 109.688C89.6082 111.118 89.3232 112.599 89.3462 114.074C89.4139 118.418 93.071 121.152 96.7578 122.621C98.8956 123.472 101.131 124.05 103.231 125.001C105.441 126.002 106.945 127.623 108.455 129.473C111.337 133.002 114.588 136.173 118.301 138.818C126.173 144.428 136.143 147.081 145.694 145.067C147.985 144.584 150.297 143.834 152.357 142.703C154.532 141.51 156.167 139.78 157.541 137.735C160.091 133.939 161.919 129.665 163.303 125.315C164.714 120.878 165.715 116.433 166.262 111.806C166.806 107.194 166.921 102.536 166.838 97.8957Z" fill="#D08B5B"/>
<path fill-rule="evenodd" clip-rule="evenodd" d="M116.099 42.0082C122.679 41.1009 131.76 44.0499 135.037 49.996C150.681 46.2986 170.413 46.1775 183.307 58.4859C196.761 73.0864 179.862 92.3373 168.656 96.6776C169.472 100.652 168.2 126.117 159.199 137.476C152.055 147.1 135.42 151.541 127.722 140.046L127.662 139.951C126.838 138.624 127.548 138.666 128.394 139.654C135.932 146.299 146.181 146.413 154.078 139.399C168.88 126.581 167.354 95.1512 160.311 76.9685C140.255 74.7603 118.782 80.8542 104.93 95.9888L105.867 101.642C106.026 102.605 106.208 103.567 106.346 104.534C106.434 105.153 106.444 105.769 106.016 106.27C104.603 107.925 102.221 105.438 100.262 104.449C99.6834 104.368 99.1039 104.336 98.5355 104.376C89.1206 105.592 90.9756 123.901 101.323 120.692C102.193 120.149 102.94 120.315 103.277 121.103C105.743 123.368 107.37 127.407 111.467 131.297C112.913 132.757 114.229 133.978 115.855 135.148C116.81 136.117 119.693 137.104 118.779 138.761C117.051 142.532 106.862 130.687 105.06 127.411C99.4161 129.646 93.161 128.887 87.3118 128.341C56.4538 126.732 60.5732 94.1232 85.8668 73.5353C90.628 70.0214 95.881 67.1549 101.342 64.949C102.087 64.6478 101.761 63.4207 101.005 63.7261C97.3922 65.1859 93.87 66.9235 90.5124 68.9345L90.5074 67.7322C90.5024 65.7072 90.5341 63.5989 90.885 61.7488C91.0604 60.4667 91.3553 59.0974 91.8094 58.0672C92.3708 54.909 101.165 44.0685 116.099 42.0082ZM98.1237 108.58C98.6001 108.126 99.4896 108.667 99.9138 108.654C100.998 108.802 102.029 109.262 102.833 109.829C103.363 110.127 103.735 110.406 104.046 110.664L104.054 110.661C104.052 110.661 104.049 110.664 104.047 110.664L104.076 110.684C104.528 111.007 106.185 112.822 105.138 112.334C105.06 112.232 104.98 112.134 104.9 112.039C104.891 112.052 104.879 112.065 104.865 112.077L104.923 112.165C105.813 113.506 104.277 112.093 104.041 111.717C104.03 111.726 104.017 111.733 104.005 111.739L104.312 112.115C104.355 112.168 104.389 112.21 104.417 112.246L104.482 112.309C105.511 113.323 105.543 114.235 104.348 112.736C104.395 112.807 104.433 112.882 104.438 112.948L104.509 113.039C105.447 114.25 104.684 113.82 104.218 113.302L104.179 113.258L104.187 113.27C104.62 113.94 103.76 113.47 103.608 113.112L103.601 113.095C103.436 112.96 103.334 112.808 103.299 112.769L103.292 112.763C102.486 111.934 101.317 111.233 100.323 110.915C100.179 110.887 100.034 110.865 99.8866 110.85C99.2893 110.716 98.6855 110.625 98.0754 110.575C98.0008 110.566 97.9251 110.511 97.8686 110.44C96.946 110.409 97.2308 110.03 97.6136 109.96L97.6203 109.959L97.5443 109.952C96.9522 109.894 96.5479 109.681 97.1465 109.551L97.2224 109.535C97.2131 109.521 97.2049 109.506 97.1969 109.492C96.6842 109.435 97.0188 108.936 97.3034 109.056C97.1836 108.664 97.7309 108.86 97.7992 108.802C97.8513 108.744 97.916 108.693 97.9533 108.69C98.1182 108.573 98.0383 108.584 98.1237 108.58ZM101.261 102.226L101.141 102.296C101.043 102.353 100.943 102.391 100.843 102.413C100.985 102.473 101.125 102.539 101.263 102.608C101.261 102.523 101.259 102.438 101.259 102.353L101.261 102.226Z" fill="black"/>
<path fill-rule="evenodd" clip-rule="evenodd" d="M148.318 128.112C146.762 128.563 145.091 128.603 143.505 128.138C142.066 127.715 140.588 126.786 139.529 125.555C138.589 124.463 137.979 123.135 138.003 121.717C138.006 121.555 138.064 121.42 138.153 121.315C138.249 121.202 138.383 121.125 138.526 121.091C138.673 121.056 138.829 121.069 138.962 121.129C139.082 121.184 139.185 121.276 139.249 121.412C139.412 121.626 139.574 121.836 139.737 122.041C141.046 123.658 142.313 124.866 144.281 125.299C145.348 125.534 146.415 125.43 147.393 125.071C148.44 124.687 149.387 124.012 150.129 123.148C150.464 122.758 150.86 122.598 151.247 122.595C151.686 122.592 152.119 122.796 152.446 123.122C152.767 123.442 152.982 123.878 153.001 124.333C153.018 124.733 152.888 125.15 152.541 125.523C151.399 126.749 149.919 127.648 148.318 128.112ZM148.27 107.866C149.865 108.837 152.296 111.099 150.58 113.504C148.56 115.624 145.651 113.193 144.218 112.093C142.889 111.241 141.395 113.433 142.629 114.428C152.986 122.099 157.189 108.12 149.077 106.726C148.184 106.572 147.852 107.566 148.27 107.866ZM133.346 103.598C132.833 103.27 132.23 103.157 131.562 103.461C131.039 103.699 130.123 104.491 129.485 105.533C129.049 106.245 128.74 107.081 128.804 107.952C128.819 108.154 128.745 108.303 128.627 108.413C128.534 108.5 128.399 108.564 128.241 108.584C128.107 108.601 127.957 108.586 127.835 108.548C127.603 108.476 127.481 108.325 127.434 108.202C126.988 107.016 127.18 105.692 127.681 104.498C128.356 102.887 129.582 101.537 130.386 101.101C131.76 100.356 133.382 100.322 134.759 101.081C135.931 101.727 136.664 102.77 137.393 103.833C137.548 104.059 137.702 104.283 137.861 104.504C138.179 104.945 138.211 105.383 138.087 105.759C137.951 106.175 137.602 106.526 137.167 106.71C136.764 106.88 136.297 106.904 135.883 106.729C135.534 106.582 135.213 106.294 135.01 105.807C134.668 104.986 134.099 104.08 133.346 103.598ZM159.388 105.425C159.037 105.608 158.762 105.663 158.373 105.546C158.157 105.482 157.944 105.357 157.778 105.191C157.612 105.025 157.493 104.82 157.447 104.592C157.333 104.029 157.025 103.503 156.587 103.159C156.212 102.866 155.739 102.71 155.214 102.798C154.648 102.892 154.108 103.256 153.737 103.684C153.612 103.828 153.515 103.99 153.417 104.152C153.234 104.454 153.056 104.735 152.804 104.957C152.708 105.042 152.564 105.1 152.424 105.1C152.367 105.1 152.31 105.091 152.255 105.074C151.691 104.508 151.583 104.079 151.601 103.653C151.62 103.207 151.796 102.754 152.08 102.333C152.747 101.343 154.014 100.532 154.869 100.348C156.039 100.096 157.202 100.398 158.134 101.052C159.093 101.725 159.803 102.77 160.025 103.948C160.078 104.231 160.055 104.537 159.947 104.803C159.842 105.062 159.658 105.284 159.388 105.425ZM135.928 93.0477C135.225 93.7324 134.394 93.8385 133.553 93.9328C133.085 93.9857 132.712 94.0283 132.345 94.1112C131.336 94.3391 130.339 94.6823 129.429 95.1766C128.477 95.6933 127.441 96.3164 126.695 97.1147C126.517 97.3047 126.35 97.504 126.183 97.7038C126.03 97.8859 125.883 98.0613 125.728 98.2304C125.55 98.4246 125.381 98.6281 125.213 98.8312C125.109 99.0025 125.089 99.0446 125.068 99.0885C125.036 99.1544 125 99.2281 124.958 99.3073C124.9 99.4156 124.833 99.5343 124.763 99.6418C124.646 99.8384 124.583 99.8926 124.529 99.9168C124.439 99.9569 124.354 99.9766 124.271 99.9659C124.193 99.9559 124.12 99.9186 124.048 99.8575C123.687 99.5527 123.581 99.0524 123.592 98.5214C123.608 97.7156 123.905 96.8234 124.179 96.2749C124.816 95.0006 125.699 93.6758 126.761 92.7246C127.973 91.6389 129.299 90.817 130.822 90.2506C131.768 89.8985 132.864 89.5754 133.895 89.6162C134.637 89.6456 135.345 89.8663 135.93 90.4174C136.29 90.7557 136.462 91.2369 136.462 91.7178C136.462 92.2082 136.283 92.7015 135.928 93.0477ZM160.817 99.3174C160.772 99.3907 160.71 99.4412 160.641 99.4715C160.569 99.5033 160.489 99.5124 160.412 99.4994C160.335 99.4864 160.262 99.4515 160.204 99.3982C160.148 99.3471 160.106 99.2794 160.087 99.1963C159.62 97.1472 158.715 95.6226 156.782 94.6394C155.831 94.1558 154.738 93.8485 153.703 93.6035C153.402 93.5323 153.084 93.4861 152.764 93.4394C151.761 93.2929 150.751 93.1251 150.097 92.314C149.703 91.8254 149.537 91.2005 149.631 90.6291C149.719 90.091 150.033 89.5977 150.605 89.302C152.027 88.5663 153.794 89.2882 155.231 89.9032C155.337 89.9488 155.442 89.9936 155.544 90.0368C156.949 90.63 158.23 91.4129 159.283 92.5326C160.119 93.4209 160.893 94.734 161.205 96.0849C161.464 97.2088 161.403 98.3561 160.817 99.3174Z" fill="black"/>
<path fill-rule="evenodd" clip-rule="evenodd" d="M148.502 116.101C146.153 115.042 141.934 115.966 140.402 116.333C136.841 117.187 133.259 119.033 132.152 121.926C130.905 125.185 133.394 126.212 133.76 126.044C136.225 126.218 139.16 124.667 141.744 124.267C143.841 123.94 146.053 123.654 148.018 122.539C149.452 123.328 152.692 123.755 155.307 124.445C157.534 125.033 158.499 126.307 160.563 126.036C163.038 125.712 162.025 120.505 159.267 118.396C156.249 116.088 151.144 115.152 148.502 116.101ZM153.155 138.361C151.099 138.862 150.961 134.355 150.731 132.763C150.551 131.519 149.536 128.311 146.964 128.449C144.391 128.588 143.424 131.276 143.555 132.947C143.64 134.031 144.638 139.523 141.451 140.217C139.419 140.21 137.068 140.073 134.931 139.679C132.416 139.109 129.146 137.114 128.282 141.043C127.971 142.457 139.049 146.658 143.965 147.038C148.951 148.049 154.784 146.494 158.334 142.679C159.141 141.811 161.415 138.208 161.577 137.325C161.918 135.471 161.13 134.277 158.836 134.931C157.215 135.797 154.476 138.039 153.155 138.361Z" fill="black"/>
<path fill-rule="evenodd" clip-rule="evenodd" d="M163.095 111.466C159.925 112.993 155.501 110.74 153.369 108.38C152.593 107.521 151.995 105.062 152.293 103.503C153.102 99.2796 156.14 96.7451 159.347 95.8796C163.793 94.6795 168.267 97.7196 167.745 101.307C167.251 104.707 166.502 109.639 163.095 111.466ZM141.514 103.354C141.26 107.956 137.566 111.984 133.15 113.177C126.036 115.163 122.52 110.16 120.928 104.771C120.769 104.235 120.397 102.601 121.395 101.198C125.321 95.6832 134.873 96.6233 139.644 98.1374C141.041 99.4734 141.612 101.402 141.514 103.354ZM166.54 95.4159C166.538 95.4186 166.536 95.4209 166.534 95.4237C166.517 95.4138 166.501 95.4036 166.485 95.3939C166.503 95.4015 166.522 95.4081 166.54 95.4159ZM172.493 95.9478C172.079 91.2622 157.383 93.0564 155.665 93.4404C150.975 94.8201 146.925 98.5737 141.682 96.9236C136.25 90.8657 117.957 92.603 114.122 95.6889C113.396 95.404 112.513 95.5568 111.578 95.8257C106.775 95.6522 84.8487 97.3085 89.3335 103.441C90.0142 103.913 90.6943 103.433 90.7131 102.46C114.093 94.0167 111.826 101.925 114.599 101.001C115.022 101.123 115.464 101.2 115.851 101.281C117.997 101.972 118.725 101.759 119.008 104.169C120.95 122.778 145.722 116.355 143.691 101.091C145.702 100.98 147.462 100.11 149.589 100.96C151.066 115.339 162.633 115.92 166.114 110.935C168.739 107.475 167.698 102.254 171.307 99.5321C172.731 100.725 172.823 96.7 172.493 95.9478Z" fill="black"/>
</svg>
