<?xml version="1.0" encoding="UTF-8" standalone="no"?><svg width="240" height="324" viewBox="0 0 240 324" fill="none" xmlns="http://www.w3.org/2000/svg">
<path fill-rule="evenodd" clip-rule="evenodd" d="M192.796 271.458C192.283 266.696 191.968 261.901 191.786 257.115C191.605 252.334 191.842 247.495 191.946 242.713C192.158 232.985 192.502 223.233 191.728 213.52C190.996 204.34 189.317 195.224 186.666 186.403C185.375 182.108 184.015 177.639 181.892 173.67C179.757 169.679 176.375 167.022 172.661 164.585C168.706 161.99 164.783 159.346 160.844 156.727C157.537 154.529 151.586 151.971 148.873 149.032C146.018 145.939 145.482 138.274 143.58 134.611C141.729 131.043 136.488 128.716 132.452 128.716C125.772 128.716 120.711 128.374 115.219 134.556C112.478 137.64 114.659 140.758 111.786 143.718C109.146 146.44 102.392 149.236 98.9881 150.816C94.9115 152.707 90.732 154.377 86.4918 155.864C82.1666 157.382 77.7323 158.513 73.3827 159.945C69.2135 161.318 63.7695 166.976 60.5329 169.97C57.5238 172.753 56.7771 172.441 54.4894 175.823C49.4689 183.243 44.4428 190.749 40.4448 198.784C38.4534 202.786 36.5251 206.996 35.8026 211.44C35.0319 216.181 35.7961 220.762 37.0459 225.352C38.3182 230.023 42.3582 234.471 43.6744 239.13C44.281 241.277 42.199 243.62 43.1566 245.643C43.6349 246.654 44.2373 247.554 44.923 248.434C45.4514 249.113 47.512 248.962 47.7786 249.793C48.048 250.631 46.5572 252.372 46.535 253.24C46.5035 254.482 46.4541 255.724 46.4133 256.966L46.1725 264.309C46.0142 269.135 45.856 273.961 45.6978 278.786C45.646 280.361 45.5706 281.9 45.9481 283.395C45.8118 283.269 45.6823 283.131 45.564 282.977C45.2178 282.524 44.4834 282.908 44.7773 283.437C45.2678 284.32 45.9732 284.941 46.8021 285.387C47.7652 286.808 193.629 289.981 194.347 285.827C194.75 283.497 194.017 281.003 193.724 278.688C193.419 276.276 193.056 273.875 192.796 271.458Z" fill="#D08B5B"/>
<path fill-rule="evenodd" clip-rule="evenodd" d="M40.7871 202.146L191.441 210.386C191.549 211.429 191.645 212.474 191.728 213.52C192.502 223.233 192.158 232.984 191.946 242.713C191.918 244.002 191.88 245.296 191.844 246.591L176.982 249.046L71.3288 251.586L44.923 248.434L43.827 246.533L43.0677 243.225C43.3936 241.866 44.0503 240.46 43.6744 239.129C43.5648 238.742 43.4363 238.355 43.2922 237.97L43.4285 235.315L40.7871 202.146Z" fill="#FDEA6B"/>
<path fill-rule="evenodd" clip-rule="evenodd" d="M44.6256 211.449C44.9825 210.426 46.6147 210.869 46.2553 211.898C44.408 217.192 45.7185 222.952 47.7156 228.005C48.1164 229.019 46.4812 229.455 46.0859 228.454C43.9851 223.139 42.6853 217.008 44.6256 211.449ZM57.012 241.685C62.2219 242.418 67.436 242.87 72.6818 243.236C72.9163 243.253 73.1191 243.217 73.2944 243.141C73.1381 245.544 73.0113 247.949 72.912 250.354C71.4818 250.314 70.0219 250.409 68.6043 250.371C66.7515 250.321 64.9008 250.228 63.0522 250.086C59.4733 249.815 55.9008 249.384 52.362 248.788C51.0395 248.566 49.3599 248.431 47.8536 247.991C46.4296 247.575 45.162 246.886 44.4965 245.588C43.9303 244.489 43.8268 243.143 43.8268 241.928C43.8268 241.091 43.9705 240.241 44.0571 239.398C44.1649 239.322 44.262 239.231 44.3402 239.13C45.912 239.626 47.543 239.975 49.1402 240.313C51.7409 240.867 54.3796 241.315 57.012 241.685ZM54.0737 222.143C54.1025 223.758 54.5493 225.226 55.4187 226.586C56.0068 227.506 54.5434 228.353 53.9592 227.439C52.9358 225.838 52.4174 224.04 52.3836 222.143C52.3642 221.053 54.0543 221.056 54.0737 222.143ZM187.622 239.766C188.327 239.805 189.037 239.829 189.745 239.867C190.369 240.401 191.233 240.674 192.022 240.505C192.049 240.573 192.074 240.65 192.097 240.738C192.236 241.281 192.306 241.864 192.386 242.418C192.466 242.963 192.528 243.513 192.57 244.063C192.591 244.339 192.724 244.965 192.555 245.206C192.403 245.424 192.067 245.405 191.835 245.432C191.209 245.5 190.575 245.532 189.946 245.584C188.756 245.688 187.567 245.791 186.38 245.895C185.216 245.997 183.937 245.965 182.799 246.271C182.604 243.986 182.427 241.702 182.262 239.415C184.026 239.675 185.87 239.668 187.622 239.766ZM39.7092 235.976C40.4191 237.348 41.074 238.696 42.4325 239.521C42.6099 239.626 42.8085 239.683 43.0113 239.698C42.8592 240.351 42.7641 241.019 42.6796 241.636C42.4937 242.995 42.4536 244.401 42.7937 245.741C43.1254 247.045 43.6747 248.209 44.7522 249.044C45.2529 249.433 45.8001 249.729 46.3747 249.963C46.2775 250.236 46.2205 250.507 46.2501 250.805C46.1127 251.496 46.0219 252.2 45.9226 252.874C45.705 254.37 45.4874 255.868 45.3163 257.373C44.974 260.366 44.7057 263.359 44.4796 266.362C44.2536 269.357 44.0909 272.356 43.9557 275.357C43.886 276.892 43.8247 278.426 43.7677 279.962C43.7106 281.541 43.455 283.156 44.1522 284.621C44.7141 285.804 46.6134 285.736 47.1965 284.621C47.936 283.202 47.7184 281.518 47.7374 279.962C47.7564 278.498 47.7818 277.031 47.8134 275.566C47.8768 272.567 47.9698 269.57 48.0437 266.571C48.1156 263.644 48.2043 260.719 48.2634 257.792C48.293 256.259 48.2951 254.727 48.3036 253.195C48.3078 252.345 48.3437 251.439 48.2803 250.553C48.8085 250.678 49.3409 250.783 49.867 250.891C53.8832 251.715 57.9416 252.316 62.0254 252.688C64.0768 252.874 66.1346 253.005 68.1923 253.079C69.705 253.134 71.2726 253.239 72.8085 253.182C72.6881 256.851 72.6332 260.522 72.6395 264.194C72.6437 266.842 72.6796 269.49 72.7451 272.138C72.781 273.531 72.8106 274.924 72.8529 276.317C72.8719 276.942 72.8719 277.574 72.9142 278.198C72.9268 278.392 72.9543 278.58 72.9902 278.766C72.8508 279.162 72.7346 279.552 72.6395 279.918C72.1747 281.693 72.1747 283.399 72.3818 285.208C72.5592 286.743 73.8501 288.165 75.555 287.626C75.8318 287.539 76.1085 287.448 76.3832 287.355C78.893 287.641 81.4177 287.706 83.9634 287.755C87.6839 287.827 91.4064 287.85 95.1289 287.869C102.43 287.907 109.734 287.926 117.037 287.947C131.714 287.989 146.391 288.03 161.068 288.072C165.141 288.085 169.214 288.095 173.287 288.108C175.396 288.114 177.5 288.116 179.606 288.197C180.589 288.235 181.573 288.288 182.556 288.302C183.694 288.322 184.702 287.994 185.79 287.696C186.405 287.525 186.648 286.907 186.517 286.386C187.501 286.62 188.695 286.121 189.031 285.012C189.276 284.206 189.185 283.333 188.82 282.587V282.585C188.114 278.128 187.218 273.692 186.515 269.232C185.744 264.348 185.002 259.453 184.349 254.55C183.859 250.847 183.456 253.472 183.107 249.752C184.626 249.87 186.344 249.408 187.848 249.211C188.928 249.072 190.016 248.959 191.097 248.811C191.017 249.902 191.04 251.014 191.011 252.06C190.954 254.137 190.979 256.207 191.032 258.284C191.133 262.294 191.359 259.96 191.72 263.953C192.086 267.975 192.534 271.982 193.077 275.985C193.356 278.046 193.654 280.104 193.968 282.16C194.114 283.12 194.264 284.078 194.418 285.037C194.602 286.168 194.661 287.239 195.509 288.089C196.153 288.733 197.469 288.678 197.896 287.78C198.437 286.645 198.192 285.673 197.991 284.481C197.828 283.524 197.672 282.566 197.518 281.609C197.188 279.557 196.875 277.502 196.582 275.446C196.016 271.483 195.481 267.514 195.004 263.541C194.522 259.535 194.023 261.875 193.55 257.87C193.311 255.849 193.073 253.833 192.794 251.819C192.652 250.783 192.563 249.68 192.378 248.613C192.437 248.605 192.496 248.594 192.555 248.583C193.84 248.349 194.936 247.624 195.259 246.301C195.568 245.035 195.2 243.578 194.94 242.336C194.718 241.277 194.518 239.926 193.837 239.019C196.237 235.961 197.798 232.113 198.794 228.413C199.878 224.383 200.332 220.175 200.428 216.01C200.54 211.184 200.176 206.387 199.35 201.669C199.33 200.669 199.284 199.669 199.21 198.671C198.483 188.873 195.432 177.276 185.761 172.698C185.723 172.679 185.682 172.662 185.642 172.645C184.884 171.738 183.937 170.923 183.173 170.16C181.818 168.807 180.403 167.513 178.903 166.321C175.932 163.961 172.675 162.076 169.288 160.378C165.863 158.66 162.388 157.048 159.042 155.173C156.126 153.537 153.502 151.567 151.011 149.344C148.212 146.843 146.22 143.472 145.438 139.793C145.398 139.601 145.113 139.653 145.109 139.837C144.904 146.581 149.454 152.541 154.692 156.312C160.954 160.816 168.515 162.948 174.866 167.315C176.444 168.399 177.92 169.623 179.325 170.923C177.173 170.703 174.982 170.842 172.964 171.438C172.17 171.39 171.371 171.375 170.575 171.337C168.754 171.246 166.93 171.162 165.107 171.081C161.391 170.916 157.673 170.766 153.954 170.635C146.659 170.377 139.362 170.183 132.065 170.054C117.401 169.794 102.718 169.743 88.0557 170.168C84.0796 170.282 63.1726 169.49 61.2374 169.714C64.0832 167.249 67.2057 165.237 70.6388 163.582C74.9339 161.517 79.3726 160.139 83.9592 158.88C93.405 156.287 103.214 153.786 110.773 147.198C112.651 145.561 114.32 143.678 115.687 141.592C116.993 139.601 118.444 137.052 118.48 134.623C118.506 132.899 116.106 132.271 115.252 133.748C114.722 134.663 114.46 135.667 114.027 136.627C113.596 137.578 113.085 138.495 112.516 139.372C111.399 141.097 110.013 142.635 108.504 144.024C105.289 146.987 101.393 149.158 97.362 150.8C88.2099 154.526 78.2001 156.098 69.5275 161.01C65.7332 163.16 62.1015 166.125 59.8219 169.908C59.4543 169.965 59.0888 170.033 58.7233 170.109C58.9958 169.764 59.2705 169.42 59.5472 169.077C59.7289 168.853 59.448 168.558 59.2261 168.756C54.9141 172.594 50.9423 176.739 47.3423 181.258C43.8987 185.582 40.6874 190.113 38.4141 195.177C34.3282 204.274 33.4282 214.678 35.5388 224.405C36.1134 227.055 36.9247 229.65 37.9578 232.159C38.4902 233.455 39.067 234.731 39.7092 235.976Z" fill="black"/>
<path fill-rule="evenodd" clip-rule="evenodd" d="M161.197 73.4595C154.86 64.7167 143.194 62.2025 133.077 64.3289C113.297 67.9434 94.4005 83.0712 90.9056 103.645C85.4532 116.092 88.935 135.696 104.792 137.161C107.05 137.289 109.286 136.768 111.547 137.049C125.35 139.259 141.661 148.721 153.879 137.563C154.491 138.002 155.298 138.215 155.985 137.949C161.185 135.934 161.43 130.106 161.873 125.315C162.446 119.124 162.983 112.93 163.484 106.733C163.663 96.0471 167.888 82.6934 161.197 73.4595Z" fill="#D08B5B"/>
<path fill-rule="evenodd" clip-rule="evenodd" d="M122.85 51.1821C131.177 50.7383 146.521 54.562 153.786 59.045C165.623 66.349 166.54 80.9191 166.058 83.4384C165.874 84.3998 165.288 85.2896 164.371 84.9939C165.149 91.6132 165.088 95.3966 165.219 102.054L165.308 106.499C165.367 109.462 165.417 112.426 165.429 115.39C165.729 115.278 166.024 115.415 166.134 115.703C166.161 115.773 166.066 115.811 166.02 115.771C165.493 115.31 165.868 116.36 166.049 116.574C166.3 116.868 166.718 117.145 167.011 117.396L167.806 118.087L168.602 118.776C169.63 119.665 170.625 120.556 171.584 121.514L171.845 121.777C173.592 123.557 175.783 125.279 176.871 127.581C177.91 129.779 177.59 132.271 175.863 134.023C175.235 134.659 174.501 135.145 173.704 135.513C175.123 137.855 175.33 140.951 173.85 143.36C172.368 145.778 169.517 147.044 166.772 146.85C166.688 147.194 166.557 147.53 166.384 147.849C165.296 149.855 163.131 150.115 161.078 150.008L160.998 150.003C156.377 149.737 151.93 148.577 147.883 146.321C146.479 146.417 145.226 145.26 144.952 143.992C144.214 143.965 143.472 143.903 142.715 143.817C140.47 143.557 138.168 143.073 136.188 141.93C135.885 141.754 136.026 141.291 136.363 141.283C138.775 141.228 141.189 141.395 143.597 141.133C145.806 140.894 148.161 140.283 150.221 139.453C153.923 137.956 157.098 135.418 158.85 131.901C161.118 127.348 160.911 121.881 161.158 116.935C161.431 111.461 161.768 105.992 162.127 100.523L162.302 97.9015C162.651 92.792 162.94 90.0585 163.825 84.7551C161.158 84.9939 150.08 80.9966 146.635 74.4579C140.096 88.3679 106.968 82.6751 105.499 104.089C105.487 104.271 105.2 104.22 105.189 104.047L105.162 103.559C105.149 103.318 105.137 103.08 105.128 102.845L105.122 102.61L104.601 102.616C104.601 102.682 104.508 102.705 104.485 102.635C103.994 101.238 101.654 101.688 100.635 102.02C99.7183 102.32 98.8539 102.781 98.0781 103.35C96.5201 104.491 95.3121 106.028 94.9116 107.948C94.1505 111.597 96.4674 115.312 99.5433 117.073C101.483 118.182 103.608 118.899 105.467 120.156C107.11 121.266 108.64 122.566 109.966 124.043C115.22 129.895 118.311 138.772 115.825 146.497C115.635 147.087 115.134 147.761 114.47 147.856C113.371 148.014 112.273 147.854 111.657 146.805C111.417 146.395 111.303 145.928 111.328 145.468C110.902 146.934 109.522 148.384 108.248 148.93C106.513 149.673 104.559 149.451 103.028 148.492L102.835 148.635C100.346 150.472 97.5652 152.146 94.3761 151.808C92.0655 151.563 89.797 150.384 88.5194 148.524C86.8202 149.481 85.005 150.244 83.1329 150.764L82.9337 150.819C80.358 151.522 77.0726 152.166 74.6684 150.738C72.3599 149.367 71.5926 146.372 72.1344 143.872C72.1997 143.574 72.2819 143.284 72.3831 143.003C70.646 143.096 68.9109 142.929 67.2623 142.418C65.5778 141.896 63.9713 140.892 63.1639 139.264C62.2531 137.423 62.4956 135.331 63.1744 133.457C64.2602 130.449 66.0058 127.773 68.1793 125.442C70.2696 123.199 72.7909 121.295 75.4112 119.709L75.853 119.444C78.2117 118.033 81.0563 116.381 83.8434 116.489C83.835 116.453 83.8287 116.419 83.8244 116.384C83.4028 113.27 83.4513 110.096 83.3522 106.957C83.2615 104.07 83.1582 101.183 83.0908 98.2942C82.9812 93.3822 83.017 88.4495 83.6558 83.5716C84.2229 79.2431 85.2433 75.0222 87.1048 71.0594C89.0592 66.896 92.0022 63.3432 95.6368 60.5492C103.264 54.6842 113.34 51.6894 122.85 51.1821ZM96.9418 108.874C97.7724 107.304 99.6635 106.809 101.323 107.093C103.648 107.49 105.229 109.528 106.587 111.28C108.012 113.116 105.039 114.847 104.274 113.068L104.093 112.647C103.479 111.236 102.753 109.748 101.5 108.828C100.167 107.851 98.2868 107.708 97.1104 109.005C97.0261 109.1 96.8848 108.978 96.9418 108.874Z" fill="black"/>
<path fill-rule="evenodd" clip-rule="evenodd" d="M135.709 130.703L133.477 122.178L133.837 122.233C137.378 122.79 139.148 123.362 139.148 123.948L139.147 123.988C139.1 124.649 137.954 126.887 135.709 130.703ZM156.258 124.02L155.467 130.116L151.35 125.601L156.258 124.02Z" fill="white"/>
<path fill-rule="evenodd" clip-rule="evenodd" d="M132.993 108.845C137.601 108.845 141.338 105.439 141.338 101.237C141.338 97.0344 137.601 93.6279 132.993 93.6279C128.384 93.6279 124.647 97.0344 124.647 101.237C124.647 105.439 128.384 108.845 132.993 108.845Z" fill="white"/>
<path fill-rule="evenodd" clip-rule="evenodd" d="M145.352 101.025C149.552 101.025 152.957 97.6662 152.957 93.5225C152.957 89.3787 149.552 86.0195 145.352 86.0195C141.151 86.0195 137.746 89.3787 137.746 93.5225C137.746 97.6662 141.151 101.025 145.352 101.025Z" fill="white"/>
<path fill-rule="evenodd" clip-rule="evenodd" d="M155.704 107.366C159.088 107.366 161.831 104.338 161.831 100.603C161.831 96.8673 159.088 94.374 155.704 94.374C152.32 94.374 149.577 96.8673 149.577 100.603C149.577 104.338 152.32 107.366 155.704 107.366Z" fill="white"/>
<path fill-rule="evenodd" clip-rule="evenodd" d="M133.555 121.88C135.087 121.584 136.994 122.228 138.522 122.511L138.636 122.531C140.489 122.855 142.338 123.246 144.211 123.437C146 123.62 147.826 123.653 149.615 123.447C150.474 123.348 151.326 123.18 152.16 122.954C152.517 122.858 152.871 122.75 153.221 122.63L153.261 122.615C153.518 122.509 154.213 122.109 154.205 122.332C154.4 122.106 154.669 121.947 154.965 121.869C155.382 121.759 155.917 121.862 156.266 122.157C156.72 121.797 157.401 122.055 157.706 122.486C158.228 123.225 158.058 124.091 157.991 124.948L157.985 125.023C157.928 125.831 157.84 126.633 157.732 127.435L157.684 127.779C157.516 128.964 157.469 130.92 156.033 131.309C154.897 131.617 153.857 130.447 153.125 129.519L152.724 129.005C152.249 128.403 151.818 127.782 151.471 127.097C151.313 126.786 151.16 126.466 151.027 126.143C151.011 126.102 150.999 126.065 150.986 126.029C148.879 126.312 146.722 126.272 144.61 125.993C143.273 125.817 141.955 125.562 140.658 125.219L140.072 126.278C139.387 127.512 138.692 128.743 137.962 129.95L137.905 130.042C137.222 131.13 136.077 132.22 134.723 131.405C133.512 130.675 133.461 129.016 133.333 127.777C133.248 126.95 133.179 126.117 133.146 125.285L133.134 124.929C133.112 124.123 132.981 123.188 133.291 122.433C133.336 122.324 133.493 122.239 133.588 122.355C134.236 123.142 134.432 124.363 134.712 125.329C135.023 126.405 135.474 127.579 135.636 128.694L135.681 128.616C135.84 128.313 136.003 128.012 136.166 127.711L136.657 126.808C137.096 125.993 137.544 125.183 137.996 124.375C137.48 124.181 136.969 123.973 136.46 123.761L135.305 123.278C134.645 122.999 133.972 122.685 133.476 122.178C133.389 122.088 133.419 121.906 133.555 121.88ZM155.467 124.857C154.329 125.32 153.152 125.654 151.953 125.875C152.031 125.955 152.108 126.034 152.18 126.117C152.462 126.444 152.761 126.757 153.062 127.067L153.243 127.253C153.704 127.726 154.396 128.506 155.103 128.958L155.141 128.754C155.147 128.719 155.152 128.688 155.155 128.664L155.23 127.992C155.242 127.88 155.254 127.768 155.265 127.656C155.326 127.049 155.375 126.442 155.425 125.835C155.452 125.515 155.458 125.186 155.467 124.857ZM141.999 85.7852C144.709 84.627 147.926 85.1739 150.261 86.9233C152.65 88.7137 153.695 91.6244 153.833 94.5283C155.722 92.9145 158.443 94.1361 160.035 95.6483C161.871 97.3934 162.8 100.027 162.372 102.526C161.945 105.017 160.143 107.215 157.705 107.956C156.539 108.31 155.239 108.318 154.066 107.989C153.667 107.876 153.179 107.703 152.728 107.461C152.754 107.564 152.78 107.668 152.804 107.771C153.39 110.25 153.722 113.037 152.843 115.488C151.431 119.428 146.417 121.633 143.286 118.136C142.056 116.763 141.101 114.614 141.175 112.742C141.214 111.759 141.771 110.621 142.921 110.688C143.812 110.739 144.235 111.485 144.007 112.275L143.993 112.321C143.509 113.831 144.335 116.013 145.53 117.043C147.364 118.622 149.88 117.248 150.882 115.396C152.05 113.237 151.908 110.47 151.535 108.122C151.168 105.816 150.35 103.707 149.482 101.573C149.39 101.59 149.297 101.605 149.201 101.618C147.475 101.852 143.962 101.941 142.054 100.69C142.259 102.621 141.857 104.609 140.76 106.244C139.538 108.066 137.698 109.031 135.555 109.326C133.474 109.613 131.062 109.672 129.007 109.178C124.632 108.128 123.089 102.724 124.412 98.8236C125.195 96.5163 127.379 94.4411 129.807 93.9169C131.058 93.0939 132.737 92.8502 134.18 92.9625C136.336 93.1305 138.459 94.0623 139.903 95.6988C140.455 96.324 140.908 97.0318 141.258 97.7893C141.375 97.6967 141.512 97.6272 141.667 97.5908C141.908 97.5342 142.12 97.5215 142.356 97.6048C142.474 97.6464 142.643 97.7935 142.745 97.889L142.978 98.1629C143.264 98.4962 143.536 98.7756 144.045 98.9828C145.463 99.5604 147.387 99.6857 148.894 99.5676C152.739 99.2666 152.255 94.1716 151.308 91.554C150.186 88.4531 146.97 86.5241 143.699 87.0749C142.294 87.3114 140.953 88.0598 139.924 89.0377C138.775 90.1295 138.284 91.4483 137.595 92.8304C137.554 92.9122 137.413 92.8944 137.396 92.8042C136.829 89.8901 139.514 86.847 141.999 85.7852ZM121.519 109.279C121.403 109.142 121.556 108.901 121.723 109.015C122.949 109.848 124.312 110.449 125.793 110.611C126.489 110.687 127.191 110.693 127.884 110.586C128.474 110.495 129.007 110.315 129.596 110.477C129.91 110.564 129.967 110.928 129.775 111.156C128.885 112.217 126.692 111.934 125.497 111.649C123.951 111.282 122.55 110.49 121.519 109.279ZM162.761 107.343C163.363 106.97 164.079 107.709 163.723 108.306C162.81 109.837 160.162 109.961 158.626 109.595C158.506 109.566 158.533 109.378 158.655 109.381C159.538 109.403 160.336 109.233 161.096 108.772C161.746 108.379 162.134 107.732 162.761 107.343ZM133.403 95.1064L133.282 95.1075C131.878 95.1301 130.592 95.6658 129.238 95.949C129.126 95.9727 129.014 95.9607 128.912 95.9235C127.264 97.0236 126.127 98.7532 125.973 101.029C125.866 102.606 126.251 104.323 127.187 105.617C128.252 107.089 129.967 107.317 131.657 107.361L131.829 107.364C135.023 107.427 138.536 107.238 139.675 103.666C140.518 101.022 139.618 97.8125 137.271 96.2289C136.131 95.4598 134.77 95.1051 133.403 95.1064ZM159.135 97.0024L159.042 96.893C157.789 95.4551 155.803 94.1455 153.844 94.8697L153.85 95.1118C153.851 95.1522 153.851 95.1926 153.851 95.233C153.845 98.0097 152.77 100.601 150.126 101.416C150.835 102.428 151.405 103.551 151.861 104.717C152.022 104.611 152.218 104.545 152.445 104.522C153.376 104.427 153.909 105.302 154.716 105.628C155.472 105.933 156.329 106.012 157.126 105.854C158.871 105.509 160.095 104.004 160.524 102.334C161.009 100.446 160.368 98.4669 159.135 97.0024ZM132.577 99.3393C133.159 98.3562 134.594 98.4985 135.17 99.3652L135.197 99.4085L135.203 99.4004C136.162 100.643 135.699 102.605 134.307 103.303C133.191 103.863 131.772 103.716 131.03 102.626C130.863 102.382 130.757 102.095 130.718 101.804C130.691 101.606 130.706 101.408 130.75 101.211L130.739 101.257C130.761 101.158 130.796 101.002 130.805 100.965C130.903 100.564 131.138 100.134 131.433 99.8443C131.736 99.5454 132.157 99.3636 132.577 99.3393ZM156.486 98.3181C157.001 98.3181 157.459 98.5337 157.831 98.8754C158.36 99.3617 158.434 100.062 158.32 100.726C158.285 100.929 158.236 101.125 158.186 101.324L158.142 101.505C158.135 101.535 158.127 101.564 158.117 101.594C158.086 101.717 158.035 101.831 157.975 101.939C157.755 102.76 156.863 103.168 156.076 102.989C155.706 102.904 155.337 102.597 155.149 102.275C155.086 102.169 155.043 102.063 155.012 101.957L154.859 101.594C154.83 101.507 154.812 101.413 154.789 101.324C154.738 101.125 154.688 100.928 154.653 100.726C154.531 100.04 154.628 99.389 155.142 98.8754C155.486 98.5303 155.999 98.3181 156.486 98.3181ZM145.136 91.1991C146.031 91.079 146.941 91.4958 147.404 92.2861C147.806 92.9729 147.804 93.8972 147.404 94.5841L147.37 94.6422C146.633 95.9073 144.914 96.0696 143.88 95.0921L143.83 95.0448C143.164 94.4165 143.015 93.3743 143.359 92.5581C143.674 91.8116 144.334 91.3071 145.136 91.1991Z" fill="black"/>
</svg>
