<?xml version="1.0" encoding="UTF-8" standalone="no"?><svg width="240" height="324" viewBox="0 0 240 324" fill="none" xmlns="http://www.w3.org/2000/svg">
<path fill-rule="evenodd" clip-rule="evenodd" d="M51.5018 284.886C64.4381 285.248 76.6584 285.648 89.5698 284.886C110.231 283.608 170.864 285.912 184.192 284.886C185.198 284.809 188.657 285.912 188.729 284.886C189.315 277.741 189.695 205.451 187.954 200.477C186.213 195.503 177.622 171.592 166.674 160.443C163.621 157.431 158.976 156.264 156.41 152.783C154.197 148.987 154.369 146.759 152.184 144.762C151.236 143.896 149 143.544 147.338 142.341C145.668 140.68 147.25 137.024 146.564 134.711C145.15 128.936 139.943 125.231 134.252 124.357C126.342 122.464 117.991 124.254 114.202 130.47C112.791 132.784 113.542 135.596 111.807 139.304C111.931 142.106 108.661 142.783 106.707 143.893L102.826 147.817C90.8678 154.548 76.8009 158.182 66.3235 167.225C57.4156 176.265 48.5554 186.714 44.603 198.945C43.7848 202.278 43.5178 205.722 43.1787 209.128C42.2106 219.08 39.5151 228.739 37.1954 238.433C34.5503 250.647 32.0847 263.612 35.6496 275.942C36.6774 278.551 49.162 284.764 51.5018 284.886Z" fill="#D08B5B"/>
<path fill-rule="evenodd" clip-rule="evenodd" d="M111.754 139.278L112.765 139.386V147.168L125.975 160.916L128.39 163.677C126.951 168.811 128.4 171.378 132.737 171.378C139.244 171.378 134.214 169.486 135.437 166.926L135.489 166.822C136.376 165.069 139.411 161.352 144.595 155.67L150.541 145.727V143.912L150.742 143.994C151.304 144.228 151.788 144.467 152.117 144.767C154.302 146.765 154.13 148.992 156.343 152.788C158.909 156.269 163.554 157.436 166.607 160.448C177.554 171.598 186.146 195.508 187.887 200.482C189.627 205.456 189.247 277.746 188.662 284.891C188.59 285.917 185.131 284.814 184.125 284.891C170.797 285.917 110.164 283.613 89.5024 284.891C76.591 285.653 64.3708 285.253 51.4344 284.891C49.0946 284.769 36.61 278.556 35.5822 275.947C32.0173 263.617 34.4829 250.652 37.128 238.438L37.3573 237.485C39.5842 228.269 42.0886 219.076 43.0623 209.622L43.1113 209.133C43.4504 205.727 43.7174 202.283 44.5357 198.95C48.4881 186.719 57.3482 176.27 66.2561 167.23C76.6287 158.278 90.5194 154.626 102.399 148.023L102.758 147.822L106.639 143.898L106.758 143.832C108.723 142.76 111.861 142.055 111.74 139.309L111.754 139.278Z" fill="#FDEA6B"/>
<path fill-rule="evenodd" clip-rule="evenodd" d="M113.516 131.465C113.62 131.127 114.066 131.222 114.1 131.544C114.436 134.731 114.013 138.062 113.608 141.228C113.413 142.756 113.301 144.345 113.005 145.852C112.967 146.013 112.931 146.175 112.897 146.336C112.995 146.509 113.282 146.704 113.419 146.837L114.016 147.417L115.211 148.574C117.55 150.84 119.888 153.108 122.227 155.373L125.66 158.702C126.837 159.843 128.174 160.936 129.207 162.208C129.767 162.899 129.894 163.747 129.343 164.487C129.07 164.852 128.58 165.119 128.083 165.174C128.278 165.444 128.428 165.751 128.523 166.091C128.717 166.784 128.016 167.636 127.27 167.346C126.423 167.021 125.724 166.437 124.862 166.158C123.991 165.875 123.045 165.82 122.143 165.972C121.728 166.042 121.323 166.146 120.928 166.277C125.155 168.224 129.729 169.342 134.394 169.502C135.345 169.534 136.293 169.521 137.238 169.458C138.827 169.354 140.404 169.113 141.955 168.724C143.174 168.418 144.381 168.033 145.551 167.568C146.126 167.34 146.694 167.089 147.243 166.803L147.292 166.775C147.416 166.697 149.711 165.395 149.751 165.199C149.791 165.003 149.791 164.935 149.717 164.765C149.642 164.594 149.435 164.477 149.435 164.477C148.725 164.174 147.991 163.892 147.216 163.886C145.433 163.876 143.487 165.195 142.012 166.093C140.392 167.08 138.902 168.234 137.343 169.304C137.307 169.329 137.267 169.339 137.229 169.339C137.065 169.339 136.912 169.136 137.018 168.978C138.135 167.332 139.644 165.961 141.221 164.765L141.857 164.288C143.302 163.21 144.992 162.016 146.749 161.756C148.902 161.439 151.15 162.781 153.07 163.567L156.471 164.96C157.078 165.207 157.737 165.419 158.347 165.7L156.922 161.238C156.21 159.007 155.5 156.776 154.796 154.543L154.66 154.105C153.959 151.839 153.316 149.481 152.149 147.41C151.87 146.913 151.551 146.446 151.236 145.974C150.909 145.486 150.786 144.948 150.374 144.512C149.559 143.647 148.39 143.14 147.275 142.809C147.002 142.728 147.083 142.369 147.339 142.342C148.483 142.221 149.575 142.488 150.609 142.971L151.039 143.176C152.017 143.639 152.971 144.07 153.697 144.901C155.354 146.799 156.214 149.188 157.004 151.547L157.215 152.18C157.511 152.083 159.52 152.696 159.771 152.841C167.303 156.026 173.105 161.957 177.347 168.906C181.995 176.521 184.526 185.222 186.615 193.833C187.26 196.49 187.877 199.156 188.469 201.827C185.83 202.843 183.024 203.375 180.554 204.806C179.612 205.351 180.463 206.813 181.406 206.266C183.721 204.926 186.357 204.43 188.834 203.489C190.177 209.674 191.372 215.892 192.372 222.137C195.446 241.302 197.388 260.78 197.265 280.207C197.263 280.637 197.136 281.116 196.902 281.528C197.039 281.461 197.147 281.38 197.208 281.283C197.988 280.059 199.942 281.194 199.158 282.425L199.044 282.603C198.455 283.51 197.906 284.203 196.872 284.715C195.831 285.231 194.702 285.318 193.553 285.347C189.647 285.45 185.738 285.517 181.828 285.566C181.291 281.381 181.073 277.157 180.334 272.997C180.145 271.928 178.515 272.381 178.705 273.447C179.418 277.464 179.647 281.542 180.145 285.586C171.785 285.676 163.42 285.677 155.067 285.7C143.746 285.734 132.427 285.71 121.106 285.704L116.255 285.702C103.177 285.702 90.0996 285.66 77.0223 285.573L73.9122 285.551C72.6751 278.255 71.8329 270.897 71.8173 263.483C71.815 262.395 70.1248 262.393 70.1272 263.483C70.1428 270.889 70.9756 278.248 72.2014 285.542C69.1051 285.528 66.0102 285.54 62.9136 285.65L61.3376 285.706C58.1842 285.814 55.0245 285.88 51.877 285.629C48.3827 285.348 44.8484 284.705 41.7153 283.059C40.3042 282.316 39.0617 281.366 37.9999 280.25C39.0793 279.621 40.1741 279.019 41.2196 278.334C42.1262 277.741 41.2805 276.277 40.3665 276.875C39.2398 277.612 38.0555 278.255 36.8954 278.937C36.0554 277.815 35.366 276.571 34.8425 275.228C34.0165 273.108 33.6974 270.828 33.4207 268.583C33.0934 265.939 32.958 263.274 32.958 260.611C32.958 255.01 33.5474 249.426 34.3695 243.893C35.1556 238.592 36.1947 233.334 37.2931 228.093L37.4432 227.378C38.527 222.225 39.5601 217.058 40.8024 211.941C41.951 207.21 43.2784 202.5 44.8604 197.882C46.2685 198.753 47.7421 199.515 49.1282 200.422C50.0411 201.02 50.8889 199.557 49.9813 198.963C48.5024 197.994 46.9251 197.19 45.4327 196.244C47.2017 191.299 49.278 186.469 51.7674 181.843C56.7531 172.579 63.4716 164.292 72.0765 158.176C76.3841 155.115 81.1101 152.611 86.073 150.789C91.1329 148.929 96.3763 147.91 101.738 147.492C101.891 147.48 101.977 147.622 101.971 147.753L101.969 147.777L102.18 147.811C102.258 147.281 102.419 146.767 102.725 146.296C103.422 145.222 104.745 144.533 105.801 143.874L106.051 143.718C107.308 142.939 108.635 142.171 110.096 141.898C110.147 141.889 110.178 141.942 110.145 141.982C109.181 143.088 107.948 143.933 106.818 144.868L106.559 145.084C105.623 145.855 104.317 146.73 104.282 148.018C104.242 149.536 104.552 151.115 104.665 152.628C104.777 154.137 104.854 155.644 104.895 157.157C105.041 162.578 104.865 168.002 104.385 173.402L106.506 171.981C109.807 169.771 113.119 167.566 116.5 165.497C118.545 164.244 120.843 163.172 123.294 163.221C123.981 163.233 124.756 163.333 125.5 163.544C124.699 162.785 123.932 161.978 123.148 161.215C121.857 159.957 120.566 158.7 119.276 157.445L115.554 153.818L111.831 150.191C110.677 149.064 109.325 148.027 109.447 146.252C109.547 144.835 110.267 143.426 110.759 142.06C110.829 141.864 110.893 141.669 110.952 141.477C111.945 138.176 112.509 134.754 113.516 131.465ZM161.62 273.111C160.85 272.341 159.655 273.536 160.425 274.307L160.833 274.712C161.513 275.391 162.187 276.091 162.658 276.93L162.727 277.057C163.234 278.02 164.694 277.167 164.186 276.204C163.559 275.014 162.561 274.053 161.62 273.111ZM128.635 272.894C126.184 272.426 123.821 272.426 121.371 272.894C120.303 273.098 120.755 274.728 121.82 274.524C123.963 274.115 126.041 274.115 128.185 274.524C129.248 274.727 129.703 273.098 128.635 272.894ZM95.5348 255.85C94.4802 255.583 94.0302 257.213 95.0857 257.481L95.6053 257.611C97.3718 258.048 99.0542 258.373 100.889 257.968C101.937 257.736 101.513 256.145 100.481 256.329L100.44 256.337C98.7419 256.713 97.1777 256.267 95.5348 255.85ZM154.319 244.868C153.539 244.109 152.342 245.303 153.124 246.063C154.099 247.012 155.249 247.733 156.642 247.772C157.714 247.802 157.729 246.161 156.69 246.084L156.642 246.081C155.708 246.055 154.964 245.496 154.319 244.868ZM54.8489 240.352C55.822 239.866 54.967 238.407 53.996 238.893L48.1549 241.814C47.1818 242.301 48.0368 243.76 49.0078 243.274L54.8489 240.352ZM170.271 240.725C169.183 240.694 169.184 242.385 170.271 242.416C171.294 242.444 172.341 242.832 173.252 243.274C174.226 243.747 175.084 242.29 174.105 241.814C172.914 241.236 171.607 240.762 170.271 240.725ZM115.694 232.561C116.589 231.953 115.744 230.487 114.841 231.101C113.609 231.939 112.492 232.928 111.28 233.791L110.947 234.023C110.052 234.631 110.897 236.097 111.8 235.483C113.144 234.569 114.35 233.475 115.694 232.561ZM178.546 220.273C177.458 220.272 177.457 221.963 178.546 221.964L178.752 221.963C179.65 221.958 180.596 221.933 181.431 222.292L181.527 222.335C182.505 222.796 183.364 221.339 182.38 220.875C181.156 220.299 179.876 220.273 178.546 220.273ZM84.6841 219.065L84.8261 219.012C85.8423 218.647 85.4041 217.012 84.3767 217.381C82.8286 217.938 81.6241 218.989 80.2811 219.901C79.3862 220.509 80.2308 221.975 81.134 221.361C82.2912 220.575 83.3678 219.58 84.6841 219.065ZM148.079 214.666L148.307 214.544C149.274 214.046 148.42 212.587 147.454 213.084C146.687 213.479 146 214.004 145.248 214.423L145.02 214.545C144.052 215.043 144.906 216.502 145.873 216.005C146.64 215.61 147.326 215.085 148.079 214.666ZM122.367 198.289L122.193 198.121C121.415 197.359 120.219 198.554 120.998 199.317C122.943 201.221 125.242 202.667 127.562 204.064L127.983 204.318C128.918 204.879 129.769 203.418 128.837 202.858L128.217 202.486C126.155 201.242 124.117 199.957 122.367 198.289ZM75.596 196.711C76.2514 195.859 74.8262 195.026 74.1601 195.828L74.1366 195.857C73.4544 196.743 72.6449 197.545 71.7989 198.277L71.6398 198.414C71.1362 198.842 70.2195 199.761 69.512 199.821C68.4362 199.913 68.4265 201.604 69.512 201.512C70.6067 201.419 71.5488 200.648 72.3759 199.987C73.5797 199.026 74.6565 197.93 75.596 196.711ZM165.514 190.551C166.3 189.813 165.14 188.638 164.347 189.331L164.319 189.356C162.852 190.735 160.74 191.105 158.851 191.573C157.796 191.835 158.243 193.465 159.3 193.203L160.161 192.991C162.092 192.509 164.029 191.947 165.514 190.551ZM132.042 179.886C130.987 179.618 130.537 181.248 131.593 181.517C133.385 181.972 135.083 182.561 136.745 183.379C137.718 183.858 138.575 182.4 137.598 181.919C135.81 181.039 133.972 180.377 132.042 179.886ZM149.307 144.244C149.282 144.168 149.362 144.081 149.44 144.108C151.337 144.816 150.329 147.301 149.74 148.788L149.633 149.06C148.709 151.444 147.419 153.765 146.012 155.9C144.539 158.134 142.904 160.272 141.134 162.28C140.365 163.152 139.569 163.999 138.745 164.82L138.435 165.127C137.603 165.945 136.53 167.382 135.239 167.224C133.849 167.057 133.073 165.571 134.088 164.442C134.804 163.644 135.797 163.007 136.597 162.28C137.392 161.562 138.161 160.82 138.911 160.057C140.445 158.491 141.898 156.836 143.227 155.092C144.512 153.406 145.742 151.673 146.861 149.872L147.083 149.511C147.934 148.109 149.899 146.049 149.307 144.244ZM82.1075 161.954C81.2071 161.339 80.3608 162.803 81.2544 163.414C82.8977 164.538 84.3434 165.899 86.122 166.823C87.0744 167.318 87.9213 165.9 87.0089 165.381L86.9751 165.363C85.1977 164.439 83.7499 163.077 82.1075 161.954Z" fill="black"/>
<path fill-rule="evenodd" clip-rule="evenodd" d="M119.785 55.516C151.739 53.9406 166.159 76.4955 167.092 86.5697C167.739 93.5627 163.618 101.623 163.618 107.872C163.618 111.062 167.513 117.909 165.7 122.558C161.663 132.906 153.116 144.39 142.225 144.39C131.334 144.39 117.16 147.409 105.126 130.135C103.997 128.514 89.7149 119.302 88.3274 110.549C84.8712 88.7452 96.9844 56.64 119.785 55.516Z" fill="#D08B5B"/>
<path fill-rule="evenodd" clip-rule="evenodd" d="M118.279 41.4787C119.422 40.1684 121.351 39.6442 123.065 39.7457C125.555 39.8936 127.72 41.4343 130.197 41.5485C132.794 41.6689 135.301 40.7665 137.905 41.1849C139.5 41.4428 141.082 42.1846 142.104 43.4358C145.646 42.4192 149.491 43.7655 151.747 46.7054C154.53 46.2721 157.557 48.1196 158.409 50.8077C161.945 50.9219 165.282 53.7687 165.676 57.3363C167.089 57.7104 168.316 58.6871 169.068 59.9782C169.943 61.4746 170.089 63.1907 169.93 64.8773C171.594 65.7291 172.439 67.5593 172.661 69.4953C174.181 70.6324 174.841 72.6761 174.531 74.6058C175.694 75.2631 176.295 76.7932 176.289 78.1586C176.283 79.433 175.945 80.5618 176.42 81.7917C176.842 82.8871 176.994 83.8 176.762 84.9474L176.738 85.0592C176.697 85.2462 176.662 85.4256 176.631 85.6025C176.946 85.8794 177.212 86.2264 177.412 86.6301C178.141 88.1053 178.033 89.7879 177.477 91.284C177.72 92.2368 177.689 93.2433 177.329 94.159C178.003 95.1323 178.358 96.326 178.254 97.5645C178.137 98.9512 177.505 100.193 176.547 101.111C176.802 103.005 176.034 105.052 174.645 106.385C174.842 107.519 174.672 108.708 174.053 109.782C173.612 110.549 173.019 111.119 172.334 111.517C172.356 112.15 172.271 112.797 172.061 113.445C171.769 114.344 171.276 115.173 170.626 115.84C171.013 118.325 169.529 121.083 166.917 121.78C166.698 121.839 166.488 121.866 166.288 121.87C166.028 124.26 165.461 126.617 164.584 128.855C162.354 134.555 158.297 139.539 153.008 142.648C150.391 144.184 147.453 145.237 144.453 145.677C142.294 145.994 140.217 145.915 138.05 145.7C135.33 145.427 132.598 145.019 129.954 144.318L129.529 144.204C128.433 143.91 127.278 143.57 126.328 142.978C125.266 142.314 124.714 141.291 124.469 140.086C124.333 139.416 124.756 138.695 125.488 138.681L125.536 138.681C125.696 138.684 125.855 138.678 126.016 138.668L126.137 138.66H126.143C126.151 138.658 126.156 138.658 126.164 138.658C126.236 138.647 126.305 138.626 126.375 138.615C127.18 138.479 127.885 138.614 128.641 138.866L128.736 138.899C130.009 139.338 131.272 139.746 132.588 140.048C133.947 140.359 135.324 140.606 136.705 140.801L136.842 140.818L136.884 140.824L136.905 140.826C136.909 140.826 136.914 140.826 136.918 140.828L137.325 140.879C137.645 140.917 137.966 140.951 138.286 140.985C138.876 141.044 139.467 141.09 140.057 141.124C150.246 141.699 158.803 133.657 161.386 124.015C162.322 120.526 162.383 117.045 162.107 113.562C162.018 113.308 161.966 113.027 161.968 112.719C161.968 112.558 161.976 112.399 161.987 112.239C161.643 108.87 161.047 105.499 160.673 102.117C160.237 98.1671 159.994 94.1939 160.083 90.2182C160.127 88.2548 160.336 86.3103 160.61 84.3661L160.709 83.6676C159.471 83.4252 158.319 82.8364 157.402 81.984C155.412 83.1359 152.837 83.2379 150.873 82.0216C148.672 83.4053 145.597 83.5309 143.381 82.178C142.041 83.1367 140.353 83.5503 138.697 83.1864C137.951 83.0228 137.21 82.6688 136.576 82.1787C136.123 82.2588 135.664 82.2898 135.207 82.2659L135.113 82.3188C134.061 82.8746 132.896 83.2405 131.696 83.1997C130.808 83.1697 129.893 82.994 129.047 82.6618C128.142 83.2092 127.152 83.5829 126.093 83.7169C124.546 83.9124 122.877 83.5693 121.59 82.6897C119.239 84.0322 116.348 84.2389 113.81 83.3369C113.291 84.2192 112.572 84.9801 111.73 85.5666C111.88 86.1081 111.928 86.6855 111.876 87.2407C111.791 88.1546 111.563 88.974 111.189 89.7099C111.583 90.5316 111.701 91.5406 111.481 92.5534C111.167 93.9978 110.328 95.2543 109.243 96.2328C109.147 98.5378 107.886 100.699 105.834 101.9C105.73 101.96 105.627 102.01 105.524 102.054C105.433 102.179 105.325 102.288 105.201 102.38C103.896 103.589 101.831 103.493 100.195 102.81C100.164 102.811 100.132 102.814 100.1 102.815C99.516 102.829 99.1177 102.601 98.8814 102.265C98.6434 102.278 98.407 102.303 98.169 102.348C97.3002 102.51 96.3473 102.823 95.5609 103.229C93.5202 104.281 92.5757 106.141 92.2932 108.377C91.9856 110.816 92.6853 113.302 94.5682 114.953C95.4829 115.756 96.653 116.259 97.842 116.47C99.1555 116.705 100.56 116.128 101.529 117.258C101.723 117.482 101.856 117.795 101.751 118.097C101.422 119.04 100.88 119.401 100.032 119.533C101.257 120.989 102.514 122.396 103.905 123.705C105.411 125.123 106.966 126.496 108.324 128.06C109.76 129.715 111.056 131.47 111.957 133.477C112.471 134.631 112.884 135.821 113.329 137.003L113.409 137.209C113.905 138.464 114.565 139.674 113.801 140.985C113.498 141.5 112.81 141.999 112.178 141.917C110.397 141.688 109.8 140.482 109.252 138.909C108.839 137.721 108.522 136.5 108.078 135.322C107.994 135.105 107.904 134.889 107.809 134.674C106.782 134.961 105.652 134.733 104.735 134.146C103.756 134.581 102.671 134.799 101.623 134.78C100.22 134.755 98.9377 134.365 97.8355 133.66C97.7478 133.637 97.6597 133.614 97.5722 133.589C95.8955 134.233 93.9319 134.118 92.4138 133.074C91.4307 132.399 90.7586 131.497 90.3766 130.493C89.1064 130.468 87.8499 130.017 86.9398 129.114C86.1041 128.284 85.6156 127.214 85.4706 126.102C84.3773 125.885 83.3522 125.355 82.5484 124.463C81.8771 123.717 81.4692 122.768 81.3313 121.782C79.9998 121.401 78.7989 120.53 78.143 119.315C77.5327 118.183 77.4446 116.956 77.7431 115.84L77.6657 115.728C76.2941 115.008 75.2474 113.83 75.1399 112.147C75.1095 111.668 75.161 111.189 75.2906 110.735C75.2438 110.228 75.2738 109.722 75.4064 109.231C73.5617 107.433 72.8934 104.544 73.8948 102.155C72.0922 100.211 71.6158 97.1357 72.9376 94.828C72.0311 93.7287 71.5652 92.3275 71.6432 90.8311C71.7402 88.963 72.594 87.3312 73.6165 85.82C72.8575 84.9788 72.4528 83.8058 72.4825 82.673C72.5244 81.0308 73.3951 79.6169 74.4853 78.446C73.5343 75.5547 74.5968 72.4183 76.9306 70.588C76.4584 69.8081 76.2834 68.8422 76.4375 67.8637C76.7071 66.1539 77.9868 64.9893 79.3677 64.0678C79.0789 63.1254 79.1548 62.1086 79.6144 61.1343C80.2279 59.8345 81.3853 59.0102 82.5933 58.3128C82.9053 55.43 86.1182 52.9677 88.8125 54.4556C88.1442 52.3104 90.0692 49.994 92.2829 49.7489C93.3663 46.456 97.1042 44.3806 100.465 45.1985C102.183 42.844 105.381 41.9376 108.096 42.9476C111.082 40.6545 114.786 40.3142 118.279 41.4787ZM97.0135 106.133C99.1112 106.019 100.684 107.735 101.789 109.305C102.826 110.778 100.165 112.334 99.3895 110.711C99.1112 110.132 98.7949 109.519 98.3712 109.012C98.3 109.111 98.2372 109.215 98.1746 109.321L98.1119 109.428C98.0655 109.506 98.017 109.586 97.977 109.669C97.9812 109.684 97.9179 109.878 97.9158 109.887C97.7429 110.413 97.3656 110.751 96.8514 110.933C96.1871 111.165 95.5588 110.664 95.3459 110.077C95.0067 109.138 95.795 108.32 96.615 107.949C95.8097 107.817 95.017 108.092 94.4352 108.714C94.3552 108.8 94.2201 108.73 94.2161 108.623C94.1484 107.15 95.6853 106.205 97.0135 106.133Z" fill="black"/>
<path fill-rule="evenodd" clip-rule="evenodd" d="M143.152 128.274C141.731 127.694 140.464 126.727 139.538 125.492C139.216 125.063 139.132 124.61 139.2 124.195C139.276 123.729 139.552 123.306 139.928 123.023C140.305 122.738 140.777 122.598 141.233 122.67C141.629 122.732 142.024 122.949 142.336 123.399L142.401 123.489C142.952 124.235 143.67 124.846 144.488 125.24C145.276 125.62 146.157 125.798 147.07 125.695C148.807 125.498 150.005 124.558 151.278 123.282C151.435 123.121 151.593 122.954 151.752 122.786C151.852 122.632 151.991 122.534 152.145 122.482C152.317 122.425 152.511 122.428 152.688 122.49C152.859 122.55 153.013 122.663 153.115 122.814C153.213 122.958 153.268 123.135 153.25 123.338C153.134 124.661 152.442 125.842 151.46 126.769C150.37 127.798 148.924 128.511 147.563 128.76C146.063 129.036 144.535 128.839 143.152 128.274ZM148.27 107.866C149.866 108.836 152.296 111.098 150.58 113.503C148.56 115.624 145.651 113.192 144.218 112.093C142.889 111.241 141.396 113.432 142.629 114.428C152.986 122.099 157.189 108.12 149.077 106.725C148.184 106.572 147.852 107.566 148.27 107.866ZM129.71 98.9426C129.886 96.7538 133.219 96.2568 133.55 98.4227C133.847 100.363 133.498 102.145 132.624 103.892C131.789 105.561 129.691 104.782 129.533 103.263C129.32 101.226 129.601 100.304 129.71 98.9426ZM155.076 97.9736C155.54 97.3649 156.211 96.9494 157.015 97.1842C159.526 97.9182 158.786 101.484 157.904 103.22C157.425 104.163 155.876 104.402 155.176 103.572C154.035 102.218 153.489 99.5154 154.939 98.1822C154.978 98.1133 155.022 98.0438 155.076 97.9736ZM132.589 89.3651L132.985 89.2957C134.212 89.0834 135.738 88.8794 136.606 89.8662C137.066 90.3895 137.225 91.3622 136.606 91.8631C135.517 92.7444 134.314 92.4028 133.01 92.4775C131.935 92.5392 130.902 92.7171 129.866 93.0132C127.595 93.6627 125.744 94.8484 123.804 96.1503C123.549 96.3211 123.289 95.9954 123.411 95.7572C124.531 93.5627 126.701 91.7601 128.875 90.6613C130.035 90.0748 131.305 89.5883 132.589 89.3651ZM152.787 88.3821L153.09 88.4442C156.394 89.1351 160.686 90.515 162.251 93.7613C162.31 94.2203 162.247 94.3187 162.196 94.3829L162.179 94.4043C162.137 94.4592 162.103 94.5349 161.904 94.5974C161.849 94.5842 161.793 94.5703 161.737 94.5555C161.02 94.3675 160.453 94.1085 159.903 93.8398L159.308 93.5462C158.617 93.2073 157.92 92.8807 157.181 92.6396C155.604 92.1252 153.983 91.7628 152.336 91.5693C151.979 91.5274 151.636 91.4069 151.364 91.2004C151.107 91.0044 150.91 90.733 150.821 90.3722C150.705 89.9053 150.738 89.5518 150.988 89.1306C151.177 88.8143 151.446 88.5951 151.755 88.4692C152.071 88.3408 152.43 88.3106 152.787 88.3821Z" fill="black"/>
<path fill-rule="evenodd" clip-rule="evenodd" d="M157 133.092C156.262 132.851 155.538 132.57 154.81 132.299C151.09 130.43 146.596 130.091 142.695 131.665C140.78 132.438 138.994 133.826 137.073 134.736C136.617 134.906 136.156 135.061 135.691 135.191C135.406 135.091 135.121 134.986 134.838 134.88C132.8 134.112 130.883 133.164 129.021 132.121C128.823 131.841 128.617 131.57 128.395 131.309C129.742 131.117 131.061 130.799 132.254 130.471C135.917 129.467 139.369 127.832 143.02 126.783C146.419 125.805 150.108 125.27 153.522 126.485C155.143 127.062 156.569 128.073 158.145 128.753C158.96 129.104 159.938 129.448 160.891 129.499C160.276 130.972 159.499 132.348 158.436 133.494C157.95 133.39 157.469 133.244 157 133.092ZM164.927 121.554C164.6 121.825 163.254 122.7 162.818 123.222C162.705 123.179 162.593 123.135 162.481 123.09C162.289 122.854 162.006 122.75 161.718 122.757C159.705 121.82 157.912 120.496 156.313 118.837C155.176 117.659 154.012 116.427 152.493 115.744C150.704 114.937 148.944 115.309 147.064 115.432C145.063 115.565 143.088 114.996 141.089 115.269C139.627 115.47 138.258 116.089 137.075 116.962C134.66 118.744 132.995 121.246 130.955 123.404C128.639 125.851 125.791 127.415 122.624 128.214C122.586 128.189 122.546 128.163 122.506 128.14C120.171 126.027 118.063 123.641 116.198 121.098C114.376 118.615 109.574 107.436 108.414 106.456C107.933 106.048 107.405 105.872 106.9 105.887C105.985 105.908 105.14 106.544 104.762 107.546C104.119 109.25 104.44 111.452 104.491 113.234C104.555 115.415 104.698 117.594 104.926 119.764C105.152 121.91 105.452 124.048 105.826 126.172C106.014 127.246 106.224 128.318 106.454 129.385C106.526 129.721 106.617 130.021 106.726 130.3C106.838 130.826 106.959 131.351 107.088 131.87C107.929 135.275 109.255 138.684 111.788 141.197C114.425 143.816 118.008 145.555 121.336 147.111C124.505 148.593 127.826 149.909 131.233 150.941C134.193 152.283 137.362 153.344 140.544 153.902C144.047 154.517 147.729 154.555 151.112 153.337C152.774 152.739 154.346 151.904 155.772 150.865C157.794 149.814 159.613 148.371 161.102 146.46C163.77 143.036 165.043 138.881 165.601 134.596C165.743 133.499 166.279 129.296 166.322 128.641C166.458 126.528 166.594 124.415 166.73 122.301C166.794 121.304 165.571 121.019 164.927 121.554Z" fill="black"/>
</svg>
