<?xml version="1.0" encoding="UTF-8" standalone="no"?><svg width="240" height="324" viewBox="0 0 240 324" fill="none" xmlns="http://www.w3.org/2000/svg">
<path fill-rule="evenodd" clip-rule="evenodd" d="M117.565 124.062C120.404 123.276 123.668 123.367 126.581 123.568C129.539 123.773 132.713 124.123 135.489 125.228C137.902 126.189 139.937 127.804 141.177 130.119C142.197 132.022 142.675 134.108 142.974 136.228C143.097 137.095 143.199 137.965 143.297 138.835L143.498 140.646C143.576 141.338 143.645 141.857 143.782 142.63C144.163 144.766 144.694 146.551 145.878 148.106C148.746 151.869 153.43 153.129 157.689 154.735C160.414 155.763 162.572 157.612 163.171 160.583C163.749 163.449 185.713 187.494 187.869 189.522L187.928 189.576C189.601 191.083 189.404 193.915 189.638 195.982C189.889 198.199 190.127 200.418 190.354 202.637C190.814 207.146 191.224 211.659 191.584 216.177C192.991 233.844 193.629 251.573 193.493 269.296L193.485 270.299C193.464 272.548 193.481 274.807 193.38 277.055C193.283 279.214 192.63 281.376 190.629 282.504C188.776 283.549 186.433 283.457 184.362 283.561L184.238 283.567C182.015 283.689 179.792 283.789 177.568 283.871C168.529 284.206 159.481 284.242 150.437 284.2C132.494 284.118 114.533 283.723 96.6068 284.728C92.0372 284.984 77.4695 283.428 72.9144 283.871C68.5606 284.295 72.2962 286.431 69.6065 286.291C60.7611 285.828 52.3709 283.853 43.8961 281.475C42.8374 281.178 42.0279 280.15 42.0412 279.039C42.1986 266.836 42.5429 254.636 43.081 242.444C43.5604 231.584 44.1921 220.73 44.9757 209.888C45.3164 205.175 45.6857 200.464 46.0837 195.755L46.256 193.737C46.4808 191.135 46.6101 188.485 47.1215 185.919C47.6275 183.381 48.7753 181.181 50.4397 179.214C51.9332 177.45 68.842 163.64 72.9144 161.025C76.8122 158.522 80.9053 156.411 84.907 154.091C86.5718 153.126 88.1706 153.473 89.5929 152.289C90.3427 151.664 101.222 147.457 104.158 146.068L104.244 146.027C106.491 144.949 108.558 143.78 110.111 141.915C110.631 141.29 111.652 137.353 111.653 136.094C111.657 133.847 111.487 131.479 112.165 129.302C112.975 126.699 114.928 124.792 117.565 124.062ZM122.378 182.013L104.994 215.882H116.298L108.195 234.7H125.99L119.677 261.058L155.776 215.882H142.23L155.776 198.095H146.381L155.776 183.031L122.378 182.013Z" fill="#D08B5B"/>
<path fill-rule="evenodd" clip-rule="evenodd" d="M162.532 180.026L155.777 256.98L99.5156 258.374V176.252L162.532 180.026Z" fill="#FDEA6B"/>
<path fill-rule="evenodd" clip-rule="evenodd" d="M180.777 201.057C180.737 201.097 180.695 201.138 180.654 201.18C180.701 201.114 180.741 201.047 180.777 200.979V201.057ZM146.991 191.191C145.43 193.187 143.778 197.247 142.261 199.278C142.043 199.569 141.83 199.861 141.619 200.155C140.989 201.036 141.83 202.384 142.865 202.328C144.933 202.217 147 202.063 149.066 201.907C144.821 206.639 141.297 212.517 137.4 217.53C137.135 217.866 136.876 218.204 136.616 218.542C135.629 219.829 136.618 220.413 137.966 220.066C138.245 219.994 138.523 219.922 138.802 219.853C140.763 219.35 142.721 218.847 144.682 218.346C145.766 218.067 146.856 217.722 147.954 217.509C148.407 217.422 148.84 217.494 149.266 217.517C149.062 217.83 148.774 218.394 148.717 218.481C148.077 219.478 147.433 220.472 146.784 221.461C145.521 223.384 144.251 225.305 142.935 227.193C137.801 234.552 132.264 241.577 126.775 248.668C125.393 250.452 123.993 252.217 122.569 253.965C122.575 253.954 122.579 253.943 122.585 253.933C123.868 251.435 125.15 248.939 126.433 246.44C128.871 241.694 131.285 236.934 133.749 232.2C133.876 231.953 134.004 231.707 134.133 231.46C134.645 230.479 133.806 229.461 132.756 229.668C127.633 230.677 122.561 231.918 117.551 233.387C117.326 233.627 116.994 233.698 116.698 233.64C116.497 233.7 116.295 233.758 116.093 233.819C116.154 233.692 116.217 233.567 116.279 233.441C116.074 233.263 115.972 232.987 116.105 232.643C118.988 225.202 122.941 218.019 127.624 211.44C127.435 211.443 127.247 211.446 127.058 211.452C121.918 211.591 116.875 212.329 111.921 213.73C111.897 213.271 112.174 212.561 112.324 212.223C112.924 210.872 113.613 209.553 114.257 208.224C115.576 205.493 116.894 202.765 118.212 200.034C119.501 197.367 120.779 194.691 121.992 191.986C122.628 190.568 123.264 189.148 123.897 187.728C124.415 186.571 124.823 185.407 125.252 184.223C126.511 184.593 142.679 184.673 146.609 184.946C147.572 185.014 148.538 185.075 149.503 185.128C150.272 185.172 151.356 185.341 151.886 184.646L152.087 184.815C150.342 186.903 148.669 189.048 146.991 191.191ZM83.8664 152.396C83.9467 152.36 84.0249 152.324 84.1031 152.288C84.1432 152.345 84.1918 152.398 84.2425 152.451C84.3693 152.58 84.4939 152.719 84.6249 152.846C84.3714 152.698 84.1179 152.548 83.8664 152.396ZM196.861 271.173C196.715 268.093 196.552 265.014 196.379 261.934C196.037 255.915 195.684 249.896 195.213 243.885C194.256 231.705 193.364 219.529 191.93 207.393C191.328 202.306 190.487 197.257 189.644 192.206C189.752 192.109 189.862 192.011 189.969 191.916C189.853 193.298 191.729 194.174 192.659 192.795C192.728 192.692 192.796 192.589 192.864 192.481C193.669 191.179 195.523 184.792 195.395 184.251C195.162 183.276 194.516 182.41 194.011 181.552C193.569 180.801 193.123 180.051 192.671 179.307C191.769 177.817 190.84 176.342 189.866 174.898C187.848 171.91 185.643 169.04 183.044 166.531C180.354 163.932 177.268 161.795 174.08 159.857C172.548 158.927 170.968 158.084 169.358 157.297C167.769 156.524 166.031 155.668 164.319 155.228C164.222 155.203 164.123 155.338 164.212 155.41C164.666 155.769 165.141 156.107 165.625 156.433C164.315 155.978 162.965 155.651 161.604 155.534C158.97 154.609 156.304 153.761 153.682 152.795C151.104 151.844 148.565 150.775 146.852 148.522C145.388 146.596 144.462 144.24 143.75 141.945C142.969 139.415 142.658 136.786 141.935 134.251C141.878 134.046 141.543 134.023 141.498 134.251C140.983 136.91 141.006 139.899 141.3 142.583C141.608 145.398 142.4 148.161 144.124 150.45C146.127 153.11 148.844 154.592 151.901 155.773C154.366 156.729 156.864 157.701 159.388 158.555C159.059 158.77 158.725 158.986 158.381 159.191C157.012 160.005 155.588 160.728 154.132 161.376C151.474 162.562 148.675 163.45 145.859 164.17C140.617 165.506 135.243 166.185 129.838 166.273C119.026 166.453 108.093 164.187 98.2031 159.812C95.4186 158.58 92.6995 157.225 90.008 155.803C89.1671 155.359 88.3221 154.911 87.4812 154.45C87.551 154.446 87.6228 154.44 87.6925 154.433C89.5707 154.256 91.4256 153.895 93.2425 153.383C96.9629 152.333 100.529 150.695 104.032 149.082C107.002 147.714 110.062 146.157 111.876 143.308C112.846 141.784 113.292 139.996 113.653 138.246C114.057 136.298 114.532 134.34 114.826 132.373C114.929 131.684 114.775 130.752 114.035 130.426C113.74 130.297 113.497 130.191 113.165 130.191C112.432 130.191 111.68 130.724 111.504 131.455C111.071 133.279 110.809 135.154 110.469 136.997C110.176 138.59 109.907 140.254 109.047 141.655C107.545 144.109 104.6 145.364 102.112 146.559C98.9573 148.072 95.801 149.547 92.5242 150.775C91.0812 151.316 89.6129 151.806 88.1235 152.208C88.1826 151.842 88.1319 151.457 87.9164 151.168C87.5573 150.69 87.1495 150.373 86.6869 150.008C86.1841 149.61 85.508 149.403 84.9143 149.579C84.9143 149.581 84.9122 149.579 84.9122 149.579C84.6714 149.526 84.4052 149.547 84.1305 149.672C83.2812 150.061 82.4341 150.454 81.5869 150.853C69.3988 156.589 57.5573 163.327 48.589 173.588C47.296 175.067 46.0855 176.623 44.951 178.227C43.8481 179.785 42.4833 181.476 42.1791 183.407C42.1538 183.568 42.3883 183.642 42.4284 183.477C42.5002 183.179 42.5974 182.887 42.7179 182.604C42.4664 183.484 42.4812 184.418 42.8362 185.337C43.2566 186.419 44.0277 187.136 45.0017 187.421C44.0235 191.709 43.3664 196.055 42.8383 200.448C42.0798 206.778 41.5411 213.123 41.1355 219.485C40.3242 232.181 39.9629 244.94 40.2249 257.659C40.2988 261.254 40.4214 264.849 40.6073 268.442C40.7002 270.239 40.8017 272.033 40.9179 273.829C41.0319 275.596 40.939 277.543 42.4791 278.475C42.4981 278.545 42.5193 278.612 42.5383 278.682C42.9122 279.986 44.5791 279.568 44.7355 278.384C44.7376 278.371 44.7397 278.356 44.7418 278.344C46.001 277.382 45.8108 275.78 45.7179 274.244C45.6186 272.585 45.5129 270.928 45.4242 269.271C45.2552 266.092 45.1115 262.913 44.9826 259.732C44.7312 253.442 44.5897 247.144 44.5432 240.85C44.4502 228.26 45.177 215.689 46.039 203.135C46.4002 197.883 46.8228 192.654 46.9517 187.404C47.6256 187.053 47.8326 186.056 47.4946 185.384C55.4763 190.832 62.8833 197.346 68.8305 204.917C69.8235 206.18 70.7721 207.482 71.6805 208.808C71.9763 209.239 72.2573 209.687 72.5404 210.135C72.2657 211.384 72.0524 212.654 71.7735 213.852C71.1988 216.327 70.9559 218.895 70.6263 221.41C69.9566 226.519 69.4855 231.673 69.0862 236.809C68.3002 246.952 67.7171 257.093 67.5333 267.265C67.4319 273.018 67.2967 278.807 67.5502 284.558C67.3622 285.682 68.3742 286.781 69.4326 286.923C70.3601 287.047 71.2263 286.565 71.6319 285.79C74.5221 286.149 77.4883 286.314 80.3594 286.335C84.2277 286.362 88.096 286.358 91.9643 286.276C99.7031 286.107 107.44 285.908 115.176 285.678C130.65 285.221 146.123 284.763 161.598 284.304C165.889 284.177 170.18 284.05 174.471 283.924C176.406 283.867 178.819 284.424 180.344 282.93C180.606 282.672 180.809 282.37 180.952 282.047C181.409 282.161 181.969 282.049 182.269 281.696C182.828 281.034 183.24 280.422 183.219 279.504C183.2 278.646 182.964 277.742 182.841 276.892C182.609 275.296 182.385 273.7 182.171 272.103C181.751 268.945 181.358 265.783 180.997 262.619C180.257 256.15 179.585 249.666 179.062 243.175C178.022 230.34 177.728 217.437 177.764 204.562C177.769 203.41 177.775 202.258 177.781 201.106C177.83 201.167 177.883 201.224 177.94 201.273C177.986 201.313 178.033 201.353 178.079 201.396C178.62 201.871 179.52 202.116 180.169 201.666C180.965 201.15 181.514 200.377 182.135 199.677C182.788 198.944 183.46 198.229 184.138 197.519C185.452 196.146 186.811 194.829 188.197 193.527C188.309 193.423 188.421 193.318 188.533 193.216C188.541 197.314 188.537 201.41 188.647 205.506C188.812 211.591 189.141 217.669 189.443 223.746C190.043 235.778 190.664 247.806 191.262 259.836C191.429 263.194 191.588 266.555 191.754 269.913C191.839 271.593 191.921 273.273 192.002 274.954C192.044 275.862 192.086 276.774 192.128 277.682C192.175 278.659 192.114 279.703 192.443 280.631C193.193 282.753 196.434 283.053 197.057 280.631C197.448 279.111 197.148 277.352 197.078 275.793C197.007 274.254 196.935 272.713 196.861 271.173Z" fill="black"/>
<path fill-rule="evenodd" clip-rule="evenodd" d="M139.184 145.72C134.505 145.747 130.528 144.416 127.493 142.214C123.706 140.86 119.139 138.772 116.364 136.581C115.282 136.857 113.987 135.705 113.159 135.097C108.01 131.242 103.968 125.599 102.77 119.947C100.921 122.287 98.2902 122.384 95.7698 121.221C90.4866 118.218 90.6841 111.893 92.5862 107.168C88.5875 98.1733 85.8163 74.429 91.9202 64.8461C93.1687 63.4123 95.0009 62.5547 96.32 61.0843C97.4939 59.8001 98.6104 58.4866 99.9761 57.4704C104.143 54.2909 111.32 52.598 115.814 51.8018C134.574 47.7359 148.987 55.0439 165.98 61.2084C165.002 63.66 163.649 65.8959 162.099 67.9807C166.317 69.5592 164.379 73.1085 161.107 74.9077L159.158 73.9583C162.196 84.8526 169.186 111.944 166.17 120.644C163.764 134.217 153.209 145.818 139.184 145.72Z" fill="#D08B5B"/>
<path fill-rule="evenodd" clip-rule="evenodd" d="M148.304 54.8097C138.02 51.3623 127.776 49.2911 115.744 51.899C111.25 52.6951 104.073 54.3881 99.9058 57.5676C98.7304 58.4422 97.7396 59.537 96.738 60.6438C96.5758 60.823 96.4133 61.0025 96.2497 61.1815C95.5954 61.9109 94.8147 62.4895 94.0417 63.0624C93.2565 63.6445 92.479 64.2208 91.8499 64.9433C85.8166 74.4152 88.4542 97.7225 92.3775 106.947H92.5692H92.9719L93.1936 106.612L93.1936 106.612L93.1939 106.612L93.1941 106.611L148.304 54.8097ZM159.687 76.2294C159.54 75.6917 159.4 75.1791 159.265 74.6941L159.118 76.2294H159.687ZM159.316 74.1666L160.735 59.3788C162.438 60.0241 164.16 60.6709 165.91 61.3055C164.931 63.7572 163.579 65.9931 162.028 68.0778C166.247 69.6564 164.309 73.2056 161.036 75.0048L159.316 74.1666Z" fill="#ECDCBF"/>
<path fill-rule="evenodd" clip-rule="evenodd" d="M141.895 146.888C135.819 147.513 128.601 146.073 124.55 141.125C124.429 140.977 124.376 140.81 124.373 140.648C124.37 140.468 124.43 140.294 124.534 140.158C124.643 140.016 124.799 139.917 124.978 139.885C125.128 139.858 125.3 139.875 125.477 139.975L125.849 140.182C128.616 141.714 131.488 143.02 134.623 143.579C137.851 144.155 141.138 144.091 144.337 143.36C150.164 142.029 154.88 138.633 158.352 134.156C162.225 129.16 164.551 122.818 165.144 116.475C165.863 108.789 164.196 101.149 162.472 93.7064C160.66 85.8862 158.679 78.1059 156.379 70.4159C156.309 70.1844 156.291 69.9677 156.311 69.7682C155.632 69.5017 154.91 69.5757 154.191 69.819C152.878 70.2635 151.57 71.2659 150.478 72.0934C150.083 72.3931 149.716 72.6716 149.385 72.8983C148.032 73.8265 146.553 74.4943 144.899 74.5993C143.179 74.7083 141.493 74.1724 139.931 73.5017C139.137 73.1609 138.356 72.8075 137.578 72.4554C135.363 71.4529 133.175 70.4604 130.783 69.8153C127.579 68.9507 124.27 68.5248 120.951 68.5553C115.028 68.6096 109.087 70.1381 105.456 75.1602C103.986 77.1945 103.027 79.5327 103.775 82.0435C104.182 83.4093 104.949 84.6492 105.787 85.7896L106.075 86.178C106.534 86.8039 106.933 87.4274 107.054 88.0912C107.155 88.6472 107.076 89.2355 106.68 89.8803C106.431 90.2861 106.113 90.6501 105.794 91.0129C105.564 91.2746 105.333 91.5358 105.135 91.817C104.735 92.384 104.38 92.9947 104.103 93.6316C103.558 94.8783 103.328 96.2194 103.279 97.572C103.221 99.2038 103.45 100.8 103.677 102.399C103.838 103.532 103.998 104.667 104.063 105.815C104.075 106.016 104.013 106.165 103.928 106.276C103.823 106.411 103.67 106.496 103.496 106.52C103.443 106.527 103.389 106.528 103.334 106.523C103.361 106.633 103.385 106.744 103.405 106.856C103.295 106.714 103.178 106.577 103.055 106.444C103.047 106.44 103.039 106.436 103.031 106.431C102.904 106.361 102.796 106.254 102.728 106.117C102.553 105.954 102.368 105.799 102.174 105.654C101.163 104.898 99.9832 104.45 98.7993 104.435C97.658 104.421 96.5139 104.81 95.6342 105.633C93.8858 107.269 93.3736 109.938 93.3554 112.23C93.3368 114.57 93.877 117.378 95.9118 118.83C96.7281 119.413 97.725 119.763 98.7292 119.773C99.5618 119.782 100.358 119.486 101.143 119.205C101.385 119.118 101.625 119.032 101.865 118.954C102.138 118.865 102.387 118.87 102.604 118.935C102.848 119.009 103.055 119.16 103.21 119.362C103.364 119.563 103.466 119.815 103.497 120.079C103.527 120.335 103.492 120.6 103.384 120.839C103.357 120.899 103.329 120.958 103.299 121.015L103.747 121.752C105.46 124.57 107.204 127.336 109.491 129.758C110.803 131.148 112.194 132.46 113.72 133.608L113.94 133.772C114.072 133.869 114.218 133.988 114.374 134.116C114.819 134.481 115.352 134.971 115.85 134.99C115.998 134.996 116.127 134.977 116.244 134.962C116.528 134.924 116.766 134.913 117 135.009C117.188 135.086 117.383 135.229 117.583 135.526C117.719 135.727 117.788 135.979 117.788 136.234C117.788 136.491 117.718 136.747 117.593 136.95C117.333 137.37 117.02 137.63 116.68 137.778C116.3 137.943 115.881 137.968 115.445 137.887C114.372 137.686 113.183 136.794 112.427 136.213L112.28 136.1C110.605 134.819 109.016 133.401 107.62 131.815C105.243 129.115 103.107 125.933 102.01 122.456C101.237 122.965 100.282 123.207 99.2836 123.245C97.8287 123.3 96.2888 122.925 95.1541 122.385C92.6534 121.197 91.1345 118.948 90.4227 116.362C89.596 113.359 89.8647 109.907 90.9112 107.209C90.9415 107.131 90.9732 107.053 91.0057 106.974C87.784 98.7906 86.7934 89.7041 87.0693 80.9715C87.1984 76.8839 87.476 72.5953 88.438 68.6088C88.8691 66.822 89.6182 65.1204 90.8143 63.7137C91.4962 62.9115 92.333 62.287 93.1735 61.6643C93.9015 61.1249 94.6323 60.5866 95.2473 59.9132L95.5381 59.5934C95.6011 59.5238 95.664 59.4544 95.7267 59.385C96.7886 58.2117 97.8225 57.0731 99.1111 56.1108C100.606 54.9951 102.255 54.1218 103.968 53.3965C107.66 51.8346 111.633 50.8981 115.564 50.1736C124.068 48.6064 132.797 48.5291 141.197 50.732C145.102 51.7561 148.892 53.1579 152.675 54.558C153.027 54.688 153.378 54.8179 153.729 54.9476C156.669 56.0329 159.611 57.1136 162.553 58.1943C163.92 58.6966 165.287 59.1988 166.655 59.7016C166.951 59.8107 167.242 60.0457 167.407 60.3377C167.568 60.6227 167.616 60.9549 167.486 61.2858C166.647 63.4165 165.589 65.4154 164.301 67.2821C164.748 67.5874 165.129 67.9934 165.417 68.4686C165.782 69.0696 165.998 69.7811 166.013 70.5359C166.062 73.0639 163.767 74.7776 161.863 76.017C161.686 76.1327 161.51 76.2009 161.34 76.2323C163.185 83.3035 164.951 90.3986 166.451 97.5499L166.555 98.0457C168.1 105.53 169.098 113.168 167.636 120.752C166.377 127.282 163.453 133.585 158.883 138.45C154.405 143.217 148.396 146.219 141.895 146.888ZM101.887 103.834C101.092 101.303 100.67 98.5489 100.974 95.9832C101.166 94.3705 101.65 92.8179 102.437 91.3964C102.888 90.5822 103.438 89.8286 104.038 89.1187L104.245 88.8803C104.35 88.7585 104.454 88.6466 104.486 88.5063C104.505 88.4248 104.486 88.3356 104.437 88.2291C104.327 87.9931 104.123 87.7657 103.933 87.5438C103.812 87.4027 103.694 87.2642 103.594 87.1295C101.851 84.7633 100.55 81.9462 100.973 78.9456C101.385 76.0181 103.299 73.2892 105.337 71.2327C109.823 66.7042 116.779 65.6636 122.872 65.9134C126.419 66.0587 129.96 66.6854 133.338 67.7801C135.004 68.3201 136.632 68.9776 138.215 69.7313L138.565 69.9C138.755 69.9918 138.944 70.0847 139.133 70.1776C140.37 70.7858 141.611 71.4 142.954 71.7306C145.577 72.3762 147.356 71.0165 149.226 69.6451C149.867 69.1752 150.517 68.6987 151.209 68.2806L151.351 68.1962C152.599 67.4712 154.091 66.9832 155.525 67.0051C156.77 67.0241 157.971 67.4227 158.949 68.3646C159.15 68.5581 159.266 68.7693 159.32 68.9794C159.428 69.1315 159.515 69.3129 159.572 69.5271C159.923 70.8451 160.271 72.1639 160.619 73.4832L160.903 73.2996C161.745 72.7513 162.661 72.1247 163.074 71.2075C163.233 70.8544 163.211 70.2663 163.01 69.8338C162.94 69.6827 162.848 69.5484 162.719 69.4645C162.626 69.4035 162.514 69.3749 162.383 69.3854C162.066 69.4264 161.775 69.3799 161.528 69.2752C161.243 69.1545 161.016 68.9558 160.868 68.7164C160.717 68.4713 160.648 68.1832 160.685 67.8843C160.717 67.6273 160.827 67.359 161.046 67.1068C162.482 65.447 163.692 63.6159 164.611 61.6285L158.53 59.3729C156.361 58.569 154.193 57.7662 152.023 56.9664L150.835 56.5289C146.889 55.0781 142.921 53.6604 138.818 52.7263C130.664 50.8703 122.161 51.3065 114.03 53.0536L113.539 53.16C110.126 53.906 106.668 54.8084 103.536 56.3772C101.999 57.1471 100.538 58.0834 99.2826 59.2663C98.7285 59.7887 98.2274 60.3606 97.7262 60.9318C97.0237 61.7323 96.3205 62.5306 95.4853 63.2048L94.7101 63.8272C93.5568 64.7588 92.5166 65.6664 91.8659 67.1112C91.1854 68.6217 90.8607 70.2904 90.5957 71.9162C89.9274 76.0118 89.6636 80.1731 89.6888 84.3216C89.7313 91.2873 90.7869 98.1112 92.1206 104.911C93.1905 103.376 94.6936 102.186 96.6227 101.932C97.8804 101.767 99.1273 102.002 100.208 102.559C100.833 102.881 101.403 103.311 101.887 103.834ZM99.8661 112.105C98.4574 111.558 96.9783 111.379 95.4879 111.64C95.3318 111.668 95.1828 111.635 95.0577 111.562C94.9308 111.488 94.8308 111.371 94.7765 111.242C94.7137 111.093 94.7105 110.932 94.7659 110.788C94.814 110.664 94.9055 110.543 95.074 110.462C96.6878 109.69 98.4816 109.349 100.262 109.592L100.438 109.617C101.348 109.752 102.628 110.037 103.588 110.598C104.342 111.038 104.894 111.645 105.031 112.438C105.103 112.852 105.001 113.283 104.763 113.596C104.533 113.898 104.182 114.1 103.727 114.087C102.925 114.064 102.45 113.724 101.879 113.284C101.81 113.231 101.739 113.176 101.665 113.121C101.113 112.707 100.51 112.355 99.8661 112.105Z" fill="black"/>
<path fill-rule="evenodd" clip-rule="evenodd" d="M135.709 130.703L133.477 122.178L133.837 122.233C137.378 122.79 139.148 123.362 139.148 123.948L139.147 123.988C139.1 124.649 137.954 126.887 135.709 130.703ZM156.258 124.02L155.467 130.116L151.35 125.601L156.258 124.02Z" fill="white"/>
<path fill-rule="evenodd" clip-rule="evenodd" d="M132.994 108.845C137.602 108.845 141.339 105.439 141.339 101.237C141.339 97.0344 137.602 93.6279 132.994 93.6279C128.385 93.6279 124.648 97.0344 124.648 101.237C124.648 105.439 128.385 108.845 132.994 108.845Z" fill="white"/>
<path fill-rule="evenodd" clip-rule="evenodd" d="M145.352 101.025C149.552 101.025 152.957 97.6662 152.957 93.5225C152.957 89.3787 149.552 86.0195 145.352 86.0195C141.151 86.0195 137.746 89.3787 137.746 93.5225C137.746 97.6662 141.151 101.025 145.352 101.025Z" fill="white"/>
<path fill-rule="evenodd" clip-rule="evenodd" d="M155.705 107.366C159.089 107.366 161.832 104.338 161.832 100.603C161.832 96.8673 159.089 94.374 155.705 94.374C152.321 94.374 149.578 96.8673 149.578 100.603C149.578 104.338 152.321 107.366 155.705 107.366Z" fill="white"/>
<path fill-rule="evenodd" clip-rule="evenodd" d="M133.555 121.88C135.087 121.584 136.994 122.228 138.522 122.511L138.636 122.531C140.489 122.855 142.338 123.246 144.211 123.437C146 123.62 147.826 123.653 149.615 123.447C150.474 123.348 151.326 123.18 152.16 122.954C152.517 122.858 152.871 122.75 153.221 122.63L153.261 122.615C153.518 122.509 154.213 122.109 154.205 122.332C154.4 122.106 154.669 121.947 154.965 121.869C155.382 121.759 155.917 121.862 156.266 122.157C156.72 121.797 157.401 122.055 157.706 122.486C158.228 123.225 158.058 124.091 157.991 124.948L157.985 125.023C157.928 125.831 157.84 126.633 157.732 127.435L157.684 127.779C157.516 128.964 157.469 130.92 156.033 131.309C154.897 131.617 153.857 130.447 153.125 129.519L152.724 129.005C152.249 128.403 151.818 127.782 151.471 127.097C151.313 126.786 151.16 126.466 151.027 126.143C151.011 126.102 150.999 126.065 150.986 126.029C148.879 126.312 146.722 126.272 144.61 125.993C143.273 125.817 141.955 125.562 140.658 125.219L140.072 126.278C139.387 127.512 138.692 128.743 137.962 129.95L137.905 130.042C137.222 131.13 136.077 132.22 134.723 131.405C133.512 130.675 133.461 129.016 133.333 127.777C133.248 126.95 133.179 126.117 133.146 125.285L133.134 124.929C133.112 124.123 132.981 123.188 133.291 122.433C133.336 122.324 133.493 122.239 133.588 122.355C134.236 123.142 134.432 124.363 134.712 125.329C135.023 126.405 135.474 127.579 135.636 128.694L135.681 128.616C135.84 128.313 136.003 128.012 136.166 127.711L136.657 126.808C137.096 125.993 137.544 125.183 137.996 124.375C137.48 124.181 136.969 123.973 136.46 123.761L135.305 123.278C134.645 122.999 133.972 122.685 133.476 122.178C133.389 122.088 133.419 121.906 133.555 121.88ZM155.467 124.857C154.329 125.32 153.152 125.654 151.953 125.875C152.031 125.955 152.108 126.034 152.18 126.117C152.462 126.444 152.761 126.757 153.062 127.067L153.243 127.253C153.704 127.726 154.396 128.506 155.103 128.958L155.141 128.754C155.147 128.719 155.152 128.688 155.155 128.664L155.23 127.992C155.242 127.88 155.254 127.768 155.265 127.656C155.326 127.049 155.375 126.442 155.425 125.835C155.452 125.515 155.458 125.186 155.467 124.857ZM141.999 85.7852C144.709 84.627 147.926 85.1739 150.261 86.9233C152.65 88.7137 153.695 91.6244 153.833 94.5283C155.722 92.9145 158.443 94.1361 160.035 95.6483C161.871 97.3934 162.8 100.027 162.372 102.526C161.945 105.017 160.143 107.215 157.705 107.956C156.539 108.31 155.239 108.318 154.066 107.989C153.667 107.876 153.179 107.703 152.728 107.461C152.754 107.564 152.78 107.668 152.804 107.771C153.39 110.25 153.722 113.037 152.843 115.488C151.431 119.428 146.417 121.633 143.286 118.136C142.056 116.763 141.101 114.614 141.175 112.742C141.214 111.759 141.771 110.621 142.921 110.688C143.812 110.739 144.235 111.485 144.007 112.275L143.993 112.321C143.509 113.831 144.335 116.013 145.53 117.043C147.364 118.622 149.88 117.248 150.882 115.396C152.05 113.237 151.908 110.47 151.535 108.122C151.168 105.816 150.35 103.707 149.482 101.573C149.39 101.59 149.297 101.605 149.201 101.618C147.475 101.852 143.962 101.941 142.054 100.69C142.259 102.621 141.857 104.609 140.76 106.244C139.538 108.066 137.698 109.031 135.555 109.326C133.474 109.613 131.062 109.672 129.007 109.178C124.632 108.128 123.089 102.724 124.412 98.8236C125.195 96.5163 127.379 94.4411 129.807 93.9169C131.058 93.0939 132.737 92.8502 134.18 92.9625C136.336 93.1305 138.459 94.0623 139.903 95.6988C140.455 96.324 140.908 97.0318 141.258 97.7893C141.375 97.6967 141.512 97.6272 141.667 97.5908C141.908 97.5342 142.12 97.5215 142.356 97.6048C142.474 97.6464 142.643 97.7935 142.745 97.889L142.978 98.1629C143.264 98.4962 143.536 98.7756 144.045 98.9828C145.463 99.5604 147.387 99.6857 148.894 99.5676C152.739 99.2666 152.255 94.1716 151.308 91.554C150.186 88.4531 146.97 86.5241 143.699 87.0749C142.294 87.3114 140.953 88.0598 139.924 89.0377C138.775 90.1295 138.284 91.4483 137.595 92.8304C137.554 92.9122 137.413 92.8944 137.396 92.8042C136.829 89.8901 139.514 86.847 141.999 85.7852ZM121.519 109.279C121.403 109.142 121.556 108.901 121.723 109.015C122.949 109.848 124.312 110.449 125.793 110.611C126.489 110.687 127.191 110.693 127.884 110.586C128.474 110.495 129.007 110.315 129.596 110.477C129.91 110.564 129.967 110.928 129.775 111.156C128.885 112.217 126.692 111.934 125.497 111.649C123.951 111.282 122.55 110.49 121.519 109.279ZM162.761 107.343C163.363 106.97 164.079 107.709 163.723 108.306C162.81 109.837 160.162 109.961 158.626 109.595C158.506 109.566 158.533 109.378 158.655 109.381C159.538 109.403 160.336 109.233 161.096 108.772C161.746 108.379 162.134 107.732 162.761 107.343ZM133.403 95.1064L133.282 95.1075C131.878 95.1301 130.592 95.6658 129.238 95.949C129.126 95.9727 129.014 95.9607 128.912 95.9235C127.264 97.0236 126.127 98.7532 125.973 101.029C125.866 102.606 126.251 104.323 127.187 105.617C128.252 107.089 129.967 107.317 131.657 107.361L131.829 107.364C135.023 107.427 138.536 107.238 139.675 103.666C140.518 101.022 139.618 97.8125 137.271 96.2289C136.131 95.4598 134.77 95.1051 133.403 95.1064ZM159.135 97.0024L159.042 96.893C157.789 95.4551 155.803 94.1455 153.844 94.8697L153.85 95.1118C153.851 95.1522 153.851 95.1926 153.851 95.233C153.845 98.0097 152.77 100.601 150.126 101.416C150.835 102.428 151.405 103.551 151.861 104.717C152.022 104.611 152.218 104.545 152.445 104.522C153.376 104.427 153.909 105.302 154.716 105.628C155.472 105.933 156.329 106.012 157.126 105.854C158.871 105.509 160.095 104.004 160.524 102.334C161.009 100.446 160.368 98.4669 159.135 97.0024ZM132.577 99.3393C133.159 98.3562 134.594 98.4985 135.17 99.3652L135.197 99.4085L135.203 99.4004C136.162 100.643 135.699 102.605 134.307 103.303C133.191 103.863 131.772 103.716 131.03 102.626C130.863 102.382 130.757 102.095 130.718 101.804C130.691 101.606 130.706 101.408 130.75 101.211L130.739 101.257C130.761 101.158 130.796 101.002 130.805 100.965C130.903 100.564 131.138 100.134 131.433 99.8443C131.736 99.5454 132.157 99.3636 132.577 99.3393ZM156.486 98.3181C157.001 98.3181 157.459 98.5337 157.831 98.8754C158.36 99.3617 158.434 100.062 158.32 100.726C158.285 100.929 158.236 101.125 158.186 101.324L158.142 101.505C158.135 101.535 158.127 101.564 158.117 101.594C158.086 101.717 158.035 101.831 157.975 101.939C157.755 102.76 156.863 103.168 156.076 102.989C155.706 102.904 155.337 102.597 155.149 102.275C155.086 102.169 155.043 102.063 155.012 101.957L154.859 101.594C154.83 101.507 154.812 101.413 154.789 101.324C154.738 101.125 154.688 100.928 154.653 100.726C154.531 100.04 154.628 99.389 155.142 98.8754C155.486 98.5303 155.999 98.3181 156.486 98.3181ZM145.136 91.1991C146.031 91.079 146.941 91.4958 147.404 92.2861C147.806 92.9729 147.804 93.8972 147.404 94.5841L147.37 94.6422C146.633 95.9073 144.914 96.0696 143.88 95.0921L143.83 95.0448C143.164 94.4165 143.015 93.3743 143.359 92.5581C143.674 91.8116 144.334 91.3071 145.136 91.1991Z" fill="black"/>
<path fill-rule="evenodd" clip-rule="evenodd" d="M167.178 109.154C164.613 111.805 160.331 112.566 156.919 111.144C148.156 107.481 152.445 96.058 159.203 92.9903C160.047 92.7797 161.175 92.2803 162.203 92.167C162.296 92.1214 162.498 92.2535 162.743 92.1286C170.195 92.9609 171.892 104.533 167.178 109.154ZM138.915 109.832C136.038 113.65 130.69 114.827 126.32 113.053C117.687 109.652 120.749 99.5218 126.656 95.5505C139.132 90.8605 144.285 102.794 138.915 109.832ZM120.201 101.375C120.193 101.371 120.185 101.369 120.177 101.365C120.222 101.345 120.268 101.325 120.313 101.304C120.299 101.343 120.283 101.381 120.268 101.42C120.246 101.405 120.226 101.387 120.201 101.375ZM173.117 97.2483C172.413 97.2498 171.395 97.3656 170.812 97.8545C169.374 93.0034 164.067 88.5136 159.451 91.7875C155.816 92.9569 153.119 95.5503 151.586 98.9983C148.822 97.3536 144.476 98.0559 142.079 100.231C140.509 95.042 136.646 93.2251 132.048 92.9569C127.029 92.1345 122.027 97.0106 120.466 100.922C119.168 100.774 117.229 100.361 116.008 101.163C108.084 99.0837 94.2299 97.9375 92.619 99.0926C91.471 99.5332 90.841 102.244 92.4445 102.39C93.8418 102.192 92.2814 100.404 93.6899 100.209C101.195 99.7435 108.48 101.256 115.906 101.89C116.569 102.782 118.711 103.081 119.854 102.722C118.054 109.358 121.939 113.872 127.76 115.224C136.775 117.296 144.617 109.229 142.26 100.838C144.991 99.4793 148.131 99.5377 151.106 100.254C146.135 118.554 175.598 117.733 170.997 98.4816C174.059 100.005 174.724 97.5558 173.117 97.2483Z" fill="black"/>
</svg>
