<?xml version="1.0" encoding="UTF-8" standalone="no"?><svg width="240" height="324" viewBox="0 0 240 324" fill="none" xmlns="http://www.w3.org/2000/svg">
<path fill-rule="evenodd" clip-rule="evenodd" d="M47.4645 285.957C75.0656 290.151 103.167 290.362 130.998 288.839C142.012 288.014 153.06 287.865 164.065 288.92C170.568 289.404 199.081 291.584 201.411 285.757C199.944 254.73 196.975 223.438 187.865 193.598C184.119 183.002 180.901 174.208 173.589 165.44C171.284 163.046 166.315 158.025 163.467 156.387C161 154.969 159.969 155.475 158.552 153.079C157.144 150.433 156.106 146.012 154.107 144.145C152.072 142.243 149.056 142.924 145.317 143.536C146.004 134.251 141.72 131.887 135.818 130.121C125.444 126.16 115.198 128.15 112.587 140.784C107.746 140.784 105.026 142.868 102.086 144.871C100.884 145.689 101.72 147.775 100.285 148.419C97.6289 149.365 92.9354 149.133 90.3781 150.297C78.7492 155.591 68.3917 163.269 61.5897 174.481C46.3403 198.42 35.8652 248.847 37.6779 277.22C36.8837 278.466 37.9819 280.253 38.2611 281.593C38.6135 282.758 39.7545 283.533 40.9454 283.401C42.6072 285.189 45.1775 285.587 47.4645 285.957Z" fill="#D08B5B"/>
<path fill-rule="evenodd" clip-rule="evenodd" d="M104.887 142.681C106.588 140.906 109.254 139.847 111.78 139.906L111.898 139.91L112.755 139.948L112.182 142.76L112.153 142.893L112.037 143.381L111.881 144.02L111.826 144.255L111.767 144.515C111.758 144.557 111.749 144.599 111.74 144.641L111.715 144.764L111.471 145.958L111.516 146.064L111.503 146.336C111.465 147.317 111.676 147.856 112.142 148.029L112.179 148.042L112.445 148.127L112.662 148.598C113.16 149.674 113.625 150.613 114.103 151.498C115.496 154.08 117.158 156.66 119.074 159.253C120.895 161.717 122.791 164.069 124.763 166.302C125.65 167.306 126.586 168.315 127.583 169.341L128.441 170.22L128.714 170.496L128.898 170.68L129.127 170.904L129.457 171.218L129.696 171.454L129.773 171.528C129.871 171.618 129.946 171.68 130.014 171.723L130.039 171.739L130.115 171.784L134.093 175.969L135.498 176.742L136.165 177.112L136.3 176.843L136.328 176.756L137.806 173.508L138.709 171.519C140.562 167.426 142.004 164.17 143.322 161.069L143.487 160.683L143.973 159.529L144.23 158.914C145.408 156.089 146.279 153.908 147.058 151.79L147.169 151.488L147.333 151.035L147.577 150.353L147.621 150.236C147.832 149.694 147.313 147.725 146.801 146.646L146.772 146.585L146.639 146.318L146.494 146.036C146.156 145.375 145.911 144.641 145.704 143.753C145.671 143.61 145.64 143.465 145.61 143.319L145.567 143.099L145.54 142.955L145.502 142.753L145.448 142.463L146.593 142.272L147.222 142.169L147.496 142.126C147.851 142.071 148.168 142.026 148.465 141.988L148.576 141.974L148.775 141.951L148.782 141.99L149.191 142.031L149.494 142.062C150.99 142.22 152.143 142.394 152.962 142.588L153.042 142.607L153.189 142.644L153.255 142.662C154 142.862 154.574 143.296 155.028 143.935C155.34 144.373 155.542 144.793 155.862 145.589L155.977 145.876L156.358 146.818C156.402 146.933 156.471 147.116 156.564 147.368L156.888 148.248L158.507 152.723L160.165 153.595C160.936 153.999 161.499 154.289 161.778 154.427L161.876 154.475L161.947 154.507L162.518 154.734L162.457 154.912L162.526 154.952C169.35 158.879 174.613 164.92 178.71 172.941L178.834 173.184L178.961 173.437C182.227 179.97 184.566 187.261 186.851 196.994L186.992 197.599L187.103 198.081L187.699 200.678C189.936 210.485 191.474 217.799 192.747 224.974L192.829 225.442L193.041 226.661C194.639 235.949 195.978 245.153 197.048 254.267L197.226 255.801C197.673 259.717 198.076 263.765 198.514 268.626L198.573 269.279L198.766 271.462C198.971 273.815 199.158 276.163 199.328 278.506L199.412 279.677L199.583 282.223L199.684 283.674L199.696 283.871L199.737 284.627L199.748 284.804C199.763 285.032 199.781 285.223 199.803 285.401L199.82 285.531L199.84 285.658C199.896 286.005 200.008 286.315 200.192 286.662L200.24 286.749L200.557 287.316L199.982 287.619C196.985 289.199 191.083 289.894 182.987 289.93L182.741 289.931H182.234C178.3 289.929 174.13 289.777 169.78 289.518L168.796 289.458L167.975 289.405C167.621 289.382 167.277 289.359 166.92 289.334L166.372 289.296L164.084 289.128C153.794 288.142 143.002 288.159 131.112 289.049C100.111 290.745 73.3536 290.03 48.204 286.275L47.4424 286.16L46.8811 286.068L46.5464 286.012C43.8787 285.557 42.2037 284.973 40.8967 283.747L40.8282 283.682L40.7712 283.627L40.7464 283.627C39.4304 283.621 38.2256 282.76 37.7786 281.49L37.7554 281.422L37.7259 281.327L37.7055 281.232C37.6847 281.141 37.6587 281.043 37.6271 280.935L37.6023 280.852L37.3945 280.171L38.0945 280.043C38.1548 280.032 38.2175 279.99 38.2783 279.902L38.3366 279.819L38.4375 279.679L38.6814 279.344C38.9411 278.98 39.0688 278.751 39.1321 278.522C39.1881 278.318 39.2091 278.058 39.203 277.695L39.1984 277.518L39.1708 276.875C39.169 276.824 39.1677 276.779 39.1669 276.735L39.1661 276.671L39.1656 275.766L39.1679 274.772C39.1695 274.339 39.1719 273.916 39.1752 273.5L39.1809 272.883L39.1865 272.385C39.2202 269.632 39.301 266.881 39.4289 264.134C39.6788 258.772 40.1075 253.417 40.714 248.083C41.9663 237.07 43.8844 226.39 46.4937 216.068L46.7558 215.037C49.5772 204.007 52.2974 195.503 55.7548 187.639C60.1522 177.637 65.5139 169.405 72.2649 162.825C75.9766 159.206 80.0871 156.152 84.4554 153.81C86.4644 152.733 88.5995 151.777 90.8892 150.917L91.2174 150.794L91.747 150.601L92.1534 150.451L93.4627 149.961C93.7379 149.858 94.0374 149.743 94.3916 149.603L94.6109 149.517L96.9556 148.581L97.3449 148.428L97.7779 148.259L98.0961 148.137C98.6164 147.939 99.0875 147.766 99.5249 147.613L99.7834 147.524L100.018 147.445L101.019 147.098L100.999 148.009C100.986 148.614 101.142 149.072 101.488 149.401L101.5 149.411L101.512 149.421L101.523 149.428L101.583 149.426L101.82 149.425C101.844 149.411 101.867 149.396 101.888 149.378C102.225 149.092 102.381 148.708 102.533 147.829L102.574 147.584L102.644 147.126L102.672 146.953C102.773 146.342 102.861 146.005 103.033 145.62C103.28 145.063 103.608 144.52 103.993 144.022L104.083 143.907L104.443 143.474L104.498 143.406C104.625 143.244 104.689 143.13 104.716 143.025L104.723 142.997L104.759 142.815L104.887 142.681Z" fill="#FFCF77"/>
<path fill-rule="evenodd" clip-rule="evenodd" d="M161.71 155.686C161.54 155.591 161.689 155.349 161.86 155.429C170.045 159.271 176.325 166.01 180.743 173.798C185.318 181.861 187.926 191.016 190.174 199.964L190.255 200.287C192.652 209.859 194.691 219.53 196.526 229.225C198.384 239.042 199.876 248.92 201.076 258.84C201.67 263.744 202.199 268.657 202.612 273.58C202.818 276.04 203.005 278.502 203.174 280.965C203.241 281.95 203.304 282.935 203.359 283.921L203.398 284.661C203.431 285.332 203.511 286.004 203.345 286.666C203.202 287.236 202.9 287.753 202.635 288.277C202.11 289.312 200.67 289.141 200.104 288.277L199.939 288.025C199.564 287.444 199.252 286.905 199.135 286.183C199.021 285.484 199.016 284.751 198.965 284.045C198.871 282.745 198.791 281.444 198.7 280.144C198.508 277.407 198.293 274.673 198.055 271.94C197.583 266.545 197.078 261.155 196.457 255.775C195.354 246.213 193.969 236.677 192.337 227.192C190.743 217.926 188.727 208.754 186.624 199.593L186.406 198.645C182.724 182.652 177.049 164.233 161.71 155.686ZM74.522 218.314C74.5823 218.154 74.8413 218.117 74.885 218.314C75.4364 220.797 75.4909 223.355 75.5752 225.898C75.6582 228.406 75.6549 230.926 75.6183 233.436C75.4835 242.66 75.2304 251.876 75.0116 261.098C74.9021 265.711 74.7994 270.325 74.7206 274.939C74.6908 276.669 74.6658 278.4 74.645 280.13L74.6195 282.413C74.6069 283.422 74.5804 284.419 74.4574 285.427C74.3763 286.09 74.2035 286.722 73.8375 287.29C73.5779 287.694 73.2078 287.898 72.847 288.173L72.7795 288.225C72.3194 288.589 71.8347 288.591 71.379 288.225L71.2467 288.12C70.8114 287.78 70.4352 287.514 70.1573 286.975C69.7706 286.226 69.7087 285.413 69.643 284.588C69.5433 283.336 69.6094 282.067 69.6223 280.812C69.6481 278.295 69.683 275.778 69.7271 273.261C69.8892 264.031 70.2094 254.8 70.7932 245.586C71.0682 241.246 71.441 236.893 71.9412 232.57L72.0365 231.76C72.1882 230.489 72.3266 229.194 72.4825 227.896C70.1549 226.258 68.109 224.271 66.3644 222.017C66.2359 221.851 66.4474 221.618 66.6025 221.779C68.3851 223.625 70.4292 225.097 72.692 226.255C73.0628 223.537 73.5726 220.833 74.522 218.314ZM113.406 136.038C113.438 136.013 113.488 136.002 113.519 136.038C114.019 136.621 113.917 137.513 113.934 138.253L113.935 138.322C113.971 139.403 113.978 140.48 113.974 141.562L113.963 145.005C113.962 145.479 113.923 145.972 113.948 146.448L113.96 146.632C114.223 146.901 114.345 147.29 114.256 147.681C114.24 148.183 113.978 148.601 113.596 148.864L114.415 150.026L115.235 151.188C116.925 153.586 118.633 155.962 120.414 158.294C122.23 160.672 124.166 162.959 126.193 165.159C127.184 166.234 128.191 167.294 129.221 168.33C129.64 168.751 130.069 169.162 130.494 169.578L130.916 169.995C131.166 170.245 131.479 170.491 131.645 170.808C131.743 170.994 131.765 171.454 131.8 171.53C132.112 172.218 131.579 173.314 130.692 172.971L130.733 172.944C130.894 172.832 130.791 172.83 130.422 172.94C130.19 172.939 129.972 172.885 129.768 172.779L129.708 172.746C129.421 172.6 129.165 172.318 128.932 172.093L128.874 172.038C128.342 171.538 127.834 171.009 127.324 170.487C126.258 169.398 125.217 168.287 124.209 167.145C122.197 164.867 120.291 162.497 118.485 160.053C116.646 157.564 114.936 154.947 113.466 152.222C112.908 151.189 112.397 150.135 111.906 149.069C110.952 148.762 110.73 147.747 110.797 146.603C110.444 145.782 110.127 144.945 109.939 144.089C109.914 143.972 110.065 143.861 110.155 143.964C110.46 144.311 110.743 144.68 111.014 145.059C111.178 144.257 111.386 143.519 111.483 143.048L111.907 140.971C109.522 140.847 106.909 141.827 105.265 143.543C105.177 143.99 104.833 144.309 104.498 144.727C104.115 145.204 103.781 145.74 103.532 146.3C102.98 147.542 103.292 149.372 102.219 150.284C102.108 150.378 101.983 150.444 101.854 150.485C102.363 152.981 102.132 155.731 102.121 158.262L102.12 158.485C102.123 161.319 102.028 164.155 101.919 166.986L101.807 169.788C101.663 173.525 101.569 177.264 101.932 180.98C103.59 179.512 105.304 178.111 107.076 176.775C108.242 175.897 109.431 175.051 110.642 174.235L111.625 173.578C112.804 172.787 114.011 171.974 115.302 171.407C116.99 170.667 118.595 170.921 120.225 171.681C121.848 172.437 123.422 173.316 125.014 174.136C126.633 174.969 128.256 175.796 129.877 176.625C130.952 177.174 132.525 177.669 133.313 178.68C133.364 178.456 133.422 178.233 133.491 178.011C133.412 177.672 133.443 177.306 133.633 176.957C136.28 172.092 138.729 167.109 141.161 162.133C142.392 159.615 143.563 157.067 144.796 154.55L145.995 152.099C146.195 151.691 146.396 151.283 146.598 150.875C146.901 150.265 147.216 149.661 147.522 149.053C147.651 148.796 147.813 148.54 147.939 148.281L147.998 148.151C148.001 148.144 148.292 147.23 148.067 147.317L148.048 147.327C147.934 147.391 147.842 147.247 147.916 147.155C148.233 146.763 148.675 147.111 148.856 147.474C149.355 148.474 148.441 150.043 148.09 151.001L148.07 151.054C146.979 154.144 145.744 157.176 144.478 160.197C142.05 165.989 139.443 171.693 136.841 177.406L136.81 177.505C137.365 177.079 137.958 176.693 138.465 176.317C139.744 175.369 141.062 174.467 142.376 173.569C144.788 171.921 147.265 170.381 149.782 168.902L150.287 168.607C151.544 167.874 152.79 167.28 154.283 167.5C155.67 167.705 156.959 168.45 158.212 169.055L158.342 169.117L162.213 170.959C161.799 169.308 161.351 167.665 160.883 166.028C159.972 162.835 158.968 159.669 157.88 156.531C156.864 153.599 155.766 150.7 154.604 147.823L154.254 146.96C153.78 145.775 153.309 144.484 151.955 144.119C150.602 143.755 149.05 144.295 147.813 143.524C147.7 143.454 147.714 143.268 147.851 143.234L148.614 143.042C150.047 142.685 151.726 142.326 153.081 142.673C154.556 143.051 155.776 144.289 156.491 145.576C157.286 147.007 157.847 148.609 158.451 150.136L158.546 150.376C159.239 152.104 159.906 153.842 160.543 155.591C161.818 159.086 162.978 162.624 164.029 166.194C164.535 167.914 165.015 169.643 165.477 171.376C165.61 171.874 165.828 172.478 166.008 173.109C166.214 173.31 166.409 173.534 166.591 173.789C166.894 174.213 166.677 174.71 166.3 174.964C166.285 175.398 166.189 175.806 165.959 176.155C165.06 177.52 162.683 177.169 162.78 175.333C162.794 175.053 162.904 174.784 163.069 174.558L163.065 174.521L163.046 174.454C162.633 174.256 162.219 174.036 161.782 173.82L157.719 171.811C156.543 171.229 155.238 170.331 153.93 170.109C152.71 169.902 151.423 170.811 150.374 171.36L150.306 171.395C147.772 172.695 145.257 174.037 142.751 175.391C141.528 176.052 140.321 176.74 139.103 177.409C138.084 177.968 136.984 178.771 135.839 179.086C135.35 179.467 134.769 179.416 134.302 179.128C134.516 180.45 134.503 181.807 134.568 183.158C134.656 184.965 134.67 186.777 134.699 188.586L134.711 189.265C134.788 193.265 134.829 197.266 134.844 201.267C134.898 215.513 134.741 229.764 134.704 244.011C134.685 251.169 134.543 258.333 134.358 265.488C134.279 268.52 134.114 271.549 133.936 274.576L133.838 276.227C133.631 279.712 133.508 283.234 132.864 286.671C132.78 287.12 132.021 287.131 131.947 286.671C131.353 282.988 131.32 279.224 131.206 275.498L131.182 274.753C131.045 270.753 130.98 266.754 130.994 262.751C131.045 248.499 131.415 234.255 131.718 220.007C131.87 212.848 131.973 205.686 132.209 198.53C132.328 194.949 132.462 191.37 132.621 187.791C132.692 186.192 132.76 184.596 132.866 183L132.914 182.316C132.947 181.87 132.973 181.429 133.006 180.993C131.564 181.519 130.246 180.544 128.949 179.877C127.455 179.108 125.961 178.338 124.466 177.57L122.969 176.804L119.975 175.275C118.626 174.587 117.588 173.902 116.149 174.709C110.969 177.617 106.208 181.486 101.893 185.546C101.066 186.324 99.3176 186.115 99.108 184.81C98.2128 179.236 98.7573 173.581 99.2143 167.989L99.3828 165.913C99.5869 163.434 99.8093 160.954 100.106 158.485C100.238 157.381 100.37 156.277 100.516 155.174L100.628 154.348C100.811 153.041 100.93 151.742 101.319 150.489C101.197 150.449 101.078 150.384 100.973 150.284C99.8029 149.173 100.367 147.246 100.901 145.925C101.428 144.621 102.232 143.484 103.238 142.504C103.458 142.29 103.768 142.153 104.078 142.146C106.519 140.528 109.197 139.72 111.984 140.603C112.062 140.229 112.142 139.855 112.226 139.482L112.311 139.11C112.528 138.185 112.609 136.657 113.406 136.038ZM138.422 282.127C139.179 281.919 140.008 282.138 140.563 282.694C141.118 283.249 141.338 284.078 141.129 284.836C141.025 285.209 140.836 285.533 140.563 285.808C140.308 286.061 140.011 286.242 139.671 286.35L139.592 286.374L139.468 286.425C139.088 286.527 138.709 286.527 138.329 286.425C137.966 286.324 137.651 286.14 137.384 285.874C137.118 285.607 136.935 285.292 136.833 284.928C136.731 284.549 136.731 284.169 136.833 283.789L136.884 283.665C136.989 283.292 137.178 282.968 137.45 282.694C137.725 282.421 138.049 282.232 138.422 282.127ZM183.394 206.625C183.519 206.482 183.72 206.665 183.643 206.817C182.463 209.13 181.148 211.428 179.856 213.683C179.959 214.307 180.062 214.927 180.18 215.532C180.684 218.107 181.3 220.636 181.702 223.236C183.148 232.582 183.898 242.029 184.541 251.459C185.187 260.922 185.27 270.39 185.367 279.872C185.375 280.693 184.743 281.649 183.896 281.803C183.509 281.874 183.219 281.861 182.832 281.803C181.951 281.674 181.399 280.664 181.362 279.872C181.109 274.572 180.769 269.28 180.375 263.989C179.677 254.608 179.251 245.203 178.687 235.813L178.488 232.531C178.275 228.974 178.08 225.416 178.017 221.854C177.974 219.495 178.101 217.136 178.023 214.779C177.951 212.603 177.731 210.238 178.21 208.1C178.228 208.02 178.355 207.999 178.391 208.076C178.89 209.126 179.206 210.267 179.449 211.432C180.734 209.807 182.043 208.177 183.394 206.625ZM99.2258 149.149C99.4062 149.135 99.399 149.407 99.2258 149.427C96.7041 149.719 94.2681 150.746 91.887 151.618L91.6831 151.693C89.2776 152.566 86.9323 153.581 84.6753 154.791C80.2626 157.158 76.2105 160.209 72.6278 163.702C58.3239 177.645 51.8053 197.751 47.0287 216.646C44.3748 227.144 42.4875 237.82 41.2643 248.577C40.6594 253.897 40.2318 259.238 39.9825 264.586C39.8549 267.328 39.7744 270.071 39.7408 272.815C39.7235 274.221 39.7184 275.627 39.7201 277.032C39.721 277.676 39.8359 278.487 39.6637 279.113C39.504 279.692 39.0536 280.202 38.7204 280.685C38.3255 281.258 37.6159 281.228 37.2155 280.685L37.0679 280.488C36.6409 279.921 36.2232 279.379 36.1622 278.639C36.0969 277.845 36.1429 277.027 36.14 276.229C36.1332 274.623 36.1531 273.016 36.1852 271.41C36.2471 268.331 36.3684 265.254 36.5486 262.18C36.9145 255.942 37.5168 249.717 38.3792 243.528C39.9122 232.527 42.2099 221.631 45.2196 210.94C48.0591 200.855 51.4229 190.799 56.2148 181.457C60.6641 172.783 66.501 164.714 74.203 158.652C77.7846 155.833 81.6836 153.484 85.8872 151.715C88.0072 150.822 90.2336 150.094 92.4977 149.679C94.7368 149.268 96.966 149.325 99.2258 149.149ZM138.856 264.301C139.256 264.298 139.702 264.386 140.045 264.607L140.503 264.961C140.627 265.121 140.751 265.281 140.874 265.442C141.161 265.815 141.199 266.42 141.139 266.865C141.126 267.163 141.037 267.439 140.874 267.695L140.525 268.148C140.19 268.421 139.91 268.617 139.504 268.748C139.291 268.817 139.087 268.831 138.883 268.821L138.815 268.816L138.856 268.822L138.784 268.814C138.718 268.808 138.651 268.801 138.585 268.792C138.539 268.786 138.494 268.783 138.448 268.777C138.404 268.773 138.362 268.771 138.318 268.775C137.802 268.824 137.283 268.531 136.916 268.194C136.586 267.891 136.289 267.248 136.336 266.792L136.355 266.602C136.39 266.28 136.418 266.154 136.555 265.831C136.687 265.517 136.872 265.24 137.123 265.006C137.605 264.557 138.195 264.305 138.856 264.301ZM137.257 240.781C137.943 240.034 139.12 239.979 139.97 240.431C140.177 240.541 140.367 240.718 140.549 240.865C141.009 241.237 141.19 241.908 141.215 242.474C141.24 243.033 140.946 243.697 140.549 244.083L140.453 244.176C140.216 244.406 139.877 244.606 139.546 244.667C139.012 244.766 138.563 244.763 138.065 244.553C137.638 244.372 137.269 244.082 137.019 243.689L136.978 243.622C136.961 243.594 136.945 243.566 136.929 243.538L136.907 243.494C136.431 242.578 136.559 241.541 137.257 240.781ZM137.612 217.137C137.922 217.04 138.23 217.026 138.539 217.096C138.749 217.096 138.945 217.149 139.126 217.254C139.323 217.309 139.494 217.409 139.639 217.554C139.814 217.657 139.953 217.796 140.056 217.971C140.262 218.195 140.4 218.459 140.472 218.761L140.555 219.38L140.472 219.998L140.238 220.554C140.173 220.638 140.109 220.722 140.043 220.806C139.94 220.981 139.8 221.12 139.625 221.224C139.511 221.337 139.381 221.422 139.235 221.481C138.717 221.852 138.027 221.973 137.414 221.804C137.05 221.702 136.734 221.518 136.465 221.251C136.199 220.983 136.015 220.666 135.913 220.302L135.871 220.011C135.817 219.621 135.808 219.405 135.918 218.909C135.967 218.691 136.107 218.383 136.181 218.254C136.495 217.701 137.009 217.322 137.612 217.137ZM164.45 200.127C165.338 200.121 166.225 200.123 167.113 200.133L167.778 200.141C168.893 200.159 169.847 200.044 170.723 200.818C171.359 201.379 171.079 202.321 170.475 202.744C169.561 203.384 168.414 203.062 167.362 202.991C166.254 202.917 165.144 202.855 164.034 202.805C161.885 202.709 159.735 202.648 157.583 202.638C155.437 202.629 153.287 202.65 151.14 202.684C148.956 202.72 146.682 202.923 144.51 202.697C144.212 202.666 144.145 202.274 144.439 202.171C146.486 201.463 148.788 201.234 150.933 200.963C153.145 200.683 155.357 200.485 157.583 200.357C159.87 200.226 162.16 200.143 164.45 200.127ZM137.608 193.171L137.682 193.172C138.072 193.173 138.438 193.265 138.779 193.448L138.851 193.489L139.32 193.851C139.607 194.141 139.806 194.481 139.916 194.874L139.999 195.49C140.011 195.81 139.944 196.107 139.8 196.384C139.706 196.671 139.546 196.92 139.32 197.13C139.11 197.356 138.862 197.515 138.575 197.609C138.32 197.743 138.046 197.81 137.755 197.81L137.682 197.809C137.263 197.807 136.873 197.702 136.512 197.492L136.043 197.13C135.756 196.84 135.557 196.499 135.447 196.107L135.364 195.49C135.352 195.171 135.419 194.873 135.564 194.597C135.657 194.31 135.817 194.061 136.043 193.851C136.253 193.625 136.501 193.465 136.789 193.372C137.044 193.238 137.317 193.171 137.608 193.171ZM144.479 138.712C144.978 137.989 145.883 138.632 145.753 139.214C145.787 140.847 145.871 142.433 146.242 144.033C146.412 144.765 146.635 145.499 146.979 146.17L147.123 146.452C147.568 147.332 147.914 148.161 147.315 149.126C147.032 149.58 146.522 149.922 145.968 149.898C143.514 149.792 143.177 146.375 143.028 144.468C142.874 142.503 143.353 140.344 144.479 138.712Z" fill="black"/>
<path fill-rule="evenodd" clip-rule="evenodd" d="M92.9214 59.6854C94.0147 58.5092 95.4131 57.633 96.9417 57.353C95.5444 58.0527 94.1785 58.7821 92.9214 59.6854ZM90.7798 69.8268C90.5865 68.9305 90.4567 68.0255 90.4158 67.1207C90.6601 67.4931 91.0503 67.7419 91.4886 67.8704C91.2055 68.5059 90.9647 69.1607 90.7798 69.8268ZM163.939 83.8802C162.677 78.614 156.789 68.4846 155.398 66.535C153.887 61.7075 162.129 57.8361 157.646 54.0612C155.617 52.3579 152.935 51.7551 150.419 51.1511C132.999 46.9571 114.282 49.0722 98.1257 56.7846C95.6682 56.2662 93.1077 57.2794 91.3206 59.059C82.9246 67.5189 94.3668 82.783 96.8688 92.3204C101.162 102.955 92.3188 104.744 93.2671 113.742C94.0039 118.39 98.7004 119.619 102.664 120.321C103.299 120.47 104.148 120.493 104.353 121.166C104.995 125.095 107.197 128.839 110.152 131.381C109.894 132.148 110.091 133.08 111.002 133.754C119.26 139.906 129.672 142.985 139.971 142.431C152.244 141.772 158.592 134.719 160.123 132.903C168.592 121.438 167.58 106.311 165.852 92.6476C164.649 83.1293 166.175 93.2093 163.939 83.8802Z" fill="#D08B5B"/>
<path fill-rule="evenodd" clip-rule="evenodd" d="M126.095 40.0593C126.481 38.8504 127.573 38.1234 128.823 38.2734C129.93 38.4045 131.115 39.5056 130.98 40.7209C130.955 40.9555 130.921 41.1753 130.881 41.3824L130.886 41.3842L130.891 41.3845L130.864 41.4648C130.782 41.8516 130.668 42.1982 130.499 42.5258C130.284 43.1535 130.078 43.7833 129.873 44.4153C130.168 44.4026 130.47 44.4195 130.775 44.4765C131.092 43.665 131.41 42.8555 131.726 42.0418C132.066 41.1731 132.304 40.0572 132.974 39.3851C133.832 38.527 135.321 38.3495 136.366 38.9624C137.471 39.6091 137.865 40.7589 137.625 41.9911C137.503 42.6196 137.084 43.057 136.566 43.3318L136.51 43.3606L136.111 44.3075C136.234 44.2546 136.36 44.206 136.497 44.1659C136.712 44.1025 136.923 44.0623 137.13 44.0454C137.699 43.0119 138.325 42.008 138.972 41.0231C139.716 39.8902 141.171 39.4084 142.392 40.1248C143.484 40.7652 144.07 42.4476 143.288 43.5529C142.693 44.392 142.13 45.248 141.576 46.1124C141.671 46.1293 141.766 46.1504 141.856 46.1779C141.898 46.1209 141.943 46.0638 141.989 46.0067C142.594 45.2543 143.298 44.69 144.021 44.0644C144.698 43.4769 145.01 42.5533 145.9 42.1073C147.019 41.5472 148.369 41.8156 149.035 42.9316C150.464 45.3219 148.065 47.0677 146.53 48.5154C147.865 47.6806 149.254 46.9176 150.679 46.2582C151.48 45.8884 152.294 45.5312 153.121 45.2226C154.345 44.7661 155.336 44.9121 156.342 45.7616C156.791 46.142 157.014 46.9728 156.808 47.5263C156.407 48.5873 155.775 49.2319 154.666 49.5384C153.886 49.754 153.087 49.8998 152.307 50.1259C151 50.5021 149.73 50.9608 148.499 51.5335C148.588 51.5885 148.672 51.6477 148.75 51.7153C149.669 51.4173 150.605 51.1594 151.546 50.9396C153.105 50.5731 154.692 50.3254 156.286 50.1705L156.816 50.1211C158.727 49.9372 161.025 49.5979 162.199 51.4321C162.584 52.0365 162.626 53.0341 162.199 53.6322C161.381 54.782 160.567 55.0102 159.213 55.0314C160.546 55.173 161.876 55.3484 163.2 55.5534C164.112 55.6929 165.025 55.851 165.934 56.0265L166.388 56.1156C167.494 56.3375 168.73 56.4664 169.681 57.109C171.755 58.5123 170.781 61.2451 168.483 61.5367C167.372 61.6762 166.139 61.2049 165.049 60.9851C163.99 60.7717 162.928 60.5836 161.861 60.4187C161.309 60.332 160.756 60.256 160.202 60.1862C161.33 60.349 162.449 60.5793 163.539 60.9048L163.842 60.9964C165.949 61.6402 168.793 62.6655 169.451 64.9226C169.849 66.2942 168.759 67.4905 167.44 67.5708C166.213 67.6448 165.19 66.9114 164.149 66.3703C163.39 65.9772 162.618 65.6834 161.8 65.4319C160.955 65.172 160.092 64.9564 159.224 64.781C159.958 65.1864 160.673 65.632 161.359 66.1304L161.674 66.364C163.498 67.7264 166.28 69.8357 165.637 72.3896C165.435 73.1948 164.539 73.9641 163.678 73.8817C161.44 73.6725 160.204 71.2821 158.515 70.0013C158.075 69.6674 157.592 69.3377 157.086 69.0164C159.645 72.0768 161.682 75.6148 163.232 79.269C166.637 87.3083 167.682 94.7534 167.707 103.397L167.707 103.665C167.711 108.433 167.604 113.288 167.14 118.035C166.71 122.42 165.922 126.749 163.938 130.72C160.613 137.38 154.135 142.566 146.99 144.54C139.04 146.738 130.154 145.02 123.641 139.948C121.98 138.654 124.183 135.846 125.88 137.04C132.658 141.805 141.424 143.315 149.203 140.089C155.374 137.532 160.343 132.031 162.449 125.696C163.79 121.667 164.18 117.37 164.658 113.17L164.69 112.891C165.196 108.499 165.489 104.077 165.485 99.6559C165.479 91.4449 164.302 84.6859 160.7 77.2379C159.005 73.7295 156.806 70.4855 154.179 67.6384C153.382 67.8012 152.534 67.5729 151.729 67.4862C151.318 67.4419 150.907 67.3996 150.496 67.3616C150.916 67.6338 151.328 67.9168 151.732 68.2065L152.263 68.5903C153.925 69.7833 156.033 71.1421 155.606 73.4484C155.49 74.0719 154.87 74.6447 154.269 74.7863C152.092 75.3062 150.595 73.1843 149.123 71.9246C147.844 70.8298 146.505 69.8491 145.141 68.8664C144.831 68.6445 144.519 68.4225 144.205 68.2027C144.5 68.5477 144.787 68.898 145.067 69.2516L145.481 69.7776C146.734 71.3491 148.54 73.3917 147.424 75.4288C147.108 76.0037 146.433 76.3862 145.78 76.3735C143.532 76.327 142.638 73.7697 141.584 72.155C140.678 70.7706 139.693 69.4666 138.675 68.1626C138.395 67.8054 138.112 67.4482 137.825 67.091C133.105 67.3362 128.402 67.9618 123.78 68.9615C120.605 69.6484 117.483 70.5384 114.384 71.5125L114.127 71.5946C112.449 72.136 110.721 72.8288 109.512 74.017C109.339 74.8356 109.472 75.6989 109.637 76.5164L109.766 77.1422C110.296 79.7588 110.657 82.3271 110.387 85.0135C110.107 87.7843 109.274 90.2761 108.258 92.8504C107.777 94.0635 107.279 93.8437 107.109 95.1457C106.978 96.1373 107.059 97.161 107.148 98.161L107.223 99.0087C107.41 101.229 107.504 103.651 106.052 105.483C105.827 105.764 105.344 105.652 105.184 105.371C105.121 105.259 105.053 105.151 104.979 105.047C104.279 104.031 103.206 103.452 101.979 103.228C101.823 103.2 101.884 102.991 102.015 102.974C103.052 102.851 104.035 103.111 104.87 103.648C104.474 102.276 101.409 102.943 100.401 103.21L100.367 103.219C99.11 103.557 97.921 104.107 96.8732 104.885C94.765 106.449 93.5465 108.888 93.6076 111.515C93.6687 114.097 94.999 116.484 97.2843 117.72C98.3869 118.316 99.6413 118.603 100.889 118.591C102.192 118.578 103.352 118.005 104.657 118.086C105.412 118.132 105.989 118.944 105.553 119.652C105.262 120.125 104.882 120.497 104.444 120.782C105.513 123.253 106.877 125.61 108.449 127.784C109.32 128.991 110.307 130.105 111.393 131.122C112.24 131.916 114.076 132.836 113.973 134.161C113.937 134.639 113.69 134.93 113.256 135.108C111.906 135.661 110.264 133.756 109.361 132.837L109.289 132.764C108.163 131.64 107.136 130.397 106.242 129.078C104.657 126.736 103.672 124.096 103.265 121.324C101.1 121.977 98.233 121.364 96.4663 120.563C90.9133 118.048 89.0981 110.551 92.4734 105.559C93.1269 104.593 93.9449 103.767 94.8767 103.099C94.6722 102.987 94.4804 102.843 94.3096 102.661C93.365 101.655 92.6971 100.343 92.0343 99.1327L91.9548 98.988C91.3663 97.9228 90.8112 96.8409 90.2909 95.7423L90.0974 95.3295C88.9358 92.825 87.9175 91.7302 87.089 89.0968C86.2921 86.5564 85.6638 83.9673 85.2569 81.3339L85.1488 80.6369C84.9135 79.1088 84.691 77.4748 84.8627 75.9234C83.68 76.3101 82.491 76.549 81.3209 75.9677C80.5493 75.5852 80.1234 74.4693 80.387 73.6682C80.5788 73.0786 80.8993 72.6157 81.3061 72.2522C81.0637 72.1296 80.836 71.9732 80.6357 71.7999L80.4607 71.6479C79.7524 71.0306 79.7018 69.8576 80.1319 69.0841C80.174 69.0101 80.2162 68.934 80.2562 68.86C80.6652 68.1266 81.5106 67.6469 82.3455 67.6596C82.4804 67.6617 82.6153 67.6617 82.7524 67.6596C82.3624 67.5729 81.9808 67.4398 81.6182 67.2157C79.9822 66.2076 80.1888 63.4748 82.1684 62.9929C82.999 62.7922 83.9161 62.8746 84.8311 63.0902C84.7973 63.0711 84.7636 63.0521 84.7299 63.031C84.0384 62.6062 83.4586 61.7756 83.524 60.9238C83.5957 59.9812 83.8992 59.3091 84.7299 58.8146C85.4509 58.3876 86.4713 58.3475 87.1881 58.8146C87.81 59.2225 88.4193 59.6726 89.0054 60.1566C88.4172 59.4317 87.907 58.6434 87.7004 57.8064C87.4453 56.7645 87.8711 55.6295 88.8072 55.08C89.5535 54.6425 90.342 54.6911 91.0461 55.0293C91.0082 54.4819 91.141 53.9239 91.5036 53.4293C92.2457 52.4151 93.5949 51.8315 94.7692 52.5713C94.9231 52.6685 95.1297 52.8355 95.33 53.0405C94.94 51.7956 95.2921 50.4895 96.6223 49.9273C97.434 49.5828 98.5324 49.7561 99.2365 50.35C98.7896 47.9258 102.359 46.1441 103.746 48.6486C104.061 49.216 104.372 49.8134 104.651 50.4245L104.754 50.6543L104.764 50.6501L104.693 50.4821L104.621 50.314C104.235 49.4158 103.744 48.4816 103.609 47.5073C103.411 46.0659 104.052 44.6985 105.616 44.4871C106.423 44.3772 107.322 44.745 107.863 45.3877C107.57 43.1514 110.062 41.5261 111.856 43.1958C112.706 43.9862 113.159 45.1423 113.699 46.1568C114.005 46.7295 114.317 47.3002 114.622 47.8751C114.7 47.7821 114.785 47.6891 114.873 47.5982C114.42 46.2371 114.068 44.8422 113.771 43.4388C113.488 42.1158 114.148 40.742 115.51 40.3681C116.747 40.0255 118.297 40.7908 118.573 42.1117C118.767 43.0415 118.997 43.9611 119.25 44.876C119.423 44.8337 119.593 44.8041 119.762 44.783C119.776 44.6111 119.792 44.4383 119.81 44.2664L119.876 43.655C120.024 42.2581 120.172 40.6635 120.901 39.476C122.142 37.447 125.326 38.2882 125.359 40.687C125.378 41.9277 124.875 43.1577 124.7 44.3857C124.624 44.9204 124.579 45.4614 124.554 46.0025C124.894 44.206 125.359 42.4328 125.899 40.687C125.962 40.4778 126.03 40.2686 126.095 40.0593ZM98.6294 109.336C101.423 108.903 103.976 110.464 105.631 112.652C105.932 113.051 105.734 113.616 105.462 113.952C105.266 114.199 105.002 114.229 104.705 114.267C104.364 114.311 103.932 114.034 103.782 113.736C102.717 111.606 100.818 110.259 98.6294 109.431C98.5893 109.416 98.5766 109.344 98.6294 109.336ZM102.502 71.165L102.586 71.0739C103.152 70.4862 102.258 69.5883 101.692 70.1774C101.095 70.7975 100.699 71.5507 100.318 72.3141C99.9546 73.042 101.045 73.6849 101.41 72.9543L101.576 72.6222C101.837 72.1059 102.115 71.5957 102.502 71.165ZM94.6569 69.9586C95.458 69.8234 95.1183 68.6011 94.3206 68.736C93.2871 68.9105 92.2577 69.109 91.224 69.2838C90.4231 69.4191 90.7628 70.6413 91.5605 70.5067C92.594 70.3319 93.6234 70.1334 94.6569 69.9586ZM142.38 61.6143C141.606 61.3554 141.274 62.5798 142.044 62.8372C143.108 63.1929 144.162 63.5575 145.171 64.0514C145.9 64.4081 146.542 63.3148 145.81 62.9564C144.702 62.4143 143.548 62.0049 142.38 61.6143ZM94.4747 59.9708C93.7189 59.6678 93.3907 60.8938 94.1384 61.1937L96.8707 62.2891C97.6265 62.5922 97.9547 61.3664 97.207 61.0665L94.4747 59.9708ZM151.921 56.9934L151.821 56.9304C151.136 56.4853 150.501 57.5826 151.182 58.0254C151.582 58.2852 152.069 58.4614 152.435 58.7708L152.512 58.8393C153.103 59.3994 153.999 58.5045 153.406 57.9425C152.972 57.5318 152.423 57.3031 151.921 56.9934Z" fill="black"/>
<path fill-rule="evenodd" clip-rule="evenodd" d="M149.372 128.003C148.022 128.014 146.504 127.507 145.489 127.11L145.224 127.005C144.345 126.653 143.443 126.249 142.77 125.571C142.555 125.35 142.326 125.101 142.209 124.839C142.141 124.685 142.113 124.526 142.179 124.368C142.422 124.344 142.653 124.313 142.871 124.273C142.975 124.254 143.075 124.234 143.151 124.234C143.433 124.232 143.711 124.268 143.989 124.303C144.03 124.308 144.07 124.313 144.11 124.318C144.327 124.345 144.543 124.374 144.758 124.403C145.384 124.487 146.007 124.57 146.642 124.601C147.101 124.623 147.581 124.597 148.067 124.57C149.325 124.502 150.626 124.408 151.595 125.29C151.849 125.521 151.955 125.812 151.955 126.108C151.955 126.468 151.804 126.835 151.572 127.122C151.049 127.773 150.244 127.996 149.372 128.003ZM156.735 116.649C156.148 117.531 155.169 118.098 153.828 118.036C151.163 117.914 147.981 116.908 145.749 115.453C145.168 115.075 144.791 114.469 144.723 113.82L144.603 112.666L143.953 113.627C143.885 113.727 143.817 113.827 143.748 113.927C143.56 114.202 143.372 114.477 143.195 114.759C142.514 115.842 141.889 116.935 141.322 118.082C140.921 118.894 140.628 119.802 140.333 120.718C139.837 122.265 139.357 123.787 138.295 124.874C138.135 125.038 137.888 125.097 137.662 125.068C137.463 125.043 137.268 124.945 137.172 124.75C135.904 122.17 137.61 119.061 138.994 116.9L139.14 116.674C140.423 114.721 142.519 112.136 144.919 111.784L145.194 112.223L145.593 111.956C146.246 111.52 147.109 111.54 147.864 111.881L148.619 112.222C150.025 112.853 151.411 113.436 152.932 113.755C153.043 113.778 153.153 113.799 153.264 113.82C153.368 113.839 153.473 113.856 153.579 113.873C153.556 113.769 153.532 113.666 153.508 113.563C153.482 113.454 153.456 113.345 153.428 113.236C153.399 113.124 153.369 113.012 153.338 112.901C153.216 112.457 153.078 112.017 152.915 111.586C152.301 109.968 151.321 108.454 150.367 107.01L150.255 106.84C150.118 106.633 149.968 106.417 149.813 106.194C149.069 105.122 148.244 103.959 148.186 102.792C149.173 102.854 150 103.468 150.727 104.002C151.725 104.735 152.65 105.573 153.489 106.483C155.117 108.249 156.578 110.507 157.218 112.841C157.585 114.178 157.424 115.616 156.735 116.649ZM130.693 103.334L130.693 103.286C130.696 101.938 131.481 98.8613 133.42 98.8613C134.632 98.8613 135.367 100.956 135.495 103.114L135.499 103.202C135.555 104.545 135.187 107.478 133.42 107.478C131.635 107.478 130.712 104.7 130.693 103.334ZM159.247 102.911L159.248 102.863C159.245 101.516 158.46 98.4386 156.521 98.4386C155.339 98.4386 154.61 100.429 154.457 102.53L154.446 102.692C154.37 103.989 154.714 107.056 156.521 107.056C158.306 107.056 159.229 104.277 159.247 102.911ZM137.225 94.2128C136.968 94.243 136.712 94.2824 136.457 94.3231C135.711 94.4419 134.969 94.5846 134.233 94.7509C132.833 95.0669 131.446 95.4658 130.084 95.9167C128.81 96.3388 127.556 96.8157 126.302 97.2927C126.235 97.3181 126.168 97.3436 126.102 97.369C125.659 97.5374 125.218 97.7261 124.775 97.9154C124.102 98.2035 123.425 98.4935 122.734 98.7121C124.554 96.1958 127.357 94.3313 130.054 92.9971C131.593 92.2358 133.226 91.622 134.868 91.119L135.783 90.844C137.129 90.4466 138.602 90.0794 139.867 90.8719C140.367 91.1854 140.687 91.6727 140.787 92.1995C140.886 92.7161 140.773 93.27 140.417 93.7323C140.106 94.1349 139.719 94.3643 139.307 94.4429C138.852 94.5296 138.37 94.4344 137.931 94.2C137.58 94.1738 137.476 94.1832 137.372 94.1948L137.225 94.2128ZM157.485 94.4688C156.584 94.2728 155.691 94.1941 154.767 94.2223C154.348 94.2349 153.944 94.2995 153.54 94.3646C152.914 94.4656 152.289 94.5699 151.614 94.4473C151.262 94.3833 150.962 94.1772 150.73 93.9082C150.459 93.5936 150.28 93.1916 150.223 92.8094C150.163 92.4146 150.222 92.0692 150.368 91.7643C150.541 91.4041 150.832 91.1005 151.183 90.8346C152.246 90.0296 154.069 90.2232 155.324 90.3859C156.563 90.5472 157.796 90.9317 158.892 91.5424C159.973 92.1452 160.913 92.9573 161.646 93.9499C162.264 94.7865 162.555 95.7494 162.856 96.7298C161.442 95.5428 159.277 94.858 157.485 94.4688Z" fill="black"/>
<path fill-rule="evenodd" clip-rule="evenodd" d="M154.773 123.403C155.352 123.997 155.908 124.633 156.432 125.29C156.577 126.335 156.611 127.391 156.478 128.482C156.284 130.063 155.853 131.608 155.27 133.091C154.925 133.043 154.585 132.946 154.254 132.793C153.201 132.309 152.614 131.335 151.902 130.475C150.485 128.765 147.899 127.755 146.09 129.528C145.304 130.299 144.801 131.367 144.1 132.214C143.329 133.146 142.463 134.032 141.558 134.835C141.447 134.936 141.33 135.046 141.21 135.154C140.707 134.579 140.213 134 139.729 133.413C138.29 131.663 137.048 129.725 136.395 127.539C136.188 126.846 136.059 126.123 136.008 125.394C136.649 124.599 137.38 123.877 138.21 123.278C140.713 121.471 143.597 121.178 146.597 121.021C149.701 120.861 152.496 121.072 154.773 123.403ZM162.345 131.787C162.225 130.578 162.039 129.321 161.764 128.065C160.761 123.407 158.587 118.764 154.228 116.636C152.166 115.628 149.823 115.272 147.601 115.759C143.701 114.298 139.37 115.788 136.3 118.46C132.679 121.611 131.008 126.556 130.446 131.189C130.055 134.412 129.908 138.719 130.822 141.057C131.736 143.396 137.546 149.649 145.839 149.693C157.651 149.755 160.522 141.786 160.87 141.089C162.326 138.189 162.664 134.987 162.345 131.787Z" fill="black"/>
<path fill-rule="evenodd" clip-rule="evenodd" d="M166.747 108.863C164.808 111.287 157.215 113.977 153.174 111.057C149.134 108.136 147.537 106.1 146.997 102.451C146.939 102.061 146.236 101.803 145.938 102.079C144.273 103.626 143.196 105.596 142.128 107.572C140.923 109.8 139.737 112.042 137.549 113.55C133.672 115.629 126.659 115.925 124.588 115.008C120.619 113.252 117.479 109.495 116.765 104.325C116.765 104.325 116.039 102.032 115.403 101.55C114.8 101.092 111.472 100.685 111.107 100.617C104.537 99.3977 96.2274 98.6203 90.3755 102.911C89.5836 103.39 86.8724 105.189 86.8323 104.747C86.804 103.014 88.767 99.0916 93.2314 97.2253C98.7522 94.9174 106.959 94.7825 111.713 95.2918C111.952 95.3174 112.767 95.117 112.825 95.0921C120.028 91.9724 128.316 92.8009 136.023 94.1121C137.127 94.3265 147.014 96.7755 150.946 95.2918C157.448 92.6364 164.381 90.7126 171.402 91.4694C171.461 91.4758 172.347 96.8581 171.657 97.2253C171.107 97.5175 170.172 98.2663 169.84 98.676C169.543 99.0424 169.356 99.4978 169.373 100.129C169.506 103.779 168.465 106.715 166.747 108.863ZM140.013 105.606C140.838 104.413 141.098 101.733 140.753 99.7776C140.578 98.7876 140.239 97.9996 139.813 97.6073C139.53 97.3466 139.207 97.2238 138.854 97.2421C138.661 97.2521 138.452 97.307 138.231 97.4265C135.232 95.8038 131.599 95.2196 128.156 95.3876C125.415 95.3871 123.459 96.0344 122.133 97.0419C120.537 98.2543 119.818 99.9971 119.776 101.887C119.727 104.13 120.648 106.584 122.159 108.525C123.605 110.383 125.583 111.761 127.729 112.079C130.165 112.562 132.647 112.094 134.806 110.95C137.019 109.775 138.889 107.89 140.013 105.606ZM164.051 106.871C165.441 105.229 166.364 103.092 166.505 100.975C166.633 99.048 166.117 97.1395 164.691 95.5622C163.399 94.4521 161.114 94.4338 158.711 95.0519C155.604 95.8512 152.389 97.6375 151.318 98.7912C151.065 98.9236 150.831 99.1541 150.627 99.6487L150.625 99.825C150.301 101.323 150.493 102.843 151.055 104.245C151.665 105.768 152.711 107.15 153.987 108.205C155.681 109.602 157.45 110.029 159.106 109.804C160.982 109.548 162.726 108.438 164.051 106.871Z" fill="white"/>
<path fill-rule="evenodd" clip-rule="evenodd" d="M150.722 94.6984C157.307 92.0092 164.345 90.0709 171.47 90.839C172.059 90.6147 172.79 90.8037 173.052 91.6372C175.59 99.3716 169.93 97.2207 170.006 100.112C170.599 116.323 148.819 119.092 146.369 102.543L146.324 102.57C142.801 105.859 142.059 111.212 137.908 114.072C129.535 120.198 117.665 115.345 116.141 104.439L116.108 104.291C115.596 102.066 114.984 101.514 112.46 101.525L112.061 101.446C105.504 100.153 96.7716 98.9916 90.7318 103.437C89.4181 104.201 89.3564 106.165 88.2464 107.019C87.0303 107.255 86.2812 105.792 86.1988 104.78C86.0061 94.6849 104.063 93.9587 112.15 94.825C112.304 94.6651 112.634 94.6849 112.745 94.8842C120.059 91.7165 128.299 92.1548 136.13 93.487C140.98 94.4264 145.772 96.5664 150.722 94.6984ZM170.814 92.7027C166.863 92.5051 163.209 92.7213 159.331 93.6713C157.287 94.1646 155.719 94.7883 153.762 95.5384C141.56 100.947 140.152 91.3333 112.8 95.1017C113.154 96.6179 113.219 98.1191 113.238 99.5437C118.823 99.3185 117.508 104.653 119.6 108.401L119.665 108.514C122.714 113.981 129.91 116.531 135.714 112.905C140.557 110.081 141.03 102.919 145.851 100.077C150.031 99.9127 148.361 105.556 150.636 107.875C153.837 112.149 160.642 112.746 164.657 108.726C166.54 106.792 167.541 104.336 167.597 101.698C167.702 100.012 167.413 98.299 168.687 97.1133C169.58 96.2058 171.166 96.5087 171.348 95.1368C171.464 94.3256 171.127 93.4458 170.814 92.7027ZM127.876 94.9122C131.801 94.7188 135.953 95.4006 139.323 97.3262C141.818 95.3404 142.429 103.233 140.773 105.515C138.388 110.398 132.834 113.608 127.487 112.542C119.145 111.333 113.332 94.8976 127.876 94.9122ZM139.084 97.8554L138.87 97.8242C135.255 97.2724 125.411 94.7158 121.614 98.7509C117.93 105.444 127.278 116.687 137.005 107.732C139.713 104.974 140.762 101.631 139.084 97.8554ZM150.541 98.7109C152.413 96.4932 161.955 92.0011 165.281 94.8838C171.351 101.689 161.724 115.455 153.661 108.749C150.976 106.507 149.209 102.935 149.982 99.4762L149.983 99.3312C149.985 99.2786 149.995 99.2906 150.051 99.2251C150.15 98.9637 150.329 98.7967 150.541 98.7109ZM165.196 102.836C167.243 91.7279 158.687 95.9507 151.66 98.9155C152.038 99.2602 152.036 99.7309 151.928 100.118C151.186 108.359 161.2 113.03 165.196 102.836ZM112.008 95.3648C109.077 96.3578 89.691 94.582 87.9001 103.673C89.7906 100.609 93.7058 99.3932 97.2255 98.7333C102.013 97.8357 106.774 98.3554 111.495 99.3L111.592 98.3227C111.697 97.286 111.807 96.3163 112.008 95.3648Z" fill="black"/>
</svg>
