<?xml version="1.0" encoding="UTF-8" standalone="no"?><svg width="240" height="324" viewBox="0 0 240 324" fill="none" xmlns="http://www.w3.org/2000/svg">
<path fill-rule="evenodd" clip-rule="evenodd" d="M194.636 251.934C193.785 247.123 193.004 242.299 192.295 237.465C191.958 235.169 191.63 232.872 191.334 230.571C191.127 228.959 190.812 227.115 191.909 225.921C193.452 224.24 194.853 222.802 195.042 220.395C195.22 218.129 194.454 215.66 193.975 213.462C192.971 208.851 191.722 204.297 190.341 199.786C188.938 195.204 187.399 190.664 185.838 186.133C184.379 181.897 182.977 177.622 181.076 173.558C177.47 165.845 171.369 160.132 163.828 156.318C161.953 155.37 158.127 151.984 156.168 151.226C154.367 150.528 154.373 152.564 152.601 151.797C151.183 151.184 149.864 150.367 149.07 148.998C148.209 147.512 146.048 145.433 145.719 143.703C145.022 140.035 145.777 136.914 143.161 134.154C140.838 131.703 137.716 130.024 134.486 129.123C127.38 127.14 117.903 128.526 113.615 135.132C111.568 138.286 110.852 142.1 108.089 144.674C105.676 146.922 106.216 148.459 103.091 149.617C102.914 149.683 98.1164 148.654 97.9394 148.72C94.5206 147.988 91.2531 150.037 88.1166 151.226C83.4406 152.998 78.9888 155.304 74.8063 158.045C66.3727 163.573 59.1495 170.752 53.1945 178.874C47.1903 187.064 42.5316 196.244 39.2145 205.838C38.4089 208.168 37.6853 210.527 37.0471 212.908C36.6898 214.241 36.3081 215.624 36.7431 216.988C37.0989 218.105 37.8903 218.936 38.8196 219.606C40.0794 220.514 42.6064 221.104 42.5572 222.931C42.5196 224.32 42.0487 225.781 41.8188 227.153C41.5452 228.787 41.3204 230.431 41.0956 232.073C40.0731 239.544 39.2772 247.057 38.9253 254.592C38.5788 262.011 38.2913 269.581 38.8057 276.998C38.8397 277.487 38.9855 277.936 39.2206 278.315C39.0011 278.399 38.9842 278.808 39.2574 278.866C39.4488 278.907 39.6398 278.948 39.8312 278.988C40.2288 279.289 40.7246 279.474 41.2953 279.492C41.6821 279.504 42.0687 279.521 42.4551 279.541C46.5328 280.394 50.6099 281.199 54.7408 281.809C59.7622 282.551 64.7984 283.155 69.8502 283.646C80.2308 284.656 90.5297 284.321 100.924 283.777C111.302 283.234 121.675 283.107 132.064 283.377C142.462 283.648 152.856 284.1 163.257 284.285C174.876 284.492 186.478 284.174 198.064 283.25C199.652 283.124 200.635 281.859 200.322 280.281C198.445 270.825 196.318 261.431 194.636 251.934Z" fill="#D08B5B"/>
<path fill-rule="evenodd" clip-rule="evenodd" d="M88.1166 151.225L88.3436 151.138C91.4106 149.939 94.603 148.005 97.9394 148.719C98.0574 148.676 100.228 149.118 101.715 149.399L100.304 150.873L97.8131 151.352C106.406 165.54 116.569 172.633 128.302 172.633C140.035 172.633 148.938 165.54 155.011 151.352L155.84 151.123C155.943 151.147 156.052 151.18 156.168 151.225C158.127 151.983 161.953 155.37 163.828 156.318C171.369 160.132 177.47 165.844 181.076 173.558C182.913 177.487 184.285 181.612 185.693 185.709L185.838 186.133C187.399 190.664 188.938 195.203 190.341 199.786C191.662 204.101 192.863 208.455 193.843 212.86L193.975 213.461C194.454 215.66 195.22 218.129 195.042 220.394C194.975 221.252 194.754 221.987 194.427 222.653L177.431 228.771L185.528 284.017C178.111 284.335 170.688 284.417 163.257 284.285C152.856 284.1 142.462 283.647 132.064 283.377C121.989 283.115 111.931 283.226 101.868 283.729L99.3119 283.859C89.4641 284.352 79.6939 284.604 69.8502 283.646L69.1794 283.58L69.1793 275.499L72.6371 230.5L55.1136 227.201L37.9118 218.842C37.3921 218.323 36.975 217.716 36.7431 216.988C36.3402 215.724 36.6379 214.445 36.9679 213.204L37.0471 212.908C37.6853 210.526 38.4089 208.168 39.2145 205.837C42.5316 196.243 47.1903 187.064 53.1945 178.874C59.1495 170.751 66.3727 163.573 74.8063 158.045C78.9888 155.304 83.4406 152.997 88.1166 151.225Z" fill="#EC7495"/>
<path fill-rule="evenodd" clip-rule="evenodd" d="M94.6975 148.487C95.772 148.44 96.8676 148.614 97.9396 148.72C98.033 148.729 98.0685 148.873 97.9633 148.895C96.0448 149.296 94.1473 149.844 92.2631 150.401L91.4564 150.64C89.3317 151.269 87.2693 151.918 85.2124 152.756C81.113 154.428 77.2195 156.684 73.6362 159.275C59.8379 169.256 49.8513 184.366 43.5492 200.01C41.8377 204.259 40.3876 208.613 39.2129 213.041C38.9273 214.118 38.6585 215.199 38.4038 216.284C38.329 216.602 38.003 217.417 38.1817 217.742C38.3397 218.03 38.9541 218.208 39.2395 218.357L40.2031 218.857C42.0828 219.826 45.2137 221.419 45.5277 221.575L46.0174 221.816C54.0267 225.744 62.5845 229.075 71.5975 229.305L71.668 228.535C72.0699 224.278 72.5972 219.999 73.7482 215.873C73.8101 215.651 74.0921 215.726 74.1179 215.923C74.7591 220.808 74.5542 225.73 74.3304 230.637C73.9343 239.328 73.4083 248.015 72.9407 256.702C72.7066 261.048 72.4041 265.391 72.1309 269.735C71.8573 274.087 71.7688 278.544 71.1441 282.861C71.0049 283.823 69.8784 284.346 69.0253 284.245C68.0814 284.132 67.3552 283.301 67.3508 282.347C67.3394 279.833 67.6552 277.288 67.8308 274.78C67.9975 272.397 68.1764 270.015 68.3598 267.633C69.0299 258.94 69.8009 250.257 70.5139 241.568C70.7666 238.486 71.0395 235.407 71.3205 232.328C61.7727 232.02 52.8528 228.482 44.3433 224.349C44.2202 227.146 43.9227 229.939 43.6347 232.725C42.8309 240.499 42.1221 248.271 41.5916 256.07C41.3237 260.009 41.1287 263.953 40.9588 267.897C40.8754 269.836 40.8073 271.774 40.7552 273.714C40.7377 274.36 40.7219 275.007 40.708 275.654L40.6789 277.135C40.6552 278.073 40.5598 278.943 39.7704 279.626C38.9687 280.32 37.8857 280.357 37.0922 279.626C36.0299 278.647 36.2178 277.314 36.2492 276C36.2754 274.891 36.3069 273.783 36.3435 272.675C36.4168 270.459 36.5104 268.243 36.6242 266.028C37.0227 258.285 37.8189 250.573 38.8594 242.892L39.2656 239.927C40.0241 234.415 40.8568 228.777 42.5524 223.468C41.8922 223.139 41.2339 222.808 40.5781 222.476C39.4149 221.887 38.2121 221.334 37.0814 220.684C36.1844 220.168 35.4107 219.46 35.161 218.416C34.8825 217.252 35.3084 215.98 35.5913 214.845L35.6159 214.745C35.8933 213.602 36.192 212.464 36.5072 211.331C37.7854 206.737 39.3659 202.232 41.2155 197.837C44.919 189.038 49.6994 180.679 55.5386 173.121C60.7947 166.317 67.0039 160.148 74.2812 155.52C77.839 153.258 81.6304 151.4 85.64 150.087C87.5142 149.473 89.5533 148.939 91.5156 148.72C92.574 148.601 93.634 148.533 94.6975 148.487ZM113.736 134.544C115.012 133.173 117.549 134.592 116.936 136.408C115.494 140.682 113.198 144.58 109.614 147.388C106.245 150.027 102.228 151.742 97.9013 151.376C97.8679 151.373 97.839 151.364 97.8134 151.352L98.1862 151.858C101.113 155.819 104.201 159.725 107.923 162.963C115.506 169.559 125.831 173.117 135.8 170.586C143.644 168.595 150.555 162.39 152.587 154.482C152.296 154.613 151.95 154.658 151.57 154.575C149.943 154.222 148.334 152.511 147.285 151.284C146.15 149.957 145.264 148.524 144.615 146.904C143.426 143.94 143.045 140.123 144.668 137.252C144.868 136.898 145.33 137.096 145.37 137.442L145.431 137.981C145.744 140.672 146.134 143.275 147.402 145.729C148.023 146.929 148.767 148.101 149.673 149.106C150.157 149.644 150.683 150.158 151.25 150.609C151.803 151.049 152.472 151.366 152.967 151.871L153.058 151.967L153.061 151.95C153.186 150.885 153.933 150.415 154.664 150.445C155.371 150.473 156.201 150.785 156.523 150.934L156.554 150.948C161.487 153.317 166.031 156.405 170.307 159.831C179.15 166.917 185.775 176.179 188.986 187.086C190.561 192.44 191.465 197.956 192.42 203.446L193.007 206.81C193.898 211.879 194.893 217.047 196.904 221.762C197.424 222.981 197.023 224.125 195.748 224.605C194.155 225.204 192.557 225.784 190.956 226.356C191.742 229.73 192.221 233.221 192.81 236.611C194.062 243.818 195.596 250.979 196.911 258.176C197.584 261.856 198.191 265.549 198.862 269.229C199.186 271.001 199.524 272.771 199.852 274.543C200.029 275.498 200.189 276.456 200.358 277.413L200.387 277.572C200.484 278.076 200.605 278.598 200.467 279.103C200.308 279.679 199.859 280.086 199.458 280.499C199.128 280.839 198.65 280.841 198.246 280.656L198.113 280.594C197.39 280.256 196.824 279.919 196.568 279.103C196.405 278.587 196.347 278.005 196.241 277.473C196.037 276.454 195.845 275.433 195.662 274.409C195.298 272.36 194.942 270.31 194.595 268.258L194.271 266.337C193.157 259.715 192.1 253.054 191.565 246.362C191.328 243.394 191.077 240.428 190.823 237.461L190.633 235.236C190.392 232.42 190.098 229.533 190.056 226.678L189.099 227.018L184.427 228.67C183.269 229.08 181.795 229.919 180.548 229.766C179.938 229.691 179.473 229.499 179.114 229.15C179.544 235.223 180.126 241.285 180.902 247.316C181.608 252.804 182.391 258.285 183.315 263.74C183.773 266.442 184.244 269.141 184.755 271.832C185.01 273.179 185.274 274.523 185.545 275.866C185.681 276.536 185.842 277.206 185.948 277.882C186.069 278.655 185.856 279.131 185.424 279.768C185.069 280.29 184.359 280.559 183.784 280.198C183.022 279.72 182.625 279.305 182.4 278.434C182.197 277.643 182.073 276.817 181.915 276.016C181.625 274.537 181.343 273.056 181.072 271.574C180.504 268.473 179.981 265.364 179.514 262.246C177.867 251.263 176.822 240.187 176.294 229.093C176.034 223.62 175.953 218.142 175.999 212.663C176.023 209.854 176.115 207.038 176.313 204.237C176.514 201.401 176.933 198.622 177.306 195.813C177.319 195.714 177.459 195.709 177.465 195.813C177.641 198.962 177.919 202.107 178.055 205.264C178.184 208.276 178.241 211.294 178.344 214.307C178.48 218.268 178.667 222.232 178.916 226.192C179.366 225.7 180.045 225.416 180.724 225.526C181.708 225.32 182.766 224.804 183.704 224.49L187.24 223.309C189.098 222.688 190.957 222.071 192.822 221.473C191.154 215.861 190.012 210.165 189.037 204.387L188.602 201.788C187.74 196.672 186.812 191.554 185.252 186.6C183.613 181.392 181.159 176.55 177.904 172.165C174.696 167.844 170.792 164.039 166.773 160.48C163.332 157.433 159.651 154.682 156.141 151.719C156.178 151.915 156.186 152.131 156.154 152.369C155.407 157.832 152.559 162.92 148.588 166.704C140.612 174.307 128.805 175.884 118.596 172.319C108.72 168.871 99.9894 160.704 96.9047 150.597C96.8519 150.425 97.0835 150.356 97.1764 150.483C97.3475 150.718 97.5195 150.952 97.6917 151.187C97.6801 151.094 97.7285 150.992 97.8434 150.948C101.443 149.557 104.977 147.586 107.675 144.797C108.99 143.437 110.137 141.897 111.043 140.235C111.477 139.44 111.867 138.616 112.178 137.764L112.257 137.544C112.634 136.477 112.949 135.389 113.736 134.544Z" fill="black"/>
<path fill-rule="evenodd" clip-rule="evenodd" d="M162.394 89.5609C161.893 83.0632 162.67 76.2526 160.17 70.0765C155.813 59.8292 143.595 56.4125 134.122 52.5112C130.328 51.3871 117.558 51.23 113.115 49.7422C103.059 46.375 100.656 42.363 92.6655 48.7743C91.3167 49.8695 90.4728 51.0599 89.8572 52.6862L89.8825 52.6932C89.7066 53.3712 89.8951 54.0477 90.2913 54.5645C86.8266 58.1147 85.3768 63.4374 87.1544 68.1634C92.9556 80.4616 92.6828 87.1114 90.8137 100.333C88.3728 112.675 93.9505 117.184 103.188 123.9C102.812 124.631 102.734 125.603 103.224 126.248C113.906 141.296 134.046 148.48 151.303 140.843C158.307 137.717 161.434 130.239 163.219 123.491C165.298 115.936 165.937 107.974 164.244 100.277C163.562 96.7179 162.672 93.1841 162.394 89.5609Z" fill="#D08B5B"/>
<path fill-rule="evenodd" clip-rule="evenodd" d="M85.8867 71.1282L92.2381 75.37L114.973 51.3422L107.407 45.3726C107.407 45.3726 93.6814 55.5424 90.9826 58.2264C88.2838 60.9105 85.8867 71.1282 85.8867 71.1282Z" fill="#9FD8E5"/>
<path fill-rule="evenodd" clip-rule="evenodd" d="M100.78 17.5712C102.076 17.376 103.055 18.1824 103.521 19.3191L103.546 19.3803C103.695 19.7671 103.862 20.1433 104.041 20.5132C107.286 18.9175 111.915 19.3275 113.969 22.559C115.434 24.867 114.54 27.6061 113.988 30.0535L113.625 31.6661C114.326 32.1133 114.855 32.9141 114.83 33.7433L114.827 33.8071L114.679 36.0559C115.147 35.5803 115.575 35.0625 115.957 34.5109C116.22 34.0269 116.505 33.5514 116.811 33.0906C118.609 30.379 122.646 32.7356 121.162 35.6395C120.877 36.1996 120.557 36.7301 120.213 37.2415C119.825 37.9961 119.507 38.7717 119.262 39.5685C119.965 39.875 120.504 40.5555 120.561 41.5827C120.694 43.9815 119.437 45.983 117.439 47.2405C116.851 47.6104 116.244 47.6822 115.693 47.5449C115.596 47.6759 115.499 47.8069 115.407 47.9401C116.203 48.5889 116.922 49.3287 117.54 50.1487C119.4 49.8697 121.27 49.7387 123.139 49.7345C125.425 48.6122 128.161 48.6354 130.617 49.056C132.199 49.3266 133.716 49.8528 135.272 50.2311C136.912 50.6285 138.578 50.6433 140.237 50.9138C142.329 51.2541 144.163 52.222 145.316 53.767C146.583 53.8051 147.915 54.325 149.02 55.0309C151.592 56.6752 154.149 58.3428 156.715 59.9976C157.7 60.633 158.068 61.6472 157.887 62.7785L157.875 62.8509L157.788 63.3201L157.991 63.6088C158.776 64.7204 159.631 65.8847 160.139 67.1117C161.079 68.4707 161.929 69.8952 162.681 71.364C163.695 73.3381 164.532 75.4304 165.099 77.5778C165.241 78.1209 165.382 78.6683 165.475 79.2221C165.607 80.0041 165.403 80.6106 165.291 81.3609C165.152 82.312 165.101 83.2758 164.954 84.2289C164.855 84.8609 164.319 85.1716 163.759 85.1885C163.969 86.7968 164.121 88.4158 164.267 90.022C164.471 92.3173 164.61 94.6189 164.73 96.9205C165.35 97.823 166.617 98.5374 167.532 98.7846C168.799 99.1249 170.127 98.7551 171.325 98.3218C172.078 98.0491 172.695 98.9981 172.328 99.6321C171.175 101.623 168.709 101.615 166.841 100.733C166.05 100.361 165.357 99.8224 164.842 99.1207C164.874 99.7886 164.908 100.456 164.941 101.126L164.973 101.733C165.352 108.82 166.172 116.151 164.844 123.168C162.544 135.323 152.511 144.578 140.254 145.296C133.822 145.674 128.466 143.769 125.803 142.707C123.139 141.644 124.175 139.478 126.024 140.097C129.209 141.164 135.06 142.753 140.296 142.067C152.638 140.45 163.103 134.266 162.028 107.632C161.875 103.855 161.406 100.076 161.305 96.2992C161.208 92.6069 161.243 88.9125 161.081 85.2223L161.027 83.9632C160.964 82.4921 160.896 81.0141 160.786 79.5412C160.653 78.9705 160.544 78.3914 160.381 77.8314C159.941 76.3075 159.365 74.826 158.65 73.412C158.492 73.5325 158.315 73.6192 158.123 73.653C156.667 73.915 155.3 73.8411 153.936 73.2324C153.3 72.9513 152.739 72.5772 152.216 72.1143C151.967 71.8967 151.801 71.6853 151.67 71.4655C151.01 71.4761 150.35 71.2774 149.937 70.8019C149.466 70.2598 149.387 69.7 149.572 69.1818L149.591 69.1301L149.545 69.1132C148.988 70.5567 147.879 71.8269 146.663 72.685C144.74 74.0461 142.335 74.4392 140.028 74.4751C137.482 74.5132 134.796 74.1201 132.283 73.7185C131.619 73.6128 130.959 73.4923 130.312 73.3296C130.286 73.355 130.261 73.3846 130.234 73.4099C128.077 75.479 125.043 76.0116 122.307 74.8302C120.726 74.1475 119.4 73.0485 118.227 71.7889C118.21 72.4483 118.177 73.1077 118.12 73.7608L118.096 74.0201C117.98 75.2364 117.755 76.5266 116.838 77.4044C115.356 78.8268 113.206 78.2562 111.496 77.3305C111.498 77.3749 111.498 77.4213 111.498 77.4678C111.96 79.0403 112.423 80.6148 112.887 82.1894L112.987 82.5248C113.324 83.6429 113.694 84.7623 113.796 85.9324C113.99 88.1685 112.506 90.3771 110.026 89.6268C108.726 89.2347 107.684 88.1385 106.684 87.2605L106.054 86.7144C107.684 92.0552 108.814 97.5863 108.92 103.16C108.926 103.462 108.667 103.69 108.38 103.701C107.709 103.728 106.988 103.595 106.314 103.327C106.276 103.324 106.238 103.322 106.198 103.316C105.047 103.149 103.978 102.733 103.036 102.118C103.253 102.809 103.35 103.551 103.293 104.326C103.278 104.514 102.985 104.58 102.943 104.373C102.399 101.691 99.2681 99.6639 96.5696 100.177C93.6729 100.729 91.5394 103.227 91.0166 106.07C90.4558 109.124 91.5289 112.656 93.5169 115.012C94.4319 116.098 95.6357 117.005 97.065 117.233C97.7186 117.337 98.3974 117.301 99.032 117.115C99.3019 117.035 99.5549 116.923 99.8121 116.817C100.187 116.665 100.626 116.642 100.98 116.481C101.783 116.12 102.591 116.861 102.184 117.688C101.83 118.409 101.511 118.895 100.923 119.267C101.4 119.85 101.832 120.661 101.992 120.879C102.81 121.987 103.641 123.033 104.572 124.045C105.521 125.072 106.556 126.011 107.65 126.879L108.11 127.244C109.164 128.082 110.082 128.858 110.825 130.06C111.411 131.009 110.653 132.296 109.554 132.282C106.118 132.233 103.619 129.206 101.84 126.562C101.587 126.184 101.349 125.785 101.128 125.375C101.047 125.504 100.959 125.624 100.86 125.734L101.056 126.262C101.638 127.818 99.1311 128.834 98.4038 127.382C97.8746 126.33 97.2611 125.328 96.578 124.381C96.1754 124.324 95.7811 124.079 95.5619 123.762C95.0074 122.957 94.3855 122.143 93.8605 121.285C93.5696 121.008 93.2703 120.742 92.9646 120.482C92.876 120.56 92.7854 120.638 92.6989 120.721C92.3152 121.598 91.8409 122.399 91.2527 123.153L91.1266 123.314C89.9998 124.738 88.532 126.195 86.7158 126.543C86.1613 126.649 85.628 125.958 86.1192 125.516C87.3904 124.371 88.8936 123.591 90.0658 122.312C90.6433 121.682 91.1735 120.988 91.6295 120.261L91.7334 120.093C91.8093 119.968 91.8873 119.844 91.9674 119.717C91.4382 119.355 90.909 118.992 90.3799 118.628C88.9232 119.876 87.0262 120.447 85.4149 121.48L85.2548 121.585C83.798 122.562 82.2632 120.402 83.4312 119.216C84.7187 117.914 85.7935 116.361 86.934 114.914C86.3977 113.923 86.1438 112.752 86.0488 111.569C86.0112 111.234 85.9819 110.898 85.9526 110.563C85.1346 110.576 84.3124 110.295 83.6167 109.811L83.3532 109.623C82.5078 109.893 81.6202 110.024 80.7706 110.001C78.772 109.942 77.954 107.653 79.2042 106.205C80.4797 104.726 82.7123 104.402 84.4811 105.121C84.538 105.091 84.597 105.06 84.654 105.028C84.5696 104.639 84.5884 104.286 84.6843 103.976L84.6565 103.788C84.2675 103.189 84.0118 102.506 83.9148 101.784C83.8381 101.213 83.8537 100.646 83.9857 100.081C84.0295 99.8936 84.1208 99.6989 84.1906 99.503C84.0468 99.1391 83.9623 98.7629 83.9361 98.3846C83.8958 98.3366 83.8558 98.2873 83.8178 98.2341C82.9402 96.9987 83.1175 95.5102 83.9528 94.5105C83.9566 94.4469 83.9625 94.3833 83.9711 94.3201C83.9222 94.2097 83.8773 94.0984 83.8364 93.9857C83.0203 93.1604 82.4211 92.1673 82.5329 90.9366C82.5984 90.2125 82.8953 89.5607 83.3445 89.0735C83.2649 88.8372 83.2573 88.5635 83.3538 88.3351C82.6368 86.4232 82.7275 84.1205 83.2436 81.9823C83.1297 81.6568 83.0707 81.3039 83.0833 80.9298C83.1424 79.3425 84.5127 77.8842 86.136 77.9032C86.3315 77.9049 86.5145 77.9305 86.6903 77.9679L86.6926 77.9301C86.7548 77.4537 86.8855 77.0134 87.0763 76.6184C86.9825 76.5844 86.8956 76.5356 86.8195 76.4707C85.7793 77.027 84.6786 77.4522 83.5246 77.742C82.676 77.955 81.8068 76.9881 82.3343 76.1896C82.5791 75.8191 82.8491 75.4864 83.14 75.1825C82.7264 75.1848 82.3065 75.2129 81.8817 75.2677C81.1185 75.367 80.2668 74.845 79.7713 74.1391C79.1557 74.7393 78.538 75.3374 77.9203 75.9356C76.356 77.4552 73.9927 76.3371 73.746 74.3335C73.2801 74.2088 72.8458 73.9975 72.4642 73.6952C69.9976 74.7689 67.3434 75.3586 64.6301 75.4706C62.6821 75.5509 61.5437 73.2768 62.4544 71.6705C63.0658 70.5926 63.8248 69.6246 64.6997 68.7835C63.342 69.1998 61.94 69.4999 60.5085 69.6923C59.7348 69.7958 58.6406 69.1533 58.3307 68.4411C57.1459 65.702 57.2471 62.8466 58.6111 60.1815C58.6638 60.0758 58.7229 59.9744 58.7798 59.8729C58.921 59.52 59.0749 59.1712 59.2415 58.8289C57.5633 57.0747 57.4179 54.4666 58.3223 52.2833C57.9597 51.6937 57.8205 50.9835 58.0672 50.341C58.7692 48.4917 59.7812 46.784 61.0588 45.3172C60.9365 45.0805 60.829 44.829 60.7383 44.5585C60.0194 42.371 60.8522 39.7312 62.5324 38.2074C63.5886 37.2479 64.803 36.673 66.0995 36.3053C66.6456 35.3373 67.3476 34.4644 68.1656 33.7289C68.1972 33.6592 68.2288 33.5894 68.2647 33.5197C69.538 31.1145 71.8571 29.8253 74.3427 29.5273C74.4396 28.5867 75.0721 27.6885 75.9913 27.3968C76.2443 26.5831 76.6216 25.8054 77.1403 25.0995C77.9561 23.9878 79.3117 23.4636 80.5893 24.1928C81.2892 24.5922 81.9597 25.0509 82.5879 25.5581C82.8701 25.4254 83.19 25.3396 83.5509 25.3122L83.642 25.3066L85.7207 25.2009C86.5914 24.8141 87.46 24.4084 88.3307 24.0131C88.8535 23.5799 89.4375 23.2185 90.0742 22.95C90.7952 22.6478 91.5331 22.4766 92.2731 22.4195C92.8739 22.223 93.479 22.0497 94.0946 21.9144C95.5408 21.5974 97.0545 21.4199 98.5556 21.4347C98.5863 21.0452 98.6015 20.651 98.5986 20.2522L98.5956 20.0524C98.5619 18.7738 99.5801 17.7529 100.78 17.5712ZM99.3229 119.875C99.1163 119.92 98.9076 119.956 98.6989 119.981C98.7622 120.137 98.8254 120.294 98.8865 120.45C99.0552 120.545 99.226 120.636 99.3967 120.721C99.3461 120.433 99.3166 120.144 99.3229 119.875ZM88.4916 116.649L88.3514 116.907C88.3287 116.95 88.3063 116.991 88.2843 117.033C88.5816 117.009 88.8809 117.016 89.1761 117.05L89.1753 117.018C89.1373 117.005 89.0994 116.993 89.0631 116.976C88.8594 116.877 88.6701 116.768 88.4916 116.649ZM94.3454 104.844C96.2106 104.953 97.7909 105.24 99.4872 106.058L99.6329 106.129C101.132 106.875 103.611 108.253 103.402 110.229C103.343 110.791 102.936 111.383 102.296 111.339C100.539 111.218 99.5359 109.443 98.3468 108.336C97.1473 107.22 95.6736 106.072 94.2211 105.305C94.0157 105.197 94.0966 104.855 94.32 104.844L94.3454 104.844ZM85.8873 78.8078C85.4403 78.8226 85.59 79.258 85.8198 78.8945C85.8388 78.8649 85.862 78.8353 85.8873 78.8078ZM110.013 49.7425C105.78 49.8541 101.52 52.3596 98.349 54.8923C95.5903 57.0956 93.2083 59.7163 91.099 62.541C90.5563 63.9478 90.0904 65.3839 89.6968 66.8306C89.4375 67.7859 89.2752 68.7518 89.058 69.7155L88.9906 70.011C88.82 70.3305 88.6933 70.6744 88.601 71.0297C88.9853 71.416 89.4839 71.6927 90.0329 71.8239C90.2098 71.8662 90.3567 71.9577 90.4729 72.079C90.9147 71.3397 91.301 70.5594 91.5257 69.7322L91.5339 69.694C92.3833 68.2993 93.3059 66.9479 94.2948 65.6428C97.0229 62.0393 100.027 58.7549 103.638 56.0221C106.377 53.9509 109.438 52.3277 112.693 51.2731C111.897 50.6287 110.992 50.1189 110.013 49.7425Z" fill="black"/>
<path fill-rule="evenodd" clip-rule="evenodd" d="M143.153 128.274C141.732 127.694 140.465 126.727 139.539 125.492C139.217 125.063 139.133 124.61 139.201 124.195C139.277 123.729 139.553 123.306 139.929 123.023C140.306 122.738 140.778 122.598 141.234 122.67C141.63 122.732 142.025 122.949 142.337 123.399L142.402 123.489C142.953 124.235 143.671 124.846 144.489 125.24C145.277 125.62 146.158 125.798 147.071 125.695C148.808 125.498 150.006 124.558 151.278 123.282C151.436 123.121 151.594 122.954 151.753 122.786C151.853 122.632 151.992 122.534 152.146 122.482C152.318 122.425 152.512 122.428 152.689 122.49C152.86 122.55 153.014 122.663 153.116 122.814C153.214 122.958 153.269 123.135 153.251 123.338C153.135 124.661 152.443 125.842 151.461 126.769C150.371 127.798 148.925 128.511 147.564 128.76C146.064 129.036 144.536 128.839 143.153 128.274ZM148.271 107.866C149.867 108.836 152.297 111.098 150.581 113.503C148.561 115.624 145.652 113.192 144.219 112.093C142.89 111.241 141.397 113.432 142.63 114.428C152.987 122.099 157.19 108.12 149.078 106.725C148.185 106.572 147.853 107.566 148.271 107.866ZM129.711 98.9426C129.887 96.7538 133.22 96.2568 133.551 98.4227C133.848 100.363 133.499 102.145 132.625 103.892C131.79 105.561 129.692 104.782 129.534 103.263C129.321 101.226 129.601 100.304 129.711 98.9426ZM155.077 97.9736C155.541 97.3649 156.212 96.9494 157.016 97.1842C159.527 97.9182 158.787 101.484 157.905 103.22C157.426 104.163 155.877 104.402 155.177 103.572C154.036 102.218 153.49 99.5154 154.94 98.1822C154.979 98.1133 155.023 98.0438 155.077 97.9736ZM132.59 89.3651L132.986 89.2957C134.213 89.0834 135.739 88.8794 136.607 89.8662C137.067 90.3895 137.226 91.3622 136.607 91.8631C135.518 92.7444 134.315 92.4028 133.011 92.4775C131.936 92.5392 130.903 92.7171 129.867 93.0132C127.596 93.6627 125.745 94.8484 123.805 96.1503C123.55 96.3211 123.29 95.9954 123.412 95.7572C124.532 93.5627 126.702 91.7601 128.876 90.6613C130.036 90.0748 131.306 89.5883 132.59 89.3651ZM152.788 88.3821L153.091 88.4442C156.395 89.1351 160.687 90.515 162.252 93.7613C162.311 94.2203 162.248 94.3187 162.197 94.3829L162.18 94.4043C162.138 94.4592 162.104 94.5349 161.905 94.5974C161.85 94.5842 161.794 94.5703 161.738 94.5555C161.021 94.3675 160.453 94.1085 159.904 93.8398L159.309 93.5462C158.618 93.2073 157.921 92.8807 157.182 92.6396C155.605 92.1252 153.984 91.7628 152.337 91.5693C151.98 91.5274 151.637 91.4069 151.365 91.2004C151.108 91.0044 150.911 90.733 150.822 90.3722C150.706 89.9053 150.739 89.5518 150.989 89.1306C151.178 88.8143 151.447 88.5951 151.756 88.4692C152.072 88.3408 152.431 88.3106 152.788 88.3821Z" fill="black"/>
<path fill-rule="evenodd" clip-rule="evenodd" d="M152.746 131.526C150.778 129.772 148.573 126.247 145.746 129.036C145.047 129.824 144.764 131.591 143.695 131.938C142.275 132.398 140.868 130.896 140.384 129.742C138.405 123.33 146.588 121.571 151.25 122.607C153.527 123.543 155.205 127.309 155.306 129.275C155.372 130.596 154.254 132.538 152.746 131.526ZM167.589 121.643C167.57 121.558 167.543 121.481 167.511 121.411C166.641 121.082 165.952 121.417 165.527 122.044C165.541 122.2 165.587 122.358 165.616 122.512C165.288 123.204 164.992 124.06 164.547 124.658C164.459 124.665 164.368 124.656 164.281 124.63C156.905 125.401 160.506 117.681 153.024 115.763C147.241 114.809 136.789 115.902 134.061 121.923C131.91 131.542 120.97 124.84 117.378 119.838C113.545 115.285 111.067 109.723 108.677 104.325C108.172 103.182 106.597 103.999 106.768 105.095C104.559 109.528 104.633 114.851 104.086 119.707C103.155 129.394 102.249 142.979 111.246 148.894C122.969 162.15 152.242 166.827 165.762 154.648C170.443 144.581 169.866 132.301 167.589 121.643Z" fill="black"/>
<path fill-rule="evenodd" clip-rule="evenodd" d="M166.085 109.758C164.663 111.67 162.026 112.278 159.593 112.068C154.347 111.563 152.696 105.603 152.524 100.97C156.042 101.96 152.227 94.9488 164.252 94.1778C168.491 93.8244 167.322 96.3856 169.195 98.2569C169.157 102.184 168.503 106.452 166.085 109.758ZM141.098 105.245C138.001 119.755 121.041 116.304 119.259 103.224C120.905 102.062 120.471 99.1942 122.515 98.155C125.754 96.0846 129.803 96.1732 133.482 96.2218C138.184 96.5449 139.523 98.4934 141.939 100.619C141.822 102.039 141.487 103.722 141.098 105.245ZM172.804 91.7748C172.63 91.7458 172.456 91.7185 172.282 91.693C172.146 91.6158 171.986 91.5564 171.801 91.5207C171.377 91.4131 170.957 91.3406 170.537 91.3016C164.509 89.9445 150.564 91.8714 149.988 97.0173C148.069 97.6583 146.408 97.0843 144.183 97.1414C142.489 90.0601 113.211 91.0596 111.803 95.3288C111.798 95.3274 111.792 95.3261 111.787 95.3244C110.434 94.9055 108.439 95.0065 106.891 94.9402C103.584 94.8708 100.274 95.1657 97.0388 95.8633C90.9807 96.8265 82.7127 97.954 86.926 105.522C86.9269 105.523 86.9275 105.525 86.9286 105.526L86.9292 105.525C87.6553 106.27 88.8876 105.67 88.9335 104.662C87.5169 101.077 90.7164 100.647 93.1781 99.6163C99.3033 97.4149 105.54 97.1097 111.875 97.7906C112.351 98.352 113.074 98.8415 113.839 99.0976C118.074 99.801 115.842 102.944 118.52 103.401C118.028 114.358 131.325 120.339 139.03 113.136C142.106 110.128 142.839 105.67 143.553 101.653C143.93 101.568 144.17 101.362 144.31 101.089C145.217 100.183 145.786 99.3464 147.58 99.0976C149.373 98.8491 150.754 99.3481 150.941 99.5009C150.988 99.5958 151.038 99.6909 151.097 99.786C151.179 99.9278 151.291 100.041 151.417 100.13C149.646 111.041 158.113 117.941 166.661 112.282C170.375 108.787 171.16 103.436 171.315 98.6597C171.818 98.3558 172.137 97.7668 171.963 97.0262C171.723 96.0054 172.286 95.1215 173.183 94.6777C174.349 94.1013 174.142 91.9965 172.804 91.7748Z" fill="black"/>
</svg>
