<?xml version="1.0" encoding="UTF-8" standalone="no"?><svg width="60" height="60" viewBox="0 0 60 60" fill="none" xmlns="http://www.w3.org/2000/svg">
<path fill-rule="evenodd" clip-rule="evenodd" d="M51.6034 71.749C51.3453 70.2956 51.1087 68.8383 50.8937 67.3779C50.7917 66.6845 50.6921 65.9905 50.6026 65.2954C50.5399 64.8083 50.4444 64.2514 50.7767 63.8907C51.2444 63.383 51.6691 62.9485 51.7264 62.2212C51.7802 61.5369 51.5482 60.791 51.4031 60.1268C51.0988 58.734 50.72 57.3583 50.3015 55.9957C49.8762 54.6113 49.41 53.2399 48.937 51.8712C48.4948 50.5914 48.0697 49.3002 47.4938 48.0723C46.4007 45.7422 44.5516 44.0166 42.2662 42.8644C41.6978 42.5779 40.5385 41.5549 39.9447 41.3259C39.3988 41.1153 39.4008 41.7302 38.8635 41.4986C38.434 41.3135 38.0341 41.0666 37.7936 40.653C37.5325 40.204 36.8776 39.576 36.778 39.0534C36.5667 37.9455 36.7955 37.0026 36.0026 36.1688C35.2987 35.4284 34.3525 34.9212 33.3735 34.6489C31.2198 34.0499 28.3476 34.4686 27.0482 36.4642C26.4275 37.4172 26.2106 38.5691 25.3732 39.3468C24.6419 40.0259 24.8056 40.4902 23.8585 40.8402C23.8048 40.8601 22.3509 40.5491 22.2972 40.569C21.2611 40.3479 20.2708 40.9668 19.3202 41.3259C17.903 41.8612 16.5538 42.5581 15.2862 43.3862C12.7302 45.0561 10.541 47.2246 8.73625 49.6784C6.91654 52.1524 5.50462 54.9255 4.4993 57.8237C4.25515 58.5277 4.03585 59.2402 3.84242 59.9597C3.73415 60.3624 3.61844 60.78 3.75028 61.1923C3.85811 61.5295 4.09796 61.7806 4.37963 61.983C4.76143 62.2573 5.52729 62.4356 5.51237 62.9874C5.50097 63.4069 5.35825 63.8484 5.28859 64.2629C5.20567 64.7566 5.13754 65.2532 5.06942 65.7491C4.75951 68.006 4.51831 70.2757 4.41164 72.5519C4.30663 74.793 4.21949 77.08 4.3754 79.3204C4.38571 79.4682 4.42989 79.6038 4.50115 79.7184C4.43463 79.7438 4.42951 79.8675 4.5123 79.885C4.57031 79.8973 4.62819 79.9095 4.6862 79.9217C4.8067 80.0127 4.95698 80.0684 5.12992 80.0738C5.24716 80.0775 5.36434 80.0828 5.48144 80.0888C6.71728 80.3464 7.95292 80.5897 9.20488 80.774C10.7267 80.9979 12.2531 81.1805 13.7841 81.329C16.9302 81.6339 20.0515 81.5328 23.2018 81.3684C26.3472 81.2042 29.4907 81.1659 32.6393 81.2475C35.7907 81.3293 38.941 81.466 42.0931 81.5219C45.6146 81.5843 49.1308 81.4884 52.6422 81.2093C53.1236 81.1711 53.4215 80.7891 53.3265 80.3123C52.7576 77.4556 52.1129 74.618 51.6034 71.749Z" fill="#D08B5B"/>
<path fill-rule="evenodd" clip-rule="evenodd" d="M19.3202 41.326L19.389 41.2996C20.3185 40.9375 21.286 40.3532 22.2972 40.569C22.333 40.5557 22.9909 40.6895 23.4416 40.7743L23.0138 41.2195L22.2589 41.3643C24.8632 45.6502 27.9433 47.7931 31.4993 47.7931C35.0553 47.7931 37.7536 45.6502 39.5942 41.3643L39.8454 41.295C39.8764 41.3022 39.9094 41.3124 39.9447 41.326C40.5385 41.555 41.6978 42.5779 42.2662 42.8645C44.5516 44.0167 46.4007 45.7422 47.4938 48.0724C48.0505 49.2593 48.4663 50.5054 48.8928 51.7432L48.937 51.8712C49.41 53.24 49.8762 54.6113 50.3015 55.9957C50.7018 57.2991 51.0658 58.6144 51.363 59.9453L51.4031 60.1269C51.5482 60.7911 51.7802 61.537 51.7264 62.2213C51.706 62.4803 51.6389 62.7023 51.5399 62.9036L46.389 64.7518L48.843 81.4409C46.5951 81.537 44.3452 81.5619 42.0931 81.522C38.941 81.466 35.7907 81.3293 32.6393 81.2476C29.5861 81.1684 26.5377 81.2021 23.4877 81.3539L22.7132 81.3934C19.7286 81.5422 16.7675 81.6182 13.7841 81.329L13.5809 81.3091L13.5808 78.8679L14.6288 65.2742L9.31788 64.2773L4.1045 61.7524C3.94698 61.5954 3.82057 61.4122 3.75028 61.1923C3.62818 60.8105 3.71841 60.424 3.81843 60.0491L3.84242 59.9597C4.03585 59.2402 4.25515 58.5277 4.4993 57.8237C5.50462 54.9255 6.91654 52.1525 8.73625 49.6784C10.541 47.2246 12.7302 45.0562 15.2862 43.3862C16.5538 42.5581 17.903 41.8613 19.3202 41.326Z" fill="#EC7495"/>
<path fill-rule="evenodd" clip-rule="evenodd" d="M21.3145 40.4987C21.6402 40.4846 21.9722 40.5371 22.2971 40.569C22.3254 40.5717 22.3362 40.6153 22.3043 40.6219C21.7229 40.743 21.1478 40.9087 20.5767 41.077L20.3323 41.1492C19.6883 41.3391 19.0633 41.535 18.4399 41.7884C17.1974 42.2933 16.0174 42.9748 14.9314 43.7577C10.7495 46.7726 7.72287 51.3373 5.81287 56.0633C5.29417 57.3468 4.85467 58.6621 4.49867 59.9997C4.4121 60.3251 4.33066 60.6518 4.25344 60.9795C4.23077 61.0756 4.13197 61.3217 4.18614 61.42C4.23404 61.5069 4.42023 61.5606 4.50674 61.6058L4.79878 61.7568C5.36845 62.0495 6.31735 62.5308 6.41251 62.5777L6.56092 62.6505C8.98832 63.8371 11.582 64.8433 14.3135 64.913L14.3349 64.6804C14.4567 63.3945 14.6165 62.1017 14.9654 60.8553C14.9841 60.7883 15.0696 60.8109 15.0774 60.8704C15.2717 62.346 15.2096 63.833 15.1418 65.3154C15.0218 67.9409 14.8623 70.565 14.7206 73.1894C14.6497 74.5023 14.558 75.8143 14.4752 77.1265C14.3923 78.4413 14.3655 79.7877 14.1761 81.0916C14.1339 81.3823 13.7925 81.5403 13.534 81.5097C13.2479 81.4757 13.0278 81.2245 13.0265 80.9365C13.023 80.1768 13.1188 79.4082 13.172 78.6505C13.2225 77.9306 13.2767 77.211 13.3323 76.4915C13.5354 73.8654 13.769 71.2424 13.9851 68.6174C14.0617 67.6864 14.1444 66.7562 14.2296 65.8261C11.3359 65.7331 8.63254 64.6644 6.05356 63.4156C6.01623 64.2608 5.92608 65.1044 5.83881 65.946C5.59517 68.2947 5.38036 70.6425 5.21958 72.9984C5.13839 74.1883 5.07929 75.3797 5.02781 76.5712C5.00252 77.1568 4.9819 77.7425 4.96609 78.3285C4.96079 78.5238 4.95601 78.7191 4.95178 78.9144L4.94298 79.3619C4.93579 79.6454 4.90688 79.908 4.66764 80.1144C4.42465 80.324 4.09644 80.3352 3.85594 80.1144C3.534 79.8188 3.59093 79.416 3.60047 79.019C3.60841 78.6842 3.61795 78.3493 3.62902 78.0146C3.65124 77.345 3.67961 76.6757 3.71412 76.0066C3.83489 73.6675 4.07618 71.3378 4.39153 69.0174L4.51463 68.1217C4.74451 66.4566 4.99689 64.7536 5.51078 63.1495C5.31069 63.0503 5.11118 62.9504 4.91243 62.85C4.55988 62.672 4.19536 62.505 3.85268 62.3085C3.58081 62.1527 3.34633 61.9389 3.27065 61.6235C3.18624 61.272 3.31531 60.8876 3.40106 60.5447L3.40851 60.5146C3.49258 60.1693 3.58311 59.8255 3.67865 59.4833C4.06602 58.0953 4.54503 56.7344 5.10561 55.4067C6.22804 52.7486 7.67684 50.2234 9.44654 47.9402C11.0395 45.885 12.9214 44.0212 15.1269 42.6233C16.2052 41.9399 17.3542 41.3787 18.5695 40.982C19.1375 40.7966 19.7555 40.6353 20.3502 40.5689C20.671 40.5332 20.9922 40.5127 21.3145 40.4987ZM27.0844 36.2867C27.4714 35.8724 28.2403 36.3012 28.0545 36.8499C27.6174 38.1408 26.9214 39.3183 25.8352 40.1666C24.8142 40.964 23.5967 41.4819 22.2855 41.3714C22.2754 41.3705 22.2666 41.3679 22.2589 41.3643L22.3719 41.5171C23.259 42.7137 24.1948 43.8937 25.3228 44.8717C27.621 46.8644 30.7501 47.9392 33.7717 47.1746C36.149 46.5731 38.2434 44.6987 38.8593 42.3098C38.771 42.3492 38.6661 42.3627 38.5509 42.3377C38.0581 42.2311 37.5702 41.7142 37.2523 41.3436C36.9085 40.9428 36.6399 40.5099 36.4431 40.0206C36.0829 39.125 35.9674 37.972 36.4593 37.1045C36.52 36.9976 36.6599 37.0575 36.6718 37.1619L36.6906 37.3249C36.7854 38.1379 36.9035 38.9243 37.2879 39.6654C37.476 40.0281 37.7015 40.3821 37.976 40.6858C38.1229 40.8483 38.2822 41.0035 38.4541 41.1398C38.6216 41.2725 38.8244 41.3685 38.9745 41.5208L39.0021 41.5501L39.0028 41.5448C39.0408 41.223 39.2671 41.0812 39.4886 41.09C39.7029 41.0986 39.9547 41.1927 40.0522 41.2378L40.0614 41.2421C41.5566 41.9578 42.9337 42.8907 44.2297 43.9257C46.9097 46.0661 48.9177 48.8642 49.8906 52.1592C50.3682 53.7763 50.6422 55.4427 50.9314 57.1012L51.1095 58.1174C51.3795 59.6486 51.681 61.2099 52.2905 62.6342C52.4481 63.0026 52.3266 63.3482 51.94 63.4931C51.4574 63.674 50.9729 63.8492 50.4877 64.0222C50.726 65.0414 50.8713 66.0959 51.0498 67.1201C51.4292 69.2972 51.8941 71.4604 52.2928 73.6347C52.4966 74.7464 52.6805 75.8618 52.8841 76.9736C52.9821 77.509 53.0844 78.0437 53.1839 78.5788C53.2375 78.8674 53.2861 79.1569 53.3373 79.4459L53.3462 79.4938C53.3755 79.6463 53.4123 79.804 53.3703 79.9565C53.3223 80.1305 53.1861 80.2534 53.0645 80.3782C52.9644 80.4809 52.8198 80.4815 52.6972 80.4255L52.6568 80.4069C52.4378 80.3047 52.2663 80.2029 52.1886 79.9565C52.1394 79.8005 52.1217 79.6248 52.0895 79.4641C52.0279 79.1561 51.9694 78.8476 51.9142 78.5383C51.8038 77.9194 51.696 77.3001 51.5907 76.6803L51.4924 76.0999C51.155 74.0996 50.8345 72.0872 50.6725 70.0658C50.6006 69.1691 50.5245 68.2731 50.4476 67.3769L50.3899 66.7047C50.3169 65.854 50.2277 64.9817 50.2151 64.1195L49.9249 64.2222L48.5092 64.7212C48.1582 64.8449 47.7113 65.0984 47.3335 65.0523C47.1486 65.0297 47.0076 64.9716 46.8987 64.8661C47.0291 66.7006 47.2056 68.532 47.4407 70.354C47.6547 72.0118 47.892 73.6674 48.1722 75.3155C48.3109 76.1316 48.4535 76.9469 48.6084 77.7601C48.6858 78.1667 48.7657 78.5728 48.848 78.9784C48.8891 79.1808 48.9379 79.3834 48.97 79.5875C49.0066 79.8212 48.942 79.9649 48.8111 80.1572C48.7036 80.3151 48.4885 80.3962 48.3142 80.2872C48.0833 80.1427 47.9628 80.0176 47.8949 79.7544C47.8332 79.5155 47.7957 79.266 47.7479 79.0239C47.6597 78.5771 47.5745 78.1298 47.4922 77.6818C47.3202 76.7451 47.1616 75.806 47.0199 74.8642C46.5208 71.5461 46.2041 68.2003 46.0442 64.849C45.9653 63.1956 45.9409 61.5407 45.9549 59.8855C45.9621 59.0371 45.9898 58.1863 46.05 57.34C46.111 56.4834 46.2378 55.6439 46.351 54.7955C46.3549 54.7656 46.3972 54.7639 46.399 54.7955C46.4526 55.7467 46.5366 56.6968 46.5778 57.6504C46.6171 58.5604 46.6343 59.4719 46.6655 60.3822C46.7066 61.5788 46.7635 62.7761 46.8389 63.9726C46.9753 63.8238 47.181 63.738 47.3868 63.7715C47.6849 63.7091 48.0058 63.5531 48.29 63.4584L49.3615 63.1015C49.9248 62.914 50.488 62.7277 51.0533 62.547C50.5479 60.8516 50.2017 59.131 49.9061 57.3853L49.7743 56.6002C49.5133 55.0549 49.2319 53.5088 48.7592 52.0123C48.2623 50.439 47.5187 48.9763 46.5322 47.6516C45.5598 46.3462 44.3767 45.1967 43.1586 44.1215C42.1157 43.2011 41.0002 42.37 39.9365 41.4749C39.9476 41.5342 39.95 41.5995 39.9402 41.6713C39.7141 43.3217 38.8506 44.8587 37.6473 46.0019C35.2299 48.2985 31.6515 48.775 28.5574 47.6981C25.5645 46.6563 22.9184 44.1892 21.9835 41.1362C21.9675 41.084 22.0376 41.0632 22.0658 41.1016C22.1177 41.1725 22.1698 41.2433 22.222 41.3142C22.2185 41.2861 22.2331 41.2554 22.268 41.242C23.3588 40.822 24.4299 40.2264 25.2476 39.3838C25.6461 38.9731 25.9939 38.5078 26.2685 38.0059C26.4 37.7655 26.5181 37.5166 26.6124 37.2594L26.6363 37.1928C26.7505 36.8706 26.846 36.542 27.0844 36.2867Z" fill="black"/>
<path fill-rule="evenodd" clip-rule="evenodd" d="M41.8319 22.6977C41.6801 20.7348 41.9153 18.6774 41.1579 16.8117C39.8373 13.7161 36.1343 12.6839 33.2634 11.5054C32.1133 11.1658 28.2434 11.1183 26.8967 10.6689C23.8489 9.65171 23.1207 8.43973 20.699 10.3765C20.2902 10.7074 20.0344 11.067 19.8479 11.5583L19.8555 11.5604C19.8023 11.7652 19.8594 11.9696 19.9794 12.1257C18.9294 13.1982 18.49 14.8061 19.0287 16.2338C20.7869 19.9489 20.7043 21.9577 20.1378 25.9517C19.398 29.6804 21.0884 31.0424 23.888 33.0712C23.7741 33.2921 23.7504 33.5856 23.899 33.7804C27.1364 38.3263 33.2404 40.4967 38.4703 38.1894C40.5932 37.2452 41.541 34.9861 42.0818 32.9477C42.7119 30.6652 42.9055 28.2601 42.3925 25.9351C42.1857 24.8598 41.9161 23.7923 41.8319 22.6977Z" fill="#D08B5B"/>
<path fill-rule="evenodd" clip-rule="evenodd" d="M18.6445 17.1294L20.5695 18.4108L27.4598 11.1522L25.1668 9.34888C25.1668 9.34888 21.0069 12.4211 20.1889 13.2319C19.371 14.0427 18.6445 17.1294 18.6445 17.1294Z" fill="#9FD8E5"/>
<path fill-rule="evenodd" clip-rule="evenodd" d="M23.1579 0.950465C23.5508 0.891502 23.8476 1.13512 23.9888 1.4785L23.9962 1.49699C24.0415 1.61383 24.092 1.72748 24.1463 1.83921C25.1297 1.35717 26.5328 1.48103 27.1551 2.45725C27.5992 3.15446 27.3283 3.98191 27.1609 4.72126L27.051 5.20841C27.2634 5.34349 27.4236 5.5854 27.4161 5.83589L27.4152 5.85517L27.3704 6.5345C27.5123 6.39085 27.642 6.23442 27.7576 6.06778C27.8375 5.92157 27.9238 5.77792 28.0164 5.63873C28.5614 4.81958 29.785 5.53147 29.3352 6.40873C29.2489 6.57792 29.1518 6.73817 29.0477 6.89268C28.9301 7.12062 28.8336 7.35493 28.7595 7.59564C28.9723 7.68821 29.1358 7.8938 29.1531 8.2041C29.1933 8.92876 28.8125 9.53339 28.2068 9.91327C28.0286 10.025 27.8445 10.0467 27.6778 10.0052C27.6484 10.0448 27.619 10.0844 27.5909 10.1246C27.8324 10.3206 28.0503 10.5441 28.2375 10.7918C28.801 10.7075 29.3678 10.6679 29.9345 10.6667C30.6271 10.3276 31.4565 10.3347 32.2008 10.4617C32.6801 10.5434 33.1401 10.7024 33.6116 10.8167C34.1087 10.9367 34.6135 10.9412 35.1163 11.0229C35.7502 11.1257 36.3061 11.4181 36.6556 11.8849C37.0396 11.8964 37.4434 12.0534 37.7782 12.2667C38.5577 12.7634 39.3327 13.2671 40.1103 13.7671C40.4088 13.959 40.5203 14.2654 40.4655 14.6071L40.4618 14.629L40.4356 14.7707L40.4971 14.858C40.735 15.1938 40.994 15.5455 41.148 15.9161C41.4329 16.3267 41.6904 16.757 41.9185 17.2007C42.2259 17.7971 42.4795 18.4292 42.6514 19.0778C42.6942 19.2419 42.737 19.4073 42.7651 19.5746C42.8054 19.8108 42.7434 19.994 42.7096 20.2207C42.6674 20.508 42.652 20.7991 42.6073 21.0871C42.5773 21.278 42.415 21.3719 42.245 21.377C42.3089 21.8628 42.3549 22.3519 42.399 22.8371C42.461 23.5305 42.5032 24.2258 42.5396 24.9211C42.7274 25.1937 43.1114 25.4095 43.3887 25.4842C43.7728 25.587 44.1753 25.4753 44.5382 25.3444C44.7663 25.262 44.9535 25.5487 44.8423 25.7402C44.4928 26.3417 43.7453 26.3391 43.1792 26.0729C42.9396 25.9605 42.7294 25.7977 42.5735 25.5857C42.583 25.7875 42.5933 25.9893 42.6035 26.1916L42.613 26.375C42.7281 28.5159 42.9766 30.7304 42.5741 32.8502C41.877 36.5221 38.8361 39.3179 35.1215 39.535C33.1722 39.6489 31.5489 39.0736 30.7417 38.7527C29.9345 38.4317 30.2482 37.7773 30.8086 37.9644C31.7739 38.2866 33.5472 38.7667 35.1342 38.5594C38.8746 38.0708 42.0463 36.2027 41.7205 28.1568C41.6743 27.0159 41.532 25.8743 41.5013 24.7334C41.4719 23.618 41.4828 22.5019 41.4336 21.3872L41.4172 21.0068C41.398 20.5624 41.3774 20.1159 41.3441 19.671C41.3039 19.4986 41.2707 19.3236 41.2215 19.1545C41.0879 18.6941 40.9135 18.2466 40.6969 17.8194C40.649 17.8558 40.5953 17.882 40.5371 17.8922C40.0956 17.9714 39.6816 17.949 39.2682 17.7651C39.0752 17.6802 38.9053 17.5672 38.7468 17.4274C38.6714 17.3616 38.621 17.2978 38.5813 17.2314C38.3813 17.2346 38.1814 17.1746 38.0561 17.0309C37.9133 16.8672 37.8895 16.6981 37.9455 16.5415L37.9513 16.5259L37.9373 16.5208C37.7686 16.9569 37.4325 17.3406 37.0638 17.5998C36.4811 18.011 35.7521 18.1297 35.0531 18.1406C34.2812 18.1521 33.4672 18.0333 32.7056 17.912C32.5043 17.8801 32.3044 17.8437 32.1082 17.7945C32.1005 17.8022 32.0929 17.8111 32.0846 17.8188C31.4309 18.4438 30.5115 18.6047 29.6821 18.2478C29.2029 18.0416 28.801 17.7096 28.4458 17.3291C28.4407 17.5283 28.4304 17.7275 28.4132 17.9248L28.406 18.0031C28.3707 18.3705 28.3026 18.7603 28.0247 19.0255C27.5755 19.4552 26.9238 19.2828 26.4056 19.0031C26.4063 19.0165 26.4063 19.0306 26.4063 19.0446C26.5462 19.5197 26.6868 19.9953 26.8273 20.471L26.8576 20.5723C26.9598 20.91 27.0719 21.2482 27.1027 21.6017C27.1615 22.2772 26.7117 22.9444 25.9603 22.7177C25.5662 22.5993 25.2504 22.2681 24.9474 22.0029L24.7565 21.8379C25.2504 23.4513 25.5929 25.1222 25.6248 26.8059C25.6268 26.8972 25.5482 26.9661 25.4613 26.9693C25.2581 26.9776 25.0396 26.9374 24.8351 26.8563C24.8236 26.8557 24.8121 26.855 24.8 26.8531C24.4511 26.8027 24.1272 26.6769 23.8416 26.4911C23.9074 26.6999 23.9368 26.924 23.9195 27.1583C23.915 27.2151 23.8262 27.2349 23.8134 27.1723C23.6486 26.3621 22.6998 25.7498 21.8819 25.905C21.004 26.0716 20.3574 26.8263 20.1989 27.685C20.029 28.6076 20.3542 29.6745 20.9567 30.3864C21.234 30.7146 21.5989 30.9885 22.0321 31.0574C22.2301 31.0887 22.4359 31.0778 22.6282 31.0217C22.71 30.9974 22.7867 30.9636 22.8646 30.9316C22.9783 30.8857 23.1112 30.8786 23.2186 30.8301C23.462 30.7209 23.7067 30.945 23.5834 31.1947C23.4761 31.4124 23.3796 31.5592 23.2013 31.6716C23.3457 31.8478 23.4767 32.093 23.5253 32.1588C23.7732 32.4933 24.0249 32.8094 24.3073 33.1152C24.5949 33.4255 24.9086 33.709 25.2402 33.9714L25.3796 34.0814C25.699 34.3346 25.9771 34.5691 26.2024 34.9323C26.3801 35.2189 26.1501 35.6078 25.8172 35.6033C24.7757 35.5886 24.0185 34.6743 23.4793 33.8756C23.4026 33.7613 23.3304 33.6406 23.2633 33.5168C23.239 33.5557 23.2122 33.5921 23.1822 33.6253L23.2416 33.7849C23.4179 34.2549 22.6582 34.562 22.4378 34.1233C22.2774 33.8054 22.0915 33.5027 21.8845 33.2167C21.7624 33.1995 21.6429 33.1254 21.5765 33.0296C21.4085 32.7864 21.22 32.5406 21.0609 32.2814C20.9727 32.1977 20.882 32.1173 20.7893 32.0387C20.7625 32.0624 20.735 32.086 20.7088 32.1109C20.5925 32.3758 20.4488 32.6178 20.2705 32.8458L20.2323 32.8944C19.8908 33.3245 19.4459 33.7646 18.8955 33.8699C18.7275 33.9018 18.5658 33.693 18.7147 33.5596C19.1 33.2135 19.5555 32.9779 19.9108 32.5916C20.0858 32.4013 20.2465 32.1918 20.3847 31.9721L20.4162 31.9213C20.4392 31.8836 20.4628 31.8459 20.4871 31.8076C20.3267 31.6984 20.1664 31.5886 20.006 31.4788C19.5645 31.8557 18.9896 32.0281 18.5012 32.3403L18.4527 32.372C18.0112 32.667 17.546 32.0145 17.9 31.6563C18.2902 31.2629 18.616 30.7938 18.9616 30.3566C18.7991 30.0574 18.7221 29.7037 18.6933 29.3461C18.682 29.2449 18.6731 29.1437 18.6642 29.0424C18.4163 29.0462 18.1671 28.9613 17.9562 28.8151L17.8764 28.7583C17.6202 28.84 17.3512 28.8796 17.0937 28.8726C16.488 28.8547 16.24 28.1632 16.6189 27.7259C17.0055 27.279 17.6821 27.1813 18.2182 27.3983C18.2355 27.3894 18.2534 27.3798 18.2706 27.3703C18.245 27.2528 18.2507 27.1462 18.2798 27.0526L18.2714 26.9955C18.1535 26.8148 18.076 26.6084 18.0466 26.3904C18.0233 26.2177 18.0281 26.0465 18.0681 25.876C18.0814 25.8192 18.109 25.7604 18.1302 25.7012C18.0866 25.5913 18.061 25.4776 18.053 25.3634C18.0408 25.3489 18.0287 25.334 18.0172 25.3179C17.7512 24.9447 17.8049 24.495 18.0581 24.1931C18.0592 24.1738 18.061 24.1546 18.0637 24.1355C18.0488 24.1022 18.0352 24.0685 18.0228 24.0345C17.7755 23.7852 17.5939 23.4852 17.6278 23.1134C17.6476 22.8947 17.7376 22.6978 17.8738 22.5506C17.8496 22.4792 17.8473 22.3965 17.8766 22.3275C17.6593 21.75 17.6867 21.0543 17.8432 20.4084C17.8087 20.3101 17.7908 20.2035 17.7946 20.0904C17.8125 19.611 18.2278 19.1704 18.7198 19.1762C18.779 19.1767 18.8345 19.1844 18.8878 19.1957L18.8885 19.1843C18.9073 19.0404 18.9469 18.9074 19.0048 18.788C18.9763 18.7778 18.95 18.763 18.9269 18.7434C18.6117 18.9115 18.2781 19.0399 17.9283 19.1274C17.6711 19.1918 17.4077 18.8997 17.5676 18.6585C17.6418 18.5466 17.7236 18.4461 17.8118 18.3543C17.6864 18.355 17.5591 18.3635 17.4304 18.38C17.1991 18.41 16.941 18.2523 16.7908 18.0391C16.6042 18.2204 16.417 18.4011 16.2298 18.5817C15.7557 19.0408 15.0395 18.7031 14.9647 18.0978C14.8235 18.0601 14.6919 17.9963 14.5762 17.905C13.8287 18.2293 13.0242 18.4074 12.2019 18.4413C11.6115 18.4655 11.2665 17.7786 11.5425 17.2933C11.7278 16.9677 11.9578 16.6753 12.223 16.4212C11.8115 16.547 11.3866 16.6376 10.9528 16.6957C10.7183 16.727 10.3867 16.5329 10.2928 16.3177C9.93367 15.4903 9.96434 14.6277 10.3777 13.8226C10.3937 13.7907 10.4116 13.76 10.4289 13.7294C10.4717 13.6228 10.5183 13.5174 10.5688 13.414C10.0602 12.8841 10.0161 12.0962 10.2902 11.4367C10.1803 11.2585 10.1381 11.044 10.2129 10.8499C10.4257 10.2912 10.7324 9.77536 11.1196 9.33227C11.0825 9.26076 11.0499 9.18478 11.0224 9.10306C10.8046 8.44225 11.0569 7.6448 11.5662 7.18446C11.8863 6.8946 12.2543 6.72094 12.6473 6.60984C12.8128 6.31742 13.0255 6.05374 13.2734 5.83155C13.283 5.81048 13.2926 5.78941 13.3035 5.76834C13.6894 5.04177 14.3922 4.6523 15.1455 4.56228C15.1749 4.27816 15.3666 4.00681 15.6452 3.9187C15.7219 3.67289 15.8362 3.43794 15.9934 3.22469C16.2407 2.88885 16.6515 2.73051 17.0387 2.95078C17.2509 3.07145 17.454 3.21 17.6444 3.36323C17.73 3.32316 17.8269 3.29723 17.9363 3.28895L17.9639 3.28726L18.5939 3.25533C18.8578 3.13849 19.121 3.01591 19.3849 2.89651C19.5434 2.76563 19.7204 2.65645 19.9133 2.57537C20.1318 2.48406 20.3555 2.43235 20.5797 2.41511C20.7618 2.35573 20.9452 2.30338 21.1318 2.26252C21.5701 2.16675 22.0289 2.11311 22.4838 2.11758C22.4931 1.99992 22.4977 1.88086 22.4968 1.76038L22.4959 1.70003C22.4857 1.31375 22.7943 1.00537 23.1579 0.950465ZM22.7164 31.8555C22.6538 31.8689 22.5905 31.8798 22.5272 31.8874C22.5464 31.9347 22.5656 31.9819 22.5841 32.0292C22.6352 32.0579 22.687 32.0853 22.7387 32.1109C22.7234 32.024 22.7145 31.9366 22.7164 31.8555ZM19.4337 30.8807L19.3912 30.9589C19.3843 30.9717 19.3775 30.9843 19.3709 30.9968C19.461 30.9897 19.5517 30.9916 19.6411 31.0019L19.6409 30.9923C19.6294 30.9885 19.6179 30.9849 19.6069 30.9795C19.5452 30.9499 19.4878 30.9167 19.4337 30.8807ZM21.2078 27.3147C21.7731 27.3476 22.252 27.4342 22.7661 27.6813L22.8103 27.7029C23.2646 27.9283 24.016 28.3446 23.9527 28.9415C23.9348 29.1114 23.8115 29.2901 23.6173 29.2767C23.085 29.2403 22.7809 28.704 22.4205 28.3695C22.057 28.0324 21.6104 27.6857 21.1701 27.4539C21.1079 27.4213 21.1324 27.318 21.2001 27.3147L21.2078 27.3147ZM18.6444 19.4494C18.5089 19.4539 18.5543 19.5854 18.6239 19.4756C18.6297 19.4667 18.6367 19.4577 18.6444 19.4494ZM25.9562 10.6691C24.6733 10.7028 23.3822 11.4597 22.4212 12.2248C21.5851 12.8904 20.8632 13.6821 20.2239 14.5354C20.0595 14.9604 19.9182 15.3942 19.799 15.8312C19.7204 16.1198 19.6712 16.4116 19.6054 16.7027L19.5849 16.792C19.5332 16.8885 19.4948 16.9924 19.4668 17.0997C19.5833 17.2164 19.7344 17.3 19.9008 17.3397C19.9544 17.3524 19.9989 17.3801 20.0342 17.4167C20.1681 17.1934 20.2851 16.9577 20.3532 16.7078L20.3557 16.6962C20.6132 16.2749 20.8928 15.8667 21.1925 15.4724C22.0193 14.3838 22.9298 13.3916 24.0243 12.5661C24.8543 11.9404 25.782 11.4501 26.7686 11.1315C26.5271 10.9368 26.2529 10.7828 25.9562 10.6691Z" fill="black"/>
<path fill-rule="evenodd" clip-rule="evenodd" d="M36.0001 34.3927C35.5697 34.2176 35.1856 33.9255 34.9049 33.5524C34.8072 33.4227 34.7819 33.2857 34.8024 33.1605C34.8254 33.0196 34.909 32.892 35.023 32.8063C35.1373 32.7204 35.2803 32.6781 35.4186 32.6997C35.5387 32.7184 35.6583 32.784 35.753 32.9201L35.7727 32.9473C35.9397 33.1724 36.1572 33.3572 36.405 33.4763C36.6439 33.5911 36.9111 33.6446 37.1875 33.6135C37.7141 33.5542 38.0771 33.2702 38.4628 32.8846C38.5106 32.8359 38.5585 32.7857 38.6066 32.7347C38.6369 32.6884 38.6791 32.6587 38.7258 32.6431C38.7778 32.6258 38.8365 32.6268 38.8904 32.6455C38.9423 32.6636 38.9887 32.6978 39.0198 32.7434C39.0494 32.7867 39.0661 32.8402 39.0607 32.9017C39.0254 33.3013 38.8159 33.658 38.5182 33.938C38.1877 34.249 37.7495 34.4642 37.337 34.5397C36.8825 34.6228 36.4194 34.5632 36.0001 34.3927ZM37.5514 28.2276C38.0349 28.5207 38.7716 29.2041 38.2515 29.9306C37.6392 30.5712 36.7577 29.8367 36.3233 29.5045C35.9205 29.2471 35.4679 29.9092 35.8417 30.2098C38.9806 32.5271 40.2545 28.3043 37.7959 27.8831C37.5252 27.8367 37.4247 28.137 37.5514 28.2276ZM31.9263 25.532C31.9798 24.8708 32.9897 24.7206 33.0901 25.3749C33.1801 25.961 33.0742 26.4995 32.8094 27.0272C32.5565 27.5313 31.9206 27.2961 31.8725 26.837C31.8081 26.2217 31.8931 25.9433 31.9263 25.532ZM39.614 25.2393C39.7548 25.0554 39.958 24.9299 40.2016 25.0008C40.9626 25.2225 40.7383 26.2998 40.471 26.8242C40.3258 27.1089 39.8564 27.1812 39.6443 26.9304C39.2985 26.5216 39.133 25.705 39.5725 25.3023C39.5844 25.2815 39.5977 25.2605 39.614 25.2393ZM32.7987 22.6387L32.9189 22.6177C33.2908 22.5536 33.7532 22.492 34.0162 22.7901C34.1558 22.9482 34.2038 23.242 34.0162 23.3933C33.6864 23.6596 33.3216 23.5564 32.9263 23.5789C32.6005 23.5976 32.2874 23.6513 31.9736 23.7408C31.2852 23.937 30.7242 24.2952 30.1362 24.6885C30.0591 24.74 29.9803 24.6417 30.0172 24.5697C30.3566 23.9068 31.0143 23.3622 31.6732 23.0303C32.0249 22.8531 32.4097 22.7061 32.7987 22.6387ZM38.9202 22.3418L39.0123 22.3605C40.0135 22.5692 41.3143 22.9861 41.7885 23.9668C41.8065 24.1054 41.7875 24.1351 41.7719 24.1546L41.7668 24.161C41.754 24.1776 41.7438 24.2005 41.6835 24.2193C41.6668 24.2154 41.6499 24.2111 41.6328 24.2067C41.4155 24.1499 41.2435 24.0716 41.077 23.9905L40.8965 23.9018C40.6871 23.7994 40.4759 23.7007 40.252 23.6279C39.7742 23.4725 39.2827 23.363 38.7837 23.3046C38.6755 23.2919 38.5713 23.2555 38.4892 23.1931C38.4112 23.1339 38.3516 23.0519 38.3244 22.9429C38.2892 22.8019 38.2993 22.6951 38.3752 22.5679C38.4323 22.4723 38.5139 22.4061 38.6077 22.3681C38.7033 22.3293 38.8121 22.3202 38.9202 22.3418Z" fill="black"/>
</svg>
