<?xml version="1.0" encoding="UTF-8" standalone="no"?><svg width="627" height="392" viewBox="0 0 627 392" fill="none" xmlns="http://www.w3.org/2000/svg">
<path fill-rule="evenodd" clip-rule="evenodd" d="M142.059 149.909C145.49 148.959 149.433 149.069 152.953 149.312C156.528 149.559 160.363 149.982 163.717 151.318C166.633 152.478 169.092 154.43 170.59 157.227C171.822 159.526 172.4 162.048 172.762 164.609C172.91 165.657 173.034 166.708 173.152 167.76L173.394 169.947C173.489 170.784 173.572 171.411 173.738 172.345C174.199 174.926 174.84 177.083 176.271 178.962C179.736 183.509 185.395 185.031 190.542 186.972C193.835 188.214 196.443 190.448 197.166 194.038C197.864 197.501 224.404 226.556 227.009 229.006L227.081 229.072C229.102 230.892 228.864 234.314 229.147 236.812C229.45 239.491 229.738 242.172 230.012 244.853C230.568 250.301 231.064 255.755 231.499 261.214C233.198 282.562 233.97 303.985 233.806 325.4L233.795 326.612C233.77 329.33 233.79 332.059 233.668 334.775C233.551 337.384 232.762 339.996 230.345 341.359C228.106 342.622 225.274 342.51 222.772 342.636L222.622 342.644C219.937 342.791 217.25 342.912 214.563 343.012C203.64 343.416 192.708 343.46 181.779 343.409C160.098 343.309 138.395 342.833 116.734 344.047C111.213 344.356 93.6102 342.476 88.1061 343.012C82.8452 343.524 87.3591 346.105 84.1091 345.935C73.4209 345.375 63.2827 342.99 53.0424 340.116C51.7631 339.757 50.7849 338.515 50.801 337.173C50.9912 322.427 51.4073 307.686 52.0575 292.954C52.6367 279.831 53.4 266.716 54.3468 253.614C54.7585 247.92 55.2048 242.227 55.6856 236.538L55.8939 234.1C56.1655 230.955 56.3217 227.753 56.9397 224.653C57.5511 221.586 58.9381 218.927 60.9492 216.551C62.7538 214.419 83.1853 197.731 88.1061 194.572C92.816 191.548 97.7618 188.997 102.597 186.194C104.609 185.028 106.541 185.447 108.259 184.016C109.165 183.261 122.311 178.177 125.858 176.5L125.963 176.45C128.677 175.147 131.176 173.734 133.051 171.481C133.68 170.726 134.913 165.968 134.916 164.448C134.92 161.732 134.714 158.871 135.533 156.241C136.513 153.095 138.873 150.791 142.059 149.909ZM147.874 219.932L126.868 260.857H140.527L130.736 283.596H152.238L144.611 315.445L188.23 260.857H171.862L188.23 239.365H176.878L188.23 221.163L147.874 219.932Z" fill="#D08B5B"/>
<path fill-rule="evenodd" clip-rule="evenodd" d="M196.395 217.531L188.233 310.517L120.25 312.202V212.971L196.395 217.531Z" fill="#FDEA6B"/>
<path fill-rule="evenodd" clip-rule="evenodd" d="M218.442 242.945C218.393 242.993 218.342 243.042 218.294 243.093C218.35 243.014 218.398 242.932 218.442 242.85V242.945ZM177.616 231.023C175.73 233.434 173.734 238.34 171.901 240.794C171.638 241.146 171.38 241.499 171.125 241.854C170.364 242.919 171.38 244.548 172.631 244.479C175.13 244.346 177.627 244.16 180.123 243.971C174.995 249.689 170.737 256.791 166.027 262.849C165.708 263.255 165.394 263.664 165.08 264.072C163.887 265.627 165.082 266.332 166.711 265.913C167.048 265.827 167.385 265.74 167.722 265.656C170.091 265.048 172.457 264.44 174.826 263.835C176.136 263.497 177.453 263.081 178.781 262.823C179.327 262.719 179.85 262.805 180.366 262.834C180.118 263.211 179.771 263.893 179.702 263.998C178.929 265.203 178.15 266.404 177.366 267.599C175.84 269.923 174.305 272.244 172.715 274.525C166.512 283.417 159.821 291.906 153.189 300.474C151.519 302.629 149.826 304.762 148.106 306.874C148.114 306.861 148.119 306.848 148.126 306.836C149.676 303.817 151.225 300.801 152.775 297.782C155.721 292.047 158.639 286.295 161.615 280.575C161.769 280.276 161.924 279.98 162.08 279.681C162.698 278.496 161.684 277.265 160.416 277.515C154.226 278.735 148.096 280.234 142.043 282.009C141.771 282.3 141.37 282.385 141.012 282.315C140.769 282.387 140.525 282.457 140.281 282.531C140.355 282.378 140.432 282.227 140.506 282.074C140.259 281.859 140.135 281.526 140.296 281.111C143.78 272.119 148.555 263.439 154.214 255.49C153.986 255.494 153.759 255.497 153.531 255.504C147.32 255.673 141.226 256.564 135.24 258.257C135.212 257.703 135.546 256.845 135.727 256.436C136.452 254.804 137.284 253.211 138.063 251.604C139.656 248.305 141.249 245.008 142.842 241.708C144.399 238.485 145.944 235.252 147.409 231.983C148.177 230.27 148.946 228.553 149.712 226.838C150.337 225.44 150.83 224.033 151.348 222.603C152.869 223.05 172.406 223.147 177.154 223.477C178.318 223.558 179.485 223.632 180.652 223.696C181.581 223.75 182.891 223.954 183.531 223.114L183.774 223.318C181.665 225.841 179.643 228.434 177.616 231.023ZM101.341 184.145C101.438 184.102 101.532 184.059 101.627 184.015C101.675 184.084 101.734 184.148 101.795 184.212C101.949 184.368 102.099 184.536 102.257 184.689C101.951 184.51 101.645 184.329 101.341 184.145ZM237.876 327.667C237.7 323.947 237.503 320.225 237.294 316.505C236.881 309.231 236.454 301.958 235.885 294.695C234.728 279.978 233.651 265.265 231.918 250.601C231.19 244.454 230.174 238.353 229.156 232.249C229.286 232.132 229.419 232.014 229.549 231.899C229.408 233.569 231.675 234.627 232.799 232.962C232.883 232.837 232.964 232.712 233.046 232.581C234.019 231.008 236.26 223.29 236.104 222.636C235.824 221.459 235.042 220.412 234.432 219.375C233.899 218.469 233.36 217.562 232.814 216.663C231.724 214.863 230.601 213.08 229.424 211.336C226.986 207.725 224.321 204.257 221.181 201.226C217.931 198.084 214.201 195.502 210.349 193.161C208.498 192.037 206.589 191.018 204.644 190.068C202.724 189.133 200.623 188.099 198.555 187.567C198.438 187.537 198.318 187.7 198.425 187.787C198.974 188.221 199.548 188.63 200.133 189.023C198.55 188.474 196.919 188.078 195.275 187.938C192.091 186.819 188.87 185.795 185.702 184.628C182.587 183.479 179.519 182.187 177.448 179.464C175.679 177.138 174.561 174.29 173.701 171.517C172.756 168.46 172.381 165.283 171.508 162.221C171.439 161.973 171.033 161.945 170.98 162.221C170.357 165.434 170.385 169.045 170.74 172.288C171.112 175.69 172.07 179.028 174.153 181.794C176.573 185.009 179.856 186.799 183.55 188.226C186.529 189.381 189.546 190.555 192.597 191.587C192.199 191.848 191.795 192.108 191.379 192.356C189.725 193.339 188.004 194.213 186.245 194.997C183.034 196.429 179.651 197.502 176.249 198.373C169.915 199.987 163.421 200.807 156.891 200.914C143.825 201.131 130.614 198.393 118.665 193.107C115.3 191.618 112.015 189.981 108.762 188.262C107.746 187.726 106.725 187.184 105.709 186.628C105.793 186.623 105.88 186.615 105.964 186.607C108.234 186.393 110.475 185.956 112.671 185.338C117.166 184.069 121.475 182.09 125.708 180.141C129.297 178.489 132.994 176.606 135.186 173.164C136.358 171.323 136.897 169.162 137.333 167.048C137.821 164.693 138.395 162.328 138.75 159.951C138.875 159.118 138.689 157.992 137.795 157.599C137.438 157.443 137.144 157.315 136.744 157.315C135.858 157.315 134.949 157.959 134.737 158.842C134.214 161.046 133.897 163.312 133.486 165.538C133.131 167.464 132.807 169.474 131.768 171.167C129.953 174.132 126.395 175.649 123.387 177.092C119.576 178.92 115.762 180.703 111.803 182.187C110.059 182.84 108.285 183.433 106.485 183.918C106.557 183.476 106.495 183.011 106.235 182.662C105.801 182.084 105.308 181.701 104.749 181.26C104.142 180.779 103.325 180.529 102.607 180.741C102.607 180.744 102.605 180.741 102.605 180.741C102.314 180.678 101.992 180.703 101.66 180.853C100.634 181.324 99.6104 181.798 98.5867 182.281C83.8595 189.212 69.551 197.354 58.7143 209.752C57.152 211.54 55.6892 213.42 54.3183 215.358C52.9858 217.24 51.3366 219.284 50.969 221.617C50.9384 221.812 51.2218 221.901 51.2703 221.702C51.3571 221.342 51.4745 220.989 51.62 220.647C51.3162 221.71 51.3341 222.838 51.763 223.949C52.271 225.257 53.2028 226.123 54.3796 226.467C53.1977 231.649 52.4037 236.9 51.7655 242.209C50.8491 249.858 50.1981 257.524 49.708 265.211C48.7277 280.552 48.2911 295.97 48.6077 311.338C48.697 315.682 48.8451 320.026 49.0697 324.368C49.1821 326.539 49.3046 328.707 49.445 330.877C49.5829 333.013 49.4705 335.365 51.3315 336.491C51.3545 336.575 51.38 336.657 51.403 336.741C51.8549 338.317 53.869 337.811 54.058 336.381C54.0605 336.366 54.0631 336.348 54.0656 336.333C55.5871 335.171 55.3573 333.235 55.245 331.378C55.125 329.373 54.9974 327.371 54.8902 325.369C54.6859 321.528 54.5124 317.687 54.3566 313.843C54.0528 306.243 53.8818 298.633 53.8256 291.028C53.7133 275.815 54.5915 260.624 55.633 245.455C56.0696 239.109 56.5801 232.79 56.7359 226.447C57.5502 226.023 57.8004 224.818 57.3919 224.006C67.0365 230.589 75.9867 238.46 83.1728 247.608C84.3727 249.135 85.5189 250.708 86.6166 252.309C86.974 252.83 87.3135 253.372 87.6556 253.913C87.3237 255.422 87.0659 256.957 86.7289 258.405C86.0345 261.396 85.741 264.499 85.3427 267.538C84.5335 273.71 83.9642 279.939 83.4817 286.145C82.5321 298.4 81.8275 310.654 81.6054 322.945C81.4829 329.897 81.3195 336.892 81.6258 343.841C81.3986 345.199 82.6214 346.527 83.9004 346.699C85.0211 346.849 86.0677 346.267 86.5579 345.329C90.0501 345.764 93.6343 345.963 97.1036 345.988C101.778 346.021 106.452 346.017 111.126 345.917C120.477 345.712 129.826 345.473 139.174 345.194C157.871 344.643 176.568 344.089 195.267 343.534C200.452 343.381 205.637 343.228 210.821 343.075C213.16 343.006 216.075 343.68 217.918 341.874C218.235 341.563 218.48 341.197 218.653 340.807C219.205 340.945 219.881 340.809 220.244 340.383C220.92 339.583 221.418 338.843 221.393 337.735C221.37 336.698 221.084 335.605 220.936 334.578C220.655 332.65 220.384 330.722 220.126 328.791C219.618 324.976 219.144 321.155 218.707 317.332C217.814 309.515 217.002 301.68 216.369 293.837C215.113 278.328 214.758 262.737 214.801 247.179C214.806 245.787 214.814 244.395 214.822 243.003C214.88 243.077 214.944 243.146 215.013 243.205C215.069 243.253 215.125 243.302 215.182 243.353C215.835 243.928 216.923 244.224 217.706 243.68C218.669 243.057 219.332 242.122 220.083 241.277C220.872 240.391 221.684 239.527 222.503 238.67C224.091 237.01 225.732 235.418 227.407 233.845C227.542 233.72 227.678 233.593 227.813 233.47C227.823 238.422 227.818 243.371 227.951 248.32C228.15 255.673 228.548 263.018 228.913 270.36C229.638 284.898 230.389 299.432 231.111 313.969C231.313 318.027 231.504 322.087 231.706 326.145C231.808 328.175 231.908 330.206 232.005 332.236C232.056 333.334 232.107 334.435 232.158 335.533C232.214 336.713 232.14 337.974 232.538 339.096C233.444 341.66 237.36 342.022 238.114 339.096C238.586 337.26 238.223 335.135 238.139 333.25C238.052 331.391 237.965 329.529 237.876 327.667Z" fill="black"/>
<path fill-rule="evenodd" clip-rule="evenodd" d="M168.181 176.078C162.526 176.111 157.721 174.503 154.054 171.842C149.478 170.206 143.959 167.683 140.607 165.035C139.299 165.369 137.734 163.977 136.734 163.242C130.512 158.584 125.628 151.766 124.181 144.936C121.946 147.763 118.767 147.881 115.722 146.476C109.338 142.846 109.577 135.204 111.875 129.494C107.043 118.626 103.695 89.9348 111.07 78.3556C112.579 76.6231 114.793 75.5867 116.387 73.8101C117.805 72.2584 119.154 70.6712 120.804 69.4433C125.84 65.6013 134.512 63.5557 139.942 62.5937C162.61 57.6807 180.026 66.5112 200.559 73.96C199.377 76.9224 197.743 79.6241 195.869 82.1432C200.967 84.0506 198.625 88.3392 194.671 90.5133L192.316 89.3661C195.986 102.53 204.433 135.265 200.788 145.778C197.882 162.178 185.128 176.197 168.181 176.078Z" fill="#D08B5B"/>
<path fill-rule="evenodd" clip-rule="evenodd" d="M179.203 66.2271C166.777 62.0617 154.399 59.5592 139.86 62.7103C134.43 63.6723 125.758 65.7179 120.722 69.5599C119.302 70.6166 118.105 71.9395 116.895 73.2769C116.699 73.4935 116.502 73.7104 116.305 73.9267C115.514 74.808 114.571 75.5072 113.637 76.1995C112.688 76.9028 111.748 77.5991 110.988 78.4722C103.698 89.9175 106.885 118.081 111.626 129.226H111.856H112.342L112.61 128.822L112.61 128.822L112.611 128.822L112.611 128.821L179.203 66.2271ZM192.958 92.1099C192.78 91.4586 192.61 90.8377 192.447 90.2504L192.269 92.1099H192.958ZM192.508 89.6163L194.223 71.7479C196.281 72.5278 198.362 73.3095 200.477 74.0766C199.295 77.039 197.66 79.7407 195.787 82.2598C200.884 84.1672 198.543 88.4558 194.588 90.6299L192.508 89.6163Z" fill="#ECDCBF"/>
<path fill-rule="evenodd" clip-rule="evenodd" d="M171.455 177.49C164.113 178.245 155.391 176.505 150.497 170.526C150.351 170.347 150.287 170.145 150.283 169.949C150.278 169.731 150.351 169.521 150.477 169.358C150.609 169.186 150.798 169.066 151.014 169.027C151.196 168.994 151.403 169.015 151.616 169.136L152.066 169.387C155.409 171.237 158.88 172.816 162.669 173.491C166.569 174.187 170.54 174.109 174.406 173.226C181.447 171.617 187.146 167.515 191.34 162.105C196.021 156.068 198.832 148.404 199.548 140.74C200.416 131.452 198.402 122.221 196.319 113.228C194.129 103.779 191.736 94.3776 188.956 85.0855C188.873 84.8058 188.85 84.544 188.874 84.3028C188.054 83.9808 187.182 84.0702 186.313 84.3642C184.726 84.9013 183.145 86.1126 181.827 87.1124C181.349 87.4746 180.905 87.8112 180.506 88.085C178.871 89.2066 177.084 90.0135 175.085 90.1405C173.007 90.2721 170.969 89.6246 169.081 88.8141C168.122 88.4024 167.179 87.9753 166.239 87.5499C163.563 86.3386 160.918 85.1392 158.028 84.3597C154.156 83.315 150.158 82.8004 146.148 82.8373C138.991 82.9029 131.812 84.7498 127.425 90.8181C125.648 93.2763 124.49 96.1017 125.393 99.1355C125.885 100.786 126.812 102.284 127.825 103.662L128.172 104.131C128.727 104.888 129.21 105.641 129.355 106.443C129.477 107.115 129.382 107.826 128.903 108.605C128.602 109.095 128.219 109.535 127.833 109.974C127.555 110.29 127.276 110.605 127.036 110.945C126.553 111.63 126.125 112.368 125.789 113.138C125.132 114.644 124.853 116.265 124.794 117.899C124.724 119.871 125 121.8 125.275 123.731C125.469 125.101 125.663 126.472 125.742 127.86C125.755 128.102 125.681 128.282 125.578 128.416C125.451 128.579 125.267 128.682 125.057 128.711C124.993 128.719 124.927 128.721 124.86 128.715C124.893 128.848 124.922 128.983 124.947 129.117C124.814 128.946 124.672 128.78 124.523 128.619C124.514 128.614 124.504 128.609 124.495 128.604C124.341 128.519 124.211 128.39 124.129 128.224C123.917 128.027 123.694 127.84 123.459 127.665C122.238 126.752 120.812 126.21 119.381 126.192C118.002 126.175 116.62 126.646 115.557 127.64C113.444 129.616 112.825 132.841 112.803 135.611C112.781 138.438 113.433 141.831 115.892 143.586C116.878 144.29 118.083 144.713 119.296 144.725C120.302 144.736 121.265 144.379 122.213 144.039C122.505 143.934 122.796 143.83 123.086 143.735C123.416 143.628 123.716 143.634 123.978 143.713C124.273 143.802 124.524 143.985 124.711 144.229C124.897 144.472 125.02 144.776 125.057 145.095C125.094 145.404 125.052 145.724 124.922 146.013C124.889 146.086 124.854 146.157 124.818 146.226L125.359 147.117C127.43 150.522 129.537 153.864 132.3 156.791C133.886 158.47 135.566 160.055 137.41 161.443L137.676 161.641C137.835 161.758 138.012 161.902 138.2 162.056C138.738 162.498 139.383 163.089 139.984 163.112C140.163 163.119 140.319 163.097 140.461 163.078C140.803 163.033 141.091 163.02 141.373 163.135C141.6 163.228 141.836 163.402 142.078 163.76C142.242 164.003 142.326 164.307 142.326 164.616C142.326 164.926 142.241 165.236 142.09 165.481C141.777 165.989 141.398 166.303 140.986 166.482C140.528 166.681 140.021 166.711 139.495 166.612C138.198 166.37 136.761 165.293 135.848 164.59L135.671 164.454C133.646 162.906 131.727 161.192 130.04 159.276C127.167 156.013 124.587 152.168 123.261 147.967C122.327 148.582 121.173 148.874 119.966 148.92C118.208 148.987 116.348 148.534 114.977 147.882C111.955 146.445 110.119 143.728 109.259 140.604C108.26 136.975 108.585 132.804 109.85 129.544C109.886 129.45 109.925 129.355 109.964 129.259C106.071 119.372 104.874 108.392 105.207 97.8401C105.363 92.901 105.699 87.719 106.861 82.9019C107.382 80.7428 108.287 78.6867 109.733 76.987C110.557 76.0177 111.568 75.2631 112.583 74.5106C113.463 73.8588 114.346 73.2085 115.089 72.3947L115.44 72.0083C115.517 71.9242 115.593 71.8403 115.668 71.7565C116.952 70.3387 118.201 68.9629 119.758 67.8002C121.564 66.452 123.557 65.3968 125.627 64.5204C130.088 62.6331 134.889 61.5015 139.639 60.626C149.914 58.7323 160.462 58.6389 170.611 61.3008C175.33 62.5382 179.91 64.232 184.481 65.9238C184.906 66.0809 185.33 66.2379 185.755 66.3946C189.307 67.706 192.862 69.0119 196.417 70.3177C198.069 70.9246 199.721 71.5315 201.373 72.139C201.731 72.2708 202.082 72.5548 202.282 72.9077C202.477 73.252 202.535 73.6535 202.378 74.0533C201.364 76.6278 200.085 79.0432 198.528 81.2988C199.069 81.6677 199.53 82.1583 199.878 82.7325C200.318 83.4587 200.579 84.3184 200.597 85.2305C200.656 88.2852 197.884 90.3559 195.583 91.8535C195.369 91.9933 195.156 92.0757 194.951 92.1136C197.18 100.658 199.314 109.231 201.127 117.872L201.252 118.471C203.12 127.515 204.325 136.744 202.558 145.908C201.037 153.799 197.504 161.414 191.983 167.293C186.572 173.054 179.311 176.681 171.455 177.49ZM123.113 125.466C122.152 122.407 121.642 119.08 122.01 115.979C122.241 114.031 122.826 112.155 123.777 110.437C124.323 109.453 124.987 108.543 125.712 107.685L125.962 107.397C126.088 107.25 126.214 107.114 126.253 106.945C126.276 106.846 126.253 106.739 126.193 106.61C126.061 106.325 125.815 106.05 125.585 105.782C125.438 105.611 125.295 105.444 125.175 105.281C123.069 102.422 121.497 99.0182 122.008 95.3924C122.506 91.8549 124.819 88.5575 127.281 86.0726C132.702 80.6007 141.106 79.3433 148.469 79.6451C152.755 79.8207 157.034 80.578 161.116 81.9008C163.129 82.5532 165.097 83.3478 167.009 84.2584L167.432 84.4622C167.661 84.5732 167.889 84.6855 168.118 84.7978C169.612 85.5326 171.113 86.2747 172.736 86.6743C175.905 87.4544 178.054 85.8113 180.314 84.1543C181.088 83.5865 181.874 83.0107 182.71 82.5055L182.882 82.4035C184.389 81.5274 186.193 80.9379 187.925 80.9643C189.429 80.9873 190.881 81.4689 192.063 82.607C192.305 82.8409 192.445 83.096 192.511 83.3499C192.641 83.5337 192.747 83.7528 192.816 84.0117C193.239 85.6042 193.66 87.1979 194.081 88.792L194.424 88.5701C195.441 87.9076 196.548 87.1505 197.047 86.0422C197.239 85.6156 197.212 84.9048 196.97 84.3823C196.885 84.1997 196.773 84.0374 196.618 83.9361C196.506 83.8624 196.37 83.8278 196.212 83.8405C195.829 83.89 195.477 83.8338 195.178 83.7073C194.834 83.5614 194.56 83.3214 194.381 83.0322C194.199 82.736 194.116 82.3878 194.16 82.0266C194.199 81.7161 194.332 81.3919 194.596 81.0872C196.332 79.0815 197.793 76.869 198.904 74.4676L191.556 71.742C188.936 70.7707 186.315 69.8006 183.693 68.8342L182.258 68.3055C177.49 66.5525 172.696 64.8394 167.738 63.7108C157.885 61.468 147.611 61.9951 137.785 64.1062L137.191 64.2348C133.068 65.1361 128.89 66.2266 125.105 68.1222C123.248 69.0525 121.482 70.1839 119.966 71.6132C119.296 72.2444 118.69 72.9355 118.085 73.6257C117.236 74.5929 116.386 75.5575 115.377 76.3723L114.44 77.1243C113.047 78.2499 111.79 79.3467 111.004 81.0925C110.181 82.9177 109.789 84.934 109.469 86.8985C108.661 91.8474 108.343 96.8756 108.373 101.888C108.424 110.305 109.7 118.551 111.311 126.767C112.604 124.912 114.42 123.474 116.751 123.168C118.271 122.968 119.778 123.252 121.084 123.925C121.839 124.315 122.528 124.834 123.113 125.466ZM120.67 135.46C118.968 134.799 117.181 134.582 115.38 134.898C115.191 134.931 115.011 134.892 114.86 134.804C114.706 134.715 114.586 134.573 114.52 134.417C114.444 134.237 114.44 134.042 114.507 133.868C114.565 133.718 114.676 133.572 114.879 133.475C116.829 132.542 118.997 132.13 121.148 132.423L121.361 132.453C122.461 132.617 124.007 132.961 125.167 133.638C126.078 134.17 126.745 134.904 126.911 135.863C126.998 136.362 126.874 136.883 126.587 137.261C126.309 137.627 125.885 137.87 125.335 137.855C124.366 137.827 123.793 137.416 123.102 136.885C123.019 136.82 122.933 136.754 122.844 136.687C122.176 136.187 121.448 135.762 120.67 135.46Z" fill="black"/>
<path fill-rule="evenodd" clip-rule="evenodd" d="M163.981 157.933L161.283 147.632L161.718 147.699C165.997 148.372 168.137 149.063 168.137 149.771L168.135 149.82C168.078 150.618 166.693 153.322 163.981 157.933ZM188.811 149.858L187.855 157.223L182.88 151.768L188.811 149.858Z" fill="white"/>
<path fill-rule="evenodd" clip-rule="evenodd" d="M160.701 131.522C166.27 131.522 170.784 127.405 170.784 122.328C170.784 117.25 166.27 113.134 160.701 113.134C155.132 113.134 150.617 117.25 150.617 122.328C150.617 127.405 155.132 131.522 160.701 131.522Z" fill="white"/>
<path fill-rule="evenodd" clip-rule="evenodd" d="M175.634 122.073C180.709 122.073 184.824 118.014 184.824 113.006C184.824 107.999 180.709 103.94 175.634 103.94C170.558 103.94 166.443 107.999 166.443 113.006C166.443 118.014 170.558 122.073 175.634 122.073Z" fill="white"/>
<path fill-rule="evenodd" clip-rule="evenodd" d="M188.143 129.734C192.232 129.734 195.547 126.075 195.547 121.562C195.547 117.048 192.232 114.036 188.143 114.036C184.055 114.036 180.74 117.048 180.74 121.562C180.74 126.075 184.055 129.734 188.143 129.734Z" fill="white"/>
<path fill-rule="evenodd" clip-rule="evenodd" d="M161.378 147.271C163.23 146.914 165.533 147.693 167.38 148.034L167.517 148.059C169.756 148.45 171.99 148.923 174.254 149.154C176.415 149.375 178.623 149.414 180.784 149.166C181.822 149.046 182.851 148.843 183.86 148.57C184.291 148.454 184.719 148.323 185.142 148.179L185.189 148.16C185.5 148.032 186.34 147.549 186.33 147.818C186.566 147.546 186.891 147.352 187.248 147.258C187.752 147.126 188.399 147.25 188.821 147.607C189.37 147.172 190.193 147.484 190.56 148.004C191.191 148.897 190.986 149.943 190.904 150.979L190.898 151.07C190.828 152.046 190.722 153.015 190.592 153.984L190.534 154.399C190.331 155.832 190.275 158.196 188.539 158.665C187.166 159.037 185.91 157.624 185.025 156.503L184.541 155.882C183.967 155.153 183.446 154.404 183.027 153.576C182.836 153.2 182.651 152.814 182.491 152.423C182.471 152.373 182.456 152.329 182.44 152.285C179.895 152.627 177.289 152.578 174.737 152.242C173.121 152.029 171.529 151.721 169.961 151.307L169.253 152.586C168.426 154.078 167.586 155.565 166.703 157.023L166.635 157.134C165.809 158.449 164.425 159.766 162.79 158.781C161.326 157.899 161.264 155.894 161.11 154.398C161.007 153.398 160.923 152.392 160.883 151.387L160.869 150.956C160.843 149.982 160.684 148.852 161.059 147.941C161.113 147.808 161.304 147.706 161.418 147.845C162.201 148.797 162.438 150.272 162.776 151.44C163.152 152.739 163.697 154.158 163.892 155.506L163.947 155.411C164.14 155.045 164.336 154.681 164.534 154.317L165.126 153.227C165.657 152.242 166.198 151.263 166.744 150.287C166.121 150.053 165.503 149.801 164.888 149.545L163.493 148.961C162.695 148.625 161.882 148.244 161.283 147.631C161.177 147.523 161.214 147.303 161.378 147.271ZM187.854 150.869C186.479 151.428 185.057 151.832 183.609 152.099C183.702 152.195 183.795 152.291 183.882 152.391C184.223 152.786 184.584 153.165 184.948 153.54L185.166 153.764C185.723 154.336 186.56 155.278 187.414 155.825L187.46 155.578C187.468 155.535 187.474 155.498 187.477 155.47L187.568 154.657C187.583 154.522 187.597 154.386 187.61 154.251C187.684 153.518 187.742 152.784 187.804 152.05C187.836 151.663 187.844 151.266 187.854 150.869ZM171.58 103.657C174.855 102.258 178.742 102.918 181.563 105.032C184.45 107.196 185.713 110.713 185.879 114.222C188.162 112.272 191.45 113.748 193.373 115.575C195.592 117.684 196.714 120.866 196.197 123.886C195.682 126.896 193.504 129.552 190.559 130.447C189.149 130.875 187.578 130.885 186.161 130.486C185.679 130.351 185.089 130.141 184.544 129.848C184.575 129.974 184.607 130.099 184.636 130.224C185.344 133.219 185.745 136.586 184.683 139.548C182.977 144.308 176.918 146.973 173.135 142.748C171.649 141.089 170.494 138.492 170.584 136.23C170.631 135.042 171.304 133.667 172.694 133.748C173.771 133.81 174.282 134.712 174.006 135.666L173.989 135.721C173.405 137.546 174.402 140.182 175.847 141.427C178.062 143.335 181.102 141.675 182.314 139.437C183.725 136.828 183.554 133.485 183.102 130.647C182.659 127.861 181.671 125.312 180.622 122.734C180.511 122.754 180.398 122.773 180.282 122.789C178.196 123.072 173.952 123.179 171.647 121.667C171.894 124 171.409 126.402 170.083 128.378C168.607 130.58 166.382 131.745 163.793 132.102C161.279 132.45 158.364 132.52 155.881 131.924C150.595 130.655 148.731 124.125 150.329 119.412C151.275 116.624 153.914 114.116 156.848 113.483C158.359 112.489 160.388 112.194 162.132 112.33C164.737 112.533 167.303 113.659 169.047 115.636C169.714 116.392 170.262 117.247 170.685 118.162C170.827 118.05 170.992 117.966 171.179 117.922C171.471 117.854 171.726 117.839 172.011 117.939C172.153 117.989 172.358 118.167 172.482 118.283L172.763 118.614C173.109 119.016 173.437 119.354 174.052 119.604C175.766 120.302 178.091 120.454 179.911 120.311C184.558 119.947 183.973 113.791 182.828 110.628C181.473 106.881 177.587 104.55 173.634 105.216C171.936 105.501 170.316 106.406 169.072 107.587C167.685 108.907 167.09 110.5 166.258 112.17C166.209 112.269 166.039 112.247 166.018 112.138C165.333 108.617 168.577 104.94 171.58 103.657ZM146.835 132.046C146.694 131.88 146.879 131.589 147.081 131.726C148.562 132.733 150.209 133.459 151.999 133.656C152.84 133.748 153.687 133.754 154.525 133.625C155.239 133.515 155.882 133.297 156.594 133.494C156.973 133.598 157.042 134.038 156.81 134.314C155.734 135.595 153.085 135.253 151.641 134.91C149.773 134.466 148.08 133.51 146.835 132.046ZM196.669 129.707C197.396 129.256 198.261 130.149 197.831 130.87C196.728 132.719 193.528 132.87 191.672 132.427C191.527 132.393 191.56 132.165 191.707 132.169C192.774 132.195 193.738 131.99 194.657 131.433C195.442 130.958 195.911 130.177 196.669 129.707ZM161.193 114.92L161.047 114.922C159.35 114.949 157.796 115.596 156.161 115.939C156.025 115.967 155.889 115.953 155.766 115.908C153.775 117.237 152.402 119.327 152.215 122.077C152.086 123.982 152.551 126.058 153.682 127.621C154.969 129.4 157.042 129.674 159.083 129.728L159.291 129.732C163.15 129.808 167.396 129.58 168.772 125.263C169.79 122.068 168.702 118.19 165.867 116.277C164.489 115.347 162.844 114.919 161.193 114.92ZM192.286 117.212L192.173 117.079C190.659 115.342 188.259 113.759 185.893 114.634L185.9 114.927C185.9 114.976 185.901 115.025 185.901 115.073C185.894 118.429 184.594 121.56 181.4 122.544C182.257 123.767 182.945 125.125 183.497 126.533C183.691 126.406 183.928 126.325 184.202 126.297C185.327 126.183 185.971 127.24 186.946 127.634C187.859 128.003 188.895 128.098 189.858 127.908C191.967 127.491 193.446 125.672 193.964 123.654C194.55 121.373 193.776 118.981 192.286 117.212ZM160.197 120.035C160.9 118.847 162.634 119.019 163.329 120.067L163.363 120.119L163.37 120.109C164.528 121.61 163.969 123.981 162.287 124.825C160.939 125.502 159.223 125.324 158.327 124.007C158.126 123.712 157.997 123.365 157.95 123.013C157.918 122.774 157.936 122.535 157.99 122.297L157.976 122.353C158.003 122.233 158.045 122.044 158.056 122C158.174 121.515 158.458 120.996 158.814 120.645C159.18 120.284 159.689 120.065 160.197 120.035ZM189.086 118.801C189.708 118.801 190.261 119.061 190.711 119.474C191.35 120.062 191.439 120.908 191.301 121.71C191.259 121.955 191.201 122.192 191.14 122.433L191.087 122.651C191.078 122.687 191.068 122.723 191.057 122.759C191.019 122.908 190.958 123.045 190.885 123.177C190.619 124.168 189.541 124.661 188.591 124.444C188.143 124.342 187.697 123.971 187.47 123.582C187.395 123.454 187.342 123.326 187.305 123.198L187.12 122.759C187.085 122.654 187.063 122.541 187.035 122.433C186.973 122.192 186.914 121.955 186.87 121.71C186.724 120.881 186.841 120.095 187.461 119.474C187.878 119.057 188.497 118.801 189.086 118.801ZM175.371 110.199C176.452 110.054 177.552 110.558 178.111 111.512C178.597 112.342 178.595 113.459 178.111 114.289L178.07 114.359C177.18 115.888 175.102 116.084 173.853 114.903L173.792 114.846C172.989 114.087 172.808 112.827 173.224 111.841C173.604 110.939 174.402 110.329 175.371 110.199Z" fill="black"/>
<path fill-rule="evenodd" clip-rule="evenodd" d="M202.005 131.894C198.905 135.098 193.731 136.017 189.608 134.299C179.02 129.873 184.202 116.07 192.368 112.363C193.388 112.109 194.75 111.505 195.993 111.368C196.105 111.313 196.35 111.473 196.646 111.322C205.65 112.327 207.701 126.31 202.005 131.894ZM167.855 132.714C164.378 137.326 157.916 138.749 152.635 136.605C142.204 132.495 145.904 120.255 153.041 115.457C168.117 109.789 174.343 124.209 167.855 132.714ZM145.241 122.494C145.231 122.489 145.221 122.487 145.211 122.482C145.266 122.458 145.322 122.434 145.376 122.409C145.359 122.456 145.339 122.502 145.322 122.549C145.295 122.53 145.271 122.509 145.241 122.494ZM209.182 117.508C208.331 117.51 207.101 117.65 206.397 118.241C204.659 112.379 198.246 106.954 192.669 110.91C188.277 112.323 185.018 115.457 183.165 119.623C179.825 117.636 174.574 118.484 171.678 121.112C169.781 114.842 165.113 112.647 159.556 112.323C153.492 111.329 147.447 117.221 145.561 121.948C143.993 121.769 141.65 121.27 140.175 122.238C130.6 119.726 113.86 118.341 111.913 119.737C110.526 120.269 109.765 123.545 111.702 123.722C113.391 123.482 111.505 121.321 113.207 121.086C122.276 120.523 131.079 122.35 140.051 123.117C140.853 124.195 143.441 124.556 144.822 124.122C142.647 132.14 147.342 137.595 154.376 139.229C165.268 141.732 174.744 131.985 171.896 121.846C175.196 120.204 178.991 120.275 182.585 121.14C176.579 143.253 212.18 142.261 206.619 118.998C210.32 120.84 211.123 117.88 209.182 117.508Z" fill="black"/>
<rect x="492.211" y="234.44" width="58.4595" height="72.0176" fill="#FDEA6B"/>
<path fill-rule="evenodd" clip-rule="evenodd" d="M475.162 163.999C481.464 159.198 497.284 157.04 504.01 161.662C510.653 166.303 511.377 173.809 514.473 180.714C517.393 179.337 522.217 181.31 523.063 184.021C524.114 185.3 524.161 188.892 524.885 190.611C556.397 195.629 561.182 220.207 564.975 248.109C569.992 276.423 581.383 304.675 576.438 333.811C577.083 334.743 577.591 335.65 578.06 336.727C579.186 338.643 577.736 341.354 575.466 341.249C572.527 340.991 569.618 340.639 566.666 340.529C558.481 340.244 550.29 340.278 542.102 340.382L540.986 340.397C499.724 340.911 458.464 341.923 417.2 342.192C415.704 342.194 414.971 340.851 415.17 339.526C415.573 336.859 415.947 334.19 416.336 331.521C406.576 334.1 396.201 334.749 386.468 331.792C385.788 331.099 388.055 331.475 388.414 331.369C379.458 325.246 382.132 312.348 382.926 303.058C387.859 271.224 389.599 236.002 408.66 208.838C416.907 197.753 428.997 188.976 442.889 187.001L443.274 186.948C447.336 186.406 451.863 186.232 455.415 184.021C459.409 180.831 461.112 174.937 465.314 174.881C466.701 174.863 468.589 176.619 470.62 177.812C470.772 175.189 472.185 172.975 472.497 170.942L472.522 170.768C472.848 168.397 472.402 166.263 475.162 163.999ZM542.886 248.95C534.03 242.796 511.153 245.888 510.629 246.233C509.476 246.992 508.98 247.059 508.356 248.044C507.74 248.126 507.125 248.21 506.51 248.298C505.277 248.701 506.191 250.218 507.616 249.677C506.759 253.373 509.28 256.002 510.284 259.656C510.61 260.843 510.296 262.977 510.284 264.189C510.381 265.735 512.09 267.561 511.805 269.112C510.793 274.625 505.3 280.004 507.616 285.351C509.15 288.371 513.764 289.91 516.832 290.937C523.188 293.377 534.264 290.845 537.957 285.351C539.927 282.42 542.209 275.027 543.383 272.734L543.644 269.097C544.286 260.054 544.857 250.32 542.886 248.95Z" fill="#D08B5B"/>
<path fill-rule="evenodd" clip-rule="evenodd" d="M464.986 174.898L467.521 176.454L482.24 183.733C485.093 184.532 486.52 185.49 486.52 186.607V197.976C486.52 199.498 489.198 202.946 494.553 208.321L499.501 203.386L499.39 202.74C498.92 199.957 498.684 198.094 498.684 197.154C498.684 196.142 503.525 192.303 513.206 185.635L517.441 181.646L516.99 180.272C519.601 180.395 522.433 182.004 523.063 184.021C524.114 185.3 524.161 188.893 524.885 190.612C556.397 195.63 561.182 220.207 564.975 248.11C569.992 276.424 581.383 304.676 576.438 333.811C577.083 334.744 577.591 335.65 578.06 336.727C579.186 338.643 577.736 341.355 575.466 341.25C572.527 340.992 569.618 340.639 566.666 340.529C558.481 340.245 550.29 340.279 542.102 340.383L540.986 340.397C499.724 340.911 458.464 341.924 417.2 342.192C415.704 342.195 414.971 340.851 415.17 339.527C415.573 336.859 415.947 334.19 416.336 331.522C406.576 334.1 396.201 334.749 386.468 331.793C385.788 331.099 388.055 331.475 388.414 331.37C379.458 325.247 382.132 312.348 382.926 303.058C387.859 271.224 389.599 236.003 408.66 208.839C416.907 197.753 428.997 188.976 442.889 187.001L443.274 186.948L443.662 186.898C447.623 186.393 451.976 186.162 455.415 184.021C459.304 180.916 461.02 175.246 464.986 174.898ZM500.255 241.631C498.811 241.631 495.855 243.874 491.385 248.359L490.991 248.541C485.588 251.052 482.009 253.23 480.253 255.075L480.191 255.141C478.417 257.045 474.905 262.107 469.654 270.326L462.05 274.825H459.173L457.124 289.689L462.05 300.303L473.207 296.543L491.385 291.75L501.817 281.163L507.701 279.186C506.987 281.25 506.728 283.303 507.615 285.351C509.15 288.371 513.764 289.911 516.832 290.937C523.188 293.378 534.263 290.846 537.957 285.351C539.926 282.42 542.209 275.028 543.383 272.735L543.72 268.009C544.327 259.289 544.778 250.266 542.885 248.951C534.029 242.796 511.153 245.889 510.629 246.233C509.476 246.992 508.98 247.059 508.356 248.044L508.033 248.088L509.849 245.624L509.206 245.281C504.619 242.848 501.635 241.631 500.255 241.631ZM507.616 249.677C506.796 253.216 509.072 255.777 510.148 259.195L507.398 253.928L507.398 249.746C507.469 249.728 507.542 249.706 507.616 249.677Z" fill="#9DDADB"/>
<path fill-rule="evenodd" clip-rule="evenodd" d="M463.768 174.349C464.38 173.807 465.284 174.488 464.896 175.22C464.023 176.864 463.127 178.422 461.955 179.876C461.245 180.757 460.484 181.591 459.713 182.415C461.692 184.128 463.389 186.254 464.992 188.247C467.042 190.796 468.98 193.453 471.281 195.786C473.55 198.086 476.059 199.694 479.092 200.766L479.705 200.979C482.753 202.049 486.01 203.495 487.728 206.381C488.067 206.951 487.384 207.654 486.811 207.299C483.826 205.45 480.319 205.078 477.07 203.856C473.931 202.676 471.195 200.86 468.777 198.542C466.364 196.227 464.337 193.594 462.224 191.017C460.133 188.469 457.883 186.292 455.41 184.136C451.595 186.704 447.24 187.821 442.812 188.918L442.328 189.038C437.895 190.136 433.485 191.411 429.325 193.324C425.658 195.01 422.05 197.023 419.063 199.766C415.892 202.677 413.424 206.396 411.165 210.032C406.112 218.168 402.559 227.08 399.432 236.101C396.179 245.485 393.458 255.056 391.262 264.741C390.145 269.667 389.238 274.628 388.492 279.624C388.133 282.031 387.814 284.442 387.534 286.859C387.235 289.439 387.166 292.094 386.375 294.575C386.036 295.639 385.235 296.08 384.433 296.043L384.27 298.08C384.054 300.797 383.853 303.515 383.785 306.248C383.672 310.793 383.723 315.326 384.05 319.861L384.096 320.48C384.353 323.79 384.927 327.509 387.415 329.933C389.992 332.444 393.955 333.233 397.428 333.278C405.517 333.384 413.304 329.56 420.462 326.206C427.834 322.751 435.004 318.917 442.003 314.758C445.567 312.64 449.093 310.452 452.574 308.2C454.282 307.094 455.978 305.97 457.661 304.827C458.625 304.173 459.539 303.456 460.521 302.875C460.04 302.427 459.825 301.723 460.228 301.108C457.39 298.644 456.209 294.247 456.071 290.69C455.96 287.818 456.382 284.954 456.716 282.109C456.884 280.675 457.092 279.243 457.307 277.815C457.393 277.251 457.458 276.647 457.557 276.052C449.896 280.264 442.019 284.015 433.934 287.347C429.79 289.056 425.593 290.591 421.337 291.999L420.475 292.283C416.443 293.603 412.314 294.85 408.146 295.605C407.923 295.645 407.742 295.316 407.98 295.211C412.042 293.418 416.245 291.906 420.368 290.255L421.046 289.979C420.968 289.974 420.887 289.963 420.803 289.943C418.385 289.359 415.986 288.46 413.614 287.702C411.413 286.999 408.94 286.558 406.883 285.496C406.725 285.415 406.813 285.194 406.967 285.184C409.28 285.024 411.79 285.698 414.057 286.094L414.909 286.244C416.336 286.495 417.794 286.766 419.214 287.119C419.265 286.643 419.531 286.165 419.909 285.885C424.069 282.803 423.647 276.578 424.092 271.987L424.422 268.579C425.002 262.615 425.616 256.651 426.549 250.731C426.599 250.415 427.087 250.505 427.089 250.804C427.138 258.142 426.584 265.447 426.306 272.774L426.263 273.976C426.11 278.497 425.99 283.191 423.143 286.67C423.541 286.437 424.079 286.437 424.402 286.821C424.798 287.292 425.027 287.822 425.02 288.342C427.592 287.263 430.152 286.156 432.701 285.027C440.893 281.396 448.914 277.333 456.723 272.936C457.563 272.463 458.362 272.835 458.778 273.458L458.838 273.45C458.848 273.448 458.858 273.447 458.868 273.447L458.928 273.445C458.93 273.445 458.933 273.445 458.935 273.445C460.034 272.841 461.531 273.271 462.475 274.152C462.502 274.179 462.526 274.207 462.551 274.236C463.745 273.699 464.86 272.975 465.872 272.058C467.943 270.18 469.697 267.858 471.226 265.53C474.042 261.242 476.434 256.474 480.238 252.945C483.329 250.077 487.161 248.292 491.181 247.171C491.164 247.053 491.209 246.928 491.29 246.845C491.496 246.633 491.644 246.56 491.91 246.688C491.932 246.699 491.944 246.713 491.953 246.728L492.345 246.058C492.559 245.694 492.779 245.328 492.855 245.231C493.312 244.656 493.782 244.086 494.258 243.527C495.067 242.582 495.988 241.649 497.055 240.993C499.391 239.557 501.846 240.37 504.248 241.154C505.699 241.628 507.145 242.118 508.594 242.599L508.743 242.648C509.823 242.995 511.087 243.299 511.57 244.444C511.761 244.897 511.791 245.367 511.702 245.823C521.96 243.213 533.354 244.412 543.364 247.476C543.748 247.593 544.132 247.91 544.213 248.325C545.36 254.209 545.871 260.243 545.352 266.228C544.904 271.394 543.76 276.456 541.604 281.186L541.481 281.453C539.455 285.836 536.243 291.239 531.338 292.613C528.377 293.442 525.101 292.953 522.081 292.801C519.145 292.653 516.145 292.632 513.237 292.17C510.648 291.759 508.379 290.598 506.778 288.491C505.398 286.674 504.671 284.478 504.075 282.293C503.802 282.38 503.532 282.472 503.265 282.576C502.14 283.016 501.187 283.725 500.325 284.56C498.505 286.323 497.093 288.465 495.189 290.147C493.466 291.67 491.501 292.855 489.395 293.765C485.029 295.652 480.346 296.407 475.728 297.407L475.406 297.477C471.929 298.24 468.381 299.177 465.312 300.988C465.252 301.521 465.01 302.022 464.621 302.351C465.162 302.859 465.391 303.664 464.915 304.42C463.587 306.529 461.299 307.729 459.244 309.077L459.111 309.166C457.09 310.506 455.052 311.82 452.997 313.106C448.819 315.723 444.554 318.196 440.229 320.559C433.272 324.361 426.166 327.948 418.931 331.201C419.365 333.338 419.207 335.542 419.533 337.693L419.583 338C419.723 338.798 419.534 339.466 418.985 339.988L418.926 340.042L418.927 340.034L418.876 340.082L418.859 340.096L418.864 340.092C418.801 340.15 418.736 340.204 418.669 340.25L418.584 340.305C418.055 340.626 417.373 340.623 416.831 340.339L416.769 340.305L416.665 340.245C415.948 339.833 415.454 338.811 415.751 338C416.482 336.006 416.758 333.878 417.432 331.871L416.897 332.11L416.192 332.417C408.565 335.717 400.092 338.495 391.782 336.246C388.11 335.252 384.678 333.149 382.84 329.722C381.033 326.349 380.777 322.433 380.681 318.681C380.563 314.051 380.811 309.35 381.421 304.76C381.831 301.678 382.326 298.538 383.091 295.489C382.698 295.142 382.409 294.644 382.332 294.028C381.972 291.115 382.603 288.087 382.989 285.189C383.367 282.36 383.784 279.537 384.256 276.722C385.208 271.037 386.315 265.365 387.603 259.747C389.896 249.749 392.924 239.928 396.57 230.342L396.889 229.507C400.257 220.745 404.158 212.17 409.589 204.473C412.187 200.79 414.933 197.451 418.604 194.798C422.043 192.311 425.922 190.521 429.926 189.153C433.933 187.783 438.053 186.866 442.245 186.295C446.502 185.715 450.996 185.36 454.967 183.613C454.465 182.712 454.896 181.496 455.741 180.937C458.587 179.056 461.218 176.61 463.768 174.349ZM554.854 256.128C554.973 255.946 555.257 256.061 555.204 256.275C553.82 261.947 552.521 267.63 551.673 273.41C550.142 283.842 550.423 294.411 550.548 304.92L550.555 305.464C550.619 311.125 550.708 316.786 550.896 322.444C550.99 325.304 551.177 328.192 551.075 331.053C551.02 332.606 550.606 334.074 550.46 335.607C550.331 336.948 550.446 338.31 550.51 339.653C550.553 340.546 549.236 340.508 549.146 339.653L549.031 338.547C548.882 337.148 548.699 335.758 548.24 334.418C547.689 332.808 547.425 331.226 547.233 329.535C546.94 326.943 546.81 324.326 546.697 321.716L546.62 319.911C546.148 309.005 546.164 298.048 546.929 287.154L546.984 286.376C547.741 276.078 549.054 264.951 554.854 256.128ZM525.356 191.223C524.994 191.074 525.121 190.528 525.521 190.623L526.249 190.797C531.583 192.075 536.82 193.459 541.799 195.838C546.781 198.217 550.999 201.77 554.35 206.139C560.865 214.63 563.572 224.95 565.709 235.26C568.084 246.717 570.247 258.216 572.643 269.669L573.088 271.802C575.304 282.469 577.398 293.143 578.94 303.936L579.051 304.719C580.606 315.818 581.541 327.302 579.844 338.43C579.508 340.632 575.846 340.083 575.989 337.908C576.403 331.62 576.699 325.365 576.413 319.062C576.127 312.759 575.536 306.483 574.655 300.234C573.913 294.976 572.808 289.783 571.83 284.566L571.677 283.743C570.858 279.306 570.014 274.873 569.171 270.44L567.912 263.804C566.025 253.866 564.102 243.92 561.928 234.044L561.799 233.463C559.672 223.963 556.536 214.01 550.155 206.466C543.68 198.809 534.41 194.953 525.356 191.223ZM501.827 291.996C501.982 291.649 502.527 291.687 502.695 291.996C503.351 293.207 503.424 294.753 503.548 296.12L503.561 296.261C503.719 297.929 503.858 299.603 503.944 301.277C504.106 304.454 504.183 307.626 504.174 310.807C504.163 314.067 504.098 317.323 503.922 320.578L503.874 321.45C503.714 324.278 503.445 327.433 502.102 329.906C501.613 330.805 500.285 330.541 500.002 329.632C499.076 326.655 499.551 323.125 499.789 320.077L499.974 317.698C500.156 315.319 500.331 312.939 500.469 310.557C500.658 307.298 500.815 304.036 500.965 300.775C501.014 299.717 501.067 298.657 501.122 297.598L501.208 296.01C501.281 294.682 501.275 293.224 501.827 291.996ZM397.634 296.215L398.044 295.818C399.304 294.585 400.895 292.687 402.757 292.804C403.499 292.851 403.972 293.468 403.818 294.198C403.489 295.76 401.897 296.571 400.75 297.525C399.494 298.569 398.31 299.685 397.129 300.812C396.081 301.811 395.073 302.839 394.089 303.899L393.721 304.298C393.369 304.683 390.857 306.955 391.129 307.545L391.144 307.571C391.219 307.684 391.093 307.839 390.968 307.8C389.884 307.457 389.951 306.527 390.361 305.585C391.149 303.775 392.529 302.1 393.733 300.554C394.935 299.012 396.235 297.576 397.634 296.215ZM505.756 250.82C504.918 248.837 501.829 248.879 500.075 248.997C495.658 249.296 490.88 250.414 486.951 252.479C482.877 254.62 480.132 258.05 477.677 261.843L477.562 262.021C475.169 265.743 472.864 270.148 469.116 272.707C467.208 274.011 464.979 275.201 462.663 275.717C462.504 275.997 462.246 276.218 461.908 276.299L461.751 276.334C461.092 276.48 460.067 276.641 459.182 276.545C459.188 276.978 459.183 277.408 459.194 277.818C459.225 278.994 459.239 280.175 459.239 281.352C459.239 283.818 459.107 286.289 459.21 288.754C459.301 290.935 459.609 293.213 460.655 295.163C461.423 296.593 462.436 297.539 463.659 298.443C466.668 296.608 470.07 295.49 473.523 294.649C477.699 293.633 481.975 292.954 486.055 291.576C488.02 290.912 489.908 290.043 491.619 288.864C493.435 287.611 494.822 285.916 496.249 284.259L496.472 284.001C497.928 282.33 499.517 280.731 501.575 279.826C503.348 279.045 505.684 278.906 507.234 277.699C508.044 277.067 508.112 276.15 508.197 275.211C507.205 275.353 506.154 275.126 505.165 275.01L504.652 274.95C503.717 274.839 502.803 274.716 501.882 274.478C501.711 274.434 501.711 274.176 501.882 274.132C502.97 273.851 504.049 273.731 505.165 273.6L505.427 273.567C506.436 273.435 507.497 273.235 508.487 273.457C508.665 272.781 508.922 272.136 509.282 271.489C509.787 270.581 510.743 269.551 510.872 268.489C510.91 268.173 510.837 267.799 510.687 267.519L510.636 267.423C510.573 267.31 510.499 267.197 510.39 267.127C510.378 267.141 510.352 267.157 510.297 267.174C509.535 267.414 508.87 267.041 508.517 266.466C507.02 266.652 505.385 266.589 503.981 266.651L502.56 266.72C501.043 266.79 499.457 266.82 498.031 266.514C497.832 266.471 497.771 266.139 497.971 266.054C499.724 265.304 501.85 265.065 503.727 264.777C504.775 264.616 505.831 264.493 506.882 264.351C507.582 264.257 508.325 264.101 509.051 264.063C510.869 261.799 509.889 258.226 507.358 257.251C506.437 257.657 505.608 257.421 504.601 257.334C503.595 257.248 502.588 257.19 501.578 257.194C499.556 257.203 497.412 257.735 495.409 257.506C495.084 257.468 494.781 257.035 495.105 256.77C496.638 255.519 498.835 255.111 500.781 254.844L501.185 254.79C501.837 254.704 502.631 254.579 503.454 254.505C503.64 254.142 503.974 253.867 504.475 253.799C504.624 253.779 504.774 253.767 504.924 253.754L504.922 253.739C506.145 253.68 506.092 251.613 505.756 250.82ZM422.007 289.491C421.985 289.524 421.961 289.556 421.936 289.587L421.897 289.632L422.098 289.55L422.007 289.491ZM527.104 246.389C521.955 245.836 516.798 245.953 511.634 246.101C511.221 247.453 509.783 248.605 508.39 248.648C509.481 250.309 509.594 252.558 508.829 254.319C510.453 254.966 511.853 256.128 512.702 257.783C513.88 260.077 513.726 262.63 512.562 264.75C513.556 265.65 514.142 267.112 514.083 268.489C514.018 270.025 513.103 271.338 512.342 272.609C511.52 273.985 511.493 275.196 511.24 276.736C510.871 278.991 509.351 280.358 507.395 281.212L507.499 281.621C508.003 283.585 508.631 285.656 510.072 287.092C511.926 288.939 514.802 288.922 517.251 289.039L517.369 289.045C519.612 289.157 521.854 289.288 524.096 289.415L525.777 289.51C528.359 289.651 530.838 289.669 532.945 287.961C536.385 285.175 538.744 280.563 540.237 276.48C543.37 267.91 543.408 258.506 541.97 249.581C537.146 248.026 532.141 246.931 527.104 246.389ZM484.284 260.607L484.322 260.609C485.382 260.73 486.11 261.589 486.369 262.608C486.746 264.089 486.561 265.427 487.468 266.764C488.4 268.139 488.974 269.239 489.109 270.937C489.165 271.636 489.139 272.333 489.295 273.017L489.408 273.496C489.527 274.007 489.625 274.499 489.566 275.047C489.511 275.548 489.268 275.937 488.766 276.098C487.132 276.621 485.87 275.416 485.447 273.892C485.082 272.576 485.57 271.007 485.055 269.771C484.77 269.086 484.244 268.513 483.947 267.823C483.652 267.139 483.505 266.425 483.457 265.682C483.368 264.276 484.61 262.588 483.917 261.314C483.769 261.042 483.937 260.598 484.284 260.607ZM462.569 246.102C463.676 245.877 464.932 245.361 466.024 245.79C466.585 246.01 466.862 246.695 466.388 247.17C465.565 247.996 464.369 248.042 463.26 248.236L463.162 248.254C461.851 248.497 460.538 248.727 459.223 248.945C456.749 249.355 454.27 249.717 451.781 250.025C449.225 250.341 446.662 250.623 444.096 250.835L443.102 250.917C440.934 251.09 438.678 251.221 436.551 250.889C436.242 250.841 436.291 250.39 436.551 250.311C438.881 249.606 441.438 249.417 443.847 249.118C446.408 248.8 448.966 248.464 451.516 248.066C454.063 247.668 456.606 247.241 459.139 246.769C460.285 246.556 461.428 246.334 462.569 246.102ZM502.509 243.836C501.538 243.492 500.469 242.982 499.417 243.153C497.602 243.447 495.986 245.216 494.55 246.381L495.271 246.241C498.962 245.531 503.85 244.767 506.949 247.114C506.957 247.101 506.963 247.087 506.972 247.074C507.222 246.694 507.512 246.397 507.828 246.072C507.858 246.044 507.887 246.014 507.916 245.984L508.087 245.802L507.697 245.667C506.861 245.371 505.87 244.99 505.714 244.934L505.703 244.93C504.637 244.569 503.57 244.212 502.509 243.836ZM472.182 166.436C472.03 164.482 475.071 164.498 475.221 166.436C475.55 170.668 474.598 174.86 472.549 178.57C472.534 178.597 472.517 178.621 472.502 178.646C473.783 179.313 475.079 179.953 476.404 180.525C478.099 181.257 479.826 181.924 481.583 182.489C483.173 183.001 485.132 183.203 486.469 184.268C489.287 186.513 488.228 191.173 487.686 194.193L487.601 194.67C487.332 196.224 487.136 197.819 487.791 199.311C488.491 200.904 489.905 202.086 491.167 203.226L491.422 203.457C492.54 204.476 493.817 205.714 494.637 207.095C495.386 205.547 496.406 204.282 497.485 202.857C498.254 201.841 497.707 201.506 497.154 200.513C496.621 199.557 496.362 198.539 496.528 197.448C496.835 195.435 498.444 193.981 500.045 192.888C501.936 191.598 504.046 190.642 506.001 189.442C510.017 186.977 513.929 184.158 517.453 181.027C517.55 180.941 517.719 181.054 517.641 181.172C514.857 185.408 511.593 189.069 507.581 192.176C505.954 193.435 504.246 194.48 502.525 195.579L502.031 195.896C501.34 196.344 500.479 196.942 500.166 197.704C499.852 198.471 500.522 199.049 500.883 199.684C502.028 201.7 501.476 203.581 500.118 205.291L500.054 205.37C498.705 207.034 497.682 208.581 497.193 210.706C496.142 215.271 497.606 220.027 499.139 224.313L499.199 224.482C500.028 226.792 500.909 229.085 501.629 231.433L501.827 232.081C502.48 234.241 503.014 236.371 502.282 238.591C502.033 239.347 501.004 239.525 500.576 238.814C499.068 236.308 498.692 233.292 497.746 230.536C496.824 227.851 495.766 225.214 494.876 222.517C493.73 219.045 492.963 215.308 493.379 211.666C493.367 211.645 493.353 211.625 493.343 211.603L493.051 210.964C492.256 209.235 491.487 207.725 490.04 206.347C488.531 204.91 486.893 203.637 485.705 201.897C483.126 198.117 484.721 193.912 485.033 189.779L485.068 189.272C485.125 188.414 485.156 187.248 484.596 186.654C483.965 185.986 482.487 185.815 481.651 185.519C479.49 184.754 477.36 183.862 475.331 182.792C473.401 181.773 471.53 180.647 469.789 179.328L468.906 178.664C467.513 177.613 466.069 176.465 465.136 175.034C465.028 174.869 465.211 174.603 465.406 174.682C466.964 175.315 468.388 176.321 469.846 177.196C469.868 177.143 469.895 177.089 469.925 177.035C471.728 173.769 472.47 170.151 472.182 166.436ZM521.959 188.812C522.579 187.109 525.409 187.24 525.296 189.264C525.21 190.818 524.55 192.222 523.946 193.633L523.882 193.785C523.259 195.255 522.54 196.636 521.679 197.984C520.034 200.561 518.108 202.952 516.05 205.209C514.184 207.255 511.736 208.506 508.914 208.298C507.725 208.211 506.525 207.908 505.483 207.314C504.246 206.608 502.902 204.489 501.323 205.002C501.171 205.052 501.028 204.828 501.16 204.722C502.983 203.254 505.051 205.53 506.796 206.079C509.425 206.905 512.123 205.992 513.816 203.865C515.582 201.645 517.208 199.16 518.693 196.742C519.448 195.515 520.136 194.241 520.73 192.928C521.329 191.603 521.466 190.163 521.959 188.812ZM517.721 178.33C517.644 178.095 517.936 177.871 518.143 178.005C519.341 178.785 520.378 179.816 521.483 180.719C522.708 181.721 523.943 182.703 525.197 183.67C527.024 185.079 524.905 187.674 523.296 186.134C521.094 184.028 518.683 181.274 517.721 178.33ZM511.144 170.087C511.631 168.21 514.508 168.984 514.089 170.839L514.075 170.895C513.281 173.959 514.412 177.078 516.827 179.064L516.916 179.136C518.443 180.359 516.279 182.497 514.766 181.286C511.464 178.642 510.091 174.151 511.144 170.087Z" fill="black"/>
<path fill-rule="evenodd" clip-rule="evenodd" d="M541.216 95.6716C536.197 65.236 497.868 59.7486 472.892 66.1546C472.432 60.3002 468.753 55.1272 464.162 51.7245C444.66 37.6558 421.571 61.5416 426.194 82.1274C427.023 88.3636 431.995 95.4798 438.953 94.4126C430.208 111.004 426.79 144.46 446.058 154.802C447.917 156.128 448.226 158.821 449.656 160.549C451.979 163.334 461.901 166.882 467.269 164.039C468.956 165.592 470.902 167.104 473.177 167.642C484.93 177.073 502.107 179.202 516.419 175.31C525.236 173.81 534.377 169.822 538.914 161.675C542.757 155.475 540.986 148.21 539.224 141.647C538.462 138.037 537.966 134.398 537.661 130.729C538.286 129.997 538.321 128.981 538.477 128.056C539.154 124.777 540.633 121.733 541.373 118.463C543.028 111.04 542.741 103.11 541.216 95.6716Z" fill="#D08B5B"/>
<path fill-rule="evenodd" clip-rule="evenodd" d="M432.233 62.6889C436.569 54.4108 445.069 49.7403 453.57 50.3808C462.268 51.0362 468.924 57.0475 470.465 66.7538L470.51 67.0491L470.603 67.6792L470.518 67.708L470.559 67.7795L470.632 67.9018C470.718 68.0427 470.824 68.2031 470.969 68.4125L471.163 68.6892L471.813 69.6049L471.859 69.6706L471.998 69.8708L472.278 69.7718C485.905 65.0012 501.085 65.0503 514.653 70.1229L515.064 70.2782L515.442 70.4245L515.656 70.4802C523.974 72.6855 530.622 77.9893 535.172 85.5832L535.31 85.814L535.448 86.051C539.602 93.2026 541.732 102.042 541.582 110.917L541.577 111.189L541.575 111.232L541.552 111.5C541.354 113.63 540.82 115.534 539.713 118.436L539.572 118.805L539.353 119.366L538.671 121.098L538.504 121.529L536.548 126.678L536.91 121.51C536.95 120.935 536.973 120.431 536.992 119.66L536.996 119.521L537.04 117.334L537.052 116.846C537.059 116.618 537.067 116.413 537.075 116.213L537.089 115.915L537.116 115.451L537.122 115.355L537.109 115.25C536.693 111.965 535.189 109.161 532.6 106.504L532.465 106.366L532.328 106.229L532.165 106.068C530.257 104.198 528.329 102.768 524.335 100.145L524.162 100.032L521.841 98.5176L520.972 97.9465C519.056 96.6815 517.889 95.8624 516.655 94.907L516.389 94.7L516.181 94.536C514.044 92.8402 512.375 91.1739 511.093 89.3764L510.974 89.2075L510.721 88.8447L510.902 88.4575L510.899 88.4627L510.898 88.461L510.907 88.4198L510.919 88.3506L510.932 88.2666C510.954 88.1003 510.974 87.8833 510.988 87.6382C510.993 87.5495 510.997 87.4589 511 87.3671L511.004 87.2286L511.007 87.1091L510.959 87.2501C508.484 94.4105 502.62 100.385 494.354 104.794L494.103 104.927L493.819 105.075C485.672 109.302 475.706 111.729 467.065 111.797L466.787 111.799L466.512 111.799L466.3 111.624C465.507 110.969 464.048 111.784 464.313 112.951C466.769 123.743 467.284 134.914 465.784 145.678L465.731 146.053L465.725 146.088L465.668 146.393C465.618 146.664 465.571 146.943 465.52 147.263L465.439 147.78L465.126 149.876L464.984 150.773L464.923 151.137C464.395 154.193 463.726 156.271 462.51 158.064L462.393 158.232L462.274 158.347L462.157 158.464C461.918 158.712 461.767 158.912 461.693 159.052L461.678 159.083L461.669 159.102L461.69 159.111C462.077 159.25 462.867 159.221 463.526 159.04L463.608 159.017L463.685 158.993L464.218 158.819L464.591 159.343L464.701 159.498C464.906 159.781 465.119 160.066 465.385 160.414L465.699 160.822L466.425 161.757L465.759 162.218C463.511 163.774 460.37 163.465 457.032 162.006L456.902 161.948L456.855 161.925C455.263 161.081 454.221 160.06 452.504 157.885L452.303 157.629L451.538 156.647L451.247 156.279C451.044 156.024 450.87 155.813 450.696 155.61L450.638 155.542L450.435 155.309L450.39 155.219C449.55 153.523 448.348 152.396 446.246 151.183L445.949 151.015L445.759 150.884C440.424 147.176 437.275 141.326 435.95 133.739C434.915 127.808 435.022 121.135 435.971 113.641L436.017 113.284L436.065 112.911C436.886 106.604 438.763 100.716 441.609 95.3547L441.757 95.0779L441.89 94.8315L441.223 94.3006L440.949 94.0869C440.722 93.9123 440.557 93.7923 440.407 93.6934L440.326 93.6413L440.251 93.595L440.231 93.6325L439.722 93.578C437.571 93.3475 435.45 92.4161 433.724 90.9804L433.582 90.8602L433.443 90.7211C430.107 87.3196 428.468 82.6041 428.467 77.2191C428.466 72.4593 429.768 67.3939 431.996 63.1323L432.106 62.9233L432.233 62.6889Z" fill="#E8E1E1"/>
<path fill-rule="evenodd" clip-rule="evenodd" d="M540.814 111.172C540.525 114.841 538.973 118.143 537.674 121.564C537.816 119.54 537.749 117.434 537.891 115.333C536.38 102.175 518.531 98.7179 511.602 88.7685C511.864 88.2066 511.959 83.183 510.925 84.5958C506.918 102.178 483.096 110.998 466.787 111.032C465.554 110.013 463.107 111.09 463.569 113.121C466.008 123.84 466.542 135.052 464.976 145.943C464.238 149.789 464.114 154.417 461.812 157.73C459.369 160.06 462.306 160.247 463.922 159.721C464.373 160.356 464.849 160.973 465.326 161.587C463.004 163.195 459.617 162.318 457.214 161.248C454.541 159.829 453.013 157.081 451.076 154.878C450.018 152.744 448.415 151.518 446.353 150.362C434.882 142.546 435.178 125.401 436.825 113.01C441.623 76.1365 482.447 58.3449 515.21 71.1548C532.904 75.6906 541.194 94.0301 540.814 111.172ZM434.101 90.2962C427.104 83.3105 428.513 71.0982 432.911 63.045C441.725 46.2186 466.758 46.7654 469.756 67.1607C456.99 71.5448 446.218 80.9457 439.804 92.8161C437.716 92.5924 435.697 91.66 434.101 90.2962ZM541.216 95.6769C536.197 65.2412 497.868 59.7539 472.892 66.1601C472.432 60.3055 468.753 55.1325 464.162 51.7295C444.66 37.6611 421.571 61.5469 426.194 82.1327C427.023 88.3689 431.995 95.4851 438.953 94.4178C430.208 111.009 426.79 144.465 446.058 154.807C447.917 156.133 448.226 158.827 449.656 160.553C451.979 163.339 461.901 166.887 467.269 164.044C468.545 165.614 475.789 170.388 475.261 165.708C474.728 164.447 473.082 164.118 471.985 163.495C469.681 162.22 467.679 160.422 466.106 158.311C471.047 144.345 470.67 128.794 467.902 114.413C484.443 113.579 503.906 106.311 511.201 90.3509C516.133 101.966 531.427 103.46 535.291 116.446C535.524 123.267 534.065 129.986 535.123 136.81C535.434 143.494 538.958 150.133 536.92 156.773C531.228 171.253 510.735 173.377 497.197 172.772C493.981 172.506 491.312 170.764 488.668 169.11C487.084 168.356 485.197 169.933 486.168 171.616C489.875 176.802 497.499 177.255 503.354 177.068C518.547 176.165 540.505 171.665 541.294 152.857C540.793 145.401 537.874 138.265 537.662 130.734C538.286 130.002 538.321 128.987 538.477 128.061C539.154 124.782 540.633 121.739 541.373 118.469C543.028 111.046 542.741 103.115 541.216 95.6769Z" fill="black"/>
<path fill-rule="evenodd" clip-rule="evenodd" d="M509.976 154.997C508.26 154.297 506.728 153.129 505.609 151.637C505.22 151.118 505.119 150.57 505.201 150.069C505.292 149.505 505.626 148.995 506.08 148.652C506.536 148.309 507.106 148.139 507.657 148.226C508.136 148.301 508.613 148.563 508.99 149.107L509.069 149.216C509.735 150.117 510.602 150.856 511.59 151.332C512.542 151.791 513.608 152.005 514.71 151.881C516.809 151.644 518.256 150.508 519.794 148.965C519.985 148.771 520.176 148.57 520.367 148.366C520.489 148.181 520.657 148.062 520.843 147.999C521.05 147.93 521.284 147.934 521.499 148.009C521.706 148.081 521.891 148.218 522.015 148.4C522.133 148.574 522.2 148.788 522.178 149.034C522.037 150.632 521.202 152.059 520.015 153.179C518.697 154.423 516.95 155.284 515.306 155.585C513.494 155.918 511.648 155.68 509.976 154.997ZM516.16 130.338C518.087 131.51 521.025 134.244 518.951 137.15C516.51 139.712 512.995 136.774 511.263 135.446C509.657 134.416 507.853 137.064 509.343 138.267C521.858 147.536 526.937 130.645 517.135 128.96C516.055 128.774 515.655 129.976 516.16 130.338ZM493.732 119.555C493.945 116.911 497.971 116.31 498.372 118.927C498.731 121.272 498.308 123.425 497.253 125.536C496.244 127.552 493.709 126.612 493.517 124.775C493.26 122.314 493.599 121.201 493.732 119.555ZM524.382 118.385C524.944 117.649 525.754 117.147 526.725 117.431C529.759 118.318 528.865 122.627 527.8 124.724C527.221 125.863 525.349 126.152 524.503 125.149C523.125 123.514 522.465 120.248 524.217 118.637C524.265 118.554 524.317 118.47 524.382 118.385ZM497.211 107.983L497.69 107.899C499.173 107.642 501.017 107.396 502.065 108.588C502.622 109.221 502.813 110.396 502.065 111.001C500.75 112.066 499.296 111.653 497.72 111.744C496.421 111.818 495.173 112.033 493.922 112.391C491.177 113.176 488.94 114.608 486.596 116.182C486.288 116.388 485.974 115.994 486.121 115.707C487.474 113.055 490.097 110.877 492.724 109.549C494.126 108.84 495.66 108.252 497.211 107.983ZM521.618 106.795L521.984 106.87C525.976 107.705 531.163 109.372 533.053 113.295C533.125 113.85 533.049 113.968 532.987 114.046L532.967 114.072C532.916 114.138 532.875 114.23 532.635 114.305C532.568 114.289 532.5 114.272 532.432 114.255C531.566 114.027 530.88 113.714 530.217 113.39L529.497 113.035C528.662 112.625 527.82 112.231 526.927 111.94C525.022 111.318 523.063 110.88 521.073 110.646C520.642 110.596 520.227 110.45 519.899 110.2C519.588 109.964 519.35 109.636 519.242 109.2C519.102 108.636 519.142 108.208 519.445 107.699C519.672 107.317 519.998 107.052 520.371 106.9C520.752 106.745 521.186 106.709 521.618 106.795Z" fill="black"/>
<path fill-rule="evenodd" clip-rule="evenodd" d="M539.005 131.894C535.905 135.098 530.731 136.017 526.608 134.299C516.02 129.873 521.202 116.07 529.368 112.363C530.388 112.109 531.75 111.505 532.993 111.368C533.105 111.313 533.35 111.473 533.646 111.322C542.65 112.327 544.701 126.31 539.005 131.894ZM504.855 132.714C501.378 137.326 494.916 138.749 489.635 136.605C479.204 132.495 482.904 120.255 490.041 115.457C505.117 109.789 511.343 124.209 504.855 132.714ZM482.241 122.494C482.231 122.489 482.221 122.487 482.211 122.482C482.266 122.458 482.322 122.434 482.376 122.409C482.359 122.456 482.339 122.502 482.322 122.549C482.295 122.53 482.271 122.509 482.241 122.494ZM546.182 117.508C545.331 117.51 544.101 117.65 543.397 118.241C541.659 112.379 535.246 106.954 529.669 110.91C525.277 112.323 522.018 115.457 520.165 119.623C516.825 117.636 511.574 118.484 508.678 121.112C506.781 114.842 502.113 112.647 496.556 112.323C490.492 111.329 484.447 117.221 482.561 121.948C480.993 121.769 478.65 121.27 477.175 122.238C467.6 119.726 450.86 118.341 448.913 119.737C447.526 120.269 446.765 123.545 448.702 123.722C450.391 123.482 448.505 121.321 450.207 121.086C459.276 120.523 468.079 122.35 477.051 123.117C477.853 124.195 480.441 124.556 481.822 124.122C479.647 132.14 484.342 137.595 491.376 139.229C502.268 141.732 511.744 131.985 508.896 121.846C512.196 120.204 515.991 120.275 519.585 121.14C513.579 143.253 549.18 142.261 543.619 118.998C547.32 120.84 548.123 117.88 546.182 117.508Z" fill="black"/>
<path fill-rule="evenodd" clip-rule="evenodd" d="M386.349 179.637C380.01 177.087 372.881 175.988 366.285 178.157C365.174 178.522 365.382 180.123 366.558 180.182C370.33 180.37 374.003 180.655 377.591 181.419C373.706 182.37 369.754 184.587 366.221 185.793C360.372 187.79 354.434 189.523 348.432 190.993C336.331 193.959 323.983 195.837 311.548 196.617C286.75 198.172 262.512 195.111 238.402 189.425C237.985 189.326 237.837 189.91 238.227 190.058C261.646 198.855 287.521 201.941 312.43 200.766C324.682 200.188 336.9 198.57 348.879 195.935C355.202 194.544 361.459 192.857 367.625 190.886C372.021 189.48 378.161 188.316 381.883 185.177C381.386 186.327 380.889 187.478 380.391 188.627C379.427 190.857 378.286 192.775 378.534 195.238C378.692 196.815 380.346 197.534 381.575 196.497C383.452 194.913 383.99 192.753 384.838 190.502C385.86 187.792 386.881 185.083 387.903 182.373C388.36 181.159 387.378 180.05 386.349 179.637Z" fill="black"/>
<path fill-rule="evenodd" clip-rule="evenodd" d="M239.671 109.368C246.01 111.918 253.139 113.017 259.735 110.848C260.846 110.483 260.638 108.882 259.462 108.823C255.69 108.635 252.017 108.35 248.429 107.586C252.314 106.635 256.266 104.418 259.799 103.212C265.648 101.215 271.586 99.4824 277.588 98.0124C289.689 95.0464 302.037 93.1684 314.472 92.3884C339.27 90.8334 363.508 93.8944 387.618 99.5804C388.035 99.6794 388.183 99.0954 387.793 98.9474C364.374 90.1504 338.499 87.0644 313.59 88.2394C301.338 88.8174 289.12 90.4354 277.141 93.0704C270.818 94.4614 264.561 96.1484 258.395 98.1194C253.999 99.5254 247.859 100.689 244.137 103.828C244.634 102.678 245.131 101.527 245.629 100.378C246.593 98.1484 247.734 96.2304 247.486 93.7674C247.328 92.1904 245.674 91.4714 244.445 92.5084C242.568 94.0924 242.03 96.2524 241.182 98.5034C240.16 101.213 239.139 103.922 238.117 106.632C237.66 107.846 238.642 108.955 239.671 109.368Z" fill="black"/>
</svg>
