<?xml version="1.0" encoding="UTF-8" standalone="no"?><svg width="510" height="470" viewBox="0 0 510 470" fill="none" xmlns="http://www.w3.org/2000/svg">
<rect width="175" height="175" fill="#FFCF77"/>
<path d="M93.7678 69.6364V106H86.0795V76.9339H85.8665L77.5391 82.1541V75.3359L86.5412 69.6364H93.7678Z" fill="black"/>
<rect x="335" y="295" width="175" height="175" fill="black"/>
<path d="M422.388 403.497C419.737 403.497 417.375 403.041 415.304 402.13C413.244 401.207 411.617 399.94 410.421 398.33C409.237 396.709 408.628 394.838 408.592 392.719H416.334C416.381 393.607 416.671 394.388 417.204 395.063C417.748 395.726 418.47 396.241 419.37 396.608C420.27 396.975 421.282 397.158 422.406 397.158C423.578 397.158 424.614 396.951 425.513 396.537C426.413 396.123 427.117 395.549 427.626 394.815C428.135 394.081 428.39 393.234 428.39 392.276C428.39 391.305 428.118 390.447 427.573 389.701C427.04 388.943 426.271 388.352 425.265 387.925C424.271 387.499 423.087 387.286 421.714 387.286H418.322V381.64H421.714C422.874 381.64 423.898 381.439 424.786 381.036C425.685 380.634 426.384 380.077 426.881 379.367C427.378 378.645 427.626 377.805 427.626 376.846C427.626 375.934 427.407 375.135 426.969 374.449C426.543 373.75 425.94 373.206 425.158 372.815C424.389 372.425 423.489 372.229 422.46 372.229C421.418 372.229 420.465 372.419 419.601 372.798C418.737 373.165 418.044 373.691 417.523 374.378C417.003 375.064 416.724 375.869 416.689 376.793H409.32C409.356 374.697 409.954 372.851 411.114 371.253C412.274 369.655 413.836 368.406 415.801 367.506C417.778 366.595 420.009 366.139 422.495 366.139C425.004 366.139 427.2 366.595 429.082 367.506C430.964 368.418 432.426 369.649 433.468 371.2C434.522 372.738 435.042 374.467 435.031 376.384C435.042 378.42 434.409 380.119 433.131 381.48C431.864 382.841 430.213 383.705 428.177 384.072V384.357C430.852 384.7 432.888 385.629 434.285 387.144C435.693 388.647 436.392 390.53 436.38 392.79C436.392 394.862 435.794 396.703 434.587 398.312C433.391 399.922 431.74 401.189 429.633 402.112C427.526 403.036 425.111 403.497 422.388 403.497Z" fill="white"/>
<rect y="295" width="175" height="175" fill="#78E185"/>
<path d="M73.397 396.608V390.553L88.5781 366.636H93.7983V375.017H90.7088L81.1385 390.163V390.447H102.712V396.608H73.397ZM90.8509 403V394.761L90.9929 392.08V366.636H98.2017V403H90.8509Z" fill="black"/>
<rect x="335" width="175" height="175" fill="#8FA7DF"/>
<path d="M409.947 106V100.46L422.891 88.4751C423.992 87.4098 424.915 86.451 425.661 85.5987C426.419 84.7464 426.993 83.9119 427.384 83.0952C427.774 82.2666 427.969 81.3729 427.969 80.4141C427.969 79.3487 427.727 78.4313 427.241 77.6619C426.756 76.8807 426.093 76.2829 425.253 75.8686C424.412 75.4425 423.46 75.2294 422.394 75.2294C421.281 75.2294 420.311 75.4543 419.482 75.9041C418.654 76.3539 418.014 76.9991 417.565 77.8395C417.115 78.6799 416.89 79.6802 416.89 80.8402H409.592C409.592 78.4609 410.131 76.3954 411.208 74.6435C412.285 72.8916 413.795 71.5362 415.736 70.5774C417.677 69.6186 419.914 69.1392 422.447 69.1392C425.052 69.1392 427.318 69.6009 429.248 70.5241C431.189 71.4356 432.698 72.7022 433.776 74.3239C434.853 75.9455 435.391 77.804 435.391 79.8991C435.391 81.2723 435.119 82.6276 434.575 83.9652C434.042 85.3028 433.089 86.7884 431.716 88.4219C430.343 90.0436 428.407 91.9908 425.91 94.2635L420.601 99.4659V99.7145H435.871V106H409.947Z" fill="black"/>
<path d="M233.607 87.4453H274.58" stroke="white" stroke-width="4" stroke-miterlimit="10"/>
<path d="M258.58 71.4453L274.58 87.4453L258.58 103.445" stroke="white" stroke-width="4" stroke-miterlimit="10"/>
<path d="M274.58 383L233.608 383" stroke="white" stroke-width="4" stroke-miterlimit="10"/>
<path d="M249.607 399L233.607 383L249.607 367" stroke="white" stroke-width="4" stroke-miterlimit="10"/>
<path d="M423 214L423 254.972" stroke="white" stroke-width="4" stroke-miterlimit="10"/>
<path d="M439 238.972L423 254.972L407 238.972" stroke="white" stroke-width="4" stroke-miterlimit="10"/>
</svg>
