<?xml version="1.0" encoding="UTF-8" standalone="no"?><svg width="22" height="38" viewBox="0 0 22 38" fill="none" xmlns="http://www.w3.org/2000/svg">
<path fill-rule="evenodd" clip-rule="evenodd" d="M19.209 3.79666C18.3539 4.88387 17.449 7.09607 16.6182 8.20274C16.499 8.36154 16.3822 8.52058 16.2664 8.68053C15.9216 9.16074 16.3822 9.89545 16.9492 9.86448C18.082 9.80448 19.2136 9.72053 20.3453 9.63531C18.0206 12.2136 16.0906 15.4163 13.9557 18.1477C13.811 18.3308 13.6687 18.5152 13.5264 18.6993C12.986 19.4006 13.5275 19.7186 14.2658 19.5296C14.4185 19.4906 14.5713 19.4514 14.724 19.4134C15.7978 19.1393 16.8705 18.8653 17.9443 18.5923C18.5379 18.4402 19.135 18.2526 19.7367 18.1363C19.9843 18.0891 20.2215 18.1282 20.4552 18.1409C20.343 18.3112 20.1856 18.6187 20.1544 18.6659C19.8038 19.2095 19.4509 19.7507 19.0956 20.2897C18.4037 21.3377 17.7082 22.3844 16.9873 23.4128C14.1755 27.4226 11.1427 31.2506 8.13649 35.1141C7.37974 36.0859 6.61256 37.0476 5.83266 38C5.83613 37.9941 5.83845 37.9884 5.84192 37.9827C6.54429 36.6214 7.24667 35.2615 7.94904 33.9002C9.28436 31.3139 10.607 28.7205 11.9562 26.141C12.0256 26.0062 12.0962 25.8727 12.1668 25.7379C12.4468 25.2035 11.9874 24.6485 11.4123 24.7613C8.60675 25.3114 5.82838 25.9874 3.08449 26.7878C2.96102 26.9188 2.77947 26.9571 2.61736 26.9254C2.50708 26.9583 2.39635 26.9898 2.28607 27.0231C2.31951 26.9541 2.35411 26.8858 2.38779 26.8171C2.27566 26.7201 2.21989 26.5701 2.29279 26.3827C3.87168 22.3282 6.03643 18.4141 8.60131 14.8294C8.4981 14.8314 8.39511 14.8329 8.29155 14.8359C5.47627 14.9119 2.71421 15.3138 0.000753676 16.0772C-0.0119747 15.8273 0.139609 15.4404 0.221764 15.2562C0.550388 14.5202 0.92761 13.8016 1.28053 13.0773C2.00258 11.5894 2.72462 10.1029 3.44667 8.61489C4.15252 7.16159 4.85258 5.7038 5.51677 4.22977C5.86506 3.45694 6.21335 2.68308 6.56049 1.90933C6.84399 1.2793 7.06731 0.644772 7.30221 0C7.99185 0.201527 16.8473 0.245172 18.9996 0.393842C19.5272 0.430693 20.056 0.464089 20.5848 0.492878C21.006 0.517062 21.5996 0.609188 21.8901 0.230317L22 0.322329C21.0442 1.46009 20.1278 2.62907 19.209 3.79666Z" fill="#FDEA6B"/>
</svg>
